<svg width="161" height="31" viewBox="0 0 161 31" fill="none" xmlns="http://www.w3.org/2000/svg">
<g filter="url(#filter0_d_2181_17233)">
<path d="M21.0611 2.38947C21.0611 2.38947 1.1236 -0.152403 1.31509 15.8659C1.52874 33.4537 21.4694 29.4642 21.4694 29.4642L21.0358 20.9759C21.0358 20.9759 8.59503 26.8405 8.57604 15.6899C8.55863 7.60595 21.1846 10.4688 21.1846 10.4688L21.0611 2.38947Z" fill="#FF5484"/>
</g>
<g filter="url(#filter1_d_2181_17233)">
<path d="M43.7524 12.5352L48.4654 11.7312L49.2029 16.4831C49.2029 16.4831 50.9833 9.09206 57.2551 10.0289C63.5269 10.9657 62.81 18.5373 62.81 18.5373L57.646 20.2951C57.646 20.2951 57.0272 14.9999 53.6753 16.8844C50.3234 18.7688 54.3574 28.2696 54.3574 28.2696L46.7704 28.7773C46.7704 28.7773 47.0284 22.5515 43.7524 12.5352Z" fill="#33E257"/>
</g>
<g filter="url(#filter2_d_2181_17233)">
<path d="M129.586 11.9751L135.558 12.114L137.41 28.0752L131.012 27.927L129.586 11.9751Z" fill="#33E257"/>
</g>
<g filter="url(#filter3_d_2181_17233)">
<path d="M134.076 1.82798C131.099 0.843333 125.055 4.07045 128.309 7.30374C130.534 9.51997 133.998 9.18815 135.544 6.48577C136.627 4.60136 136.366 2.5873 134.076 1.82798Z" fill="#33E257"/>
</g>
<g filter="url(#filter4_d_2181_17233)">
<path d="M124.57 6.89123L124.431 12.6016C124.431 12.6016 115.023 9.0164 115.015 13.722C115.007 18.4277 124.827 13.8764 126.107 18.2672C127.388 22.6579 126.364 33.006 111.054 27.45L110.853 22.6024C110.853 22.6024 120.487 25.6273 120.68 22.0375C120.959 16.8751 107.852 23.1503 109.86 10.7125C111.245 2.14701 124.57 6.89123 124.57 6.89123Z" fill="#FF5E3C"/>
</g>
<g filter="url(#filter5_d_2181_17233)">
<path d="M35.0704 22.9683C35.0704 22.9683 35.3268 25.5997 33.8312 25.6691C32.3357 25.7386 30.215 25.1691 30.2102 21.0083L41.4467 19.4989C41.4467 19.4989 39.8878 9.09217 32.6237 9.47955C25.3596 9.86692 21.9586 15.0494 24.7376 23.9329C26.977 31.094 40.4749 33.2099 40.1885 23.0856L35.0704 22.9683Z" fill="#FF5E3C"/>
</g>
<g filter="url(#filter6_d_2181_17233)">
<path d="M83.4709 1.22123L76.7544 1.06689L78.4398 15.1112C76.297 11.0708 63.201 10.0182 66.0956 22.7693C68.9902 35.5203 79.5793 25.4747 79.5793 25.4747L79.929 28.6031L85.6153 27.3175L83.4709 1.22123Z" fill="#18D2F8"/>
</g>
<g filter="url(#filter7_d_2181_17233)">
<path d="M87.7024 8.93775L89.1679 14.4552C89.1679 14.4552 99.1841 6.17518 100.526 16.8242C100.526 16.8242 89.6537 11.9889 88.7548 22.638C87.8559 33.287 101.689 26.0117 101.689 26.0117L101.626 28.6354L107.089 27.7094C107.089 27.7094 107.551 8.68002 99.6969 7.04254C91.8425 5.40506 87.7024 8.93775 87.7024 8.93775Z" fill="#FF5484"/>
</g>
<g filter="url(#filter8_d_2181_17233)">
<path d="M140.182 9.32035L141.649 14.8378C141.649 14.8378 151.662 6.55778 153.005 17.2068C153.005 17.2068 142.135 12.3715 141.236 23.0205C140.337 33.6696 154.17 26.3943 154.17 26.3943L154.105 29.0179L159.575 28.075C159.575 28.075 160.037 9.04563 152.182 7.40815C144.328 5.77067 140.182 9.32035 140.182 9.32035Z" fill="#18D2F8"/>
</g>
<g filter="url(#filter9_d_2181_17233)">
<path d="M29.5801 17.1638L29.4709 17.1252C29.4716 16.823 29.5301 16.5236 29.6434 16.2424C29.7659 15.9448 29.9495 15.6748 30.1831 15.4491C30.4158 15.2271 30.6828 15.0422 30.9744 14.9012C31.114 14.8307 31.2577 14.7684 31.4049 14.7145L31.6233 14.6373C31.6977 14.6126 31.7815 14.5941 31.8591 14.5725C32.1878 14.4919 32.5286 14.4689 32.8656 14.5046C33.3517 14.5594 33.8126 14.7448 34.1968 15.0402C34.5811 15.3357 34.8736 15.7294 35.0417 16.1776L34.8549 16.2933C34.445 15.9708 33.9762 15.7267 33.4733 15.5741C33.0258 15.448 32.5516 15.4426 32.1012 15.5587C31.9904 15.5896 31.867 15.625 31.742 15.6652C31.6169 15.7053 31.4982 15.7423 31.3827 15.7886C31.1515 15.8727 30.928 15.976 30.7149 16.0973C30.5017 16.2221 30.305 16.3719 30.1293 16.5433C29.9357 16.741 29.7524 16.9481 29.5801 17.1638Z" fill="#FF916C"/>
</g>
<g filter="url(#filter10_d_2181_17233)">
<path d="M70.6153 21.2571C70.5435 21.2558 70.4728 21.24 70.4076 21.2105C70.3425 21.181 70.2844 21.1385 70.2371 21.0857C69.8306 20.603 69.626 19.9884 69.6642 19.3649C69.6767 18.5466 70.005 17.763 70.5837 17.1703C70.8864 16.8683 71.2572 16.6394 71.6665 16.5017C72.0759 16.364 72.5125 16.3213 72.9417 16.377C73.0749 16.4014 73.1931 16.4754 73.2714 16.5831C73.3497 16.6909 73.382 16.8242 73.3614 16.9548C73.3409 17.0853 73.2691 17.203 73.1613 17.283C73.0535 17.3629 72.918 17.3989 72.7835 17.3833C72.5177 17.3515 72.2479 17.3804 71.9955 17.4677C71.7431 17.5551 71.515 17.6984 71.3291 17.8864C70.9363 18.2939 70.7149 18.8304 70.7087 19.3896C70.7087 19.6366 70.7356 20.098 71.0252 20.4098C71.0927 20.4839 71.1365 20.5756 71.1513 20.6736C71.1662 20.7717 71.1513 20.8718 71.1086 20.9617C71.066 21.0517 70.9973 21.1275 70.9111 21.18C70.8249 21.2324 70.7248 21.2592 70.6232 21.2571H70.6153Z" fill="#A2FEF9"/>
</g>
<g filter="url(#filter11_d_2181_17233)">
<path d="M93.7389 24.1332C93.6672 24.1314 93.5966 24.1152 93.5316 24.0857C93.4665 24.0563 93.4083 24.0141 93.3606 23.9619C92.9547 23.479 92.7507 22.8644 92.7893 22.2411C92.8018 21.4243 93.1289 20.642 93.7056 20.0496C94.0088 19.7483 94.3797 19.5198 94.7889 19.3822C95.1981 19.2445 95.6345 19.2014 96.0637 19.2563C96.1333 19.2644 96.2005 19.286 96.2613 19.3199C96.3221 19.3539 96.3753 19.3994 96.4177 19.4538C96.4601 19.5082 96.4909 19.5703 96.5081 19.6365C96.5254 19.7028 96.5288 19.7717 96.5182 19.8392C96.5076 19.9068 96.4831 19.9715 96.4463 20.0297C96.4095 20.0878 96.361 20.1381 96.3039 20.1776C96.2467 20.2171 96.182 20.245 96.1135 20.2596C96.0451 20.2742 95.9743 20.2752 95.9054 20.2625C95.6396 20.2303 95.3697 20.259 95.1172 20.3463C94.8647 20.4337 94.6366 20.5773 94.451 20.7657C94.0577 21.1728 93.8362 21.7096 93.8307 22.2689C93.8307 22.5158 93.8576 22.9773 94.1472 23.2875C94.2144 23.3618 94.2581 23.4535 94.2728 23.5516C94.2875 23.6497 94.2726 23.7498 94.23 23.8397C94.1874 23.9297 94.1189 24.0056 94.0328 24.0583C93.9467 24.111 93.8468 24.1381 93.7452 24.1363L93.7389 24.1332Z" fill="#FFBBBA"/>
</g>
<g filter="url(#filter12_d_2181_17233)">
<path d="M146.218 24.5163C146.146 24.5144 146.076 24.4983 146.011 24.4688C145.945 24.4394 145.887 24.3972 145.84 24.345C145.432 23.8627 145.228 23.2478 145.267 22.6242C145.279 21.8059 145.608 21.0223 146.186 20.4296C146.489 20.1279 146.86 19.8991 147.269 19.7615C147.678 19.6238 148.115 19.5809 148.544 19.6363C148.614 19.6444 148.681 19.666 148.742 19.6999C148.803 19.7339 148.856 19.7794 148.898 19.8338C148.941 19.8881 148.971 19.9503 148.989 20.0165C149.006 20.0828 149.009 20.1517 148.999 20.2192C148.988 20.2868 148.964 20.3515 148.927 20.4097C148.89 20.4678 148.842 20.5181 148.784 20.5576C148.727 20.5971 148.663 20.625 148.594 20.6396C148.526 20.6542 148.455 20.6552 148.386 20.6425C148.12 20.6102 147.85 20.6388 147.598 20.7261C147.345 20.8135 147.117 20.9571 146.932 21.1457C146.538 21.5525 146.316 22.0894 146.311 22.6489C146.311 22.8958 146.338 23.3573 146.628 23.6675C146.695 23.7418 146.739 23.8335 146.753 23.9316C146.768 24.0296 146.753 24.1298 146.711 24.2197C146.668 24.3097 146.599 24.3856 146.513 24.4383C146.427 24.491 146.327 24.5181 146.226 24.5163H146.218Z" fill="#A2FEF9"/>
</g>
<g filter="url(#filter13_d_2181_17233)">
<path d="M85.1927 22.1792C84.8762 22.4879 84.634 22.8675 84.2748 23.1253C83.0166 24.0297 81.252 22.9277 79.7011 23.1253C78.3575 23.2919 77.381 24.3908 76.2859 25.1686C73.4578 27.175 69.237 26.8092 66.6194 24.6223C70.0837 34.4904 79.5777 25.4819 79.5777 25.4819L79.9274 28.6103L85.6137 27.3247L85.1927 22.1792Z" fill="#11A5D3"/>
</g>
<g filter="url(#filter14_d_2181_17233)">
<path d="M40.1221 24.5655C38.5316 27.2185 35.6355 28.2263 32.9847 28.1939C29.5583 28.1522 27.0563 26.8049 24.4561 22.9604C24.5431 23.2799 24.6349 23.6025 24.7378 23.9328C26.8616 30.7219 39.0998 32.9736 40.1221 24.5655Z" fill="#DB3D2B"/>
</g>
<g filter="url(#filter15_d_2181_17233)">
<path d="M21.4693 29.4641L21.2557 25.1952C12.5783 28.981 4.70488 25.5672 2.17114 21.2844C6.00735 32.5508 21.4693 29.4641 21.4693 29.4641Z" fill="#DB3D78"/>
</g>
<g filter="url(#filter16_d_2181_17233)">
<path d="M46.7702 28.7774L54.3571 28.2696C54.3571 28.2696 54.0659 27.5797 53.7035 26.5395C51.0321 26.2185 48.4556 25.2261 46.3777 23.564C46.8461 26.9037 46.7702 28.7774 46.7702 28.7774Z" fill="#26C254"/>
</g>
<g filter="url(#filter17_d_2181_17233)">
<path d="M107.089 27.697C107.089 27.697 107.129 26.0271 106.983 23.6349C104.241 22.9327 101.398 24.1566 98.7144 25.0857C95.9923 26.0287 92.6562 26.5781 90.4659 24.7431C89.8123 24.1936 89.3264 23.4791 88.7408 22.8633C88.0587 33.1774 101.69 26.0117 101.69 26.0117L101.626 28.6354L107.089 27.697Z" fill="#DB3D78"/>
</g>
<g filter="url(#filter18_d_2181_17233)">
<path d="M154.17 26.3946L154.105 29.0183L159.575 28.0753C159.575 28.0753 159.608 26.6508 159.499 24.5488C157.462 24.8866 155.37 24.4598 153.643 23.3542C152.472 24.3242 151.106 25.0459 149.633 25.4734C148.16 25.9009 146.612 26.0249 145.088 25.8375C143.969 25.6924 142.859 25.3745 141.734 25.4516C141.604 25.4594 141.474 25.4748 141.345 25.4918C142.739 32.4044 154.17 26.3946 154.17 26.3946Z" fill="#11A5D3"/>
</g>
<g filter="url(#filter19_d_2181_17233)">
<path d="M137.167 25.9808C135.343 25.8054 133.636 25.0304 132.324 23.7831C131.724 23.2012 131.153 22.4928 130.483 22.0098L131.012 27.9207L137.418 28.0751L137.167 25.9808Z" fill="#26C254"/>
</g>
<g filter="url(#filter20_d_2181_17233)">
<path d="M126.405 22.6919C126.18 22.8848 125.96 23.0808 125.743 23.2676C121.8 26.6629 115.773 27.5411 110.971 25.4514L111.054 27.45C122.238 31.509 125.797 27.0858 126.405 22.6919Z" fill="#DB3D2B"/>
</g>
<g filter="url(#filter21_d_2181_17233)">
<path d="M3.17944 8.4996C8.98282 3.8449 13.0485 4.10264 21.0976 4.34957L21.0675 2.38953C21.0675 2.38953 8.09815 0.739709 3.17944 8.4996Z" fill="#FF7D95"/>
</g>
<g filter="url(#filter22_d_2181_17233)">
<path d="M32.6239 9.47941C28.1182 9.72017 25.1002 11.8068 24.1206 15.4768C27.3317 12.188 32.4957 10.6925 36.9776 12.0429C37.5822 12.225 38.1709 12.4519 38.758 12.6818C37.4144 10.8129 35.452 9.32971 32.6239 9.47941Z" fill="#FF916C"/>
</g>
<g filter="url(#filter23_d_2181_17233)">
<path d="M58.8426 12.3052C60.0216 12.9627 61.0091 13.9782 62.3021 14.3779C61.658 12.4456 60.2606 10.4733 57.2552 10.0288C53.2133 9.42842 51.0388 12.282 50.0022 14.3872C51.8744 11.7419 55.9417 10.6878 58.8426 12.3052Z" fill="#84F685"/>
</g>
<g filter="url(#filter24_d_2181_17233)">
<path d="M48.4654 11.7312L43.7524 12.5353C43.8933 12.969 44.0262 13.3918 44.156 13.8116C45.7277 13.7019 47.2449 13.2043 48.5651 12.3655L48.4654 11.7312Z" fill="#84F685"/>
</g>
<g filter="url(#filter25_d_2181_17233)">
<path d="M152.178 7.4133C144.323 5.77428 140.182 9.32087 140.182 9.32087L140.868 11.8998C142.877 9.80239 145.976 8.71279 148.971 8.62945C151.204 8.57235 153.403 8.98905 155.544 9.61719C154.637 8.49364 153.531 7.70345 152.178 7.4133Z" fill="#73FAFD"/>
</g>
<g filter="url(#filter26_d_2181_17233)">
<path d="M129.833 4.27497C131.573 3.02641 134.014 2.63132 135.976 3.44157C135.698 2.73935 135.084 2.16215 134.077 1.82724C131.328 0.912044 125.979 3.59745 127.725 6.55757C128.266 5.66849 128.982 4.89272 129.833 4.27497Z" fill="#84F685"/>
</g>
<g filter="url(#filter27_d_2181_17233)">
<path d="M112.195 7.62121C116.241 6.23221 120.923 6.84955 124.517 9.10127L124.57 6.89122C124.57 6.89122 114.318 3.2366 110.865 8.12589C111.305 7.94994 111.747 7.774 112.195 7.62121Z" fill="#FF916C"/>
</g>
<g filter="url(#filter28_d_2181_17233)">
<path d="M99.4896 7.89006C100.422 8.01044 101.357 8.20798 102.289 8.40707C101.574 7.72151 100.676 7.24469 99.6969 7.03042C91.8393 5.38831 87.7024 8.93798 87.7024 8.93798L88.106 10.4613C91.467 8.31305 95.5023 7.40159 99.4896 7.89006Z" fill="#FF7D95"/>
</g>
<g filter="url(#filter29_d_2181_17233)">
<path d="M65.9624 17.0265C68.7937 13.9352 73.9561 12.9845 77.6625 15.1113C77.7591 14.8622 77.8265 14.6034 77.8635 14.3396C75.2522 11.6604 67.5434 11.0492 65.9624 17.0265Z" fill="#73FAFD"/>
</g>
<g filter="url(#filter30_d_2181_17233)">
<path d="M76.7544 1.06689L77.1706 4.54557C77.8638 1.64719 82.5973 2.80623 83.4709 1.22123L76.7544 1.06689Z" fill="#73FAFD"/>
</g>
<defs>
<filter id="filter0_d_2181_17233" x="0.563505" y="1.49173" width="21.6562" height="29.1113" filterUnits="userSpaceOnUse" color-interpolation-filters="sRGB">
<feFlood flood-opacity="0" result="BackgroundImageFix"/>
<feColorMatrix in="SourceAlpha" type="matrix" values="0 0 0 0 0 0 0 0 0 0 0 0 0 0 0 0 0 0 127 0" result="hardAlpha"/>
<feOffset/>
<feGaussianBlur stdDeviation="0.375108"/>
<feComposite in2="hardAlpha" operator="out"/>
<feColorMatrix type="matrix" values="0 0 0 0 1 0 0 0 0 1 0 0 0 0 1 0 0 0 0.1 0"/>
<feBlend mode="normal" in2="BackgroundImageFix" result="effect1_dropShadow_2181_17233"/>
<feBlend mode="normal" in="SourceGraphic" in2="effect1_dropShadow_2181_17233" result="shape"/>
</filter>
<filter id="filter1_d_2181_17233" x="43.0022" y="9.19656" width="20.583" height="20.331" filterUnits="userSpaceOnUse" color-interpolation-filters="sRGB">
<feFlood flood-opacity="0" result="BackgroundImageFix"/>
<feColorMatrix in="SourceAlpha" type="matrix" values="0 0 0 0 0 0 0 0 0 0 0 0 0 0 0 0 0 0 127 0" result="hardAlpha"/>
<feOffset/>
<feGaussianBlur stdDeviation="0.375108"/>
<feComposite in2="hardAlpha" operator="out"/>
<feColorMatrix type="matrix" values="0 0 0 0 1 0 0 0 0 1 0 0 0 0 1 0 0 0 0.1 0"/>
<feBlend mode="normal" in2="BackgroundImageFix" result="effect1_dropShadow_2181_17233"/>
<feBlend mode="normal" in="SourceGraphic" in2="effect1_dropShadow_2181_17233" result="shape"/>
</filter>
<filter id="filter2_d_2181_17233" x="128.835" y="11.2249" width="9.32489" height="17.6005" filterUnits="userSpaceOnUse" color-interpolation-filters="sRGB">
<feFlood flood-opacity="0" result="BackgroundImageFix"/>
<feColorMatrix in="SourceAlpha" type="matrix" values="0 0 0 0 0 0 0 0 0 0 0 0 0 0 0 0 0 0 127 0" result="hardAlpha"/>
<feOffset/>
<feGaussianBlur stdDeviation="0.375108"/>
<feComposite in2="hardAlpha" operator="out"/>
<feColorMatrix type="matrix" values="0 0 0 0 1 0 0 0 0 1 0 0 0 0 1 0 0 0 0.1 0"/>
<feBlend mode="normal" in2="BackgroundImageFix" result="effect1_dropShadow_2181_17233"/>
<feBlend mode="normal" in="SourceGraphic" in2="effect1_dropShadow_2181_17233" result="shape"/>
</filter>
<filter id="filter3_d_2181_17233" x="126.623" y="0.897734" width="10.2866" height="8.61689" filterUnits="userSpaceOnUse" color-interpolation-filters="sRGB">
<feFlood flood-opacity="0" result="BackgroundImageFix"/>
<feColorMatrix in="SourceAlpha" type="matrix" values="0 0 0 0 0 0 0 0 0 0 0 0 0 0 0 0 0 0 127 0" result="hardAlpha"/>
<feOffset/>
<feGaussianBlur stdDeviation="0.375108"/>
<feComposite in2="hardAlpha" operator="out"/>
<feColorMatrix type="matrix" values="0 0 0 0 1 0 0 0 0 1 0 0 0 0 1 0 0 0 0.1 0"/>
<feBlend mode="normal" in2="BackgroundImageFix" result="effect1_dropShadow_2181_17233"/>
<feBlend mode="normal" in="SourceGraphic" in2="effect1_dropShadow_2181_17233" result="shape"/>
</filter>
<filter id="filter4_d_2181_17233" x="108.901" y="4.83059" width="18.3549" height="24.9699" filterUnits="userSpaceOnUse" color-interpolation-filters="sRGB">
<feFlood flood-opacity="0" result="BackgroundImageFix"/>
<feColorMatrix in="SourceAlpha" type="matrix" values="0 0 0 0 0 0 0 0 0 0 0 0 0 0 0 0 0 0 127 0" result="hardAlpha"/>
<feOffset/>
<feGaussianBlur stdDeviation="0.375108"/>
<feComposite in2="hardAlpha" operator="out"/>
<feColorMatrix type="matrix" values="0 0 0 0 1 0 0 0 0 1 0 0 0 0 1 0 0 0 0.1 0"/>
<feBlend mode="normal" in2="BackgroundImageFix" result="effect1_dropShadow_2181_17233"/>
<feBlend mode="normal" in="SourceGraphic" in2="effect1_dropShadow_2181_17233" result="shape"/>
</filter>
<filter id="filter5_d_2181_17233" x="23.022" y="8.71878" width="19.175" height="22.0314" filterUnits="userSpaceOnUse" color-interpolation-filters="sRGB">
<feFlood flood-opacity="0" result="BackgroundImageFix"/>
<feColorMatrix in="SourceAlpha" type="matrix" values="0 0 0 0 0 0 0 0 0 0 0 0 0 0 0 0 0 0 127 0" result="hardAlpha"/>
<feOffset/>
<feGaussianBlur stdDeviation="0.375108"/>
<feComposite in2="hardAlpha" operator="out"/>
<feColorMatrix type="matrix" values="0 0 0 0 1 0 0 0 0 1 0 0 0 0 1 0 0 0 0.1 0"/>
<feBlend mode="normal" in2="BackgroundImageFix" result="effect1_dropShadow_2181_17233"/>
<feBlend mode="normal" in="SourceGraphic" in2="effect1_dropShadow_2181_17233" result="shape"/>
</filter>
<filter id="filter6_d_2181_17233" x="64.9297" y="0.316679" width="21.4357" height="29.6677" filterUnits="userSpaceOnUse" color-interpolation-filters="sRGB">
<feFlood flood-opacity="0" result="BackgroundImageFix"/>
<feColorMatrix in="SourceAlpha" type="matrix" values="0 0 0 0 0 0 0 0 0 0 0 0 0 0 0 0 0 0 127 0" result="hardAlpha"/>
<feOffset/>
<feGaussianBlur stdDeviation="0.375108"/>
<feComposite in2="hardAlpha" operator="out"/>
<feColorMatrix type="matrix" values="0 0 0 0 1 0 0 0 0 1 0 0 0 0 1 0 0 0 0.1 0"/>
<feBlend mode="normal" in2="BackgroundImageFix" result="effect1_dropShadow_2181_17233"/>
<feBlend mode="normal" in="SourceGraphic" in2="effect1_dropShadow_2181_17233" result="shape"/>
</filter>
<filter id="filter7_d_2181_17233" x="86.9522" y="5.85916" width="20.8923" height="23.5263" filterUnits="userSpaceOnUse" color-interpolation-filters="sRGB">
<feFlood flood-opacity="0" result="BackgroundImageFix"/>
<feColorMatrix in="SourceAlpha" type="matrix" values="0 0 0 0 0 0 0 0 0 0 0 0 0 0 0 0 0 0 127 0" result="hardAlpha"/>
<feOffset/>
<feGaussianBlur stdDeviation="0.375108"/>
<feComposite in2="hardAlpha" operator="out"/>
<feColorMatrix type="matrix" values="0 0 0 0 1 0 0 0 0 1 0 0 0 0 1 0 0 0 0.1 0"/>
<feBlend mode="normal" in2="BackgroundImageFix" result="effect1_dropShadow_2181_17233"/>
<feBlend mode="normal" in="SourceGraphic" in2="effect1_dropShadow_2181_17233" result="shape"/>
</filter>
<filter id="filter8_d_2181_17233" x="139.431" y="6.22635" width="20.8986" height="23.5417" filterUnits="userSpaceOnUse" color-interpolation-filters="sRGB">
<feFlood flood-opacity="0" result="BackgroundImageFix"/>
<feColorMatrix in="SourceAlpha" type="matrix" values="0 0 0 0 0 0 0 0 0 0 0 0 0 0 0 0 0 0 127 0" result="hardAlpha"/>
<feOffset/>
<feGaussianBlur stdDeviation="0.375108"/>
<feComposite in2="hardAlpha" operator="out"/>
<feColorMatrix type="matrix" values="0 0 0 0 1 0 0 0 0 1 0 0 0 0 1 0 0 0 0.1 0"/>
<feBlend mode="normal" in2="BackgroundImageFix" result="effect1_dropShadow_2181_17233"/>
<feBlend mode="normal" in="SourceGraphic" in2="effect1_dropShadow_2181_17233" result="shape"/>
</filter>
<filter id="filter9_d_2181_17233" x="28.7207" y="13.7381" width="7.07123" height="4.17597" filterUnits="userSpaceOnUse" color-interpolation-filters="sRGB">
<feFlood flood-opacity="0" result="BackgroundImageFix"/>
<feColorMatrix in="SourceAlpha" type="matrix" values="0 0 0 0 0 0 0 0 0 0 0 0 0 0 0 0 0 0 127 0" result="hardAlpha"/>
<feOffset/>
<feGaussianBlur stdDeviation="0.375108"/>
<feComposite in2="hardAlpha" operator="out"/>
<feColorMatrix type="matrix" values="0 0 0 0 1 0 0 0 0 1 0 0 0 0 1 0 0 0 0.1 0"/>
<feBlend mode="normal" in2="BackgroundImageFix" result="effect1_dropShadow_2181_17233"/>
<feBlend mode="normal" in="SourceGraphic" in2="effect1_dropShadow_2181_17233" result="shape"/>
</filter>
<filter id="filter10_d_2181_17233" x="68.9095" y="15.6031" width="5.20819" height="6.40424" filterUnits="userSpaceOnUse" color-interpolation-filters="sRGB">
<feFlood flood-opacity="0" result="BackgroundImageFix"/>
<feColorMatrix in="SourceAlpha" type="matrix" values="0 0 0 0 0 0 0 0 0 0 0 0 0 0 0 0 0 0 127 0" result="hardAlpha"/>
<feOffset/>
<feGaussianBlur stdDeviation="0.375108"/>
<feComposite in2="hardAlpha" operator="out"/>
<feColorMatrix type="matrix" values="0 0 0 0 1 0 0 0 0 1 0 0 0 0 1 0 0 0 0.1 0"/>
<feBlend mode="normal" in2="BackgroundImageFix" result="effect1_dropShadow_2181_17233"/>
<feBlend mode="normal" in="SourceGraphic" in2="effect1_dropShadow_2181_17233" result="shape"/>
</filter>
<filter id="filter11_d_2181_17233" x="92.0345" y="18.4829" width="5.23993" height="6.40375" filterUnits="userSpaceOnUse" color-interpolation-filters="sRGB">
<feFlood flood-opacity="0" result="BackgroundImageFix"/>
<feColorMatrix in="SourceAlpha" type="matrix" values="0 0 0 0 0 0 0 0 0 0 0 0 0 0 0 0 0 0 127 0" result="hardAlpha"/>
<feOffset/>
<feGaussianBlur stdDeviation="0.375108"/>
<feComposite in2="hardAlpha" operator="out"/>
<feColorMatrix type="matrix" values="0 0 0 0 1 0 0 0 0 1 0 0 0 0 1 0 0 0 0.1 0"/>
<feBlend mode="normal" in2="BackgroundImageFix" result="effect1_dropShadow_2181_17233"/>
<feBlend mode="normal" in="SourceGraphic" in2="effect1_dropShadow_2181_17233" result="shape"/>
</filter>
<filter id="filter12_d_2181_17233" x="144.512" y="18.8626" width="5.24335" height="6.404" filterUnits="userSpaceOnUse" color-interpolation-filters="sRGB">
<feFlood flood-opacity="0" result="BackgroundImageFix"/>
<feColorMatrix in="SourceAlpha" type="matrix" values="0 0 0 0 0 0 0 0 0 0 0 0 0 0 0 0 0 0 127 0" result="hardAlpha"/>
<feOffset/>
<feGaussianBlur stdDeviation="0.375108"/>
<feComposite in2="hardAlpha" operator="out"/>
<feColorMatrix type="matrix" values="0 0 0 0 1 0 0 0 0 1 0 0 0 0 1 0 0 0 0.1 0"/>
<feBlend mode="normal" in2="BackgroundImageFix" result="effect1_dropShadow_2181_17233"/>
<feBlend mode="normal" in="SourceGraphic" in2="effect1_dropShadow_2181_17233" result="shape"/>
</filter>
<filter id="filter13_d_2181_17233" x="65.8692" y="21.429" width="20.4948" height="8.56391" filterUnits="userSpaceOnUse" color-interpolation-filters="sRGB">
<feFlood flood-opacity="0" result="BackgroundImageFix"/>
<feColorMatrix in="SourceAlpha" type="matrix" values="0 0 0 0 0 0 0 0 0 0 0 0 0 0 0 0 0 0 127 0" result="hardAlpha"/>
<feOffset/>
<feGaussianBlur stdDeviation="0.375108"/>
<feComposite in2="hardAlpha" operator="out"/>
<feColorMatrix type="matrix" values="0 0 0 0 1 0 0 0 0 1 0 0 0 0 1 0 0 0 0.1 0"/>
<feBlend mode="normal" in2="BackgroundImageFix" result="effect1_dropShadow_2181_17233"/>
<feBlend mode="normal" in="SourceGraphic" in2="effect1_dropShadow_2181_17233" result="shape"/>
</filter>
<filter id="filter14_d_2181_17233" x="23.7058" y="22.2102" width="17.1664" height="8.53876" filterUnits="userSpaceOnUse" color-interpolation-filters="sRGB">
<feFlood flood-opacity="0" result="BackgroundImageFix"/>
<feColorMatrix in="SourceAlpha" type="matrix" values="0 0 0 0 0 0 0 0 0 0 0 0 0 0 0 0 0 0 127 0" result="hardAlpha"/>
<feOffset/>
<feGaussianBlur stdDeviation="0.375108"/>
<feComposite in2="hardAlpha" operator="out"/>
<feColorMatrix type="matrix" values="0 0 0 0 1 0 0 0 0 1 0 0 0 0 1 0 0 0 0.1 0"/>
<feBlend mode="normal" in2="BackgroundImageFix" result="effect1_dropShadow_2181_17233"/>
<feBlend mode="normal" in="SourceGraphic" in2="effect1_dropShadow_2181_17233" result="shape"/>
</filter>
<filter id="filter15_d_2181_17233" x="1.42093" y="20.5342" width="20.7985" height="10.0668" filterUnits="userSpaceOnUse" color-interpolation-filters="sRGB">
<feFlood flood-opacity="0" result="BackgroundImageFix"/>
<feColorMatrix in="SourceAlpha" type="matrix" values="0 0 0 0 0 0 0 0 0 0 0 0 0 0 0 0 0 0 127 0" result="hardAlpha"/>
<feOffset/>
<feGaussianBlur stdDeviation="0.375108"/>
<feComposite in2="hardAlpha" operator="out"/>
<feColorMatrix type="matrix" values="0 0 0 0 1 0 0 0 0 1 0 0 0 0 1 0 0 0 0.1 0"/>
<feBlend mode="normal" in2="BackgroundImageFix" result="effect1_dropShadow_2181_17233"/>
<feBlend mode="normal" in="SourceGraphic" in2="effect1_dropShadow_2181_17233" result="shape"/>
</filter>
<filter id="filter16_d_2181_17233" x="45.6275" y="22.8137" width="9.47992" height="6.71381" filterUnits="userSpaceOnUse" color-interpolation-filters="sRGB">
<feFlood flood-opacity="0" result="BackgroundImageFix"/>
<feColorMatrix in="SourceAlpha" type="matrix" values="0 0 0 0 0 0 0 0 0 0 0 0 0 0 0 0 0 0 127 0" result="hardAlpha"/>
<feOffset/>
<feGaussianBlur stdDeviation="0.375108"/>
<feComposite in2="hardAlpha" operator="out"/>
<feColorMatrix type="matrix" values="0 0 0 0 1 0 0 0 0 1 0 0 0 0 1 0 0 0 0.1 0"/>
<feBlend mode="normal" in2="BackgroundImageFix" result="effect1_dropShadow_2181_17233"/>
<feBlend mode="normal" in="SourceGraphic" in2="effect1_dropShadow_2181_17233" result="shape"/>
</filter>
<filter id="filter17_d_2181_17233" x="87.9658" y="22.1131" width="19.8786" height="7.2724" filterUnits="userSpaceOnUse" color-interpolation-filters="sRGB">
<feFlood flood-opacity="0" result="BackgroundImageFix"/>
<feColorMatrix in="SourceAlpha" type="matrix" values="0 0 0 0 0 0 0 0 0 0 0 0 0 0 0 0 0 0 127 0" result="hardAlpha"/>
<feOffset/>
<feGaussianBlur stdDeviation="0.375108"/>
<feComposite in2="hardAlpha" operator="out"/>
<feColorMatrix type="matrix" values="0 0 0 0 1 0 0 0 0 1 0 0 0 0 1 0 0 0 0.1 0"/>
<feBlend mode="normal" in2="BackgroundImageFix" result="effect1_dropShadow_2181_17233"/>
<feBlend mode="normal" in="SourceGraphic" in2="effect1_dropShadow_2181_17233" result="shape"/>
</filter>
<filter id="filter18_d_2181_17233" x="140.595" y="22.604" width="19.7351" height="7.16449" filterUnits="userSpaceOnUse" color-interpolation-filters="sRGB">
<feFlood flood-opacity="0" result="BackgroundImageFix"/>
<feColorMatrix in="SourceAlpha" type="matrix" values="0 0 0 0 0 0 0 0 0 0 0 0 0 0 0 0 0 0 127 0" result="hardAlpha"/>
<feOffset/>
<feGaussianBlur stdDeviation="0.375108"/>
<feComposite in2="hardAlpha" operator="out"/>
<feColorMatrix type="matrix" values="0 0 0 0 1 0 0 0 0 1 0 0 0 0 1 0 0 0 0.1 0"/>
<feBlend mode="normal" in2="BackgroundImageFix" result="effect1_dropShadow_2181_17233"/>
<feBlend mode="normal" in="SourceGraphic" in2="effect1_dropShadow_2181_17233" result="shape"/>
</filter>
<filter id="filter19_d_2181_17233" x="129.733" y="21.2595" width="8.43525" height="7.56586" filterUnits="userSpaceOnUse" color-interpolation-filters="sRGB">
<feFlood flood-opacity="0" result="BackgroundImageFix"/>
<feColorMatrix in="SourceAlpha" type="matrix" values="0 0 0 0 0 0 0 0 0 0 0 0 0 0 0 0 0 0 127 0" result="hardAlpha"/>
<feOffset/>
<feGaussianBlur stdDeviation="0.375108"/>
<feComposite in2="hardAlpha" operator="out"/>
<feColorMatrix type="matrix" values="0 0 0 0 1 0 0 0 0 1 0 0 0 0 1 0 0 0 0.1 0"/>
<feBlend mode="normal" in2="BackgroundImageFix" result="effect1_dropShadow_2181_17233"/>
<feBlend mode="normal" in="SourceGraphic" in2="effect1_dropShadow_2181_17233" result="shape"/>
</filter>
<filter id="filter20_d_2181_17233" x="110.221" y="21.9417" width="16.9338" height="7.86005" filterUnits="userSpaceOnUse" color-interpolation-filters="sRGB">
<feFlood flood-opacity="0" result="BackgroundImageFix"/>
<feColorMatrix in="SourceAlpha" type="matrix" values="0 0 0 0 0 0 0 0 0 0 0 0 0 0 0 0 0 0 127 0" result="hardAlpha"/>
<feOffset/>
<feGaussianBlur stdDeviation="0.375108"/>
<feComposite in2="hardAlpha" operator="out"/>
<feColorMatrix type="matrix" values="0 0 0 0 1 0 0 0 0 1 0 0 0 0 1 0 0 0 0.1 0"/>
<feBlend mode="normal" in2="BackgroundImageFix" result="effect1_dropShadow_2181_17233"/>
<feBlend mode="normal" in="SourceGraphic" in2="effect1_dropShadow_2181_17233" result="shape"/>
</filter>
<filter id="filter21_d_2181_17233" x="2.42923" y="1.49246" width="19.4186" height="7.75727" filterUnits="userSpaceOnUse" color-interpolation-filters="sRGB">
<feFlood flood-opacity="0" result="BackgroundImageFix"/>
<feColorMatrix in="SourceAlpha" type="matrix" values="0 0 0 0 0 0 0 0 0 0 0 0 0 0 0 0 0 0 127 0" result="hardAlpha"/>
<feOffset/>
<feGaussianBlur stdDeviation="0.375108"/>
<feComposite in2="hardAlpha" operator="out"/>
<feColorMatrix type="matrix" values="0 0 0 0 1 0 0 0 0 1 0 0 0 0 1 0 0 0 0.1 0"/>
<feBlend mode="normal" in2="BackgroundImageFix" result="effect1_dropShadow_2181_17233"/>
<feBlend mode="normal" in="SourceGraphic" in2="effect1_dropShadow_2181_17233" result="shape"/>
</filter>
<filter id="filter22_d_2181_17233" x="23.3704" y="8.71878" width="16.1379" height="7.50824" filterUnits="userSpaceOnUse" color-interpolation-filters="sRGB">
<feFlood flood-opacity="0" result="BackgroundImageFix"/>
<feColorMatrix in="SourceAlpha" type="matrix" values="0 0 0 0 0 0 0 0 0 0 0 0 0 0 0 0 0 0 127 0" result="hardAlpha"/>
<feOffset/>
<feGaussianBlur stdDeviation="0.375108"/>
<feComposite in2="hardAlpha" operator="out"/>
<feColorMatrix type="matrix" values="0 0 0 0 1 0 0 0 0 1 0 0 0 0 1 0 0 0 0.1 0"/>
<feBlend mode="normal" in2="BackgroundImageFix" result="effect1_dropShadow_2181_17233"/>
<feBlend mode="normal" in="SourceGraphic" in2="effect1_dropShadow_2181_17233" result="shape"/>
</filter>
<filter id="filter23_d_2181_17233" x="49.252" y="9.19729" width="13.8002" height="5.94013" filterUnits="userSpaceOnUse" color-interpolation-filters="sRGB">
<feFlood flood-opacity="0" result="BackgroundImageFix"/>
<feColorMatrix in="SourceAlpha" type="matrix" values="0 0 0 0 0 0 0 0 0 0 0 0 0 0 0 0 0 0 127 0" result="hardAlpha"/>
<feOffset/>
<feGaussianBlur stdDeviation="0.375108"/>
<feComposite in2="hardAlpha" operator="out"/>
<feColorMatrix type="matrix" values="0 0 0 0 1 0 0 0 0 1 0 0 0 0 1 0 0 0 0.1 0"/>
<feBlend mode="normal" in2="BackgroundImageFix" result="effect1_dropShadow_2181_17233"/>
<feBlend mode="normal" in="SourceGraphic" in2="effect1_dropShadow_2181_17233" result="shape"/>
</filter>
<filter id="filter24_d_2181_17233" x="43.0022" y="10.981" width="6.31318" height="3.58075" filterUnits="userSpaceOnUse" color-interpolation-filters="sRGB">
<feFlood flood-opacity="0" result="BackgroundImageFix"/>
<feColorMatrix in="SourceAlpha" type="matrix" values="0 0 0 0 0 0 0 0 0 0 0 0 0 0 0 0 0 0 127 0" result="hardAlpha"/>
<feOffset/>
<feGaussianBlur stdDeviation="0.375108"/>
<feComposite in2="hardAlpha" operator="out"/>
<feColorMatrix type="matrix" values="0 0 0 0 1 0 0 0 0 1 0 0 0 0 1 0 0 0 0.1 0"/>
<feBlend mode="normal" in2="BackgroundImageFix" result="effect1_dropShadow_2181_17233"/>
<feBlend mode="normal" in="SourceGraphic" in2="effect1_dropShadow_2181_17233" result="shape"/>
</filter>
<filter id="filter25_d_2181_17233" x="139.431" y="6.2305" width="16.8627" height="6.41962" filterUnits="userSpaceOnUse" color-interpolation-filters="sRGB">
<feFlood flood-opacity="0" result="BackgroundImageFix"/>
<feColorMatrix in="SourceAlpha" type="matrix" values="0 0 0 0 0 0 0 0 0 0 0 0 0 0 0 0 0 0 127 0" result="hardAlpha"/>
<feOffset/>
<feGaussianBlur stdDeviation="0.375108"/>
<feComposite in2="hardAlpha" operator="out"/>
<feColorMatrix type="matrix" values="0 0 0 0 1 0 0 0 0 1 0 0 0 0 1 0 0 0 0.1 0"/>
<feBlend mode="normal" in2="BackgroundImageFix" result="effect1_dropShadow_2181_17233"/>
<feBlend mode="normal" in="SourceGraphic" in2="effect1_dropShadow_2181_17233" result="shape"/>
</filter>
<filter id="filter26_d_2181_17233" x="126.631" y="0.895048" width="10.0949" height="6.41278" filterUnits="userSpaceOnUse" color-interpolation-filters="sRGB">
<feFlood flood-opacity="0" result="BackgroundImageFix"/>
<feColorMatrix in="SourceAlpha" type="matrix" values="0 0 0 0 0 0 0 0 0 0 0 0 0 0 0 0 0 0 127 0" result="hardAlpha"/>
<feOffset/>
<feGaussianBlur stdDeviation="0.375108"/>
<feComposite in2="hardAlpha" operator="out"/>
<feColorMatrix type="matrix" values="0 0 0 0 1 0 0 0 0 1 0 0 0 0 1 0 0 0 0.1 0"/>
<feBlend mode="normal" in2="BackgroundImageFix" result="effect1_dropShadow_2181_17233"/>
<feBlend mode="normal" in="SourceGraphic" in2="effect1_dropShadow_2181_17233" result="shape"/>
</filter>
<filter id="filter27_d_2181_17233" x="110.115" y="4.82889" width="15.2058" height="5.02265" filterUnits="userSpaceOnUse" color-interpolation-filters="sRGB">
<feFlood flood-opacity="0" result="BackgroundImageFix"/>
<feColorMatrix in="SourceAlpha" type="matrix" values="0 0 0 0 0 0 0 0 0 0 0 0 0 0 0 0 0 0 127 0" result="hardAlpha"/>
<feOffset/>
<feGaussianBlur stdDeviation="0.375108"/>
<feComposite in2="hardAlpha" operator="out"/>
<feColorMatrix type="matrix" values="0 0 0 0 1 0 0 0 0 1 0 0 0 0 1 0 0 0 0.1 0"/>
<feBlend mode="normal" in2="BackgroundImageFix" result="effect1_dropShadow_2181_17233"/>
<feBlend mode="normal" in="SourceGraphic" in2="effect1_dropShadow_2181_17233" result="shape"/>
</filter>
<filter id="filter28_d_2181_17233" x="86.9522" y="5.84646" width="16.0871" height="5.36493" filterUnits="userSpaceOnUse" color-interpolation-filters="sRGB">
<feFlood flood-opacity="0" result="BackgroundImageFix"/>
<feColorMatrix in="SourceAlpha" type="matrix" values="0 0 0 0 0 0 0 0 0 0 0 0 0 0 0 0 0 0 127 0" result="hardAlpha"/>
<feOffset/>
<feGaussianBlur stdDeviation="0.375108"/>
<feComposite in2="hardAlpha" operator="out"/>
<feColorMatrix type="matrix" values="0 0 0 0 1 0 0 0 0 1 0 0 0 0 1 0 0 0 0.1 0"/>
<feBlend mode="normal" in2="BackgroundImageFix" result="effect1_dropShadow_2181_17233"/>
<feBlend mode="normal" in="SourceGraphic" in2="effect1_dropShadow_2181_17233" result="shape"/>
</filter>
<filter id="filter29_d_2181_17233" x="65.2122" y="11.6389" width="13.4016" height="6.13788" filterUnits="userSpaceOnUse" color-interpolation-filters="sRGB">
<feFlood flood-opacity="0" result="BackgroundImageFix"/>
<feColorMatrix in="SourceAlpha" type="matrix" values="0 0 0 0 0 0 0 0 0 0 0 0 0 0 0 0 0 0 127 0" result="hardAlpha"/>
<feOffset/>
<feGaussianBlur stdDeviation="0.375108"/>
<feComposite in2="hardAlpha" operator="out"/>
<feColorMatrix type="matrix" values="0 0 0 0 1 0 0 0 0 1 0 0 0 0 1 0 0 0 0.1 0"/>
<feBlend mode="normal" in2="BackgroundImageFix" result="effect1_dropShadow_2181_17233"/>
<feBlend mode="normal" in="SourceGraphic" in2="effect1_dropShadow_2181_17233" result="shape"/>
</filter>
<filter id="filter30_d_2181_17233" x="76.0042" y="0.316679" width="8.21698" height="4.97919" filterUnits="userSpaceOnUse" color-interpolation-filters="sRGB">
<feFlood flood-opacity="0" result="BackgroundImageFix"/>
<feColorMatrix in="SourceAlpha" type="matrix" values="0 0 0 0 0 0 0 0 0 0 0 0 0 0 0 0 0 0 127 0" result="hardAlpha"/>
<feOffset/>
<feGaussianBlur stdDeviation="0.375108"/>
<feComposite in2="hardAlpha" operator="out"/>
<feColorMatrix type="matrix" values="0 0 0 0 1 0 0 0 0 1 0 0 0 0 1 0 0 0 0.1 0"/>
<feBlend mode="normal" in2="BackgroundImageFix" result="effect1_dropShadow_2181_17233"/>
<feBlend mode="normal" in="SourceGraphic" in2="effect1_dropShadow_2181_17233" result="shape"/>
</filter>
</defs>
</svg>
