<svg width="87" height="87" viewBox="0 0 87 87" fill="none" xmlns="http://www.w3.org/2000/svg">
<g clip-path="url(#clip0_2181_17517)">
<path d="M64.9881 22.633C65.1052 21.5858 65.1405 20.5312 65.0939 19.4785C64.6303 8.82397 55.7121 0.293628 45.0541 0.272988C33.9352 0.251488 24.9155 9.25827 24.9155 20.372C24.9154 21.1988 24.9659 22.0248 25.0669 22.8454C26.0008 30.4452 24.3617 38.1138 20.557 44.7591C18.5981 48.151 17.5646 51.998 17.5599 55.915C17.5599 69.4703 29.8519 80.4585 45.0146 80.4585C60.1772 80.4585 72.4701 69.4737 72.4701 55.915C72.4657 51.9979 71.4319 48.1507 69.4721 44.7591C65.6314 38.0494 64.1289 30.3128 64.9881 22.633Z" fill="#141414"/>
<path d="M63.1803 33.7716C63.1803 33.7716 77.5423 22.4437 76.303 6.28174C76.303 6.28174 95.0278 33.3571 69.7799 50.4857L63.1803 33.7716Z" fill="#141414"/>
<path d="M25.5827 30.0093C25.5827 30.0093 2.18213 40.2785 4.13175 65.584C4.13175 65.584 14.7743 49.416 25.4142 47.0459L25.5827 30.0093Z" fill="#141414"/>
<path d="M23.124 80.633C22.3965 80.9813 21.6534 81.3408 21.0841 81.9118C20.5148 82.4829 20.1381 83.3171 20.329 84.1014C20.6429 85.4077 22.221 85.9074 23.5515 86.0794C28.2331 86.6573 32.9838 85.9513 37.2951 84.0369C39.1252 83.2208 40.9432 82.1096 41.9142 80.357C42.0681 80.0775 42.2023 79.7713 42.1902 79.4531C42.1558 78.5346 41.049 78.1106 40.1434 77.955C37.0402 77.4248 33.8768 77.344 30.7505 77.715C27.8687 78.0547 25.7247 79.3877 23.124 80.633Z" fill="#FFCC32"/>
<path d="M68.3024 80.633C69.03 80.9813 69.773 81.3408 70.3432 81.9118C70.9134 82.4829 71.2892 83.3171 71.0974 84.1014C70.7844 85.4077 69.2054 85.9074 67.875 86.0794C63.1936 86.6573 58.4432 85.9513 54.1322 84.0369C52.3013 83.2208 50.4841 82.1096 49.5131 80.357C49.3583 80.0775 49.2242 79.7713 49.2362 79.4531C49.2706 78.5346 50.3783 78.1106 51.2839 77.955C54.3868 77.4248 57.55 77.344 60.6759 77.715C63.5587 78.0547 65.7026 79.3877 68.3024 80.633Z" fill="#FFCC32"/>
<path d="M64.5441 48.2797C55.9063 31.1468 64.4186 13.6028 55.1546 10.702C45.8907 7.80125 46.6406 23 46.6406 23H43.3873C43.3873 23 44.138 7.80469 34.8733 10.702C25.6085 13.5994 34.1259 31.1468 25.4855 48.2797C16.8451 65.4126 23.7328 75.2132 23.7328 75.2132L34.3736 79.5644L45.0144 83.9155L66.2968 75.2132C66.2968 75.2132 73.182 65.4126 64.5441 48.2797Z" fill="#F5F5F5"/>
<path d="M49.1157 30.9636C49.1157 30.9636 41.3826 30.6523 43.3873 22.9966H44.6007L49.1157 30.9636Z" fill="#DBA924"/>
<path d="M46.5186 22.9966C46.5186 22.9966 52.4844 25.7348 49.1158 30.9636C49.1158 30.9636 43.1637 28.8472 44.0246 22.9966H46.5186Z" fill="#FFCC32"/>
<path d="M56.1574 19.1932H55.7515C55.7397 18.582 55.4887 17.9999 55.0524 17.5718C54.616 17.1438 54.0291 16.904 53.4179 16.904C52.8066 16.904 52.2197 17.1438 51.7834 17.5718C51.347 17.9999 51.096 18.582 51.0843 19.1932H50.6792C50.6792 18.4667 50.9678 17.77 51.4815 17.2564C51.9951 16.7427 52.6918 16.4541 53.4183 16.4541C54.1448 16.4541 54.8415 16.7427 55.3551 17.2564C55.8688 17.77 56.1574 18.4667 56.1574 19.1932Z" fill="#141414"/>
<path d="M39.7736 19.2205H39.372C39.372 18.6015 39.1261 18.0078 38.6884 17.5701C38.2506 17.1324 37.657 16.8865 37.0379 16.8865C36.4189 16.8865 35.8252 17.1324 35.3875 17.5701C34.9498 18.0078 34.7039 18.6015 34.7039 19.2205H34.298C34.298 18.8608 34.3688 18.5047 34.5065 18.1723C34.6441 17.84 34.8459 17.5381 35.1002 17.2837C35.3546 17.0294 35.6565 16.8276 35.9889 16.6899C36.3212 16.5523 36.6774 16.4814 37.0371 16.4814C37.3968 16.4814 37.753 16.5523 38.0853 16.6899C38.4176 16.8276 38.7196 17.0294 38.9739 17.2837C39.2283 17.5381 39.43 17.84 39.5677 18.1723C39.7053 18.5047 39.7762 18.8608 39.7762 19.2205H39.7736Z" fill="#141414"/>
<path d="M12.2072 44.9932H17.749C17.9107 44.9932 18.0658 45.0574 18.1802 45.1718C18.2945 45.2861 18.3588 45.4412 18.3588 45.6029V64.7121H11.594V45.6003C11.5943 45.5202 11.6105 45.4409 11.6415 45.367C11.6725 45.2931 11.7178 45.226 11.7747 45.1696C11.8317 45.1132 11.8992 45.0686 11.9734 45.0384C12.0476 45.0081 12.127 44.9927 12.2072 44.9932Z" fill="#DB3D2B"/>
<path d="M12.927 46.0405H17.03C17.1498 46.0405 17.2646 46.0881 17.3493 46.1728C17.4339 46.2574 17.4815 46.3723 17.4815 46.492V64.7094H12.4763V46.492C12.4763 46.3724 12.5238 46.2577 12.6083 46.1731C12.6927 46.0884 12.8074 46.0408 12.927 46.0405Z" fill="#FF916C"/>
<path d="M13.3845 48.3848H13.1256V64.7188H13.3845V48.3848Z" fill="#FF5E3C"/>
<path d="M14.2136 48.3848H13.9547V64.7188H14.2136V48.3848Z" fill="#FF5E3C"/>
<path d="M15.1286 48.3848H14.8698V64.7188H15.1286V48.3848Z" fill="#FF5E3C"/>
<path d="M15.9577 48.3848H15.6989V64.7188H15.9577V48.3848Z" fill="#FF5E3C"/>
<path d="M16.8305 48.3848H16.5717V64.7188H16.8305V48.3848Z" fill="#FF5E3C"/>
</g>
<defs>
<clipPath id="clip0_2181_17517">
<rect width="86" height="86" fill="white" transform="translate(0.5 0.272949)"/>
</clipPath>
</defs>
</svg>
