<svg width="95" height="96" viewBox="0 0 95 96" fill="none" xmlns="http://www.w3.org/2000/svg">
<path d="M67.6162 43.279C67.6162 43.279 76.7049 40.5098 71.1673 29.0642C65.6298 17.6186 77.9057 11.6184 81.225 11.4341C81.225 11.4341 74.5797 19.0949 81.8719 27.3561C89.1641 35.6173 80.9019 46.2098 80.9019 46.2098L78.6438 54.9099L72.7358 58.4173L60.552 56.5705V45.7709L67.6162 43.279Z" fill="#DB3D2B"/>
<path d="M80.9019 46.2099L79.3572 52.1617C79.1039 52.605 78.8661 53.0572 78.6438 53.5183C78.5013 53.8099 78.202 54.6222 77.8372 55.3888L76.4417 56.2172C76.7381 55.3622 77.5047 54.0588 77.6453 53.6997C78.7112 50.9685 79.1871 48.0558 80.0364 45.258C81.1413 41.6214 82.915 38.114 83.0964 34.3178C83.1582 33.003 83.0119 31.6369 82.3668 30.4893C81.9536 29.7559 81.3579 29.147 80.7917 28.5238C78.8546 26.3929 77.1408 23.8688 76.8416 21.0055C76.511 17.8334 77.9958 14.688 80.1305 12.3187C80.3971 12.0223 80.6733 11.7373 80.9589 11.4637C81.0539 11.4523 81.1432 11.4437 81.2268 11.439C81.2268 11.439 74.5815 19.0998 81.8738 27.361C89.166 35.6222 80.9019 46.2099 80.9019 46.2099Z" fill="#FF5E3C"/>
<path d="M76.4419 56.2171L77.8375 55.3887C77.4214 56.2636 76.9207 57.0797 76.4761 56.9942C76.2633 56.9533 76.2946 56.6389 76.4419 56.2171Z" fill="#FF5E3C"/>
<path d="M66.3469 45.7402L68.2469 44.7048C69.1798 44.1965 70.1184 43.6845 70.943 43.0147C71.9952 42.1468 72.8329 41.0478 73.391 39.8033C73.949 38.5588 74.2124 37.2023 74.1607 35.8394C75.0432 37.0392 75.066 38.7378 74.4694 40.102C72.9884 43.4831 70.5431 44.9128 68.9385 45.9683C68.0303 46.5658 67.0328 47.2479 65.9631 47.0551" fill="#FF5E3C"/>
<path d="M78.6391 12.3262C76.855 14.0476 74.8249 15.5087 73.1348 17.3222C71.4448 19.1358 70.0758 21.4167 70.0283 23.8953C69.8863 23.3899 69.8129 22.8678 69.8098 22.343C70.3456 17.3488 74.5266 14.039 77.8506 12.4753C78.185 12.4516 78.5441 12.4174 78.6391 12.3262Z" fill="#FF5E3C"/>
<path d="M81.7695 28.6717C81.9129 29.084 82.4221 29.5941 82.8924 29.3566C83.0115 29.2981 83.1056 29.1986 83.1574 29.0764C82.824 28.5392 82.4506 28.0279 82.0402 27.5469C81.895 27.6907 81.7927 27.8721 81.7449 28.0708C81.6971 28.2695 81.7056 28.4776 81.7695 28.6717Z" fill="#DB3D2B"/>
<path d="M84.1945 32.7624C84.3376 32.8045 84.4912 32.7912 84.6249 32.7254C84.5166 32.2132 84.3732 31.7092 84.1955 31.2168C83.6407 31.2747 83.1647 32.4774 84.1945 32.7624Z" fill="#DB3D2B"/>
<path d="M83.1251 40.8372C83.2171 40.866 83.315 40.8704 83.4092 40.8501C83.5034 40.8298 83.5908 40.7854 83.6628 40.7213C83.71 40.6738 83.7466 40.6168 83.7702 40.5541C83.8273 40.3613 83.823 40.1554 83.7578 39.9651C83.7224 39.832 83.6694 39.7042 83.6001 39.5851C82.9769 38.5687 81.7894 40.4705 83.1251 40.8372Z" fill="#DB3D2B"/>
<path d="M81.188 45.8162C80.9866 45.762 80.7491 45.801 80.4964 45.9976C80.4185 46.0544 80.3567 46.1303 80.3169 46.218C80.2771 46.3058 80.2607 46.4023 80.2693 46.4983C80.2791 46.5659 80.3031 46.6306 80.3396 46.6883C80.4323 46.8163 80.5581 46.9168 80.7035 46.979L80.902 46.2133C80.902 46.2133 81.0094 46.0717 81.188 45.8162Z" fill="#DB3D2B"/>
<path d="M82.6062 42.6946C82.5092 42.6834 82.4109 42.6978 82.3212 42.7364C81.8367 42.9264 81.6011 43.5486 81.773 44.0398C81.834 44.2044 81.9281 44.3547 82.0495 44.4815C82.3212 44.0246 82.6195 43.4878 82.913 42.8874C82.8403 42.7851 82.7299 42.7158 82.6062 42.6946Z" fill="#DB3D2B"/>
<path d="M84.4958 35.4498C84.4171 35.4496 84.3384 35.4538 84.2602 35.4621C84.137 35.472 84.0166 35.5042 83.9049 35.5571C83.8123 35.5993 83.7329 35.6657 83.675 35.7493C83.6171 35.8329 83.583 35.9307 83.5762 36.0321C83.5762 36.7484 84.2849 36.8311 84.8112 36.6268C84.8504 36.2525 84.8739 35.8741 84.8815 35.4916C84.7557 35.4587 84.6257 35.4446 84.4958 35.4498Z" fill="#DB3D2B"/>
<path d="M79.9424 49.9054C79.3373 49.5406 78.5668 50.9504 79.5624 51.3513L79.9424 49.9054Z" fill="#DB3D2B"/>
<path d="M79.3878 23.5287C79.1832 23.0561 79.01 22.5706 78.8691 22.0752C78.2307 22.3393 77.7291 23.2931 78.7152 23.5097C78.9065 23.5431 79.1013 23.5514 79.2947 23.5344L79.3878 23.5287Z" fill="#DB3D2B"/>
<path d="M80.9951 26.2729C80.7278 25.915 80.4856 25.5588 80.2683 25.2041H80.2446C80.1214 25.2141 80.001 25.2463 79.8893 25.2991C79.7966 25.341 79.7172 25.4074 79.6594 25.4911C79.6017 25.5748 79.5678 25.6726 79.5615 25.7741C79.5625 26.5921 80.4773 26.5873 80.9951 26.2729Z" fill="#DB3D2B"/>
<path d="M78.5145 20.2223C78.4438 19.5308 78.4393 18.8341 78.5012 18.1418L78.4585 18.1323C78.3614 18.1216 78.2632 18.1363 78.1735 18.175C77.689 18.365 77.4534 18.9863 77.6253 19.4784C77.7412 19.8252 78.1193 20.2375 78.5145 20.2223Z" fill="#DB3D2B"/>
<path d="M78.7398 16.6219C78.8485 16.139 78.9865 15.6631 79.1531 15.1969C78.5545 14.8283 77.7936 16.202 78.7398 16.6219Z" fill="#DB3D2B"/>
<path d="M36.6699 44.1104C36.6699 44.1104 36.2747 40.1403 29.5364 33.6794C22.798 27.2184 25.1977 20.2948 30.3676 20.8487C35.5375 21.4025 34.3367 26.6646 31.8439 27.4987C31.8439 27.4987 37.752 27.7134 38.3039 20.8221C38.8559 13.9307 30.645 9.7726 24.1841 13.5574C17.7231 17.3422 11.2204 33.3469 21.3018 41.2176L26.4916 53.8916L34.2446 60.8142L42.4649 58.4174V48.0795L36.6699 44.1104Z" fill="#DB3D2B"/>
<path d="M91.105 45.2172C84.1624 38.817 78.3664 46.0484 77.6283 49.7401C76.8902 53.4318 77.0744 55.3708 74.3033 56.4785C71.5322 57.5862 65.302 52.194 61.597 54.3144C64.0797 52.4001 65.9224 49.7768 66.881 46.792C67.8396 43.8072 67.8689 40.6015 66.9652 37.5996C66.0614 34.5978 64.2671 31.9412 61.8199 29.9817C59.3727 28.0223 56.388 26.8524 53.2612 26.627C50.1343 26.4016 47.0127 27.1312 44.3097 28.7194C41.6068 30.3076 39.45 32.6793 38.1249 35.5205C36.7999 38.3617 36.3692 41.5384 36.8897 44.6299C37.4103 47.7213 38.8576 50.5818 41.04 52.8324C41.04 52.8324 40.4377 57.5824 34.2532 57.0333C28.0687 56.4842 29.9155 40.2344 17.2691 40.6933C4.6227 41.1521 14.307 58.4127 0 57.0827C0 57.0827 7.2922 64.3825 13.3846 57.1558C19.4769 49.9292 21.8766 68.3877 38.3069 67.6476C38.3069 67.6476 32.8605 69.863 34.0603 75.3094C35.2602 80.7557 44.1978 83.7083 52.1436 78.3551C60.0894 73.0018 66.0905 84.8151 73.6592 84.0779C81.2278 83.3407 86.3978 77.9827 85.4743 71.2472C85.4743 71.2472 81.4131 75.4937 76.9823 75.8632C72.5515 76.2328 71.3516 70.6012 69.4137 68.9396C69.4137 68.9396 75.4129 70.7864 79.6594 66.6321C83.9059 62.4777 80.3823 56.0719 84.8131 54.872C89.2439 53.6722 90.1816 61.371 87.4123 64.0481C87.4123 64.0481 101.662 54.9509 91.105 45.2172Z" fill="#FF5E3C"/>
<path d="M41.6594 34.1078L42.275 36.8181C42.275 36.8181 45.2286 38.7561 50.674 37.2789C56.1194 35.8016 56.8585 33.495 56.8585 33.495L56.1935 30.8892L41.6594 34.1078Z" fill="#383838"/>
<path d="M33.3223 33.3095L50.2142 34.9255L63.69 25.833L47.4326 24.541L33.3223 33.3095Z" fill="#484848"/>
<path d="M62.8415 30.8891L58.1343 29.5819L63.6899 25.8323L55.1684 25.1568C54.9784 24.1888 54.7475 24.4063 54.2735 25.0865C53.332 26.4317 51.4453 29.5952 47.0744 28.9502C45.1573 28.6652 43.8178 28.0743 42.8801 27.3751C40.6001 25.6717 40.7056 23.3433 40.7056 23.3433C49.7068 26.8051 49.0836 17.7383 52.6813 15.1058C56.2789 12.4734 62.9983 13.9288 65.2821 20.6453C67.5659 27.3618 62.8415 30.8891 62.8415 30.8891Z" fill="#DB3D2B"/>
<path d="M51.4139 51.0348C51.398 50.8069 51.427 50.5781 51.4995 50.3614C51.572 50.1447 51.6864 49.9444 51.8363 49.7719C51.9862 49.5995 52.1686 49.4582 52.373 49.3562C52.5775 49.2543 52.8001 49.1936 53.028 49.1776C53.2559 49.1616 53.4848 49.1907 53.7015 49.2632C53.9181 49.3356 54.1184 49.4501 54.2909 49.6C54.4634 49.7499 54.6046 49.9322 54.7066 50.1367C54.8086 50.3412 54.8693 50.5637 54.8853 50.7916L54.625 50.8125C54.6143 50.6163 54.5646 50.4241 54.4789 50.2472C54.3933 50.0703 54.2733 49.9122 54.1259 49.7822C53.9786 49.6521 53.8068 49.5526 53.6206 49.4896C53.4345 49.4265 53.2376 49.4011 53.0416 49.4148C52.8455 49.4286 52.6541 49.4812 52.4786 49.5696C52.303 49.658 52.1468 49.7804 52.019 49.9298C51.8913 50.0791 51.7945 50.2524 51.7343 50.4395C51.6741 50.6266 51.6518 50.8238 51.6685 51.0196L51.4139 51.0348Z" fill="#141414"/>
<path d="M43.2876 51.0141C43.2657 50.5532 43.4277 50.1026 43.7381 49.7612C44.0484 49.4199 44.4817 49.2158 44.9425 49.1939C45.4033 49.1719 45.854 49.334 46.1953 49.6443C46.5367 49.9547 46.7408 50.3879 46.7627 50.8488L46.5062 50.8611C46.4969 50.6667 46.4494 50.476 46.3664 50.2999C46.2834 50.1238 46.1666 49.9658 46.0225 49.8349C45.8785 49.704 45.71 49.6027 45.5268 49.5369C45.3436 49.4711 45.1493 49.442 44.9549 49.4513C44.7604 49.4606 44.5697 49.5081 44.3937 49.5911C44.2176 49.6741 44.0596 49.791 43.9287 49.935C43.7978 50.0791 43.6965 50.2475 43.6307 50.4307C43.5649 50.6139 43.5358 50.8082 43.5451 51.0027L43.2876 51.0141Z" fill="#141414"/>
<path d="M47.5001 61.4941C46.8351 65.8556 38.3069 67.6473 38.3069 67.6473C35.0275 67.7946 32.3067 67.1723 30.0039 66.152C30.7288 66.2043 31.5239 66.2698 32.3865 66.3496C42.7501 67.3101 47.5001 61.4941 47.5001 61.4941Z" fill="#DB3D2B"/>
<path d="M24.1138 62.1174C19.3429 57.6733 17.0221 52.8397 13.3874 57.1518C9.79445 61.4135 5.78735 60.6221 3.0979 59.256L3.18625 59.2361C4.70625 58.9359 6.2538 59.2361 7.79185 58.8029C9.16745 58.4181 10.4775 57.7408 11.4836 56.7129C12.4127 55.7629 13.0444 54.5725 13.8291 53.5028C14.6138 52.4331 15.6408 51.4347 16.9413 51.1687C18.3663 50.878 19.8635 51.5553 20.8506 52.6212C21.8376 53.6871 22.3839 55.0912 22.7392 56.5001C23.0945 57.9089 23.2807 59.3586 23.6692 60.7599C23.7965 61.2216 23.9447 61.6741 24.1138 62.1174Z" fill="#FF916C"/>
<path d="M73.6619 84.0775C66.0932 84.8166 60.093 73.0014 52.1463 78.3547C49.8872 79.8747 47.5473 80.7297 45.3281 81.0394C48.2019 78.6482 50.8828 75.7384 54.4624 74.9242C55.9178 74.5927 57.4321 74.6392 58.9179 74.7836C60.1206 74.9014 61.3385 75.0905 62.4329 75.6063C64.0089 76.3502 65.1955 77.7068 66.5673 78.7822C68.8254 80.5511 71.6906 81.5714 74.5577 81.4716C77.4248 81.3719 80.2625 80.115 82.1511 77.9566C83.806 76.0661 84.3855 73.4517 85.4761 71.2705C86.3891 77.9984 81.2248 83.3403 73.6619 84.0775Z" fill="#FF916C"/>
<path d="M91.2058 58.7409C90.6548 60.9744 89.321 62.3585 87.8143 63.7759C87.5787 63.9431 87.4343 64.0353 87.4201 64.0448C90.1884 61.3667 89.2498 53.6698 84.8199 54.8697C80.3901 56.0695 83.9117 62.4763 79.6662 66.6307C79.1607 67.1253 78.6 67.5601 77.9951 67.9265C78.2545 67.6237 78.4932 67.3038 78.7095 66.9689C79.8391 65.2199 80.0395 63.5983 80.1051 61.5178C80.163 59.6235 80.1782 57.2485 80.373 55.3646C80.5677 53.4808 81.6878 51.9133 83.0947 50.6441C85.3662 48.5949 88.2247 48.8714 90.1637 51.8791C91.45 53.8779 91.7701 56.4381 91.2058 58.7409Z" fill="#FF916C"/>
<path d="M69.4183 68.9412C69.4686 68.9849 69.5133 69.0305 69.5665 69.079C69.1627 68.7208 68.7732 68.356 68.3809 68.1346C66.8609 67.2796 65.1509 66.7771 63.4162 66.5776C60.9462 66.2926 58.4306 66.5966 55.9986 67.1362C55.2728 67.2967 54.547 67.4801 53.805 67.5409C53.199 67.5906 52.589 67.5586 51.9915 67.4459C53.7148 67.6121 55.3763 66.8759 57.0265 66.3477C59.0994 65.6827 61.2929 65.3426 63.4589 65.5449C65.6249 65.7473 67.7643 66.5168 69.4439 67.9009C69.9464 68.3186 70.4265 68.7626 70.8822 69.2309C70.3878 69.1702 69.8985 69.0733 69.4183 68.9412Z" fill="#DB3D2B"/>
<path d="M8.27538 60.2699C7.75613 60.3454 7.23015 60.3636 6.70693 60.3241C6.61193 60.078 6.65563 59.8377 6.98528 59.7227C7.11669 59.6844 7.25309 59.6658 7.38998 59.6676L7.81748 59.6524C7.87628 59.6452 7.93596 59.6537 7.99038 59.6771C8.20128 59.7911 8.28678 60.0277 8.27538 60.2699Z" fill="#FF5E3C"/>
<path d="M13.0558 57.529C12.6914 57.9302 12.2967 58.3028 11.875 58.6433C11.8368 58.5785 11.805 58.5101 11.78 58.4391C11.609 57.9479 11.8436 57.3266 12.3281 57.1357C12.4193 57.0964 12.5193 57.082 12.6179 57.0939C12.8326 57.1271 12.9713 57.319 13.0558 57.529Z" fill="#FF5E3C"/>
<path d="M16.4977 55.494C16.1495 55.445 15.7947 55.4745 15.4594 55.5805C15.257 55.4855 15.1164 55.2888 15.1155 54.9696C15.1223 54.8681 15.1564 54.7704 15.2143 54.6868C15.2722 54.6032 15.3516 54.5368 15.4442 54.4946C15.5561 54.4422 15.6764 54.41 15.7995 54.3996C15.8777 54.3916 15.9564 54.3878 16.0351 54.3882C16.2317 54.3882 16.4407 54.4034 16.5994 54.5193C17.1 54.8851 16.8967 55.2774 16.4977 55.494Z" fill="#FF5E3C"/>
<path d="M21.72 59.6995C21.3846 59.3423 21.0626 58.9947 20.75 58.6622L20.7747 58.6489C20.8864 58.5959 21.0068 58.5637 21.13 58.5539C21.2079 58.5453 21.2877 58.5425 21.3656 58.5415C21.5623 58.5415 21.7713 58.5567 21.9299 58.6726C22.4781 59.0707 22.1855 59.5 21.72 59.6995Z" fill="#FF5E3C"/>
<path d="M18.81 53.727C18.7867 53.7899 18.7501 53.8469 18.7026 53.8942C18.6306 53.9582 18.5432 54.0024 18.4489 54.0226C18.3547 54.0427 18.2569 54.0381 18.1649 54.0092C16.8349 53.6387 18.0205 51.7377 18.6399 52.758C18.7094 52.8771 18.7627 53.0049 18.7986 53.138C18.8632 53.3285 18.8672 53.5342 18.81 53.727Z" fill="#FF5E3C"/>
<path d="M21.0605 56.7416C21.0074 56.7846 20.9464 56.8169 20.881 56.8366C20.7668 56.8665 20.6494 56.8821 20.5314 56.8832C20.3379 56.9002 20.1431 56.8919 19.9519 56.8585C18.5269 56.544 20.2179 54.6735 20.9342 55.6187C21.0713 55.7788 21.1713 55.9673 21.2268 56.1707C21.2531 56.272 21.2516 56.3786 21.2223 56.4791C21.193 56.5796 21.1371 56.6703 21.0605 56.7416Z" fill="#FF5E3C"/>
<path d="M82.4649 80.2109C82.0607 80.6128 81.6279 80.9849 81.17 81.3243C80.8366 80.78 81.8379 79.8024 82.4649 80.2109Z" fill="#FF5E3C"/>
<path d="M51.5099 78.7644C51.0887 79.0241 50.6663 79.2606 50.2426 79.4741C49.9082 79.1435 49.7382 78.6618 50.2512 78.4842C50.3821 78.4453 50.5183 78.4267 50.6549 78.4291L51.0824 78.4139C51.1411 78.4063 51.2008 78.4145 51.2553 78.4376C51.3177 78.472 51.3724 78.5187 51.4162 78.5749C51.4599 78.631 51.4918 78.6955 51.5099 78.7644Z" fill="#FF5E3C"/>
<path d="M78.3067 82.4856C77.8516 82.4704 77.1305 81.6249 77.7927 81.395C77.9007 81.3634 78.0128 81.3484 78.1252 81.3503L78.4767 81.337C78.5251 81.3311 78.5743 81.338 78.6192 81.357C79.0676 81.5983 78.8263 82.5027 78.3067 82.4856Z" fill="#FF5E3C"/>
<path d="M54.665 77.1827C54.2408 77.2938 53.8275 77.443 53.43 77.6283C53.3341 77.5157 53.2589 77.3871 53.2077 77.2483C53.0358 76.7571 53.2704 76.1358 53.7559 75.9449C53.8456 75.9063 53.9438 75.8919 54.0409 75.9031C54.3154 75.9458 54.4655 76.2432 54.5377 76.5111C54.6037 76.7299 54.6464 76.955 54.665 77.1827Z" fill="#FF5E3C"/>
<path d="M70.3694 83.6694C69.8644 83.5023 69.3704 83.3037 68.8903 83.0747C68.8713 82.6538 69.1002 82.2197 69.4926 82.062C69.5823 82.0236 69.6805 82.0092 69.7776 82.0202C70.0512 82.0629 70.2013 82.3603 70.2744 82.6282C70.3561 82.9113 70.4606 83.3416 70.3694 83.6694Z" fill="#FF5E3C"/>
<path d="M61.3948 78.4955C61.0005 78.278 60.6044 78.0756 60.2063 77.8932V77.8875C60.2131 77.7861 60.2473 77.6883 60.3051 77.6047C60.363 77.5211 60.4424 77.4547 60.535 77.4125C60.6469 77.36 60.7672 77.3278 60.8903 77.3175C60.9682 77.309 61.048 77.3061 61.1259 77.3052C61.3226 77.3052 61.5316 77.3204 61.6902 77.4363C62.2707 77.8562 61.9078 78.3131 61.3948 78.4955Z" fill="#FF5E3C"/>
<path d="M84.17 78.0244C83.9271 78.4384 83.656 78.8351 83.3587 79.2119C83.0376 79.1654 82.7783 78.964 82.7773 78.5298C82.7837 78.4283 82.8175 78.3305 82.8753 78.2468C82.933 78.1631 83.0125 78.0967 83.1051 78.0548C83.2168 78.002 83.3372 77.9698 83.4604 77.9598C83.539 77.9518 83.6179 77.948 83.6969 77.9484C83.8583 77.9383 84.0199 77.9643 84.17 78.0244Z" fill="#FF5E3C"/>
<path d="M63.7603 78.9041C63.7667 78.8027 63.8006 78.7049 63.8583 78.6212C63.916 78.5375 63.9954 78.4711 64.088 78.4291C64.1999 78.3766 64.3202 78.3444 64.4433 78.3341C64.5222 78.3256 64.601 78.3227 64.6789 78.3218C64.8756 78.3218 65.0846 78.337 65.2432 78.4529C66.4108 79.305 63.7622 80.2911 63.7603 78.9041Z" fill="#FF5E3C"/>
<path d="M76.7513 83.4867C76.2138 83.6441 75.6684 83.7731 75.1173 83.8734C75.018 83.7434 74.9676 83.5827 74.9748 83.4193C74.9812 83.3178 75.0151 83.22 75.0728 83.1363C75.1306 83.0527 75.21 82.9863 75.3025 82.9443C75.4144 82.8918 75.5347 82.8597 75.6579 82.8493C75.7367 82.8407 75.8156 82.8379 75.8944 82.8369C76.0911 82.8369 76.3001 82.8521 76.4587 82.968C76.6981 83.1419 76.7769 83.3224 76.7513 83.4867Z" fill="#FF5E3C"/>
<path d="M58.8838 76.2536C58.1133 77.403 56.6807 75.6836 57.8445 75.41C57.979 75.3818 58.1167 75.3716 58.2539 75.3796C58.4552 75.3769 58.6522 75.4374 58.8173 75.5525C58.8698 75.5944 58.9126 75.6472 58.9427 75.7073C58.9808 75.7957 58.9955 75.8925 58.9852 75.9882C58.9748 76.0839 58.9399 76.1753 58.8838 76.2536Z" fill="#FF5E3C"/>
<path d="M85.3337 75.0734C85.2421 75.4895 85.1238 75.8991 84.9793 76.2999C84.3808 76.1498 83.9486 75.272 84.7513 75.0867C84.8859 75.0586 85.0236 75.0484 85.1608 75.0563C85.2187 75.0583 85.2765 75.064 85.3337 75.0734Z" fill="#FF5E3C"/>
<path d="M72.8271 83.5873C72.6904 83.5736 72.5563 83.5417 72.4281 83.4923C72.2364 83.4312 72.0684 83.312 71.9474 83.1512C71.9098 83.0941 71.8857 83.0291 71.8771 82.9612C71.8683 82.8654 71.8845 82.7688 71.9241 82.6811C71.9637 82.5933 72.0254 82.5174 72.1032 82.4606C73.1938 81.6094 74.0165 83.6946 72.8271 83.5873Z" fill="#FF5E3C"/>
<path d="M67.2258 82.1825C66.7309 81.8908 66.2397 81.5802 65.7495 81.261C66.0839 80.8743 66.6843 80.6454 67.0415 81.1147C67.1784 81.2749 67.2782 81.4634 67.3341 81.6666C67.3559 81.7552 67.3574 81.8476 67.3387 81.9369C67.3199 82.0262 67.2813 82.1101 67.2258 82.1825Z" fill="#FF5E3C"/>
<path d="M83.8014 55.3173C83.4265 55.5667 83.1177 55.9035 82.9017 56.2986C82.6598 56.1492 82.4743 55.9236 82.3745 55.6574C82.2035 55.1662 82.4381 54.5449 82.9226 54.354C83.0124 54.3156 83.1106 54.3012 83.2076 54.3122C83.4812 54.3549 83.6313 54.6523 83.7045 54.9202C83.7406 55.0323 83.7767 55.171 83.8014 55.3173Z" fill="#FF5E3C"/>
<path d="M88.693 57.5128C88.5777 57.1051 88.4151 56.7123 88.2085 56.3425C88.3147 56.2941 88.4285 56.2642 88.5448 56.2541C88.6231 56.246 88.7017 56.2422 88.7804 56.2427C88.977 56.2427 89.186 56.2579 89.3447 56.3738C90.06 56.8925 89.3523 57.4625 88.693 57.5128Z" fill="#FF5E3C"/>
<path d="M84.3894 51.9213C84.3962 51.8198 84.4304 51.7221 84.4882 51.6385C84.5461 51.5548 84.6255 51.4884 84.7181 51.4463C84.83 51.3939 84.9503 51.3617 85.0734 51.3513C85.1517 51.3432 85.2303 51.3394 85.309 51.3399C85.5057 51.3399 85.7147 51.3551 85.8733 51.471C87.0409 52.3212 84.3923 53.3074 84.3894 51.9213Z" fill="#FF5E3C"/>
<path d="M81.9633 61.6006C81.9073 61.9919 81.8379 62.3862 81.7458 62.7785C81.2451 62.9182 80.6523 62.7937 80.6514 62.1382C80.6582 62.0368 80.6923 61.939 80.7502 61.8554C80.8081 61.7718 80.8875 61.7054 80.9801 61.6632C81.0919 61.6108 81.2122 61.5787 81.3354 61.5682C81.4136 61.5602 81.4923 61.5564 81.571 61.5568C81.7032 61.5512 81.8355 61.5659 81.9633 61.6006Z" fill="#FF5E3C"/>
<path d="M88.8916 60.8121C88.9524 60.3947 88.981 59.9733 88.9771 59.5515C89.0465 59.5448 89.1168 59.5429 89.1861 59.542C89.3828 59.542 89.5918 59.5572 89.7504 59.6731C90.5351 60.2469 89.5927 60.8824 88.8916 60.8121Z" fill="#FF5E3C"/>
<path d="M82.2958 58.4379C82.2426 58.8474 82.2008 59.2768 82.1628 59.7204C82.0837 59.7019 82.0059 59.6781 81.93 59.6492C81.7379 59.5883 81.5695 59.4691 81.4484 59.3081C81.4122 59.252 81.3882 59.1889 81.3781 59.1229C81.3693 59.0268 81.3856 58.93 81.4254 58.8421C81.4652 58.7542 81.5271 58.6781 81.6051 58.6213C81.8569 58.4256 82.0944 58.3857 82.2958 58.4379Z" fill="#FF5E3C"/>
<path d="M88.7785 53.0242C88.9154 53.1845 89.0153 53.3729 89.0711 53.5762C89.0969 53.6774 89.0951 53.7838 89.0656 53.8841C89.0362 53.9844 88.9804 54.0749 88.9039 54.1462C88.8512 54.1893 88.7905 54.2216 88.7253 54.2412C88.6108 54.271 88.4931 54.2866 88.3747 54.2877C88.1816 54.3047 87.9871 54.2964 87.7962 54.263C86.3693 53.9476 88.0651 52.0828 88.7785 53.0242Z" fill="#FF5E3C"/>
<path d="M37.6495 76.7475C38.7125 78.0253 40.4862 78.4271 42.1373 78.62C40.7256 78.4528 39.4687 77.613 38.5273 76.5471C37.1431 74.9786 37.7815 73.3978 38.3886 71.9319C38.9367 70.6105 40.2601 69.8704 41.2851 69.0088C37.8632 69.2425 35.3543 73.9925 37.6495 76.7475Z" fill="#FF916C"/>
<path d="M66.8136 57.0234C67.4558 57.1802 68.0486 57.4918 68.6604 57.7397C69.7597 58.1821 70.9308 58.4191 72.1155 58.4389C71.1836 58.5691 70.225 58.6841 69.3111 58.4608C68.7516 58.324 68.2291 58.0646 67.679 57.8908C66.0298 57.3835 64.2913 57.7103 62.644 58.0409C64.1365 57.6039 65.1273 56.614 66.8136 57.0234Z" fill="#FF916C"/>
<path d="M15.5173 42.4411C17.1228 41.8711 18.925 42.0174 20.5191 42.6149L18.5972 42.7023C17.9968 42.7299 17.3926 42.7574 16.8055 42.8857C15.5192 43.1707 14.4001 43.9307 13.5242 44.8978C13.0778 45.393 12.6855 45.9344 12.3538 46.5128C12.1724 46.8263 12.0403 47.2832 11.7715 47.5207C11.6394 46.8111 12.1847 45.7214 12.4868 45.0963C13.0901 43.8518 14.2149 42.9018 15.5173 42.4411Z" fill="#FF916C"/>
<path d="M63.8193 38.1642H63.5618V25.9975L48.5385 29.8583L48.4749 29.6085L63.6587 25.7068C63.6778 25.7022 63.6976 25.7019 63.7168 25.7059C63.736 25.7098 63.7541 25.7179 63.7699 25.7296C63.7853 25.7418 63.7978 25.7574 63.8064 25.7752C63.8149 25.793 63.8193 25.8125 63.8193 25.8322V38.1642Z" fill="#FECB32"/>
<path d="M48.6089 30.2076C49.02 30.1179 49.3071 29.8333 49.25 29.5718C49.193 29.3104 48.8134 29.1712 48.4023 29.2609C47.9912 29.3506 47.7042 29.6353 47.7613 29.8967C47.8183 30.1581 48.1978 30.2973 48.6089 30.2076Z" fill="#FECB32"/>
<path d="M63.2149 36.7251H64.1649C64.1935 36.7251 64.2217 36.7307 64.2481 36.7417C64.2745 36.7526 64.2985 36.7686 64.3187 36.7888C64.3389 36.809 64.3549 36.833 64.3659 36.8594C64.3768 36.8858 64.3824 36.9141 64.3824 36.9426V39.6026H62.9983V36.9426C62.9983 36.8851 63.0211 36.8299 63.0617 36.7892C63.1023 36.7484 63.1574 36.7253 63.2149 36.7251Z" fill="#FECB32"/>
<path d="M31.3129 38.6628C33.1378 40.6132 34.7433 43.1867 34.2009 45.8011C33.9192 44.0699 33.1494 42.455 31.9817 41.1461C31.2853 40.369 30.4617 39.7211 29.7102 38.9925C27.6098 36.9642 26.5828 34.7973 25.7905 31.9995C25.8618 32.7966 27.3732 34.4496 27.8758 35.0623C28.9284 36.3458 30.1795 37.4516 31.3129 38.6628Z" fill="#FF5E3C"/>
<path d="M38.3067 20.8182C37.7529 27.7095 31.8467 27.4948 31.8467 27.4948C32.3949 27.3114 32.8822 26.9124 33.2499 26.3975C34.7898 25.3525 35.9412 23.9674 36.0752 21.6713C36.2367 18.9305 34.4165 16.186 31.8239 15.2806C30.8977 14.9576 29.9097 14.8541 28.9293 14.8056C28.004 14.761 27.0625 14.7667 26.1743 15.0156C24.4586 15.4906 23.1191 16.8063 21.8812 18.0879C20.0648 19.967 18.2494 21.9458 17.2908 24.3769C16.489 26.4127 16.3408 28.6186 16.0986 30.8036C15.7822 23.6169 19.9936 16.014 24.1859 13.5583C30.645 9.77251 38.8606 13.9259 38.3067 20.8182Z" fill="#FF5E3C"/>
<path d="M30.8093 13.0793C30.7859 13.1421 30.7493 13.1991 30.702 13.2465C30.63 13.3107 30.5426 13.3551 30.4484 13.3754C30.3542 13.3957 30.2563 13.3912 30.1643 13.3624C29.447 13.1629 29.4603 12.5207 29.7216 12.1274C30.0457 12.1368 30.3691 12.1624 30.6906 12.2044C30.7343 12.2961 30.7699 12.3915 30.797 12.4894C30.8628 12.6799 30.8671 12.8863 30.8093 13.0793Z" fill="#DB3D2B"/>
<path d="M36.5836 15.7338C36.5609 15.797 36.5242 15.8541 36.4762 15.901C36.4044 15.9651 36.3172 16.0094 36.2232 16.0297C36.1291 16.0501 36.0313 16.0456 35.9395 16.0169C34.9971 15.7547 35.3144 14.7278 35.8008 14.5083C36.0933 14.773 36.3661 15.0587 36.6168 15.3633C36.6355 15.4877 36.6241 15.6147 36.5836 15.7338Z" fill="#DB3D2B"/>
<path d="M21.2165 17.7705C20.8583 17.951 20.4764 17.6974 20.2522 17.3839C20.5913 16.9089 20.9447 16.4586 21.3067 16.0425C21.3587 16.1387 21.3992 16.2407 21.4274 16.3465C21.5423 16.7702 21.7181 17.5169 21.2165 17.7705Z" fill="#DB3D2B"/>
<path d="M38.113 22.1726C37.9953 22.7436 37.816 23.3001 37.5781 23.8323C37.2447 23.7506 36.9502 23.4019 36.8457 23.1036C36.6747 22.6115 36.9093 21.9902 37.3938 21.8002C37.485 21.761 37.585 21.7466 37.6836 21.7584C37.8907 21.7945 38.0265 21.9722 38.113 22.1726Z" fill="#DB3D2B"/>
<path d="M18.8612 20.3724C18.7333 20.4371 18.5853 20.4501 18.448 20.4085C18.6621 19.9753 18.8869 19.5542 19.1225 19.145C19.2232 19.5725 19.2925 20.1549 18.8612 20.3724Z" fill="#DB3D2B"/>
<path d="M22.6472 14.6829C22.9763 14.3916 23.323 14.121 23.6856 13.8726C23.8336 13.8744 23.978 13.9186 24.1017 13.9999C25.197 14.7998 22.9341 15.7175 22.6472 14.6829Z" fill="#DB3D2B"/>
<path d="M33.06 14.8778C32.9234 14.8641 32.7892 14.8322 32.661 14.7828C32.4692 14.7224 32.3011 14.6035 32.1803 14.4427C32.143 14.3854 32.1189 14.3205 32.11 14.2527C32.1012 14.1568 32.1174 14.0603 32.157 13.9725C32.1966 13.8848 32.2583 13.8088 32.3361 13.752C33.4277 12.9008 34.2504 14.987 33.06 14.8778Z" fill="#DB3D2B"/>
<path d="M27.5225 13.5126C27.4691 13.5552 27.4082 13.5874 27.3429 13.6076C27.2287 13.6371 27.1113 13.6524 26.9933 13.6532C26.7999 13.6705 26.6051 13.6625 26.4138 13.6294C25.8096 13.4955 25.765 13.0841 25.9683 12.725C26.4199 12.5633 26.8825 12.4338 27.3524 12.3374C27.3676 12.3536 27.3819 12.3716 27.3961 12.3897C27.5329 12.5499 27.6328 12.7384 27.6887 12.9416C27.7147 13.0429 27.713 13.1494 27.6838 13.2499C27.6546 13.3503 27.5988 13.441 27.5225 13.5126Z" fill="#DB3D2B"/>
<path d="M37.81 19.0566C37.7571 19.0999 37.696 19.1322 37.6304 19.1516C37.5163 19.1815 37.3988 19.1971 37.2808 19.1981C37.0877 19.2152 36.8932 19.2069 36.7023 19.1734C35.2773 18.859 36.9673 16.9884 37.6846 17.9337C37.8213 18.0941 37.9211 18.2825 37.9772 18.4856C38.0033 18.587 38.0016 18.6936 37.9721 18.7941C37.9427 18.8946 37.8867 18.9853 37.81 19.0566Z" fill="#DB3D2B"/>
<path d="M55.1685 25.1568C54.9785 24.1887 54.7476 24.4053 54.2736 25.0865C53.3321 26.4317 51.4454 29.5952 47.0745 28.9501C45.1574 28.6651 43.8179 28.0742 42.8802 27.375C40.7076 25.7505 40.701 23.557 40.7057 23.3575C41.3935 24.0291 42.1165 24.9725 42.4575 25.2271C43.5385 26.0295 44.8157 26.5257 46.1549 26.6635C48.4653 26.8896 50.8526 25.9776 52.4543 24.297C53.6893 23.0041 54.6108 21.2029 56.3322 20.726C56.6751 20.6187 57.0412 20.6101 57.3886 20.7013C58.0536 20.9017 58.4659 21.5629 58.6835 22.2213C58.9248 22.9499 58.996 23.7223 59.0635 24.487C59.0939 24.8176 59.1233 25.152 59.1585 25.4779L55.1685 25.1568Z" fill="#FF5E3C"/>
<path d="M57.532 23.9454C57.2515 24.0442 56.976 24.1547 56.7055 24.2769C56.1878 24.502 55.705 24.8001 55.272 25.1623L55.1694 25.1538C55.0839 24.7196 54.9908 24.5239 54.8711 24.5011C55.5921 23.9615 56.6628 23.7962 57.532 23.9454Z" fill="#DB3D2B"/>
<path d="M52.5853 16.8174C53.2949 15.8788 54.2449 15.0922 55.3631 14.7493C56.4812 14.4063 57.7875 14.5593 58.7033 15.2917C57.1994 15.1891 55.5569 15.1236 54.3333 16.0071C53.7281 16.445 53.294 17.0739 52.8076 17.6411C52.3326 18.1902 51.5916 18.9454 50.8069 18.8837C50.9598 18.6101 51.2705 18.4286 51.5032 18.2035C51.9336 17.7912 52.23 17.2905 52.5853 16.8174Z" fill="#FF5E3C"/>
<path d="M45.7131 28.5826C45.7025 28.6105 45.6891 28.6372 45.6732 28.6624C45.2632 28.5552 44.8608 28.4209 44.4686 28.2606C44.3802 27.6336 45.1041 26.8907 45.543 27.6137C45.6121 27.7328 45.6652 27.8606 45.7007 27.9937C45.7661 28.1839 45.7704 28.3898 45.7131 28.5826Z" fill="#DB3D2B"/>
<path d="M57.095 22.132C57.1509 22.2283 57.1941 22.3315 57.2233 22.4389C57.2755 22.5924 57.2788 22.7584 57.2328 22.9139C57.214 22.9651 57.1842 23.0114 57.1454 23.0497C57.0873 23.1019 57.0167 23.1381 56.9404 23.1548C56.8641 23.1715 56.7848 23.168 56.7103 23.1447C55.6253 22.8455 56.5877 21.3046 57.095 22.132Z" fill="#DB3D2B"/>
<path d="M51.5387 28.062C51.2592 28.2446 50.965 28.4035 50.659 28.537C49.6463 28.0439 50.7407 26.3938 51.324 27.359C51.3929 27.4782 51.4459 27.606 51.4817 27.739C51.514 27.8438 51.5332 27.9524 51.5387 28.062Z" fill="#DB3D2B"/>
<path d="M48.2933 28.5728C48.157 28.5588 48.0231 28.5269 47.8952 28.4778C47.7032 28.4168 47.5349 28.2976 47.4136 28.1368C47.377 28.0791 47.3531 28.0143 47.3433 27.9468C47.3347 27.8508 47.3512 27.7543 47.3909 27.6666C47.4307 27.5788 47.4925 27.5029 47.5703 27.4461C48.6609 26.5968 49.4827 28.6821 48.2933 28.5728Z" fill="#DB3D2B"/>
<path d="M54.8967 23.9769C54.7935 23.9656 54.6922 23.9407 54.5956 23.9028C54.4513 23.8567 54.3249 23.7671 54.2336 23.6463C54.2062 23.604 54.1881 23.5564 54.1804 23.5066C54.1734 23.4339 54.1855 23.3606 54.2154 23.2939C54.2454 23.2273 54.2923 23.1696 54.3514 23.1266C55.1732 22.4882 55.7925 24.0595 54.8967 23.9769Z" fill="#DB3D2B"/>
<path d="M43.2011 27.5962C43.089 27.523 42.9816 27.448 42.88 27.372C42.5283 27.1105 42.2073 26.81 41.9233 26.4761C42.2672 26.1826 42.7631 26.061 43.0747 26.4704C43.2112 26.631 43.3111 26.8193 43.3673 27.0224C43.3937 27.1241 43.3922 27.2311 43.3629 27.3321C43.3337 27.4331 43.2778 27.5243 43.2011 27.5962Z" fill="#DB3D2B"/>
<path d="M54.0152 25.4579C53.7495 25.852 53.4641 26.2325 53.1602 26.5979C53.0851 26.5946 53.0105 26.585 52.937 26.5694C51.5119 26.255 53.203 24.3844 53.9202 25.3287C53.9525 25.3696 53.9848 25.4133 54.0152 25.4579Z" fill="#DB3D2B"/>
<path d="M58.4392 25.416L56.8508 25.2897C57.1643 24.8527 57.8284 24.5515 58.2122 25.056C58.3013 25.167 58.3774 25.2878 58.4392 25.416Z" fill="#DB3D2B"/>
<path d="M52.5853 16.8174C53.2949 15.8788 54.2449 15.0922 55.3631 14.7493C56.4812 14.4063 57.7875 14.5593 58.7033 15.2917C57.1994 15.1891 55.5569 15.1236 54.3333 16.0071C53.7281 16.445 53.294 17.0739 52.8076 17.6411C52.3326 18.1902 51.5916 18.9454 50.8069 18.8837C50.9598 18.6101 51.2705 18.4286 51.5032 18.2035C51.9336 17.7912 52.23 17.2905 52.5853 16.8174Z" fill="#FF5E3C"/>
<path d="M59.5289 29.9692L58.1343 29.5816L59.4481 28.6943C59.4633 28.8577 59.4776 29.0211 59.4928 29.1845C59.521 29.4451 59.533 29.7072 59.5289 29.9692Z" fill="#FF5E3C"/>
</svg>
