<svg width="83" height="83" viewBox="0 0 83 83" fill="none" xmlns="http://www.w3.org/2000/svg">
<g clip-path="url(#clip0_2181_17400)">
<path d="M19.1074 18.4756C19.1074 18.4756 10.697 19.9339 0 21.9989C0 21.9989 14.8877 20.7498 17.9122 22.4588C17.9122 22.4588 20.2147 21.7914 19.1074 18.4756Z" fill="#FFCC32"/>
<path d="M33.7976 27.6325C33.7976 27.6325 37.6629 22.8658 47.642 17.3687C57.5738 11.8982 65.6264 5.65075 69.1772 2.73911C69.2652 2.66614 69.376 2.62629 69.4904 2.62647C69.6048 2.62664 69.7155 2.66683 69.8033 2.74007C69.8911 2.81331 69.9505 2.91498 69.9713 3.02744C69.992 3.1399 69.9727 3.25607 69.9167 3.3558C65.7966 10.7901 52.041 33.8923 40.587 32.9627C40.587 32.9627 35.1464 32.82 33.7976 27.6325Z" fill="#0D7CB1"/>
<path d="M18.6535 22.0107C18.4249 22.2222 18.2226 22.4604 18.0509 22.7203C15.7477 21.4189 6.42348 21.5724 2.17554 21.8438C5.66154 21.5193 9.32018 21.1126 12.8195 21.0412C13.8611 21.0197 17.4874 20.3839 18.1837 20.8678C18.3636 20.993 18.5035 21.1674 18.5869 21.3701C18.6702 21.5728 18.6933 21.7952 18.6535 22.0107Z" fill="#DBA924"/>
<path d="M33.7976 31.574C33.7976 31.574 39.176 25.7756 52.4668 19.5589C66.6723 12.9189 78.1702 4.93848 82.3551 1.89487C82.4311 1.83859 82.5243 1.81071 82.6187 1.81608C82.7131 1.82146 82.8026 1.85974 82.8717 1.92428C82.9408 1.98882 82.9851 2.07553 82.9968 2.16933C83.0086 2.26313 82.9871 2.35809 82.9361 2.43769C77.937 10.3252 57.2941 41.2585 42.0661 39.0025C42.0661 39.0025 35.0899 38.3568 33.7976 31.574Z" fill="#11A5D3"/>
<path d="M33.41 26.3419C33.41 26.3419 29.7239 19.1101 28.264 17.8087C27.7509 17.1711 27.109 16.6491 26.3802 16.2769C25.6514 15.9047 24.8522 15.6906 24.0349 15.6487C23.2176 15.6068 22.4007 15.7381 21.6376 16.0338C20.8746 16.3296 20.1827 16.7832 19.6071 17.365C19.0316 17.9468 18.5854 18.6436 18.2979 19.4098C18.0104 20.176 17.888 20.9942 17.9386 21.811C17.9893 22.6278 18.212 23.4247 18.5921 24.1494C18.9721 24.8742 19.501 25.5104 20.1441 26.0166C20.1441 26.0166 18.9406 45.5299 34.9612 54.5088C34.9612 54.5088 35.9506 55.0989 37.4811 55.8924C39.8765 59.3153 44.3461 67.3589 45.7496 81.1883C45.7488 81.1858 57.353 47.4513 33.41 26.3419Z" fill="#11A5D3"/>
<path d="M25.1531 21.2024H24.8369C24.8279 20.8321 24.6745 20.4799 24.4094 20.2211C24.1443 19.9623 23.7885 19.8175 23.418 19.8175C23.0475 19.8175 22.6917 19.9623 22.4266 20.2211C22.1615 20.4799 22.008 20.8321 21.9991 21.2024H21.6829C21.6928 20.7488 21.8799 20.3172 22.2043 19.9999C22.5286 19.6826 22.9643 19.5049 23.418 19.5049C23.8717 19.5049 24.3074 19.6826 24.6317 19.9999C24.956 20.3172 25.1432 20.7488 25.1531 21.2024Z" fill="#141414"/>
<path d="M46.0045 80.3739C45.8459 80.9035 45.7488 81.1857 45.7488 81.1857C44.3453 67.3571 39.8757 59.3127 37.4804 55.8906C35.9498 55.0963 34.9605 54.507 34.9605 54.507C27.7195 50.4483 23.997 44.2374 22.0955 38.654C22.1303 38.6332 22.166 38.6142 22.2025 38.5959C22.5785 38.4083 23.006 38.3544 23.4251 38.3237C27.058 38.0572 30.7183 39.3703 33.5877 41.6146C36.457 43.8589 38.5635 46.9781 39.9231 50.3553C40.7738 52.4644 41.3465 54.6713 41.9151 56.8758L41.8852 56.8816C44.0365 64.5608 46.1987 72.474 46.0045 80.3739Z" fill="#18D2F8"/>
<path d="M80.8601 5.62988C73.8648 16.1518 56.7419 39.5844 43.2835 39.1129C42.6241 38.3466 42.0947 37.4774 41.7165 36.5399C41.4492 35.8759 41.2575 35.1513 41.362 34.4409C41.509 33.439 42.2161 32.6149 42.9698 31.9367C44.7227 30.3597 46.8525 29.2807 48.9549 28.2192C55.3135 25.0037 61.7029 21.7626 67.4465 17.547C72.2729 14.0062 76.5823 9.81973 80.8601 5.62988Z" fill="#18D2F8"/>
</g>
<defs>
<clipPath id="clip0_2181_17400">
<rect width="83" height="83" fill="white"/>
</clipPath>
</defs>
</svg>
