<svg width="107" height="107" viewBox="0 0 107 107" fill="none" xmlns="http://www.w3.org/2000/svg">
<g clip-path="url(#clip0_2181_17547)">
<path d="M38.8519 51.6508C38.8519 51.6508 27.689 56.2289 31.2199 63.4168C34.7507 70.6047 47.3191 73.8482 48.6282 71.4728C49.9373 69.0973 38.1745 70.8909 38.5794 64.6623C38.9844 58.4337 47.5629 62.6059 49.243 56.8692C50.9231 51.1325 38.8519 51.6508 38.8519 51.6508Z" fill="#1AA24E"/>
<path d="M86.8296 73.9755C89.1033 74.4419 91.4798 74.2935 93.7323 73.7264C95.123 73.3787 96.5074 72.8561 97.5907 71.918C98.8627 70.8199 99.6195 69.2309 100.035 67.6038C100.451 65.9767 100.552 64.2902 100.718 62.6218C100.774 62.0589 100.84 61.4844 101.077 60.9703C101.453 60.1531 102.224 59.5785 103.039 59.1948C103.854 58.8111 104.735 58.5885 105.57 58.2567C105.852 58.1444 106.141 58.0119 106.329 57.7755C106.518 57.5391 106.573 57.1681 106.375 56.9391C106.214 56.7526 105.943 56.7112 105.697 56.6964C104.057 56.5973 102.438 57.0992 101.142 58.1081C99.8457 59.1171 98.9619 60.564 98.656 62.1777C98.3083 64.0199 98.7334 65.964 98.2426 67.7745C98.0582 68.4539 97.7497 69.0931 97.4359 69.7238C97.1126 70.3736 95.4707 72.0622 92.8981 72.4968C91.7236 72.695 90.4993 72.5392 89.3513 72.2244C87.1953 71.6318 85.4357 70.027 83.2966 69.3761C82.5546 69.1503 81.4999 69.0804 81.0939 69.9178C80.6985 70.7308 81.4533 71.3583 82.0363 71.8152C83.4238 72.9038 85.105 73.6214 86.8296 73.9755Z" fill="#FF98A1"/>
<path d="M68.4514 62.6027L65.0816 65.2877C65.0816 65.2877 64.3396 67.9154 66.767 68.8291C69.1944 69.7428 72.9256 70.1997 72.6596 71.5141C72.3935 72.8285 67.138 72.0282 64.682 70.9428C62.226 69.8573 53.7714 65.7488 60.1124 59.4619L68.4514 62.6027Z" fill="#1AA24E"/>
<path d="M97.5961 71.9181C97.6851 71.8418 97.7699 71.7623 97.8536 71.6818C94.7341 73.2993 91.0241 73.6417 87.6236 72.8138C85.8861 72.4012 84.241 71.6675 82.773 70.6504C82.3649 70.3631 81.8784 69.7875 81.3516 69.5649C81.2423 69.6645 81.1533 69.7844 81.0898 69.9179C80.6944 70.7309 81.4491 71.3585 82.0321 71.8153C83.4239 72.9039 85.1061 73.6173 86.8297 73.9756C89.1034 74.442 91.4799 74.2936 93.7324 73.7265C95.1231 73.3809 96.5074 72.8562 97.5961 71.9181Z" fill="#FF7D95"/>
<path d="M106.329 57.7736C106.421 57.6568 106.479 57.5165 106.495 57.3687C105.02 57.4757 103.58 57.8673 102.255 58.5219C101.407 58.9459 100.549 59.548 100.278 60.4575C100.134 60.9387 100.172 61.4518 100.209 61.9521C100.292 63.0347 100.374 64.1166 100.456 65.1978C100.562 64.3413 100.628 63.4785 100.712 62.6199C100.769 62.057 100.834 61.4825 101.072 60.9684C101.448 60.1512 102.219 59.5766 103.034 59.1929C103.849 58.8092 104.73 58.5866 105.565 58.2548C105.852 58.1425 106.141 58.011 106.329 57.7736Z" fill="#FF7D95"/>
<path d="M12.6318 30.79C17.1474 30.3002 24.9394 33.0584 23.3452 40.9373C21.9471 47.8432 14.8546 45.5791 13.6473 45.2399C12.4399 44.9007 11.859 42.0048 14.9521 43.3075C18.0452 44.6102 22.547 41.7641 19.5027 37.4393C16.9216 33.7717 11.7138 33.7866 7.75048 38.6679C3.78714 43.5492 10.6983 56.2088 21.6693 49.6495C32.6403 43.0902 39.7953 39.5371 50.2798 39.6346C59.1838 39.7162 65.2406 46.302 66.8677 48.2884C67.0717 48.5531 67.2621 48.828 67.438 49.1121C67.5409 49.2686 67.6793 49.3987 67.8419 49.4918C68.0045 49.5848 68.1868 49.6382 68.3739 49.6476C68.561 49.657 68.7477 49.6222 68.9188 49.5459C69.09 49.4696 69.2407 49.354 69.3587 49.2085H69.3693C70.0393 48.7919 70.3233 46.0179 70.3233 46.0179C70.3847 45.3668 70.6369 44.7483 71.0485 44.2401C71.46 43.7318 72.0125 43.3564 72.6366 43.161C73.2606 42.9656 73.9286 42.9588 74.5565 43.1416C75.1844 43.3244 75.7443 43.6885 76.1661 44.1884C78.8606 46.3211 85.0955 52.1384 89.3535 59.5584C89.8682 60.5871 90.1462 61.718 90.1671 62.8681C90.188 64.0182 89.9514 65.1585 89.4746 66.2053C88.9977 67.2521 88.2927 68.179 87.4112 68.918C86.5297 69.657 85.494 70.1895 84.38 70.4764C81.9081 71.4749 77.1635 70.1308 74.4489 69.198C73.7488 69.0205 73.07 68.7678 72.4243 68.4443L72.4105 68.439C72.4105 68.439 67.4539 66.7759 60.4325 64.4799L58.3464 66.142C57.1338 67.1087 56.7447 68.8397 57.5503 70.17C57.8895 70.7286 58.4418 71.2374 59.3216 71.5692C62.403 72.7289 67.1391 73.3087 66.7999 74.9761C66.4607 76.6434 59.7933 75.628 56.6758 74.251C53.7396 72.9536 49.2336 69.7683 49.4 63.6425C47.2259 63.4708 42.1655 62.9535 39.754 61.9465C35.3645 60.117 33.9007 61.8257 33.8456 66.8755C33.7608 74.6835 47.3203 73.3045 45.6815 76.2767C44.0428 79.2489 28.3389 75.1828 23.9165 66.1908C23.8994 66.1563 23.8842 66.1209 23.871 66.0848C23.0145 63.7167 20.9655 61.9964 18.4544 61.8236C13.059 61.4536 6.96184 60.8261 3.48186 54.8085C-4.19042 41.5384 4.42208 31.6804 12.6318 30.79Z" fill="#26C254"/>
<path d="M61.2254 40.1519C60.8724 39.9537 60.4484 39.9463 60.0435 39.9399C59.9488 39.9323 59.8536 39.9472 59.7658 39.9834C59.659 40.0527 59.5808 40.158 59.5453 40.2802C58.9782 41.7472 59.081 44.6463 61.2699 44.3665C63.3942 44.0983 62.5928 40.9173 61.2254 40.1519Z" fill="#1AA24E"/>
<path d="M54.3088 38.2608C53.9283 38.124 53.5075 38.1855 53.1078 38.2491C53.0134 38.2569 52.9222 38.287 52.8418 38.3371C52.7476 38.4225 52.6876 38.5393 52.6732 38.6657C52.3552 40.2069 52.934 43.0499 55.0476 42.4128C57.0977 41.7927 55.7844 38.7908 54.3088 38.2608Z" fill="#1AA24E"/>
<path d="M46.8273 37.521C46.4457 37.3843 46.0259 37.4458 45.6263 37.5094C45.5318 37.517 45.4406 37.5471 45.3602 37.5974C45.2658 37.6832 45.2056 37.8003 45.1906 37.927C44.8726 39.4672 45.4524 42.3101 47.5661 41.6731C49.6161 41.0561 48.3059 38.051 46.8273 37.521Z" fill="#1AA24E"/>
<path d="M37.8226 39.143C37.4325 39.249 37.123 39.5384 36.8315 39.8193C36.758 39.8791 36.7002 39.9558 36.6629 40.0429C36.6346 40.1671 36.6519 40.2973 36.7117 40.4097C37.3307 41.8555 39.4306 43.8579 40.8012 42.1279C42.1315 40.4489 39.3363 38.7328 37.8226 39.143Z" fill="#1AA24E"/>
<path d="M29.9584 42.3355C29.5779 42.4744 29.2948 42.7902 29.0288 43.0955C28.961 43.1616 28.9101 43.2431 28.8804 43.333C28.8625 43.4594 28.8916 43.5879 28.962 43.6944C29.704 45.0809 31.9703 46.8935 33.185 45.0502C34.3638 43.263 31.4297 41.7928 29.9584 42.3355Z" fill="#1AA24E"/>
<path d="M79.4425 64.9838C81.8848 64.9838 83.8648 63.0039 83.8648 60.5615C83.8648 58.1191 81.8848 56.1392 79.4425 56.1392C77.0001 56.1392 75.0201 58.1191 75.0201 60.5615C75.0201 63.0039 77.0001 64.9838 79.4425 64.9838Z" fill="#1AA24E"/>
<path d="M23.3452 40.9373C21.9471 47.8432 14.8546 45.578 13.6473 45.2399C13.1978 45.1137 12.8353 44.6336 12.7166 44.1481C12.8244 44.1593 12.9309 44.181 13.0346 44.2127C14.5419 44.6219 16.0439 45.1445 17.6053 45.1848C19.1667 45.225 20.85 44.6813 21.716 43.3828C22.406 42.3471 22.4696 41.0306 22.4972 39.7872C22.5354 38.0965 22.5089 36.2712 21.5072 34.9112C20.9666 34.1777 20.1906 33.652 19.3872 33.228C15.6984 31.286 11.0132 31.303 7.40916 33.3923C3.80516 35.4815 1.43818 39.6155 1.60142 43.7803C1.65018 45.0183 1.90458 46.2384 2.22364 47.4351C2.8077 49.6283 3.62814 51.7928 4.95208 53.6436C5.62462 54.5625 6.38428 55.4145 7.22048 56.1876C8.00577 56.9526 8.86787 57.6346 9.7931 58.2228C11.4488 59.2372 13.3314 59.7969 15.2383 60.1053C17.2237 60.4233 19.2928 60.2314 21.2506 60.559C21.4404 61.355 21.6057 62.1893 21.5135 62.9281C20.6169 62.2818 19.5571 61.8996 18.4544 61.8246C13.059 61.4536 6.96184 60.8272 3.48186 54.8096C-4.19042 41.5384 4.42208 31.6804 12.6318 30.79C17.1474 30.3002 24.9394 33.0584 23.3452 40.9373Z" fill="#65EC73"/>
<path d="M38.4088 59.5425C38.4088 59.7036 38.4035 59.8605 38.3908 60.028C38.3418 60.4975 38.1764 60.9475 37.9096 61.337C37.0319 61.1547 36.3196 61.1939 35.7578 61.443C35.5175 61.551 35.2986 61.7011 35.1112 61.8861C35.9083 60.2007 35.9348 58.421 35.567 57.1458C35.037 55.312 33.9855 53.6764 32.8661 52.1299C35.7535 53.5047 38.3919 56.3815 38.4088 59.5425Z" fill="#1AA24E"/>
<path d="M56.0536 56.709C53.852 57.929 50.9083 61.1726 49.4307 63.6541C49.4233 63.6668 49.4159 63.6785 49.4063 63.6923C49.4063 63.6711 49.4063 63.6499 49.4063 63.6287L49.3003 63.6202C48.8763 63.5863 48.3463 63.5396 47.7601 63.4792C47.9637 62.8517 48.5626 62.1012 48.9919 61.6104C49.153 61.427 49.2897 61.2808 49.3724 61.1864C52.1803 58.1909 54.9576 57.2846 56.0536 56.709Z" fill="#1AA24E"/>
<path d="M48.995 61.615C48.5657 62.1037 47.9668 62.8563 47.7633 63.4838C45.2787 63.2305 41.6821 62.7418 39.7656 61.9415C39.1673 61.6833 38.5458 61.4824 37.9095 61.3416C38.1775 60.9498 38.3429 60.4972 38.3908 60.025C38.4035 59.8629 38.4099 59.7007 38.4088 59.5396C40.1928 59.795 41.9683 60.1151 43.7427 60.4353L47.4199 61.0988C47.9658 61.2006 48.5382 61.3119 48.995 61.615Z" fill="#65EC73"/>
<path d="M68.7247 67.2012C66.6524 66.5133 63.8233 65.5783 60.5352 64.5035C60.9621 64.2057 61.449 64.005 61.9617 63.9155C62.4745 63.8259 63.0006 63.8497 63.5032 63.9852C64.2006 64.1823 64.8165 64.5904 65.4186 64.9932L68.7247 67.2012Z" fill="#65EC73"/>
<path d="M80.8342 61.8512L80.566 61.7569C80.6751 61.4049 80.6434 61.0243 80.4778 60.6951C80.3122 60.3659 80.0254 60.1137 79.6778 59.9915C79.3301 59.8692 78.9486 59.8864 78.6134 60.0395C78.2782 60.1926 78.0153 60.4696 77.88 60.8124L77.6129 60.7181C77.7635 60.2916 78.077 59.9422 78.4846 59.7463C78.8923 59.5504 79.3609 59.5241 79.788 59.673C80.2153 59.8235 80.5653 60.1374 80.7615 60.5458C80.9576 60.9541 80.9838 61.4236 80.8342 61.8512Z" fill="#141414"/>
<path d="M62.278 43.8167C62.066 44.105 61.7416 44.3085 61.2699 44.3689C59.081 44.6488 58.9782 41.7497 59.5453 40.2826C59.5808 40.1645 59.6556 40.062 59.7573 39.9922C60.0891 40.2042 59.9926 40.6345 60.1294 41.0437C60.3891 41.8186 61.1268 42.4302 61.8254 42.816C61.9549 42.8734 62.0703 42.9584 62.1635 43.0651C62.2507 43.2134 62.2917 43.3842 62.2812 43.5559C62.2822 43.6418 62.2833 43.7297 62.278 43.8167Z" fill="#108348"/>
<path d="M55.6656 42.0779C55.4872 42.2342 55.276 42.3487 55.0476 42.4128C52.934 43.0488 52.3552 40.2059 52.6732 38.6657C52.6876 38.5394 52.7476 38.4226 52.8418 38.3371C52.922 38.2866 53.0133 38.2564 53.1078 38.2492L53.2785 38.2227C53.4629 38.4548 53.411 38.8141 53.5276 39.1618C53.7873 39.9377 54.525 40.5483 55.2236 40.9352C55.3527 40.9928 55.468 41.0773 55.5617 41.1832C55.6488 41.3315 55.6897 41.5024 55.6794 41.674C55.6881 41.8088 55.6834 41.944 55.6656 42.0779Z" fill="#108348"/>
<path d="M48.2838 41.2373C48.0906 41.4475 47.8418 41.5985 47.5662 41.673C45.4526 42.309 44.8738 39.4671 45.1907 37.9269C45.2057 37.8002 45.266 37.6831 45.3603 37.5973C45.4407 37.547 45.5319 37.5169 45.6264 37.5093C45.7091 37.4955 45.7918 37.4828 45.8755 37.4722C46.0716 37.7043 46.0165 38.07 46.1341 38.4262C46.3938 39.201 47.1316 39.8116 47.8301 40.1985C47.96 40.2554 48.0755 40.3405 48.1683 40.4476C48.2556 40.5958 48.2966 40.7667 48.2859 40.9384C48.2915 41.038 48.2907 41.1378 48.2838 41.2373Z" fill="#108348"/>
<path d="M41.0503 41.706C40.9878 41.8568 40.9039 41.9978 40.8012 42.1247C39.4306 43.8546 37.3307 41.8523 36.7117 40.4064C36.6519 40.294 36.6346 40.1638 36.6629 40.0397C36.6685 40.0228 36.6756 40.0065 36.6841 39.9909C37.124 39.9315 37.2894 40.3619 37.6551 40.6269C38.3155 41.1092 39.2705 41.1813 40.0656 41.0912C40.2057 41.0623 40.3505 41.0649 40.4896 41.0986C40.6462 41.1695 40.7783 41.2854 40.869 41.4314C40.9357 41.5187 40.9963 41.6104 41.0503 41.706Z" fill="#108348"/>
<path d="M33.2869 44.8763C33.2548 44.9361 33.2194 44.9941 33.1809 45.0501C31.9661 46.8924 29.6999 45.0808 28.9579 43.6944C28.8874 43.5879 28.8584 43.4593 28.8762 43.3329C28.8818 43.3106 28.8896 43.2889 28.8996 43.2682C29.3956 43.1474 29.5599 43.6106 29.9447 43.8915C30.6051 44.3738 31.5601 44.4459 32.3551 44.3558C32.4953 44.3275 32.64 44.33 32.7791 44.3632C32.9354 44.4348 33.0673 44.5505 33.1586 44.6961C33.2031 44.7544 33.2477 44.8137 33.2869 44.8763Z" fill="#108348"/>
</g>
<defs>
<clipPath id="clip0_2181_17547">
<rect width="106" height="106" fill="white" transform="translate(0.5 0.98291)"/>
</clipPath>
</defs>
</svg>
