<svg width="679" height="117" viewBox="0 0 679 117" fill="none" xmlns="http://www.w3.org/2000/svg">
<path fill-rule="evenodd" clip-rule="evenodd" d="M17.6498 39.8059C27.3975 39.8059 35.2996 47.708 35.2996 57.4557C35.2996 67.2034 27.3975 75.1055 17.6498 75.1055C7.90208 75.1055 0 67.2034 0 57.4557C0 47.708 7.90208 39.8059 17.6498 39.8059Z" fill="#18D2F8"/>
<path fill-rule="evenodd" clip-rule="evenodd" d="M129.932 35.2997C136.569 35.2997 141.949 40.6799 141.949 47.3166C141.949 53.9534 136.569 59.3335 129.932 59.3335C123.295 59.3335 117.915 53.9534 117.915 47.3166C117.915 40.6799 123.295 35.2997 129.932 35.2997Z" fill="#33E257"/>
<path fill-rule="evenodd" clip-rule="evenodd" d="M247.848 76.6084C252.411 76.6084 256.11 80.3072 256.11 84.87C256.11 89.4327 252.411 93.1316 247.848 93.1316C243.285 93.1316 239.586 89.4327 239.586 84.87C239.586 80.3072 243.285 76.6084 247.848 76.6084Z" fill="#18D2F8"/>
<path fill-rule="evenodd" clip-rule="evenodd" d="M416.087 6.46059C426.042 6.46059 434.113 14.5308 434.113 24.4859C434.113 34.441 426.042 42.5112 416.087 42.5112C406.132 42.5112 398.062 34.441 398.062 24.4859C398.062 14.5308 406.132 6.46059 416.087 6.46059Z" fill="#18D2F8"/>
<path fill-rule="evenodd" clip-rule="evenodd" d="M617.227 93.0806C623.656 93.0806 628.868 98.2926 628.868 104.722C628.868 111.151 623.656 116.363 617.227 116.363C610.797 116.363 605.585 111.151 605.585 104.722C605.585 98.2926 610.797 93.0806 617.227 93.0806Z" fill="#FF5E3C"/>
<g style="mix-blend-mode:darken">
<path fill-rule="evenodd" clip-rule="evenodd" d="M483.455 24.5989C486.566 24.5989 489.088 27.1209 489.088 30.2318C489.088 33.3428 486.566 35.8647 483.455 35.8647C480.344 35.8647 477.822 33.3428 477.822 30.2318C477.822 27.1209 480.344 24.5989 483.455 24.5989Z" fill="#33E257"/>
</g>
<g style="mix-blend-mode:darken">
<path fill-rule="evenodd" clip-rule="evenodd" d="M212.924 0.000133514C222.257 0.000133514 229.823 7.56595 229.823 16.8989C229.823 26.2318 222.257 33.7976 212.924 33.7976C203.591 33.7976 196.025 26.2318 196.025 16.8989C196.025 7.56595 203.591 0.000133514 212.924 0.000133514Z" fill="#FF5484"/>
</g>
<path fill-rule="evenodd" clip-rule="evenodd" d="M530.407 68.0587C535.385 68.0587 539.42 72.0938 539.42 77.0713C539.42 82.0489 535.385 86.084 530.407 86.084C525.429 86.084 521.394 82.0489 521.394 77.0713C521.394 72.0938 525.429 68.0587 530.407 68.0587Z" fill="#DB3D78"/>
<path fill-rule="evenodd" clip-rule="evenodd" d="M669.987 39.2564C674.965 39.2564 679 43.2915 679 48.2691C679 53.2466 674.965 57.2817 669.987 57.2817C665.01 57.2817 660.975 53.2466 660.975 48.2691C660.975 43.2915 665.01 39.2564 669.987 39.2564Z" fill="#18D2F8"/>
<g style="mix-blend-mode:darken">
<path fill-rule="evenodd" clip-rule="evenodd" d="M331.746 56.9808C336.723 56.9808 340.758 61.0159 340.758 65.9934C340.758 70.971 336.723 75.0061 331.746 75.0061C326.768 75.0061 322.733 70.971 322.733 65.9934C322.733 61.0159 326.768 56.9808 331.746 56.9808Z" fill="#18B6E1"/>
</g>
</svg>
