<svg width="383" height="324" viewBox="0 0 383 324" fill="none" xmlns="http://www.w3.org/2000/svg">
<path d="M22.7259 291.553L40.7318 264.138L34.7881 297.358L22.7259 291.553Z" fill="#C98F7F"/>
<path d="M130.412 12.3083C132.509 10.4329 135.131 8.379 137.317 9.18272C138.977 9.80782 139.677 11.7725 140.376 13.5585C140.988 15.3445 141.774 17.0412 142.561 18.738C142.998 19.631 143.522 20.6133 144.309 21.1491C145.096 21.6849 146.232 21.8635 147.281 21.2384C149.116 20.0775 149.117 17.3984 148.68 15.4338C147.718 10.6115 145.97 6.05717 143.523 2.03862C142.998 1.2349 142.474 0.341881 141.512 0.0739773C140.813 -0.104625 140.114 0.0739882 139.327 0.252591C136.18 1.1456 133.121 2.84232 130.149 4.53904C122.37 9.0934 115.814 14.3622 108.297 19.5417C106.899 20.524 101.217 27.8467 100.343 30.4364C99.4693 32.9368 98.2457 35.4373 96.7598 37.6698C95.4487 39.5452 92.3018 45.439 96.5848 42.4921C100.256 39.9916 102.266 32.9369 105.588 29.9006C113.454 23.0244 122.632 19.3631 130.412 12.3083Z" fill="#262728"/>
<path d="M125.691 31.6865C116.951 45.8854 117.038 63.8349 117.038 80.6236C116.951 98.3945 117.563 116.255 120.447 133.847C124.293 156.976 132.16 179.212 142.649 200.109C151.04 216.808 161.528 233.239 177.262 243.063C192.907 252.886 214.759 254.493 228.919 242.527C236.174 236.454 240.807 225.56 236.174 217.255C231.017 207.967 217.906 207.163 210.564 199.573C206.368 195.286 204.445 189.125 203.309 183.141C201.736 174.658 201.386 165.906 201.91 157.333C202.872 141.348 206.63 125.542 212.924 110.897C217.556 100.181 223.5 90.0895 227.958 79.1948C232.415 68.3893 235.213 56.4229 233.202 44.9031C230.58 30.4363 220.266 18.0234 207.33 11.5937C192.645 4.4496 146.232 -1.71219 125.691 31.6865Z" fill="#F4BBB5"/>
<path d="M236.174 217.969C231.017 208.682 217.906 207.878 210.564 200.287C206.368 196.001 204.445 189.839 203.309 183.856C201.736 175.372 201.386 166.621 201.91 158.048C202.872 142.063 206.63 126.257 212.924 111.611C217.556 100.895 223.5 90.804 227.958 79.9093C232.415 69.1038 235.213 57.1374 233.202 45.6175C232.415 40.9739 230.755 36.5981 228.57 32.5796C228.657 34.4549 229.531 36.5981 229.706 37.9377C231.017 45.439 231.367 53.2975 229.619 60.7988C227.87 67.9429 224.199 74.4619 220.528 80.8915C206.98 104.199 192.296 127.507 186.09 153.94C182.943 167.246 182.156 181.534 186.265 194.572C188.625 201.984 192.47 208.771 197.19 214.933C201.91 221.005 207.767 226.542 215.021 228.685C222.801 230.918 231.279 228.953 238.097 224.309C237.835 222.166 237.223 220.023 236.174 217.969Z" fill="#E8968E"/>
<path d="M211.787 200.734C211.35 200.377 211.001 200.02 210.564 199.573C208.029 196.983 206.368 193.768 205.145 190.375C194.656 199.573 182.069 206.092 168.434 208.146C161.091 209.218 153.487 208.771 146.32 206.985C149.903 213.504 153.837 219.844 158.469 225.649C165.199 223.595 171.843 221.095 178.485 219.041C186.964 216.362 195.879 214.129 203.134 208.95C206.368 206.539 209.253 203.77 211.787 200.734Z" fill="#E8968E"/>
<path d="M118.262 115.808C118.786 121.792 119.486 127.864 120.447 133.847V133.936C122.37 135.187 124.468 136.348 126.566 137.151C133.645 140.098 141.425 140.813 149.029 140.634C160.916 140.455 172.717 138.312 183.905 134.383C189.499 132.418 195.005 129.918 200.162 126.792C203.309 124.828 206.368 122.685 209.253 120.363C210.389 117.237 211.525 114.022 212.924 110.986C214.41 107.593 215.983 104.199 217.644 100.895C200.075 115.54 179.272 126.435 156.808 127.864C147.281 128.489 137.404 127.328 128.751 123.131C124.992 121.256 121.408 118.755 118.262 115.808Z" fill="#E8968E"/>
<path d="M183.992 176.176C190.11 173.319 195.967 170.015 201.736 166.442C201.736 163.406 201.736 160.37 201.998 157.334C202.085 156.351 202.085 155.369 202.173 154.476C199.55 156.351 196.928 158.137 194.219 159.834C183.293 166.442 170.793 170.907 158.207 170.372C150.602 170.104 143.173 167.961 136.093 165.014C132.946 163.674 129.8 162.156 126.828 160.459C129.188 168.228 131.985 175.908 135.131 183.499C138.977 184.749 142.911 185.374 146.931 185.553C159.693 185.999 172.367 181.713 183.992 176.176Z" fill="#E8968E"/>
<path d="M287.832 190.822C295.698 179.659 300.331 166.442 306.624 154.208C311.519 144.653 317.637 135.544 325.854 128.668C334.07 121.792 344.472 117.327 355.048 117.773C365.624 118.22 376.2 124.203 380.92 133.847C383.63 139.384 384.067 146.796 379.959 151.35C379.172 152.243 377.774 152.958 376.987 152.065C376.55 151.529 376.637 150.815 376.725 150.1C377.424 141.438 370.169 133.49 361.865 131.615C353.562 129.739 344.734 133.133 338.091 138.491C325.592 148.493 319.386 164.567 315.802 180.284C312.218 196.09 310.732 212.432 305.138 227.524C302.516 234.579 298.932 241.366 293.426 246.367C289.405 250.028 284.423 252.529 279.353 254.315C269.651 257.708 259.075 258.601 248.936 256.815C244.128 256.011 238.971 254.315 236.087 250.207C234.426 247.796 233.727 244.849 233.464 241.902C232.328 229.042 240.894 214.129 253.481 210.557C259.687 208.86 265.368 209.218 271.312 206.003C277.78 202.609 283.461 197.073 287.832 190.822Z" fill="#E8968E"/>
<path d="M376.637 150.1C376.55 150.725 376.55 151.529 376.9 152.065C377.424 152.69 378.21 152.511 378.91 152.154C378.123 144.831 379.434 136.884 375.676 130.722C372.005 124.471 364.138 121.97 357.058 122.327C346.219 122.953 336.255 129.293 329.088 137.598C321.92 145.903 317.288 156.173 313.354 166.532C309.421 176.891 306.187 187.517 301.38 197.519C299.806 200.734 298.058 203.949 297.184 207.432C296.31 210.914 296.31 214.844 298.146 217.88C300.243 221.363 303.39 222.345 306.886 221.988C310.995 208.503 312.568 194.215 315.627 180.373C319.211 164.567 325.417 148.493 337.916 138.58C344.646 133.222 353.387 129.918 361.691 131.704C370.082 133.49 377.337 141.438 376.637 150.1Z" fill="#D88B87"/>
<path d="M371.568 289.946L352.251 259.494L343.597 279.498L355.397 297.447L371.568 289.946Z" fill="#C98F7F"/>
<path d="M10.2268 298.072H1.39862V305.395L163.976 313.253C163.976 313.253 174.028 323.255 185.391 323.97C196.754 324.684 205.145 312.539 205.145 312.539L374.015 298.072L371.568 289.856L360.38 293.518L181.72 304.591L10.2268 298.072Z" fill="#996D5F"/>
<path d="M167.647 307.449C167.647 307.449 169.745 317.629 185.391 317.629C200.949 317.629 203.134 307.002 203.134 307.002L197.715 292.268L183.642 284.409L171.318 289.946L167.647 307.449Z" fill="#6D4D45"/>
<path d="M0 261.548C0.349628 261.459 38.7214 192.161 38.7214 192.161C38.7214 192.161 72.0236 183.41 104.801 187.785C137.579 192.161 185.128 228.328 185.128 228.328C185.128 228.328 223.238 192.161 267.641 184.303C290.367 180.284 347.006 184.303 347.006 184.303L369.645 256.726L185.216 289.857L0 261.548Z" fill="#FFE5C0"/>
<path d="M243.516 36.3303C245.177 34.7229 247.362 33.0261 249.547 33.6512C251.208 34.187 252.17 35.9731 253.044 37.4912C253.918 39.0986 254.879 40.5274 255.928 42.0455C256.54 42.8492 257.152 43.653 257.939 44.1888C258.813 44.7246 259.861 44.8139 260.736 44.3674C262.309 43.3851 261.872 40.9739 261.26 39.2772C259.599 34.9907 257.327 31.0615 254.442 27.4894C253.83 26.775 253.131 25.9713 252.257 25.7927C251.558 25.6141 250.946 25.7927 250.247 25.9713C247.362 26.6857 244.74 28.1146 242.205 29.6327C235.562 33.5619 229.182 38.027 222.888 42.492C221.752 43.2957 220.528 44.1888 219.742 45.3497C218.431 47.225 218.431 49.7255 217.994 51.958C217.557 54.1905 216.77 56.3338 215.634 58.2091C214.672 59.8165 212.574 64.996 216.245 62.4955C219.305 60.3523 222.014 57.1374 224.636 54.5477C230.93 48.4752 237.223 42.4028 243.516 36.3303Z" fill="#262728"/>
<path d="M145.708 51.6903C145.708 59.1916 140.463 65.1748 133.908 65.1748C127.352 65.1748 122.108 59.1023 122.108 51.6903C122.108 44.189 127.352 38.2058 133.908 38.2058C140.463 38.1165 145.708 44.189 145.708 51.6903Z" fill="#262728"/>
<path d="M128.139 44.6356C127.527 45.4393 127.003 46.4216 126.828 47.4039C126.566 48.4755 126.653 49.6364 127.177 50.5294C127.702 51.4224 128.838 51.8689 129.625 51.4224C130.761 50.7973 131.023 49.1899 131.548 47.8504C132.072 46.5109 133.121 45.35 134.257 44.8142C134.607 44.6356 135.044 44.457 135.394 44.1891C135.743 43.9211 135.918 43.3853 135.831 42.9388C135.481 41.9565 132.946 41.7779 132.072 41.8672C130.499 41.9565 129.1 43.2067 128.139 44.6356Z" fill="white"/>
<path d="M200.687 56.691C200.687 64.1923 195.442 70.1755 188.887 70.1755C182.331 70.1755 177.087 64.103 177.087 56.691C177.087 49.1897 182.331 43.2065 188.887 43.2065C195.442 43.2065 200.687 49.279 200.687 56.691Z" fill="#262728"/>
<path d="M183.118 49.7254C182.506 50.5291 181.982 51.5114 181.807 52.4937C181.545 53.5653 181.632 54.7262 182.156 55.53C182.681 56.423 183.817 56.8695 184.604 56.423C185.74 55.7979 186.002 54.1904 186.527 52.8509C187.051 51.5114 188.1 50.3505 189.236 49.8147C189.586 49.6361 190.023 49.4574 190.373 49.1895C190.722 48.9216 190.897 48.3859 190.81 47.9394C190.46 46.957 187.925 46.7784 187.051 46.8677C185.39 46.957 184.079 48.2966 183.118 49.7254Z" fill="white"/>
<path d="M185.216 289.946C185.216 289.946 174.902 272.979 136.093 260.655C71.1496 240.027 0 261.548 0 261.548C0 261.548 9.52754 266.549 11.1009 282.445C11.8875 290.125 10.2268 298.162 10.2268 298.162L167.647 307.449C167.647 307.449 169.308 303.788 172.804 298.787C178.136 291.018 185.216 289.946 185.216 289.946Z" fill="#EAD0B5"/>
<path d="M185.216 289.946C185.216 289.946 195.093 272.8 233.639 259.405C298.058 237.079 369.732 256.815 369.732 256.815C369.732 256.815 360.292 262.084 359.156 277.979C358.631 285.659 360.467 293.607 360.467 293.607L203.309 306.913C203.309 306.913 201.561 303.341 197.977 298.429C197.715 298.072 197.453 297.715 197.191 297.358C196.491 296.465 195.705 295.661 195.005 295.036C190.023 290.571 185.216 289.946 185.216 289.946Z" fill="#EAD0B5"/>
<path d="M185.216 228.328L181.719 288.249L185.216 289.946L188.887 285.302L185.216 228.328Z" fill="#EAD0B5"/>
<path d="M11.2756 287.981C24.9985 284.409 47.6369 279.587 71.9361 279.23C111.182 278.783 173.591 297.626 173.591 297.626L172.279 299.412C172.279 299.412 101.305 282.087 74.1212 283.963C47.8991 285.838 21.5023 292.982 10.6638 294.857C10.489 294.947 11.2756 287.981 11.2756 287.981Z" fill="#D3BBA7"/>
<path d="M179.447 292.178C165.374 285.302 114.941 263.066 84.5228 260.477C58.3881 258.244 23.2504 264.406 6.20599 267.889C7.42969 269.764 8.56594 271.996 9.44001 274.854C23.7748 270.836 52.0072 264.852 86.9701 266.906C116.688 268.603 162.228 287.624 176.825 294.143C177.786 293.339 178.66 292.714 179.447 292.178Z" fill="#D3BBA7"/>
<path d="M365.012 261.102C349.017 258.959 311.082 254.672 283.811 258.959C255.928 263.334 212.137 285.66 195.005 295.215L197.016 297.447C213.623 288.874 254.093 269.05 281.801 265.567C317.725 260.923 347.006 265.388 361.079 268.335L365.012 261.102Z" fill="#D3BBA7"/>
<path d="M359.068 277.801C345.083 275.568 321.833 273.068 297.359 275.301C266.242 278.158 218.955 295.84 200.949 302.895L202.085 304.859C202.26 304.77 202.435 304.77 202.61 304.681C222.276 297.894 273.759 280.927 295.523 280.212C321.396 279.319 344.122 281.998 359.068 284.409V277.801Z" fill="#D3BBA7"/>
<path opacity="0.27" d="M151.389 46.8678C151.389 62.3169 139.152 74.8191 124.031 74.8191C108.909 74.8191 96.6723 62.3169 96.6723 46.8678C96.6723 31.4187 108.909 18.9165 124.031 18.9165C139.152 18.9165 151.389 31.508 151.389 46.8678Z" fill="#75787A"/>
<path d="M124.031 79.463C106.462 79.463 92.2145 64.9068 92.2145 46.9573C92.2145 29.0077 106.462 14.4517 124.031 14.4517C141.6 14.4517 155.847 29.0077 155.847 46.9573C155.847 64.9068 141.6 79.463 124.031 79.463ZM124.031 22.1315C110.658 22.1315 99.8191 33.2049 99.8191 46.868C99.8191 60.5311 110.658 71.6045 124.031 71.6045C137.404 71.6045 148.243 60.5311 148.243 46.868C148.243 33.2942 137.404 22.1315 124.031 22.1315Z" fill="#262728"/>
<path opacity="0.64" d="M107.511 35.8838C105.5 39.4559 104.801 43.7423 105.151 47.8502C105.326 49.8148 105.763 51.6901 106.899 53.2976C108.035 54.905 109.871 55.9766 111.794 55.6194C114.416 55.1729 115.989 52.2259 116.339 49.5469C116.601 46.7786 116.077 44.0102 116.339 41.3312C116.776 37.7591 118.874 34.5443 121.846 32.6689C122.632 32.2224 123.419 31.776 124.118 31.1509C124.817 30.5258 125.254 29.6327 124.992 28.7397C124.817 27.8467 123.856 27.2216 122.982 27.043C122.108 26.8644 121.146 27.043 120.185 27.2216C114.591 28.3825 110.395 30.7936 107.511 35.8838Z" fill="white"/>
<path opacity="0.27" d="M190.897 82.4096C206.007 82.4096 218.256 69.8954 218.256 54.4584C218.256 39.0213 206.007 26.5071 190.897 26.5071C175.788 26.5071 163.539 39.0213 163.539 54.4584C163.539 69.8954 175.788 82.4096 190.897 82.4096Z" fill="#75787A"/>
<path d="M190.897 86.9642C173.328 86.9642 159.081 72.4081 159.081 54.4586C159.081 36.509 173.328 21.9529 190.897 21.9529C208.466 21.9529 222.713 36.509 222.713 54.4586C222.713 72.4081 208.379 86.9642 190.897 86.9642ZM190.897 29.7221C177.524 29.7221 166.686 40.7955 166.686 54.4586C166.686 68.1216 177.524 79.195 190.897 79.195C204.271 79.195 215.109 68.1216 215.109 54.4586C215.109 40.7955 204.183 29.7221 190.897 29.7221Z" fill="#262728"/>
<path opacity="0.64" d="M174.29 43.4744C172.28 47.0464 171.58 51.3329 171.93 55.4407C172.105 57.4054 172.542 59.2807 173.678 60.8881C174.814 62.4956 176.65 63.5672 178.573 63.2099C181.195 62.7634 182.768 59.8165 183.118 57.1375C183.38 54.3691 182.856 51.6008 183.205 48.9217C183.642 45.3497 185.74 42.1348 188.712 40.2595C189.499 39.813 190.285 39.3665 190.985 38.7414C191.684 38.1163 192.121 37.2233 191.859 36.3303C191.684 35.4373 190.722 34.8122 189.848 34.6335C188.974 34.4549 188.013 34.6336 187.051 34.8122C181.457 35.8838 177.262 38.2949 174.29 43.4744Z" fill="white"/>
<path d="M155.41 47.0468C157.77 46.6003 160.305 47.0468 162.402 48.2077C163.014 48.5649 163.626 49.0114 163.976 49.6365C164.325 50.2616 164.325 51.0654 164.413 51.7798C164.5 54.1909 164.413 56.5127 164.325 58.9239C163.364 56.4234 160.829 54.5481 158.207 54.2802C155.585 54.0123 152.788 55.4411 151.389 57.763C150.952 58.4774 150.603 59.3704 150.078 60.0848C149.991 60.2634 149.728 60.442 149.554 60.3527C149.379 60.2634 149.379 60.1741 149.291 59.9955C149.029 59.1025 149.117 58.2094 149.204 57.2271C149.729 51.869 149.379 48.6542 155.41 47.0468Z" fill="#262728"/>
<path d="M132.509 95.7156C135.306 95.7156 135.306 91.2505 132.509 91.2505C129.712 91.2505 129.712 95.7156 132.509 95.7156Z" fill="#E8968E"/>
<path d="M130.936 94.4653C133.995 101.163 140.026 106.253 146.932 108.486C154.798 110.986 163.626 109.021 170.706 105.271C174.377 103.306 177.786 100.448 179.447 96.5192C179.884 95.4476 179.797 94.1081 178.66 93.483C177.699 92.9472 176.125 93.2151 175.688 94.2867C173.066 100.538 165.637 103.306 159.606 104.646C153.137 106.075 146.494 104.735 141.163 100.538C138.366 98.3053 136.18 95.537 134.695 92.3221C134.17 91.2505 132.684 90.9826 131.723 91.5184C130.586 92.0542 130.412 93.3937 130.936 94.4653Z" fill="#E8968E"/>
<path d="M175.863 90.6254C177.262 91.3398 178.66 92.1435 179.971 93.1259C179.796 93.0366 179.709 92.858 179.534 92.7687C179.709 92.858 179.796 93.0366 179.971 93.1259C180.146 93.3045 180.408 93.4831 180.671 93.5724C180.933 93.751 181.195 93.751 181.545 93.751C182.069 93.751 182.681 93.4831 183.118 93.1259C183.467 92.6794 183.817 92.1436 183.73 91.5184C183.73 90.9826 183.555 90.2682 183.118 89.911C181.544 88.6608 179.971 87.4999 178.136 86.6962C177.611 86.4283 177.087 86.339 176.475 86.4283C175.951 86.6069 175.426 86.9641 175.164 87.4106C174.902 87.9464 174.727 88.5715 174.902 89.1073C175.076 89.8217 175.426 90.3575 175.863 90.6254Z" fill="#E8968E"/>
<path d="M128.314 92.5903C131.111 92.5903 131.111 88.1252 128.314 88.1252C125.517 88.1252 125.517 92.5903 128.314 92.5903Z" fill="#E8968E"/>
<path d="M129.974 91.4294C130.149 90.9829 130.411 90.5364 130.761 90.0899C130.674 90.2685 130.499 90.3578 130.412 90.5364C130.761 90.0899 131.198 89.6433 131.635 89.2861C131.46 89.3754 131.373 89.554 131.198 89.6433C131.635 89.2861 132.16 89.0182 132.684 88.7503C132.509 88.8396 132.334 88.9289 132.16 89.0182C132.509 88.8396 132.946 88.7503 133.383 88.661C133.908 88.5717 134.432 88.1252 134.694 87.6787C134.957 87.2322 135.044 86.5178 134.957 85.982C134.782 85.4462 134.432 84.9104 133.995 84.6424C133.471 84.3745 132.946 84.2853 132.334 84.3746C130.936 84.6425 129.712 85.3569 128.576 86.3392C127.614 87.1429 126.828 88.2145 126.303 89.3754C126.041 89.9112 125.954 90.447 126.041 91.0721C126.216 91.608 126.565 92.1438 127.003 92.4117C127.527 92.6796 128.139 92.8582 128.663 92.6796C129.188 92.2331 129.8 91.8759 129.974 91.4294Z" fill="#E8968E"/>
</svg>
