<svg width="186" height="36" viewBox="0 0 186 36" fill="none" xmlns="http://www.w3.org/2000/svg">
<path d="M16.6451 11.768C14.1811 11.768 12.2931 12.52 10.9811 14.024C9.66912 15.528 9.01312 17.656 9.01312 20.408C9.01312 23.192 9.73312 25.336 11.1731 26.84C12.6451 28.344 14.6131 29.096 17.0771 29.096C18.3891 29.096 19.4931 28.92 20.3891 28.568C21.3171 28.216 22.1971 27.816 23.0291 27.368C23.5731 27.816 23.9891 28.36 24.2771 29C24.5971 29.608 24.7571 30.328 24.7571 31.16C24.7571 32.472 24.0211 33.592 22.5491 34.52C21.1091 35.416 18.9011 35.864 15.9251 35.864C13.7811 35.864 11.7651 35.56 9.87712 34.952C7.98912 34.344 6.34112 33.416 4.93312 32.168C3.52512 30.888 2.40512 29.288 1.57312 27.368C0.773115 25.416 0.373115 23.096 0.373115 20.408C0.373115 17.912 0.757115 15.72 1.52512 13.832C2.32512 11.912 3.39712 10.296 4.74112 8.984C6.11712 7.672 7.71712 6.68 9.54112 6.008C11.3651 5.336 13.3171 5 15.3971 5C18.3411 5 20.6131 5.48 22.2131 6.44C23.8451 7.4 24.6611 8.632 24.6611 10.136C24.6611 10.968 24.4531 11.688 24.0371 12.296C23.6211 12.904 23.1411 13.384 22.5971 13.736C21.7651 13.192 20.8691 12.728 19.9091 12.344C18.9811 11.96 17.8931 11.768 16.6451 11.768ZM40.3376 35.768C38.4496 35.768 36.6896 35.512 35.0576 35C33.4576 34.456 32.0496 33.656 30.8336 32.6C29.6496 31.544 28.7056 30.216 28.0016 28.616C27.3296 27.016 26.9936 25.144 26.9936 23C26.9936 20.888 27.3296 19.08 28.0016 17.576C28.7056 16.04 29.6176 14.792 30.7376 13.832C31.8576 12.84 33.1376 12.12 34.5776 11.672C36.0176 11.192 37.4896 10.952 38.9936 10.952C40.6896 10.952 42.2256 11.208 43.6016 11.72C45.0096 12.232 46.2096 12.936 47.2016 13.832C48.2256 14.728 49.0096 15.8 49.5536 17.048C50.1296 18.296 50.4176 19.656 50.4176 21.128C50.4176 22.216 50.1136 23.048 49.5056 23.624C48.8976 24.2 48.0496 24.568 46.9616 24.728L35.1056 26.504C35.4576 27.56 36.1776 28.36 37.2656 28.904C38.3536 29.416 39.6016 29.672 41.0096 29.672C42.3216 29.672 43.5536 29.512 44.7056 29.192C45.8896 28.84 46.8496 28.44 47.5856 27.992C48.0976 28.312 48.5296 28.76 48.8816 29.336C49.2336 29.912 49.4096 30.52 49.4096 31.16C49.4096 32.6 48.7376 33.672 47.3936 34.376C46.3696 34.92 45.2176 35.288 43.9376 35.48C42.6576 35.672 41.4576 35.768 40.3376 35.768ZM38.9936 16.904C38.2256 16.904 37.5536 17.032 36.9776 17.288C36.4336 17.544 35.9856 17.88 35.6336 18.296C35.2816 18.68 35.0096 19.128 34.8176 19.64C34.6576 20.12 34.5616 20.616 34.5296 21.128L42.7376 19.784C42.6416 19.144 42.2896 18.504 41.6816 17.864C41.0736 17.224 40.1776 16.904 38.9936 16.904ZM62.5054 34.952C62.1854 35.048 61.6734 35.144 60.9694 35.24C60.2974 35.336 59.5934 35.384 58.8574 35.384C58.1534 35.384 57.5134 35.336 56.9374 35.24C56.3934 35.144 55.9294 34.952 55.5454 34.664C55.1614 34.376 54.8574 33.992 54.6334 33.512C54.4414 33 54.3454 32.344 54.3454 31.544V17.144C54.3454 16.408 54.4734 15.784 54.7294 15.272C55.0174 14.728 55.4174 14.248 55.9294 13.832C56.4414 13.416 57.0654 13.048 57.8014 12.728C58.5694 12.376 59.3854 12.072 60.2494 11.816C61.1134 11.56 62.0094 11.368 62.9374 11.24C63.8654 11.08 64.7934 11 65.7214 11C67.2574 11 68.4734 11.304 69.3694 11.912C70.2654 12.488 70.7134 13.448 70.7134 14.792C70.7134 15.24 70.6494 15.688 70.5214 16.136C70.3934 16.552 70.2334 16.936 70.0414 17.288C69.3694 17.288 68.6814 17.32 67.9774 17.384C67.2734 17.448 66.5854 17.544 65.9134 17.672C65.2414 17.8 64.6014 17.944 63.9934 18.104C63.4174 18.232 62.9214 18.392 62.5054 18.584V34.952ZM72.1811 23.336C72.1811 21.224 72.5011 19.4 73.1411 17.864C73.7811 16.296 74.6611 15 75.7811 13.976C76.9331 12.952 78.2611 12.2 79.7651 11.72C81.3011 11.208 82.9491 10.952 84.7091 10.952C85.3491 10.952 85.9731 11.016 86.5811 11.144C87.1891 11.24 87.6851 11.368 88.0691 11.528V3.752C88.3891 3.656 88.9011 3.56 89.6051 3.464C90.3091 3.336 91.0291 3.272 91.7651 3.272C92.4691 3.272 93.0931 3.32 93.6371 3.416C94.2131 3.512 94.6931 3.704 95.0771 3.992C95.4611 4.28 95.7491 4.68 95.9411 5.192C96.1331 5.672 96.2291 6.312 96.2291 7.112V29.864C96.2291 31.368 95.5251 32.568 94.1171 33.464C93.1891 34.072 91.9891 34.6 90.5171 35.048C89.0451 35.528 87.3491 35.768 85.4291 35.768C83.3491 35.768 81.4771 35.48 79.8131 34.904C78.1811 34.328 76.7891 33.496 75.6371 32.408C74.5171 31.32 73.6531 30.024 73.0451 28.52C72.4691 26.984 72.1811 25.256 72.1811 23.336ZM85.8131 17.336C84.0851 17.336 82.7571 17.832 81.8291 18.824C80.9011 19.816 80.4371 21.32 80.4371 23.336C80.4371 25.32 80.8691 26.824 81.7331 27.848C82.5971 28.84 83.8451 29.336 85.4771 29.336C86.0531 29.336 86.5651 29.256 87.0131 29.096C87.4931 28.904 87.8611 28.696 88.1171 28.472V17.912C87.4771 17.528 86.7091 17.336 85.8131 17.336ZM111.298 29.816C111.842 29.816 112.434 29.768 113.074 29.672C113.746 29.544 114.242 29.384 114.562 29.192V25.352L111.106 25.64C110.21 25.704 109.474 25.896 108.898 26.216C108.322 26.536 108.034 27.016 108.034 27.656C108.034 28.296 108.274 28.824 108.754 29.24C109.266 29.624 110.114 29.816 111.298 29.816ZM110.914 10.952C112.642 10.952 114.21 11.128 115.618 11.48C117.058 11.832 118.274 12.376 119.266 13.112C120.29 13.816 121.074 14.728 121.618 15.848C122.162 16.936 122.434 18.232 122.434 19.736V30.488C122.434 31.32 122.194 32.008 121.714 32.552C121.266 33.064 120.722 33.512 120.082 33.896C118.002 35.144 115.074 35.768 111.298 35.768C109.602 35.768 108.066 35.608 106.69 35.288C105.346 34.968 104.178 34.488 103.186 33.848C102.226 33.208 101.474 32.392 100.93 31.4C100.418 30.408 100.162 29.256 100.162 27.944C100.162 25.736 100.818 24.04 102.13 22.856C103.442 21.672 105.474 20.936 108.226 20.648L114.514 19.976V19.64C114.514 18.712 114.098 18.056 113.266 17.672C112.466 17.256 111.298 17.048 109.762 17.048C108.546 17.048 107.362 17.176 106.21 17.432C105.058 17.688 104.018 18.008 103.09 18.392C102.674 18.104 102.322 17.672 102.034 17.096C101.746 16.488 101.602 15.864 101.602 15.224C101.602 14.392 101.794 13.736 102.178 13.256C102.594 12.744 103.218 12.312 104.05 11.96C104.978 11.608 106.066 11.352 107.314 11.192C108.594 11.032 109.794 10.952 110.914 10.952ZM147.103 28.04C147.103 30.472 146.191 32.376 144.367 33.752C142.543 35.128 139.855 35.816 136.303 35.816C134.959 35.816 133.711 35.72 132.559 35.528C131.407 35.336 130.415 35.048 129.583 34.664C128.783 34.248 128.143 33.736 127.663 33.128C127.215 32.52 126.991 31.8 126.991 30.968C126.991 30.2 127.151 29.56 127.471 29.048C127.791 28.504 128.175 28.056 128.623 27.704C129.551 28.216 130.607 28.68 131.791 29.096C133.007 29.48 134.399 29.672 135.967 29.672C136.959 29.672 137.711 29.528 138.223 29.24C138.767 28.952 139.039 28.568 139.039 28.088C139.039 27.64 138.847 27.288 138.463 27.032C138.079 26.776 137.439 26.568 136.543 26.408L135.103 26.12C132.319 25.576 130.239 24.728 128.863 23.576C127.519 22.392 126.847 20.712 126.847 18.536C126.847 17.352 127.103 16.28 127.615 15.32C128.127 14.36 128.847 13.56 129.775 12.92C130.703 12.28 131.807 11.784 133.087 11.432C134.399 11.08 135.839 10.904 137.407 10.904C138.591 10.904 139.695 11 140.719 11.192C141.775 11.352 142.687 11.608 143.455 11.96C144.223 12.312 144.831 12.776 145.279 13.352C145.727 13.896 145.951 14.552 145.951 15.32C145.951 16.056 145.807 16.696 145.519 17.24C145.263 17.752 144.927 18.184 144.511 18.536C144.255 18.376 143.871 18.216 143.359 18.056C142.847 17.864 142.287 17.704 141.679 17.576C141.071 17.416 140.447 17.288 139.807 17.192C139.199 17.096 138.639 17.048 138.127 17.048C137.071 17.048 136.255 17.176 135.679 17.432C135.103 17.656 134.815 18.024 134.815 18.536C134.815 18.888 134.975 19.176 135.295 19.4C135.615 19.624 136.223 19.832 137.119 20.024L138.607 20.36C141.679 21.064 143.855 22.04 145.135 23.288C146.447 24.504 147.103 26.088 147.103 28.04ZM150.856 5.192C150.856 3.976 151.256 2.952 152.056 2.12C152.888 1.288 153.976 0.871999 155.32 0.871999C156.664 0.871999 157.736 1.288 158.536 2.12C159.368 2.952 159.784 3.976 159.784 5.192C159.784 6.408 159.368 7.432 158.536 8.264C157.736 9.096 156.664 9.512 155.32 9.512C153.976 9.512 152.888 9.096 152.056 8.264C151.256 7.432 150.856 6.408 150.856 5.192ZM159.4 34.952C159.048 35.016 158.52 35.096 157.816 35.192C157.144 35.32 156.456 35.384 155.752 35.384C155.048 35.384 154.408 35.336 153.832 35.24C153.288 35.144 152.824 34.952 152.44 34.664C152.056 34.376 151.752 33.992 151.528 33.512C151.336 33 151.24 32.344 151.24 31.544V12.008C151.592 11.944 152.104 11.864 152.776 11.768C153.48 11.64 154.184 11.576 154.888 11.576C155.592 11.576 156.216 11.624 156.76 11.72C157.336 11.816 157.816 12.008 158.2 12.296C158.584 12.584 158.872 12.984 159.064 13.496C159.288 13.976 159.4 14.616 159.4 15.416V34.952ZM174.579 29.816C175.123 29.816 175.715 29.768 176.355 29.672C177.027 29.544 177.523 29.384 177.843 29.192V25.352L174.387 25.64C173.491 25.704 172.755 25.896 172.179 26.216C171.603 26.536 171.315 27.016 171.315 27.656C171.315 28.296 171.555 28.824 172.035 29.24C172.547 29.624 173.395 29.816 174.579 29.816ZM174.195 10.952C175.923 10.952 177.491 11.128 178.899 11.48C180.339 11.832 181.555 12.376 182.547 13.112C183.571 13.816 184.355 14.728 184.899 15.848C185.443 16.936 185.715 18.232 185.715 19.736V30.488C185.715 31.32 185.475 32.008 184.995 32.552C184.547 33.064 184.003 33.512 183.363 33.896C181.283 35.144 178.355 35.768 174.579 35.768C172.883 35.768 171.347 35.608 169.971 35.288C168.627 34.968 167.459 34.488 166.467 33.848C165.507 33.208 164.755 32.392 164.211 31.4C163.699 30.408 163.443 29.256 163.443 27.944C163.443 25.736 164.099 24.04 165.411 22.856C166.723 21.672 168.755 20.936 171.507 20.648L177.795 19.976V19.64C177.795 18.712 177.379 18.056 176.547 17.672C175.747 17.256 174.579 17.048 173.043 17.048C171.827 17.048 170.643 17.176 169.491 17.432C168.339 17.688 167.299 18.008 166.371 18.392C165.955 18.104 165.603 17.672 165.315 17.096C165.027 16.488 164.883 15.864 164.883 15.224C164.883 14.392 165.075 13.736 165.459 13.256C165.875 12.744 166.499 12.312 167.331 11.96C168.259 11.608 169.347 11.352 170.595 11.192C171.875 11.032 173.075 10.952 174.195 10.952Z" fill="white"/>
<path d="M10.9811 14.024L13.2418 15.9961L13.2418 15.9961L10.9811 14.024ZM11.1731 26.84L9.00619 28.9147L9.01759 28.9266L9.02911 28.9384L11.1731 26.84ZM20.3891 28.568L19.3252 25.763L19.3086 25.7693L19.2922 25.7757L20.3891 28.568ZM23.0291 27.368L24.9362 25.0522L23.3809 23.7713L21.6068 24.7266L23.0291 27.368ZM24.2771 29L21.5414 30.2311L21.5793 30.3154L21.6224 30.3972L24.2771 29ZM22.5491 34.52L24.134 37.0672L24.1415 37.0625L24.149 37.0578L22.5491 34.52ZM9.87712 34.952L8.95752 37.8076L9.87712 34.952ZM4.93312 32.168L2.9151 34.3878L2.92907 34.4005L2.94319 34.413L4.93312 32.168ZM1.57312 27.368L-1.2028 28.5057L-1.19145 28.5334L-1.17955 28.5608L1.57312 27.368ZM1.52512 13.832L-1.24412 12.6782L-1.24899 12.6899L-1.25377 12.7016L1.52512 13.832ZM4.74112 8.984L2.67089 6.81278L2.65813 6.82495L2.6455 6.83727L4.74112 8.984ZM9.54112 6.008L8.504 3.19297L8.504 3.19297L9.54112 6.008ZM22.2131 6.44L20.6696 9.01248L20.6808 9.01919L20.6921 9.0258L22.2131 6.44ZM24.0371 12.296L21.5612 10.6019L21.5612 10.602L24.0371 12.296ZM22.5971 13.736L20.9554 16.2469L22.5886 17.3148L24.2269 16.2547L22.5971 13.736ZM19.9091 12.344L18.7621 15.116L18.7785 15.1228L18.7949 15.1294L19.9091 12.344ZM16.6451 8.768C13.5349 8.768 10.7326 9.74522 8.72041 12.0519L13.2418 15.9961C13.8536 15.2948 14.8273 14.768 16.6451 14.768V8.768ZM8.72041 12.0519C6.7777 14.2789 6.01312 17.2057 6.01312 20.408H12.0131C12.0131 18.1063 12.5605 16.7771 13.2418 15.9961L8.72041 12.0519ZM6.01312 20.408C6.01312 23.6979 6.87164 26.6853 9.00619 28.9147L13.34 24.7653C12.5946 23.9867 12.0131 22.6861 12.0131 20.408H6.01312ZM9.02911 28.9384C11.1619 31.1175 13.9555 32.096 17.0771 32.096V26.096C15.2708 26.096 14.1283 25.5705 13.3171 24.7416L9.02911 28.9384ZM17.0771 32.096C18.6371 32.096 20.1389 31.8895 21.4861 31.3603L19.2922 25.7757C18.8473 25.9505 18.1411 26.096 17.0771 26.096V32.096ZM21.4531 31.373C22.4979 30.9767 23.4981 30.5228 24.4514 30.0094L21.6068 24.7266C20.8962 25.1092 20.1364 25.4553 19.3252 25.763L21.4531 31.373ZM21.122 29.6838C21.3116 29.84 21.4434 30.0133 21.5414 30.2311L27.0129 27.7689C26.5349 26.7067 25.8346 25.792 24.9362 25.0522L21.122 29.6838ZM21.6224 30.3972C21.6725 30.4926 21.7571 30.7131 21.7571 31.16H27.7571C27.7571 29.9429 27.5217 28.7234 26.9319 27.6028L21.6224 30.3972ZM21.7571 31.16C21.7571 31.2173 21.7518 31.2546 21.698 31.3365C21.6245 31.4483 21.4264 31.6814 20.9492 31.9822L24.149 37.0578C26.1735 35.7815 27.7571 33.83 27.7571 31.16H21.7571ZM20.9642 31.9728C20.2378 32.4248 18.7099 32.864 15.9251 32.864V38.864C19.0923 38.864 21.9804 38.4072 24.134 37.0672L20.9642 31.9728ZM15.9251 32.864C14.0681 32.864 12.3645 32.6013 10.7967 32.0964L8.95752 37.8076C11.1658 38.5187 13.4941 38.864 15.9251 38.864V32.864ZM10.7967 32.0964C9.28206 31.6087 8.00364 30.8808 6.92304 29.923L2.94319 34.413C4.6786 35.9512 6.69617 37.0793 8.95752 37.8076L10.7967 32.0964ZM6.95113 29.9482C5.88831 28.982 5.00555 27.7439 4.32578 26.1752L-1.17955 28.5608C-0.195321 30.8321 1.16192 32.794 2.9151 34.3878L6.95113 29.9482ZM4.34903 26.2303C3.73149 24.7235 3.37312 22.8084 3.37312 20.408H-2.62688C-2.62688 23.3836 -2.18526 26.1085 -1.2028 28.5057L4.34903 26.2303ZM3.37312 20.408C3.37312 18.215 3.71082 16.4206 4.304 14.9624L-1.25377 12.7016C-2.19659 15.0194 -2.62688 17.609 -2.62688 20.408H3.37312ZM4.29435 14.9858C4.95571 13.3986 5.81145 12.1316 6.83673 11.1307L2.6455 6.83727C0.98278 8.46041 -0.305476 10.4254 -1.24412 12.6782L4.29435 14.9858ZM6.81134 11.1552C7.88384 10.1326 9.13013 9.35654 10.5782 8.82303L8.504 3.19297C6.3041 4.00346 4.3504 5.2114 2.67089 6.81278L6.81134 11.1552ZM10.5782 8.82303C12.0475 8.28171 13.6461 8 15.3971 8V2C12.9881 2 10.6827 2.39029 8.504 3.19297L10.5782 8.82303ZM15.3971 8C18.0834 8 19.7317 8.44973 20.6696 9.01248L23.7566 3.86752C21.4945 2.51027 18.5989 2 15.3971 2V8ZM20.6921 9.0258C21.6824 9.60838 21.6611 9.97928 21.6611 10.136H27.6611C27.6611 7.28472 26.0078 5.19162 23.7342 3.8542L20.6921 9.0258ZM21.6611 10.136C21.6611 10.4445 21.5927 10.5559 21.5612 10.6019L26.513 13.9901C27.3135 12.8201 27.6611 11.4915 27.6611 10.136H21.6611ZM21.5612 10.602C21.3392 10.9264 21.1347 11.109 20.9674 11.2173L24.2269 16.2547C25.1475 15.659 25.903 14.8816 26.513 13.99L21.5612 10.602ZM24.2389 11.2251C23.234 10.5681 22.1604 10.0134 21.0233 9.55857L18.7949 15.1294C19.5778 15.4426 20.2962 15.8159 20.9554 16.2469L24.2389 11.2251ZM21.0562 9.57195C19.6879 9.00575 18.1943 8.768 16.6451 8.768V14.768C17.5919 14.768 18.2744 14.9142 18.7621 15.116L21.0562 9.57195ZM35.0576 35L34.0919 37.8403L34.1256 37.8518L34.1596 37.8624L35.0576 35ZM30.8336 32.6L28.8368 34.8389L28.8516 34.8521L28.8666 34.8651L30.8336 32.6ZM28.0016 28.616L25.2357 29.7777L25.2455 29.801L25.2557 29.8242L28.0016 28.616ZM28.0016 17.576L25.2744 16.326L25.2684 16.3391L25.2626 16.3522L28.0016 17.576ZM30.7376 13.832L32.69 16.1098L32.7085 16.0939L32.7267 16.0778L30.7376 13.832ZM34.5776 11.672L35.4688 14.5366L35.4977 14.5276L35.5263 14.518L34.5776 11.672ZM43.6016 11.72L42.5554 14.5317L42.5659 14.5356L42.5764 14.5394L43.6016 11.72ZM47.2016 13.832L45.1908 16.0583L45.2083 16.0742L45.2261 16.0897L47.2016 13.832ZM49.5536 17.048L46.8035 18.2468L46.8163 18.2761L46.8297 18.3052L49.5536 17.048ZM49.5056 23.624L47.4424 21.4461L47.4424 21.4461L49.5056 23.624ZM46.9616 24.728L46.5251 21.7599L46.5172 21.7611L46.9616 24.728ZM35.1056 26.504L34.6612 23.5371L31.1307 24.066L32.2596 27.4527L35.1056 26.504ZM37.2656 28.904L35.924 31.5873L35.9559 31.6033L35.9882 31.6185L37.2656 28.904ZM44.7056 29.192L45.5085 32.0826L45.5346 32.0753L45.5605 32.0676L44.7056 29.192ZM47.5856 27.992L49.1756 25.448L47.6064 24.4673L46.0258 25.4294L47.5856 27.992ZM48.8816 29.336L51.4415 27.7716L48.8816 29.336ZM47.3936 34.376L46.0016 31.7185L45.9939 31.7226L45.9862 31.7267L47.3936 34.376ZM43.9376 35.48L43.4926 32.5132L43.9376 35.48ZM36.9776 17.288L35.7592 14.5466L35.7296 14.5597L35.7002 14.5735L36.9776 17.288ZM35.6336 18.296L37.8451 20.3232L37.8853 20.2793L37.9238 20.2338L35.6336 18.296ZM34.8176 19.64L32.0086 18.5866L31.9891 18.6386L31.9716 18.6913L34.8176 19.64ZM34.5296 21.128L31.5355 20.9409L31.3007 24.6967L35.0144 24.0886L34.5296 21.128ZM42.7376 19.784L43.2224 22.7446L46.1435 22.2663L45.7044 19.339L42.7376 19.784ZM41.6816 17.864L43.8566 15.7978V15.7978L41.6816 17.864ZM40.3376 32.768C38.7229 32.768 37.2686 32.5495 35.9556 32.1376L34.1596 37.8624C36.1107 38.4745 38.1764 38.768 40.3376 38.768V32.768ZM36.0233 32.1597C34.7728 31.7345 33.7089 31.1237 32.8007 30.3349L28.8666 34.8651C30.3903 36.1883 32.1425 37.1775 34.0919 37.8403L36.0233 32.1597ZM32.8305 30.3611C31.9985 29.6191 31.2963 28.6549 30.7476 27.4078L25.2557 29.8242C26.1149 31.7771 27.3008 33.4689 28.8368 34.8389L32.8305 30.3611ZM30.7676 27.4543C30.2818 26.2977 29.9936 24.8362 29.9936 23H23.9936C23.9936 25.4518 24.3774 27.7343 25.2357 29.7777L30.7676 27.4543ZM29.9936 23C29.9936 21.1953 30.2819 19.8264 30.7406 18.7998L25.2626 16.3522C24.3773 18.3336 23.9936 20.5807 23.9936 23H29.9936ZM30.7288 18.826C31.2782 17.6273 31.9443 16.7489 32.69 16.1098L28.7852 11.5542C27.2909 12.8351 26.133 14.4527 25.2744 16.326L30.7288 18.826ZM32.7267 16.0778C33.5261 15.3698 34.4311 14.8594 35.4688 14.5366L33.6864 8.80743C31.8441 9.38059 30.1891 10.3102 28.7485 11.5862L32.7267 16.0778ZM35.5263 14.518C36.6633 14.1391 37.8151 13.952 38.9936 13.952V7.952C37.1642 7.952 35.372 8.24494 33.6289 8.82595L35.5263 14.518ZM38.9936 13.952C40.387 13.952 41.5617 14.1619 42.5554 14.5317L44.6478 8.90833C42.8895 8.25407 40.9922 7.952 38.9936 7.952V13.952ZM42.5764 14.5394C43.6645 14.9351 44.5187 15.4513 45.1908 16.0583L49.2125 11.6057C47.9006 10.4207 46.3547 9.52895 44.6268 8.90062L42.5764 14.5394ZM45.2261 16.0897C45.9167 16.694 46.4363 17.4043 46.8035 18.2468L52.3037 15.8492C51.5829 14.1957 50.5345 12.762 49.1771 11.5743L45.2261 16.0897ZM46.8297 18.3052C47.2111 19.1315 47.4176 20.0588 47.4176 21.128H53.4176C53.4176 19.2532 53.0481 17.4605 52.2775 15.7908L46.8297 18.3052ZM47.4176 21.128C47.4176 21.3982 47.3793 21.5179 47.3718 21.5384C47.3686 21.5471 47.3719 21.5359 47.3867 21.5131C47.4018 21.4897 47.4214 21.466 47.4424 21.4461L51.5688 25.8019C52.94 24.5029 53.4176 22.7807 53.4176 21.128H47.4176ZM47.4424 21.4461C47.4038 21.4827 47.1919 21.6619 46.5251 21.7599L47.3981 27.6961C48.9073 27.4741 50.3914 26.9173 51.5689 25.8019L47.4424 21.4461ZM46.5172 21.7611L34.6612 23.5371L35.55 29.4709L47.4061 27.6949L46.5172 21.7611ZM32.2596 27.4527C32.8878 29.3373 34.197 30.7238 35.924 31.5873L38.6073 26.2207C38.1582 25.9962 38.0275 25.7827 37.9517 25.5553L32.2596 27.4527ZM35.9882 31.6185C37.5385 32.348 39.235 32.672 41.0096 32.672V26.672C39.9683 26.672 39.1687 26.484 38.543 26.1895L35.9882 31.6185ZM41.0096 32.672C42.5668 32.672 44.071 32.4819 45.5085 32.0826L43.9027 26.3014C43.0362 26.5421 42.0764 26.672 41.0096 26.672V32.672ZM45.5605 32.0676C46.8948 31.6709 48.1165 31.1809 49.1455 30.5546L46.0258 25.4294C45.5828 25.6991 44.8845 26.0091 43.8507 26.3164L45.5605 32.0676ZM45.9956 30.536C46.0681 30.5813 46.1837 30.6743 46.3218 30.9003L51.4415 27.7716C50.8756 26.8457 50.1271 26.0427 49.1756 25.448L45.9956 30.536ZM46.3218 30.9003C46.4024 31.0323 46.4096 31.1028 46.4096 31.16H52.4096C52.4096 29.9372 52.0648 28.7917 51.4415 27.7716L46.3218 30.9003ZM46.4096 31.16C46.4096 31.286 46.3951 31.3601 46.3855 31.3957C46.3767 31.4288 46.3685 31.443 46.3638 31.4506C46.3615 31.4542 46.2968 31.5639 46.0016 31.7185L48.7856 37.0335C49.8344 36.4841 50.7778 35.7058 51.4475 34.6374C52.1226 33.5605 52.4096 32.3638 52.4096 31.16H46.4096ZM45.9862 31.7267C45.2954 32.0936 44.4749 32.3658 43.4926 32.5132L44.3826 38.4468C45.9603 38.2102 47.4438 37.7464 48.8011 37.0253L45.9862 31.7267ZM43.4926 32.5132C42.3378 32.6864 41.2878 32.768 40.3376 32.768V38.768C41.6274 38.768 42.9775 38.6576 44.3826 38.4468L43.4926 32.5132ZM38.9936 13.904C37.8955 13.904 36.793 14.0871 35.7592 14.5466L38.196 20.0294C38.3142 19.9769 38.5557 19.904 38.9936 19.904V13.904ZM35.7002 14.5735C34.8074 14.9937 34.001 15.5811 33.3435 16.3582L37.9238 20.2338C37.9702 20.1789 38.0598 20.0943 38.255 20.0025L35.7002 14.5735ZM33.4222 16.2688C32.7976 16.9501 32.3288 17.7329 32.0086 18.5866L37.6266 20.6934C37.6905 20.5231 37.7656 20.4099 37.8451 20.3232L33.4222 16.2688ZM31.9716 18.6913C31.7283 19.4211 31.5834 20.1733 31.5355 20.9409L37.5238 21.3151C37.5398 21.0587 37.5869 20.8189 37.6637 20.5887L31.9716 18.6913ZM35.0144 24.0886L43.2224 22.7446L42.2528 16.8234L34.0448 18.1674L35.0144 24.0886ZM45.7044 19.339C45.4892 17.9044 44.7378 16.7253 43.8566 15.7978L39.5066 19.9302C39.8415 20.2827 39.794 20.3836 39.7708 20.229L45.7044 19.339ZM43.8566 15.7978C42.5086 14.3788 40.7083 13.904 38.9936 13.904V19.904C39.3225 19.904 39.4886 19.9492 39.5446 19.9692C39.585 19.9837 39.5512 19.9772 39.5066 19.9302L43.8566 15.7978ZM62.5054 34.952L63.3674 37.8255L65.5054 37.1841V34.952H62.5054ZM60.9694 35.24L60.564 32.2675L60.5546 32.2688L60.5451 32.2702L60.9694 35.24ZM56.9374 35.24L56.416 38.1944L56.4301 38.1968L56.4442 38.1992L56.9374 35.24ZM55.5454 34.664L57.3454 32.264H57.3454L55.5454 34.664ZM54.6334 33.512L51.8244 34.5654L51.8654 34.6748L51.9148 34.7807L54.6334 33.512ZM54.7294 15.272L52.078 13.8683L52.0617 13.8992L52.0461 13.9304L54.7294 15.272ZM55.9294 13.832L57.8211 16.1603L57.8211 16.1603L55.9294 13.832ZM57.8014 12.728L58.9975 15.4792L59.0246 15.4675L59.0513 15.4552L57.8014 12.728ZM60.2494 11.816L61.1016 14.6924H61.1016L60.2494 11.816ZM62.9374 11.24L63.3473 14.2119L63.3973 14.205L63.4471 14.1964L62.9374 11.24ZM69.3694 11.912L67.6849 14.3944L67.7157 14.4154L67.7471 14.4355L69.3694 11.912ZM70.5214 16.136L73.3887 17.0183L73.3976 16.9893L73.4059 16.9602L70.5214 16.136ZM70.0414 17.288V20.288H71.8223L72.675 18.7246L70.0414 17.288ZM67.9774 17.384L68.249 20.3717L67.9774 17.384ZM65.9134 17.672L65.352 14.725L65.352 14.725L65.9134 17.672ZM63.9934 18.104L64.6442 21.0326L64.7008 21.02L64.7568 21.0052L63.9934 18.104ZM62.5054 18.584L61.2482 15.8601L59.5054 16.6645V18.584H62.5054ZM61.6433 32.0785C61.5614 32.1031 61.2455 32.1746 60.564 32.2675L61.3747 38.2125C62.1013 38.1134 62.8093 37.9929 63.3674 37.8255L61.6433 32.0785ZM60.5451 32.2702C60.0248 32.3445 59.4632 32.384 58.8574 32.384V38.384C59.7236 38.384 60.5699 38.3275 61.3936 38.2099L60.5451 32.2702ZM58.8574 32.384C58.2862 32.384 57.8144 32.3448 57.4306 32.2808L56.4442 38.1992C57.2123 38.3272 58.0205 38.384 58.8574 38.384V32.384ZM57.4587 32.2856C57.3802 32.2718 57.3402 32.2568 57.3284 32.2519C57.3181 32.2477 57.3271 32.2503 57.3454 32.264L53.7454 37.064C54.5593 37.6745 55.4784 38.0289 56.416 38.1944L57.4587 32.2856ZM57.3454 32.264C57.3537 32.2702 57.3616 32.2771 57.3686 32.2839C57.3755 32.2906 57.3798 32.2957 57.3815 32.2979C57.3832 32.3 57.3812 32.2978 57.3762 32.2896C57.3712 32.2815 57.3627 32.2665 57.3519 32.2433L51.9148 34.7807C52.3253 35.6604 52.9272 36.4504 53.7454 37.064L57.3454 32.264ZM57.4424 32.4586C57.4207 32.401 57.3454 32.1358 57.3454 31.544H51.3454C51.3454 32.5522 51.462 33.599 51.8244 34.5654L57.4424 32.4586ZM57.3454 31.544V17.144H51.3454V31.544H57.3454ZM57.3454 17.144C57.3454 16.7449 57.4158 16.6074 57.4126 16.6136L52.0461 13.9304C51.531 14.9606 51.3454 16.0711 51.3454 17.144H57.3454ZM57.3807 16.6757C57.467 16.5128 57.5991 16.3407 57.8211 16.1603L54.0376 11.5037C53.2356 12.1553 52.5678 12.9432 52.078 13.8683L57.3807 16.6757ZM57.8211 16.1603C58.0817 15.9486 58.4596 15.7131 58.9975 15.4792L56.6052 9.97679C55.6711 10.3829 54.801 10.8834 54.0376 11.5037L57.8211 16.1603ZM59.0513 15.4552C59.6822 15.166 60.3646 14.9108 61.1016 14.6924L59.3971 8.9396C58.4061 9.23323 57.4565 9.58597 56.5514 10.0008L59.0513 15.4552ZM61.1016 14.6924C61.8152 14.481 62.563 14.32 63.3473 14.2119L62.5275 8.26814C61.4557 8.41596 60.4115 8.63903 59.3971 8.93961L61.1016 14.6924ZM63.4471 14.1964C64.2092 14.065 64.9667 14 65.7214 14V8C64.62 8 63.5215 8.09502 62.4276 8.28362L63.4471 14.1964ZM65.7214 14C66.8981 14 67.4538 14.2377 67.6849 14.3944L71.0539 9.42957C69.4929 8.37033 67.6166 8 65.7214 8V14ZM67.7471 14.4355C67.7472 14.4356 67.7415 14.4319 67.732 14.4238C67.7224 14.4156 67.7112 14.4047 67.6996 14.3915C67.6745 14.3628 67.6618 14.339 67.6588 14.3327C67.6546 14.3237 67.7134 14.4444 67.7134 14.792H73.7134C73.7134 12.7312 72.9741 10.6629 70.9916 9.38846L67.7471 14.4355ZM67.7134 14.792C67.7134 14.9503 67.6913 15.1211 67.6368 15.3118L73.4059 16.9602C73.6074 16.2549 73.7134 15.5297 73.7134 14.792H67.7134ZM67.654 15.2537C67.5802 15.4938 67.4956 15.6902 67.4077 15.8514L72.675 18.7246C72.9711 18.1818 73.2066 17.6102 73.3887 17.0183L67.654 15.2537ZM70.0414 14.288C69.2741 14.288 68.4954 14.3245 67.7058 14.3963L68.249 20.3717C68.8673 20.3155 69.4646 20.288 70.0414 20.288V14.288ZM67.7058 14.3963C66.9078 14.4689 66.123 14.5781 65.352 14.725L66.4747 20.619C67.0477 20.5099 67.6389 20.4271 68.249 20.3717L67.7058 14.3963ZM65.352 14.725C64.618 14.8648 63.9102 15.0237 63.2299 15.2028L64.7568 21.0052C65.2925 20.8643 65.8647 20.7352 66.4747 20.619L65.352 14.725ZM63.3426 15.1754C62.6141 15.3373 61.9046 15.5571 61.2482 15.8601L63.7625 21.3079C63.9381 21.2269 64.2207 21.1267 64.6442 21.0326L63.3426 15.1754ZM59.5054 18.584V34.952H65.5054V18.584H59.5054ZM73.1411 17.864L75.9103 19.0178L75.9145 19.0078L75.9187 18.9977L73.1411 17.864ZM75.7811 13.976L73.788 11.7338L73.7723 11.7477L73.7568 11.7619L75.7811 13.976ZM79.7651 11.72L80.6772 14.578L80.6956 14.5721L80.7138 14.566L79.7651 11.72ZM86.5811 11.144L85.9631 14.0796L86.0378 14.0954L86.1132 14.1073L86.5811 11.144ZM88.0691 11.528L86.9153 14.2972L91.0691 16.028V11.528H88.0691ZM88.0691 3.752L87.2071 0.878523L85.0691 1.51991V3.752H88.0691ZM89.6051 3.464L90.0105 6.43649L90.0763 6.42751L90.1418 6.41561L89.6051 3.464ZM93.6371 3.416L93.1158 6.37035L93.1298 6.37283L93.1439 6.37518L93.6371 3.416ZM95.0771 3.992L93.2771 6.392V6.392L95.0771 3.992ZM95.9411 5.192L93.1321 6.24537L93.1436 6.27589L93.1557 6.30616L95.9411 5.192ZM94.1171 33.464L92.5065 30.933L92.4897 30.9437L92.473 30.9546L94.1171 33.464ZM90.5171 35.048L89.6436 32.178L89.6153 32.1866L89.5871 32.1958L90.5171 35.048ZM79.8131 34.904L78.8147 37.733L78.8232 37.736L78.8318 37.739L79.8131 34.904ZM75.6371 32.408L73.5468 34.5598L73.5619 34.5745L73.5772 34.589L75.6371 32.408ZM73.0451 28.52L70.2361 29.5734L70.2495 29.609L70.2638 29.6444L73.0451 28.52ZM81.8291 18.824L84.0199 20.8735L81.8291 18.824ZM81.7331 27.848L79.4402 29.7826L79.4554 29.8006L79.4709 29.8183L81.7331 27.848ZM87.0131 29.096L88.0221 31.9212L88.0751 31.9023L88.1273 31.8814L87.0131 29.096ZM88.1171 28.472L90.0926 30.7297L91.1171 29.8333V28.472H88.1171ZM88.1171 17.912H91.1171V16.2134L89.6606 15.3395L88.1171 17.912ZM75.1811 23.336C75.1811 21.5176 75.4577 20.1042 75.9103 19.0178L70.3719 16.7102C69.5445 18.6958 69.1811 20.9304 69.1811 23.336H75.1811ZM75.9187 18.9977C76.4103 17.7931 77.0497 16.881 77.8054 16.1901L73.7568 11.7619C72.2725 13.119 71.1519 14.7989 70.3636 16.7303L75.9187 18.9977ZM77.7742 16.2182C78.6051 15.4796 79.5627 14.9337 80.6772 14.578L78.853 8.86202C76.9596 9.46631 75.2611 10.4244 73.788 11.7338L77.7742 16.2182ZM80.7138 14.566C81.9184 14.1645 83.2436 13.952 84.7091 13.952V7.952C82.6547 7.952 80.6838 8.25149 78.8164 8.87395L80.7138 14.566ZM84.7091 13.952C85.1477 13.952 85.5643 13.9957 85.9631 14.0796L87.1992 8.20835C86.3819 8.0363 85.5506 7.952 84.7091 7.952V13.952ZM86.1132 14.1073C86.5867 14.182 86.8291 14.2613 86.9153 14.2972L89.223 8.75877C88.5411 8.47466 87.7916 8.29796 87.049 8.18071L86.1132 14.1073ZM91.0691 11.528V3.752H85.0691V11.528H91.0691ZM88.9312 6.62547C89.0131 6.6009 89.329 6.52941 90.0105 6.43649L89.1998 0.491508C88.4732 0.590584 87.7652 0.711092 87.2071 0.878523L88.9312 6.62547ZM90.1418 6.41561C90.6637 6.32071 91.2039 6.272 91.7651 6.272V0.271999C90.8543 0.271999 89.9545 0.351288 89.0685 0.51239L90.1418 6.41561ZM91.7651 6.272C92.3393 6.272 92.7831 6.31165 93.1158 6.37035L94.1585 0.461645C93.4031 0.328346 92.5989 0.271999 91.7651 0.271999V6.272ZM93.1439 6.37518C93.2462 6.39222 93.2989 6.41101 93.3149 6.41743C93.3291 6.4231 93.3114 6.41768 93.2771 6.392L96.8771 1.592C96.034 0.959652 95.079 0.614927 94.1303 0.456816L93.1439 6.37518ZM93.2771 6.392C93.2195 6.3488 93.1752 6.30081 93.1465 6.26091C93.1194 6.22326 93.1193 6.21128 93.1321 6.24537L98.7501 4.13863C98.3858 3.16727 97.7803 2.26941 96.8771 1.592L93.2771 6.392ZM93.1557 6.30616C93.1472 6.28496 93.1685 6.33163 93.1903 6.47702C93.2118 6.62011 93.2291 6.82769 93.2291 7.112H99.2291C99.2291 6.11688 99.1161 5.05179 98.7265 4.07783L93.1557 6.30616ZM93.2291 7.112V29.864H99.2291V7.112H93.2291ZM93.2291 29.864C93.2291 30.2155 93.1618 30.516 92.5065 30.933L95.7277 35.995C97.8884 34.62 99.2291 32.5205 99.2291 29.864H93.2291ZM92.473 30.9546C91.8556 31.3592 90.9399 31.7834 89.6436 32.178L91.3906 37.918C93.0383 37.4166 94.5227 36.7848 95.7612 35.9734L92.473 30.9546ZM89.5871 32.1958C88.4774 32.5576 87.1059 32.768 85.4291 32.768V38.768C87.5923 38.768 89.6128 38.4984 91.4472 37.9002L89.5871 32.1958ZM85.4291 32.768C83.6241 32.768 82.0915 32.518 80.7944 32.069L78.8318 37.739C80.8628 38.442 83.0741 38.768 85.4291 38.768V32.768ZM80.8116 32.075C79.538 31.6255 78.5172 31.0016 77.697 30.227L73.5772 34.589C75.0611 35.9904 76.8243 37.0305 78.8147 37.733L80.8116 32.075ZM77.7275 30.2562C76.9184 29.4702 76.2843 28.5282 75.8264 27.3956L70.2638 29.6444C71.0219 31.5198 72.1158 33.1698 73.5468 34.5598L77.7275 30.2562ZM75.8541 27.4666C75.4239 26.3195 75.1811 24.9564 75.1811 23.336H69.1811C69.1811 25.5556 69.5143 27.6485 70.2361 29.5734L75.8541 27.4666ZM85.8131 14.336C83.4945 14.336 81.2789 15.0208 79.6383 16.7745L84.0199 20.8735C84.2354 20.6432 84.6757 20.336 85.8131 20.336V14.336ZM79.6383 16.7745C77.9869 18.5398 77.4371 20.921 77.4371 23.336H83.4371C83.4371 21.719 83.8153 21.0922 84.0199 20.8735L79.6383 16.7745ZM77.4371 23.336C77.4371 25.698 77.9443 28.0097 79.4402 29.7826L84.026 25.9134C83.7939 25.6383 83.4371 24.942 83.4371 23.336H77.4371ZM79.4709 29.8183C81.038 31.6176 83.2037 32.336 85.4771 32.336V26.336C84.4866 26.336 84.1563 26.0624 83.9954 25.8777L79.4709 29.8183ZM85.4771 32.336C86.3267 32.336 87.1902 32.2184 88.0221 31.9212L86.0041 26.2708C85.9401 26.2936 85.7795 26.336 85.4771 26.336V32.336ZM88.1273 31.8814C88.7758 31.622 89.485 31.2614 90.0926 30.7297L86.1416 26.2143C86.1993 26.1638 86.2198 26.1578 86.1729 26.1843C86.1279 26.2098 86.0408 26.2538 85.8989 26.3106L88.1273 31.8814ZM91.1171 28.472V17.912H85.1171V28.472H91.1171ZM89.6606 15.3395C88.4687 14.6244 87.1434 14.336 85.8131 14.336V20.336C86.2749 20.336 86.4856 20.4316 86.5736 20.4845L89.6606 15.3395ZM113.074 29.672L113.519 32.6388L113.577 32.6301L113.635 32.619L113.074 29.672ZM114.562 29.192L116.106 31.7645L117.562 30.8906V29.192H114.562ZM114.562 25.352H117.562V22.0916L114.313 22.3624L114.562 25.352ZM111.106 25.64L111.32 28.6324L111.338 28.6311L111.355 28.6296L111.106 25.64ZM108.898 26.216L107.441 23.5935V23.5935L108.898 26.216ZM108.754 29.24L106.789 31.5071L106.869 31.5764L106.954 31.64L108.754 29.24ZM115.618 11.48L114.891 14.3904L114.898 14.3923L114.906 14.3942L115.618 11.48ZM119.266 13.112L117.479 15.5213L117.522 15.5535L117.567 15.5841L119.266 13.112ZM121.618 15.848L118.92 17.1587L118.927 17.1742L118.935 17.1896L121.618 15.848ZM121.714 32.552L119.465 30.5671L119.456 30.5765L121.714 32.552ZM120.082 33.896L118.539 31.3235L120.082 33.896ZM106.69 35.288L105.995 38.2064L106.003 38.2082L106.011 38.21L106.69 35.288ZM103.186 33.848L101.522 36.3442L101.541 36.3567L101.56 36.3689L103.186 33.848ZM100.93 31.4L98.2643 32.7759L98.2815 32.8094L98.2997 32.8425L100.93 31.4ZM102.13 22.856L100.12 20.6288L102.13 22.856ZM108.226 20.648L108.538 23.6317L108.545 23.631L108.226 20.648ZM114.514 19.976L114.833 22.959L117.514 22.6725V19.976H114.514ZM113.266 17.672L111.882 20.3336L111.945 20.3663L112.009 20.3959L113.266 17.672ZM106.21 17.432L105.559 14.5034L106.21 17.432ZM103.09 18.392L101.382 20.8586L102.727 21.7891L104.237 21.1641L103.09 18.392ZM102.034 17.096L99.3229 18.3803L99.3366 18.4091L99.3508 18.4376L102.034 17.096ZM102.178 13.256L99.8498 11.3642L99.8426 11.373L99.8355 11.3819L102.178 13.256ZM104.05 11.96L102.986 9.15501L102.933 9.17506L102.881 9.1971L104.05 11.96ZM107.314 11.192L106.942 8.21515L106.933 8.21635L107.314 11.192ZM111.298 32.816C112.016 32.816 112.759 32.7529 113.519 32.6388L112.629 26.7052C112.11 26.7831 111.668 26.816 111.298 26.816V32.816ZM113.635 32.619C114.415 32.4705 115.328 32.2313 116.106 31.7645L113.019 26.6195C113.115 26.5618 113.138 26.5657 113.029 26.6009C112.929 26.6332 112.762 26.6775 112.513 26.725L113.635 32.619ZM117.562 29.192V25.352H111.562V29.192H117.562ZM114.313 22.3624L110.857 22.6504L111.355 28.6296L114.811 28.3416L114.313 22.3624ZM110.892 22.6476C109.71 22.7321 108.512 22.9986 107.441 23.5935L110.355 28.8385C110.436 28.7934 110.711 28.6759 111.32 28.6324L110.892 22.6476ZM107.441 23.5935C106.775 23.9635 106.137 24.507 105.678 25.2725C105.216 26.0425 105.034 26.8717 105.034 27.656H111.034C111.034 27.8003 110.997 28.0695 110.823 28.3595C110.651 28.645 110.445 28.7885 110.355 28.8385L107.441 23.5935ZM105.034 27.656C105.034 29.1585 105.646 30.5163 106.789 31.5071L110.719 26.9729C110.774 27.0205 110.87 27.1254 110.945 27.2906C111.02 27.4552 111.034 27.5924 111.034 27.656H105.034ZM106.954 31.64C108.269 32.6265 109.944 32.816 111.298 32.816V26.816C110.855 26.816 110.581 26.7788 110.437 26.7461C110.285 26.7118 110.374 26.705 110.554 26.84L106.954 31.64ZM110.914 13.952C112.442 13.952 113.761 14.1079 114.891 14.3904L116.346 8.56957C114.66 8.14807 112.842 7.952 110.914 7.952V13.952ZM114.906 14.3942C116.033 14.6698 116.865 15.0662 117.479 15.5213L121.054 10.7027C119.683 9.68579 118.083 8.99415 116.33 8.5658L114.906 14.3942ZM117.567 15.5841C118.162 15.9933 118.602 16.5048 118.92 17.1587L124.317 14.5373C123.546 12.9512 122.418 11.6387 120.966 10.6399L117.567 15.5841ZM118.935 17.1896C119.227 17.7742 119.434 18.5898 119.434 19.736H125.434C125.434 17.8742 125.097 16.0978 124.301 14.5064L118.935 17.1896ZM119.434 19.736V30.488H125.434V19.736H119.434ZM119.434 30.488C119.434 30.6146 119.416 30.6551 119.422 30.6399C119.424 30.6332 119.429 30.6198 119.439 30.6033C119.449 30.5868 119.458 30.5743 119.465 30.5671L123.964 34.5369C124.998 33.3647 125.434 31.9366 125.434 30.488H119.434ZM119.456 30.5765C119.233 30.8319 118.937 31.0846 118.539 31.3235L121.626 36.4685C122.507 35.9394 123.299 35.2961 123.972 34.5275L119.456 30.5765ZM118.539 31.3235C117.116 32.1772 114.807 32.768 111.298 32.768V38.768C115.341 38.768 118.888 38.1108 121.626 36.4685L118.539 31.3235ZM111.298 32.768C109.787 32.768 108.484 32.6251 107.37 32.366L106.011 38.21C107.649 38.5909 109.417 38.768 111.298 38.768V32.768ZM107.385 32.3696C106.317 32.1152 105.475 31.7544 104.812 31.3271L101.56 36.3689C102.881 37.2216 104.376 37.8208 105.995 38.2064L107.385 32.3696ZM104.85 31.3518C104.284 30.9745 103.867 30.5169 103.561 29.9575L98.2997 32.8425C99.0809 34.2671 100.168 35.4415 101.522 36.3442L104.85 31.3518ZM103.596 30.0241C103.339 29.5262 103.162 28.861 103.162 27.944H97.1621C97.1621 29.651 97.4972 31.2898 98.2643 32.7759L103.596 30.0241ZM103.162 27.944C103.162 26.3576 103.609 25.562 104.14 25.0832L100.12 20.6288C98.0268 22.518 97.1621 25.1144 97.1621 27.944H103.162ZM104.14 25.0832C104.781 24.5044 106.085 23.8884 108.538 23.6317L107.914 17.6643C104.863 17.9836 102.103 18.8396 100.12 20.6288L104.14 25.0832ZM108.545 23.631L114.833 22.959L114.195 16.993L107.907 17.665L108.545 23.631ZM117.514 19.976V19.64H111.514V19.976H117.514ZM117.514 19.64C117.514 18.719 117.303 17.7404 116.736 16.8454C116.167 15.9479 115.368 15.3378 114.523 14.9481L112.009 20.3959C111.997 20.3902 111.822 20.3001 111.669 20.0586C111.517 19.8196 111.514 19.6329 111.514 19.64H117.514ZM114.65 15.0103C113.221 14.2671 111.485 14.048 109.762 14.048V20.048C111.112 20.048 111.711 20.2449 111.882 20.3336L114.65 15.0103ZM109.762 14.048C108.334 14.048 106.931 14.1985 105.559 14.5034L106.861 20.3606C107.793 20.1535 108.758 20.048 109.762 20.048V14.048ZM105.559 14.5034C104.266 14.7908 103.057 15.1592 101.943 15.6199L104.237 21.1641C104.98 20.8568 105.85 20.5852 106.861 20.3606L105.559 14.5034ZM104.798 15.9254C104.894 15.9924 104.84 15.9997 104.717 15.7544L99.3508 18.4376C99.8042 19.3443 100.454 20.2156 101.382 20.8586L104.798 15.9254ZM104.745 15.8117C104.638 15.5841 104.602 15.3971 104.602 15.224H98.6021C98.6021 16.3309 98.8547 17.3919 99.3229 18.3803L104.745 15.8117ZM104.602 15.224C104.602 15.1307 104.608 15.0627 104.613 15.0169C104.616 14.9942 104.619 14.9777 104.622 14.9667C104.624 14.9558 104.625 14.9507 104.625 14.9507C104.625 14.9511 104.619 14.9715 104.602 15.0057C104.584 15.0405 104.558 15.0838 104.521 15.1301L99.8355 11.3819C98.8971 12.5549 98.6021 13.9506 98.6021 15.224H104.602ZM104.506 15.1478C104.52 15.1311 104.68 14.9509 105.219 14.7229L102.881 9.1971C101.756 9.6731 100.668 10.3569 99.8498 11.3642L104.506 15.1478ZM105.114 14.765C105.773 14.5152 106.622 14.3053 107.696 14.1676L106.933 8.21635C105.51 8.39872 104.184 8.70082 102.986 9.15501L105.114 14.765ZM107.686 14.1688C108.861 14.022 109.935 13.952 110.914 13.952V7.952C109.653 7.952 108.327 8.04199 106.942 8.21517L107.686 14.1688ZM144.367 33.752L146.174 36.1469L144.367 33.752ZM132.559 35.528L133.053 32.5688L132.559 35.528ZM129.583 34.664L128.199 37.3256L128.262 37.3583L128.326 37.3879L129.583 34.664ZM127.663 33.128L125.248 34.9076L125.278 34.9478L125.309 34.9869L127.663 33.128ZM127.471 29.048L130.015 30.638L130.037 30.6038L130.057 30.5691L127.471 29.048ZM128.623 27.704L130.073 25.0773L128.333 24.1172L126.77 25.345L128.623 27.704ZM131.791 29.096L130.797 31.9264L130.842 31.9423L130.888 31.9567L131.791 29.096ZM138.223 29.24L136.82 26.5886L136.786 26.6065L136.753 26.6253L138.223 29.24ZM136.543 26.408L135.955 29.3497L135.986 29.3558L136.016 29.3613L136.543 26.408ZM135.103 26.12L135.692 23.1782L135.679 23.1757L135.103 26.12ZM128.863 23.576L126.88 25.8271L126.909 25.852L126.938 25.8763L128.863 23.576ZM127.615 15.32L124.968 13.9082L127.615 15.32ZM129.775 12.92L131.479 15.3896V15.3896L129.775 12.92ZM133.087 11.432L132.31 8.53447L132.301 8.5369L132.292 8.53938L133.087 11.432ZM140.719 11.192L140.167 14.1406L140.218 14.1503L140.27 14.1581L140.719 11.192ZM143.455 11.96L142.206 14.6872L143.455 11.96ZM145.279 13.352L142.911 15.1938L142.937 15.2268L142.964 15.2591L145.279 13.352ZM145.519 17.24L142.868 15.8363L142.852 15.8672L142.836 15.8984L145.519 17.24ZM144.511 18.536L142.921 21.08L144.778 22.2403L146.449 20.8262L144.511 18.536ZM143.359 18.056L142.306 20.865L142.385 20.8944L142.465 20.9194L143.359 18.056ZM141.679 17.576L140.916 20.4772L140.988 20.4963L141.061 20.5117L141.679 17.576ZM139.807 17.192L139.34 20.1553L139.351 20.1571L139.362 20.1588L139.807 17.192ZM135.679 17.432L136.767 20.228L136.833 20.2023L136.898 20.1734L135.679 17.432ZM135.295 19.4L133.575 21.8577V21.8577L135.295 19.4ZM137.119 20.024L137.78 17.0977L137.764 17.094L137.748 17.0906L137.119 20.024ZM138.607 20.36L139.278 17.4358L139.268 17.4337L138.607 20.36ZM145.135 23.288L143.041 25.436L143.068 25.4625L143.096 25.4883L145.135 23.288ZM144.103 28.04C144.103 29.6012 143.579 30.5891 142.561 31.3571L146.174 36.1469C148.804 34.1629 150.103 31.3428 150.103 28.04H144.103ZM142.561 31.3571C141.475 32.1762 139.543 32.816 136.303 32.816V38.816C140.168 38.816 143.612 38.0798 146.174 36.1469L142.561 31.3571ZM136.303 32.816C135.101 32.816 134.02 32.73 133.053 32.5688L132.066 38.4872C133.403 38.71 134.818 38.816 136.303 38.816V32.816ZM133.053 32.5688C132.096 32.4094 131.374 32.1862 130.841 31.9401L128.326 37.3879C129.457 37.9098 130.719 38.2626 132.066 38.4872L133.053 32.5688ZM130.968 32.0023C130.483 31.7504 130.195 31.4936 130.018 31.2691L125.309 34.9869C126.092 35.9784 127.084 36.7456 128.199 37.3256L130.968 32.0023ZM130.079 31.3484C130.049 31.3085 129.991 31.2281 129.991 30.968H123.991C123.991 32.3719 124.382 33.7315 125.248 34.9076L130.079 31.3484ZM129.991 30.968C129.991 30.6109 130.065 30.5594 130.015 30.638L124.927 27.458C124.238 28.5606 123.991 29.7891 123.991 30.968H129.991ZM130.057 30.5691C130.208 30.3129 130.353 30.1601 130.477 30.063L126.77 25.345C125.998 25.9519 125.375 26.6951 124.886 27.5269L130.057 30.5691ZM127.174 30.3307C128.272 30.9362 129.484 31.465 130.797 31.9264L132.786 26.2656C131.731 25.895 130.831 25.4958 130.073 25.0773L127.174 30.3307ZM130.888 31.9567C132.454 32.4514 134.161 32.672 135.967 32.672V26.672C134.638 26.672 133.561 26.5086 132.695 26.2353L130.888 31.9567ZM135.967 32.672C137.162 32.672 138.523 32.5137 139.694 31.8547L136.753 26.6253C136.85 26.5706 136.86 26.589 136.711 26.6175C136.566 26.6453 136.326 26.672 135.967 26.672V32.672ZM139.627 31.8914C140.828 31.2557 142.039 30.0046 142.039 28.088H136.039C136.039 27.7201 136.157 27.3276 136.387 27.0019C136.593 26.7111 136.8 26.5992 136.82 26.5886L139.627 31.8914ZM142.039 28.088C142.039 26.6011 141.316 25.3281 140.128 24.5359L136.799 29.5281C136.649 29.4276 136.431 29.2354 136.262 28.9246C136.09 28.6101 136.039 28.306 136.039 28.088H142.039ZM140.128 24.5359C139.207 23.9218 138.055 23.6304 137.071 23.4547L136.016 29.3613C136.372 29.4249 136.615 29.4875 136.768 29.5371C136.935 29.5914 136.914 29.6044 136.799 29.5281L140.128 24.5359ZM137.132 23.4663L135.692 23.1783L134.515 29.0617L135.955 29.3497L137.132 23.4663ZM135.679 23.1757C133.131 22.6779 131.614 21.9663 130.789 21.2757L126.938 25.8763C128.865 27.4897 131.508 28.4741 134.528 29.0643L135.679 23.1757ZM130.847 21.3249C130.286 20.8313 129.847 20.0519 129.847 18.536H123.847C123.847 21.3721 124.753 23.9527 126.88 25.8271L130.847 21.3249ZM129.847 18.536C129.847 17.7999 130.002 17.2197 130.263 16.7318L124.968 13.9082C124.205 15.3403 123.847 16.904 123.847 18.536H129.847ZM130.263 16.7318C130.541 16.2103 130.931 15.7677 131.479 15.3896L128.072 10.4504C126.764 11.3523 125.714 12.5097 124.968 13.9082L130.263 16.7318ZM131.479 15.3896C132.086 14.971 132.871 14.6029 133.883 14.3246L132.292 8.53938C130.744 8.96506 129.321 9.589 128.072 10.4504L131.479 15.3896ZM133.865 14.3295C134.888 14.0551 136.063 13.904 137.407 13.904V7.904C135.616 7.904 133.911 8.10493 132.31 8.53447L133.865 14.3295ZM137.407 13.904C138.431 13.904 139.348 13.9871 140.167 14.1406L141.272 8.24338C140.043 8.01295 138.752 7.904 137.407 7.904V13.904ZM140.27 14.1581C141.119 14.2867 141.749 14.4778 142.206 14.6872L144.705 9.23281C143.626 8.7382 142.432 8.41727 141.169 8.22585L140.27 14.1581ZM142.206 14.6872C142.604 14.8701 142.803 15.0546 142.911 15.1938L147.648 11.5102C146.86 10.4974 145.842 9.75395 144.705 9.23281L142.206 14.6872ZM142.964 15.2591C142.965 15.2607 142.961 15.2564 142.956 15.2468C142.951 15.2371 142.947 15.2279 142.944 15.2214C142.942 15.2152 142.944 15.2174 142.946 15.2312C142.948 15.2453 142.951 15.274 142.951 15.32H148.951C148.951 13.9231 148.526 12.5755 147.595 11.4449L142.964 15.2591ZM142.951 15.32C142.951 15.662 142.886 15.8018 142.868 15.8363L148.171 18.6437C148.729 17.5902 148.951 16.45 148.951 15.32H142.951ZM142.836 15.8984C142.753 16.0656 142.664 16.1694 142.574 16.2458L146.449 20.8262C147.191 20.1986 147.774 19.4384 148.203 18.5816L142.836 15.8984ZM146.101 15.992C145.523 15.6302 144.853 15.3797 144.254 15.1926L142.465 20.9194C142.657 20.9794 142.791 21.029 142.878 21.0652C142.971 21.1039 142.973 21.1124 142.921 21.08L146.101 15.992ZM144.413 15.247C143.742 14.9953 143.034 14.7954 142.298 14.6404L141.061 20.5117C141.541 20.6126 141.953 20.7327 142.306 20.865L144.413 15.247ZM142.443 14.6748C141.727 14.4864 140.997 14.3368 140.253 14.2252L139.362 20.1588C139.898 20.2392 140.416 20.3456 140.916 20.4772L142.443 14.6748ZM140.275 14.2287C139.542 14.113 138.824 14.048 138.127 14.048V20.048C138.455 20.048 138.857 20.079 139.34 20.1553L140.275 14.2287ZM138.127 14.048C136.898 14.048 135.595 14.1865 134.461 14.6906L136.898 20.1734C136.885 20.1794 136.965 20.1428 137.188 20.1078C137.407 20.0734 137.715 20.048 138.127 20.048V14.048ZM134.592 14.636C133.959 14.8821 133.236 15.3027 132.669 16.0271C132.072 16.7901 131.815 17.6779 131.815 18.536H137.815C137.815 18.8821 137.703 19.3299 137.394 19.7249C137.115 20.0813 136.824 20.2059 136.767 20.228L134.592 14.636ZM131.815 18.536C131.815 19.9858 132.556 21.1441 133.575 21.8577L137.016 16.9423C137.16 17.0432 137.38 17.2382 137.558 17.5591C137.742 17.8912 137.815 18.2382 137.815 18.536H131.815ZM133.575 21.8577C134.441 22.4635 135.592 22.7648 136.491 22.9574L137.748 17.0906C137.372 17.0099 137.118 16.9388 136.963 16.8855C136.887 16.8596 136.855 16.8449 136.856 16.8453C136.857 16.8459 136.872 16.8529 136.897 16.8671C136.922 16.8811 136.963 16.9056 137.016 16.9423L133.575 21.8577ZM136.459 22.9503L137.947 23.2863L139.268 17.4337L137.78 17.0977L136.459 22.9503ZM137.937 23.2842C140.829 23.9468 142.354 24.7659 143.041 25.436L147.23 21.14C145.357 19.3141 142.53 18.1812 139.278 17.4358L137.937 23.2842ZM143.096 25.4883C143.736 26.0813 144.103 26.8383 144.103 28.04H150.103C150.103 25.3377 149.159 22.9267 147.175 21.0877L143.096 25.4883ZM152.056 2.12L149.935 -0.00132465L149.914 0.0194721L149.894 0.0406723L152.056 2.12ZM158.536 2.12L156.374 4.19932L156.394 4.22052L156.415 4.24132L158.536 2.12ZM158.536 8.264L156.415 6.14268L156.394 6.16347L156.374 6.18467L158.536 8.264ZM152.056 8.264L149.894 10.3433L149.914 10.3645L149.935 10.3853L152.056 8.264ZM159.4 34.952L159.937 37.9036L162.4 37.4557V34.952H159.4ZM157.816 35.192L157.411 32.2195L157.333 32.2302L157.255 32.245L157.816 35.192ZM153.832 35.24L153.311 38.1944L153.325 38.1968L153.339 38.1992L153.832 35.24ZM152.44 34.664L150.64 37.064L152.44 34.664ZM151.528 33.512L148.719 34.5654L148.761 34.6748L148.81 34.7807L151.528 33.512ZM151.24 12.008L150.704 9.05639L148.24 9.50427V12.008H151.24ZM152.776 11.768L153.201 14.7378L153.257 14.7298L153.313 14.7196L152.776 11.768ZM156.76 11.72L156.239 14.6743L156.253 14.6768L156.267 14.6792L156.76 11.72ZM158.2 12.296L156.4 14.696H156.4L158.2 12.296ZM159.064 13.496L156.256 14.5494L156.297 14.6588L156.346 14.7647L159.064 13.496ZM153.856 5.192C153.856 4.70543 153.987 4.44026 154.219 4.19932L149.894 0.0406723C148.526 1.46373 147.856 3.24657 147.856 5.192H153.856ZM154.178 4.24132C154.366 4.05331 154.649 3.872 155.32 3.872V-2.128C153.304 -2.128 151.411 -1.47731 149.935 -0.00132465L154.178 4.24132ZM155.32 3.872C155.994 3.872 156.233 4.05301 156.374 4.19932L160.699 0.0406704C159.24 -1.47702 157.335 -2.128 155.32 -2.128V3.872ZM156.415 4.24132C156.664 4.49001 156.784 4.74189 156.784 5.192H162.784C162.784 3.2101 162.073 1.41398 160.658 -0.00132275L156.415 4.24132ZM156.784 5.192C156.784 5.64211 156.664 5.89398 156.415 6.14268L160.658 10.3853C162.073 8.97001 162.784 7.17389 162.784 5.192H156.784ZM156.374 6.18467C156.233 6.33098 155.994 6.512 155.32 6.512V12.512C157.335 12.512 159.24 11.861 160.699 10.3433L156.374 6.18467ZM155.32 6.512C154.649 6.512 154.366 6.33069 154.178 6.14268L149.935 10.3853C151.411 11.8613 153.304 12.512 155.32 12.512V6.512ZM154.219 6.18467C153.987 5.94373 153.856 5.67857 153.856 5.192H147.856C147.856 7.13743 148.526 8.92027 149.894 10.3433L154.219 6.18467ZM158.864 32.0004C158.579 32.0521 158.105 32.1249 157.411 32.2195L158.222 38.1645C158.936 38.0671 159.517 37.9799 159.937 37.9036L158.864 32.0004ZM157.255 32.245C156.773 32.3367 156.274 32.384 155.752 32.384V38.384C156.639 38.384 157.515 38.3033 158.378 38.139L157.255 32.245ZM155.752 32.384C155.181 32.384 154.71 32.3448 154.326 32.2808L153.339 38.1992C154.107 38.3272 154.916 38.384 155.752 38.384V32.384ZM154.354 32.2856C154.275 32.2718 154.235 32.2568 154.224 32.2519C154.213 32.2477 154.222 32.2503 154.24 32.264L150.64 37.064C151.454 37.6745 152.374 38.0289 153.311 38.1944L154.354 32.2856ZM154.24 32.264C154.249 32.2702 154.257 32.2771 154.264 32.2839C154.271 32.2906 154.275 32.2957 154.277 32.2979C154.278 32.3 154.276 32.2978 154.271 32.2896C154.266 32.2815 154.258 32.2665 154.247 32.2433L148.81 34.7807C149.22 35.6604 149.822 36.4504 150.64 37.064L154.24 32.264ZM154.337 32.4586C154.316 32.401 154.24 32.1358 154.24 31.544H148.24C148.24 32.5522 148.357 33.599 148.719 34.5654L154.337 32.4586ZM154.24 31.544V12.008H148.24V31.544H154.24ZM151.777 14.9596C152.072 14.906 152.539 14.8323 153.201 14.7378L152.352 8.79815C151.67 8.89568 151.113 8.98204 150.704 9.05639L151.777 14.9596ZM153.313 14.7196C153.843 14.6233 154.367 14.576 154.888 14.576V8.576C154.002 8.576 153.118 8.65672 152.24 8.81639L153.313 14.7196ZM154.888 14.576C155.463 14.576 155.907 14.6157 156.239 14.6743L157.282 8.76565C156.526 8.63235 155.722 8.576 154.888 8.576V14.576ZM156.267 14.6792C156.37 14.6962 156.422 14.715 156.438 14.7214C156.452 14.7271 156.435 14.7217 156.4 14.696L160 9.896C159.157 9.26365 158.202 8.91893 157.254 8.76082L156.267 14.6792ZM156.4 14.696C156.343 14.6528 156.299 14.6048 156.27 14.5649C156.243 14.5273 156.243 14.5153 156.256 14.5494L161.873 12.4426C161.509 11.4713 160.904 10.5734 160 9.896L156.4 14.696ZM156.346 14.7647C156.325 14.7189 156.341 14.7367 156.361 14.8531C156.382 14.9686 156.4 15.1513 156.4 15.416H162.4C162.4 14.381 162.263 13.2549 161.783 12.2273L156.346 14.7647ZM156.4 15.416V34.952H162.4V15.416H156.4ZM176.355 29.672L176.8 32.6388L176.859 32.6301L176.917 32.619L176.355 29.672ZM177.843 29.192L179.387 31.7645L180.843 30.8906V29.192H177.843ZM177.843 25.352H180.843V22.0916L177.594 22.3624L177.843 25.352ZM174.387 25.64L174.601 28.6324L174.619 28.6311L174.637 28.6296L174.387 25.64ZM172.179 26.216L170.722 23.5935V23.5935L172.179 26.216ZM172.035 29.24L170.071 31.5071L170.151 31.5764L170.235 31.64L172.035 29.24ZM178.899 11.48L178.172 14.3904L178.179 14.3923L178.187 14.3942L178.899 11.48ZM182.547 13.112L180.76 15.5213L180.803 15.5535L180.848 15.5841L182.547 13.112ZM184.899 15.848L182.201 17.1587L182.208 17.1742L182.216 17.1896L184.899 15.848ZM184.995 32.552L182.746 30.5671L182.738 30.5765L184.995 32.552ZM183.363 33.896L181.82 31.3235L183.363 33.896ZM169.971 35.288L169.277 38.2064L169.284 38.2082L169.292 38.21L169.971 35.288ZM166.467 33.848L164.803 36.3442L164.822 36.3567L164.841 36.3689L166.467 33.848ZM164.211 31.4L161.546 32.7759L161.563 32.8094L161.581 32.8425L164.211 31.4ZM165.411 22.856L163.401 20.6288L165.411 22.856ZM171.507 20.648L171.82 23.6317L171.826 23.631L171.507 20.648ZM177.795 19.976L178.114 22.959L180.795 22.6725V19.976H177.795ZM176.547 17.672L175.163 20.3336L175.226 20.3663L175.29 20.3959L176.547 17.672ZM169.491 17.432L168.841 14.5034L169.491 17.432ZM166.371 18.392L164.664 20.8586L166.008 21.7891L167.518 21.1641L166.371 18.392ZM165.315 17.096L162.604 18.3803L162.618 18.4091L162.632 18.4376L165.315 17.096ZM165.459 13.256L163.131 11.3642L163.124 11.373L163.117 11.3819L165.459 13.256ZM167.331 11.96L166.267 9.15501L166.215 9.17506L166.162 9.1971L167.331 11.96ZM170.595 11.192L170.223 8.21515L170.214 8.21635L170.595 11.192ZM174.579 32.816C175.297 32.816 176.04 32.7529 176.8 32.6388L175.91 26.7052C175.391 26.7831 174.95 26.816 174.579 26.816V32.816ZM176.917 32.619C177.696 32.4705 178.609 32.2313 179.387 31.7645L176.3 26.6195C176.396 26.5618 176.419 26.5657 176.31 26.6009C176.21 26.6332 176.044 26.6775 175.794 26.725L176.917 32.619ZM180.843 29.192V25.352H174.843V29.192H180.843ZM177.594 22.3624L174.138 22.6504L174.637 28.6296L178.092 28.3416L177.594 22.3624ZM174.174 22.6476C172.991 22.7321 171.793 22.9986 170.722 23.5935L173.636 28.8385C173.717 28.7934 173.992 28.6759 174.601 28.6324L174.174 22.6476ZM170.722 23.5935C170.056 23.9635 169.418 24.507 168.959 25.2725C168.497 26.0425 168.315 26.8717 168.315 27.656H174.315C174.315 27.8003 174.278 28.0695 174.104 28.3595C173.933 28.645 173.726 28.7885 173.636 28.8385L170.722 23.5935ZM168.315 27.656C168.315 29.1585 168.927 30.5163 170.071 31.5071L174 26.9729C174.055 27.0205 174.151 27.1254 174.226 27.2906C174.301 27.4552 174.315 27.5924 174.315 27.656H168.315ZM170.235 31.64C171.551 32.6265 173.225 32.816 174.579 32.816V26.816C174.136 26.816 173.862 26.7788 173.718 26.7461C173.567 26.7118 173.655 26.705 173.835 26.84L170.235 31.64ZM174.195 13.952C175.723 13.952 177.042 14.1079 178.172 14.3904L179.627 8.56957C177.941 8.14807 176.124 7.952 174.195 7.952V13.952ZM178.187 14.3942C179.315 14.6698 180.146 15.0662 180.76 15.5213L184.335 10.7027C182.964 9.68579 181.364 8.99415 179.612 8.5658L178.187 14.3942ZM180.848 15.5841C181.443 15.9933 181.883 16.5048 182.201 17.1587L187.598 14.5373C186.827 12.9512 185.7 11.6387 184.247 10.6399L180.848 15.5841ZM182.216 17.1896C182.508 17.7742 182.715 18.5898 182.715 19.736H188.715C188.715 17.8742 188.378 16.0978 187.583 14.5064L182.216 17.1896ZM182.715 19.736V30.488H188.715V19.736H182.715ZM182.715 30.488C182.715 30.6146 182.697 30.6551 182.703 30.6399C182.705 30.6332 182.711 30.6198 182.72 30.6033C182.73 30.5868 182.74 30.5743 182.746 30.5671L187.245 34.5369C188.279 33.3647 188.715 31.9366 188.715 30.488H182.715ZM182.738 30.5765C182.514 30.8319 182.218 31.0846 181.82 31.3235L184.907 36.4685C185.789 35.9394 186.581 35.2961 187.253 34.5275L182.738 30.5765ZM181.82 31.3235C180.397 32.1772 178.089 32.768 174.579 32.768V38.768C178.622 38.768 182.17 38.1108 184.907 36.4685L181.82 31.3235ZM174.579 32.768C173.068 32.768 171.765 32.6251 170.651 32.366L169.292 38.21C170.93 38.5909 172.699 38.768 174.579 38.768V32.768ZM170.666 32.3696C169.598 32.1152 168.756 31.7544 168.094 31.3271L164.841 36.3689C166.163 37.2216 167.657 37.8208 169.277 38.2064L170.666 32.3696ZM168.131 31.3518C167.566 30.9745 167.149 30.5169 166.842 29.9575L161.581 32.8425C162.362 34.2671 163.449 35.4415 164.803 36.3442L168.131 31.3518ZM166.877 30.0241C166.62 29.5262 166.443 28.861 166.443 27.944H160.443C160.443 29.651 160.778 31.2898 161.546 32.7759L166.877 30.0241ZM166.443 27.944C166.443 26.3576 166.891 25.562 167.421 25.0832L163.401 20.6288C161.308 22.518 160.443 25.1144 160.443 27.944H166.443ZM167.421 25.0832C168.063 24.5044 169.367 23.8884 171.82 23.6317L171.195 17.6643C168.144 17.9836 165.384 18.8396 163.401 20.6288L167.421 25.0832ZM171.826 23.631L178.114 22.959L177.477 16.993L171.189 17.665L171.826 23.631ZM180.795 19.976V19.64H174.795V19.976H180.795ZM180.795 19.64C180.795 18.719 180.584 17.7404 180.017 16.8454C179.448 15.9479 178.649 15.3378 177.805 14.9481L175.29 20.3959C175.278 20.3902 175.103 20.3001 174.95 20.0586C174.798 19.8196 174.795 19.6329 174.795 19.64H180.795ZM177.931 15.0103C176.502 14.2671 174.766 14.048 173.043 14.048V20.048C174.393 20.048 174.993 20.2449 175.163 20.3336L177.931 15.0103ZM173.043 14.048C171.615 14.048 170.213 14.1985 168.841 14.5034L170.142 20.3606C171.074 20.1535 172.04 20.048 173.043 20.048V14.048ZM168.841 14.5034C167.548 14.7908 166.338 15.1592 165.224 15.6199L167.518 21.1641C168.261 20.8568 169.131 20.5852 170.142 20.3606L168.841 14.5034ZM168.079 15.9254C168.176 15.9924 168.121 15.9997 167.999 15.7544L162.632 18.4376C163.085 19.3443 163.735 20.2156 164.664 20.8586L168.079 15.9254ZM168.027 15.8117C167.919 15.5841 167.883 15.3971 167.883 15.224H161.883C161.883 16.3309 162.136 17.3919 162.604 18.3803L168.027 15.8117ZM167.883 15.224C167.883 15.1307 167.889 15.0627 167.895 15.0169C167.898 14.9942 167.901 14.9777 167.903 14.9667C167.905 14.9558 167.907 14.9507 167.907 14.9507C167.906 14.9511 167.9 14.9715 167.883 15.0057C167.865 15.0405 167.839 15.0838 167.802 15.1301L163.117 11.3819C162.178 12.5549 161.883 13.9506 161.883 15.224H167.883ZM167.788 15.1478C167.801 15.1311 167.961 14.9509 168.5 14.7229L166.162 9.1971C165.037 9.6731 163.949 10.3569 163.131 11.3642L167.788 15.1478ZM168.395 14.765C169.054 14.5152 169.903 14.3053 170.977 14.1676L170.214 8.21635C168.791 8.39872 167.465 8.70082 166.267 9.15501L168.395 14.765ZM170.967 14.1688C172.142 14.022 173.217 13.952 174.195 13.952V7.952C172.934 7.952 171.609 8.04199 170.223 8.21517L170.967 14.1688Z" fill="#FF5E3C"/>
</svg>
