<svg width="561" height="390" viewBox="0 0 561 390" fill="none" xmlns="http://www.w3.org/2000/svg">
<path d="M265.681 156.285C268.578 160.464 270.844 166.105 268.104 170.388C266.998 172.112 265.26 173.313 263.468 174.306C259.886 176.343 255.988 177.91 251.879 178.275C247.77 178.641 243.45 177.701 240.237 175.141C236.918 172.53 235.022 168.455 233.652 164.486C231.597 158.479 224.275 131.317 237.919 135.234C248.876 138.421 259.359 147.144 265.681 156.285Z" fill="#D18830"/>
<path d="M145.309 135.078C145.73 142.548 144.993 150.017 143.149 157.278C142.148 161.247 140.726 165.27 138.197 168.508C135.194 172.373 130.453 175.037 125.554 174.933C115.229 174.776 109.223 161.822 118.39 155.658C127.767 149.338 135.51 141.033 145.309 135.078Z" fill="#D18830"/>
<path d="M95 0C111.647 0.104469 128.241 5.27566 141.99 14.6256C148.101 18.8043 153.79 23.9755 156.635 30.7137C157.32 32.3852 157.846 34.2135 157.53 35.9894C157.162 37.9221 155.845 39.5414 154.528 41.0562C145.519 51.2941 124.184 74.8517 112.068 58.5546C99.8992 42.1531 97.4232 19.6401 95 0Z" fill="#E29733"/>
<path d="M112.068 37.661C109.961 30.0348 108.433 22.2519 107.643 14.3645C116.282 15.4092 124.711 17.7075 132.666 21.2072C136.143 22.722 139.567 24.5502 142.253 27.2142C144.94 29.8781 146.784 33.5345 146.52 37.2954C146.099 43.5112 140.41 47.9511 134.878 50.824C129.716 53.488 123.658 57.9801 119.285 52.9134C115.492 48.6824 113.543 43.0411 112.068 37.661Z" fill="#FFE7C7"/>
<path d="M282.749 1.04469C266.102 0.0522346 249.192 4.12651 234.864 12.5362C228.489 16.2971 222.484 21.1027 219.165 27.6319C218.375 29.2512 217.69 31.0272 217.901 32.8031C218.112 34.788 219.323 36.4595 220.535 38.0266C228.858 48.7868 248.56 73.7548 261.73 58.2935C275.058 42.7799 279.009 20.4758 282.749 1.04469Z" fill="#E29733"/>
<path d="M263.205 37.5043C265.839 30.0348 267.841 22.3564 269.21 14.5735C260.518 15.0436 251.932 16.8196 243.819 19.7969C240.237 21.1028 236.707 22.6698 233.863 25.177C231.018 27.6843 228.911 31.184 228.911 34.9971C228.911 41.213 234.284 46.0185 239.605 49.257C244.557 52.2866 250.299 57.1444 255.04 52.3911C259.043 48.2123 261.361 42.7277 263.205 37.5043Z" fill="#FFE7C7"/>
<path d="M219.481 207.266C229.069 200.684 241.87 200.945 253.196 203.661C262.415 205.855 271.265 209.512 279.325 214.474C291.389 221.839 301.503 231.92 311.933 241.375C322.364 250.881 333.585 260.022 346.807 265.037C360.03 270.051 375.833 270.312 387.686 262.582C383.999 272.454 376.097 281.961 366.246 285.93C356.395 289.848 342.382 294.079 331.794 295.228C310.827 297.474 285.014 295.28 253.986 282.274C230.439 272.402 214.003 247.486 215.583 222.205C215.794 219.123 216.215 215.989 217.585 213.168C219.85 208.519 224.38 205.281 229.227 203.296L219.481 207.266Z" fill="#FFB236"/>
<path d="M132.982 167.829C129.979 183.394 129.768 199.848 134.931 214.839C140.094 229.883 151.051 243.359 165.906 249.262C173.229 252.187 181.183 253.232 189.033 254.015C205.521 255.687 224.222 255.582 235.917 243.986C245.768 234.218 247.612 219.279 248.876 205.49C250.141 191.647 251.405 177.596 248.824 163.911C247.032 154.404 243.45 145.368 239.183 136.645C235.548 129.228 231.387 121.862 225.329 116.169C215.636 107.08 202.044 103.11 188.769 102.013C173.756 100.76 150.261 103.528 143.939 119.93C141.832 125.31 142.253 131.526 141.147 137.167C139.093 147.562 134.984 157.382 132.982 167.829Z" fill="#E29733"/>
<path d="M194.406 307.085C230.453 307.085 259.676 305.355 259.676 303.22C259.676 301.085 230.453 299.354 194.406 299.354C158.358 299.354 129.136 301.085 129.136 303.22C129.136 305.355 158.358 307.085 194.406 307.085Z" fill="#D1EAED"/>
<path d="M148.522 263.208C151.683 273.603 154.949 285.251 149.839 294.862C148.68 297.004 147.1 299.302 147.627 301.653C148.153 304.003 152.579 304.682 152.684 302.28C152.315 303.847 153.632 305.57 155.265 305.727C156.898 305.884 158.479 304.369 158.373 302.75C157.846 304.474 160.322 305.936 162.008 305.205C163.694 304.474 164.537 302.645 165.116 300.922C169.278 287.968 164.958 273.916 165.643 260.283C166.064 251.508 168.54 242.994 170.595 234.48C172.597 225.913 174.177 217.086 172.755 208.415C171.332 199.744 166.381 191.23 158.373 187.521C144.624 181.096 132.086 191.961 134.088 205.594C136.933 225.13 142.78 244.352 148.522 263.208Z" fill="#E29733"/>
<path d="M234.231 263C231.229 273.447 228.121 285.147 233.336 294.654C234.495 296.795 236.128 299.041 235.601 301.444C235.074 303.847 230.702 304.578 230.544 302.123C230.913 303.69 229.648 305.466 228.015 305.623C226.382 305.78 224.802 304.317 224.854 302.698C225.381 304.422 222.958 305.884 221.272 305.205C219.587 304.526 218.691 302.698 218.111 300.974C213.792 288.072 217.848 273.969 217.005 260.388C216.478 251.613 213.844 243.151 211.685 234.636C209.525 226.122 207.839 217.295 209.156 208.624C210.473 199.953 215.267 191.387 223.221 187.521C236.865 180.94 249.561 191.595 247.77 205.281C245.294 224.764 239.657 244.039 234.231 263Z" fill="#E29733"/>
<path d="M148.68 182.925C150.419 198.595 158.321 214.056 171.754 222.518C185.187 230.98 204.257 230.98 216.162 220.533C223.643 214.004 227.646 204.288 229.121 194.521C230.597 184.753 229.701 174.828 228.753 164.956C227.647 153.412 225.803 140.667 216.795 133.354C210.947 128.549 203.098 127.034 195.617 125.78C181.341 123.377 163.114 122.907 155.687 138.108C149.47 150.853 147.153 168.978 148.68 182.925Z" fill="#FFE7C7"/>
<path d="M188.19 17.7596C171.438 17.4984 154.475 21.6772 140.673 30.2436C126.555 39.0189 115.387 53.3833 113.227 69.7327C111.278 84.3583 116.493 99.1406 124.5 111.572C134.035 126.407 147.943 138.786 164.695 144.584C172.175 147.144 180.235 148.293 188.137 147.823V17.7596H188.19Z" fill="#E29733"/>
<path d="M187.505 17.7596C204.257 17.4984 221.22 21.6772 235.022 30.2436C249.14 39.0189 260.308 53.3833 262.468 69.7327C264.417 84.3583 259.202 99.1406 251.194 111.572C241.659 126.407 227.752 138.786 211 144.584C203.519 147.144 195.46 148.293 187.558 147.823V17.7596H187.505Z" fill="#E29733"/>
<path d="M262.467 69.6805C260.308 53.3312 249.14 38.9667 235.022 30.1914C221.325 21.6772 204.468 17.4985 187.821 17.7074C171.174 17.4985 154.317 21.6772 140.62 30.1914C126.502 38.9667 115.334 53.3312 113.174 69.6805C113.069 70.6207 112.964 71.6132 112.858 72.5534C115.018 71.0908 117.336 69.9417 119.812 69.0015C138.408 62.1066 161.323 69.8372 171.859 86.5522C174.756 91.0966 176.706 96.1633 178.497 101.282C181.605 110.162 184.028 119.303 184.924 128.705C185.766 128.705 186.662 128.705 187.505 128.705C187.61 128.705 187.716 128.705 187.821 128.705C187.926 128.705 188.032 128.705 188.137 128.705C188.98 128.705 189.875 128.705 190.718 128.705C191.614 119.355 194.09 110.214 197.145 101.282C198.936 96.1633 200.885 91.1488 203.783 86.5522C214.266 69.8894 237.234 62.1588 255.83 69.0015C258.306 69.9417 260.624 71.0908 262.784 72.5534C262.678 71.6132 262.626 70.673 262.467 69.6805Z" fill="#FFB236"/>
<path d="M346.86 265.141C342.909 263.679 339.169 261.798 335.586 259.709C335.112 259.865 334.586 260.022 334.059 260.179C331.583 260.91 319.888 264.044 317.939 261.746C321.784 266.134 326.052 270.208 330.635 273.916C326.315 275.327 321.995 276.737 317.728 278.2C321.995 277.991 326.262 278.409 330.371 279.506C326.789 283.057 323.207 286.662 319.625 290.214C322.311 289.326 325.156 288.96 327.948 289.064C326.104 291.206 324.524 293.504 323.154 295.959C326.157 295.855 329.054 295.594 331.846 295.332C342.382 294.236 356.447 290.005 366.298 286.035C376.15 282.117 384.051 272.558 387.739 262.686C375.833 270.417 360.082 270.156 346.86 265.141Z" fill="#FFE7C7"/>
<path d="M170.964 187.103C170.489 181.932 172.175 176.709 174.914 172.112C172.544 173.575 170.647 175.664 169.541 177.962C167.908 176.239 166.749 173.47 164.958 172.06C164.115 173.888 166.117 177.91 166.855 179.79C167.381 181.096 168.014 182.402 168.698 183.604C169.225 184.492 170.858 186.163 170.964 187.103Z" fill="#F7E9E2"/>
<path d="M180.92 206.639C180.446 201.468 182.131 196.244 184.871 191.648C182.5 193.11 180.604 195.2 179.498 197.498C177.865 195.774 176.706 193.006 174.914 191.595C174.072 193.424 176.073 197.446 176.811 199.326C177.338 200.632 177.97 201.938 178.655 203.139C179.181 204.079 180.815 205.699 180.92 206.639Z" fill="#F7E9E2"/>
<path d="M202.834 199.117C202.36 193.946 204.046 188.723 206.785 184.126C204.415 185.589 202.518 187.678 201.412 189.976C199.779 188.252 198.62 185.484 196.829 184.074C195.986 185.902 197.988 189.924 198.726 191.804C199.252 193.11 199.884 194.416 200.569 195.617C201.096 196.558 202.729 198.177 202.834 199.117Z" fill="#F7E9E2"/>
<path d="M192.509 223.249C192.141 219.018 193.458 214.735 195.723 210.922C193.774 212.124 192.246 213.795 191.298 215.728C189.928 214.317 189.033 212.071 187.558 210.922C186.873 212.385 188.506 215.728 189.138 217.242C189.559 218.339 190.086 219.384 190.666 220.377C191.087 221.16 192.404 222.466 192.509 223.249Z" fill="#F7E9E2"/>
<path d="M167.118 218.183C166.749 213.952 168.066 209.669 170.331 205.855C168.382 207.057 166.855 208.728 165.906 210.661C164.537 209.251 163.641 207.005 162.166 205.855C161.481 207.318 163.114 210.661 163.747 212.176C164.168 213.273 164.695 214.317 165.274 215.31C165.696 216.041 167.065 217.399 167.118 218.183Z" fill="#F7E9E2"/>
<path d="M211.895 213.168C211.527 208.937 212.844 204.654 215.109 200.841C213.16 202.042 211.632 203.714 210.684 205.647C209.314 204.236 208.418 201.99 206.943 200.841C206.259 202.304 207.892 205.647 208.524 207.161C208.945 208.258 209.472 209.303 210.052 210.295C210.473 211.079 211.843 212.385 211.895 213.168Z" fill="#F7E9E2"/>
<path d="M103.903 157.957C104.166 158.009 118.074 146.57 118.074 146.57C118.074 146.57 137.618 148.032 152.315 154.614C167.065 161.143 188.453 174.41 188.453 174.41C188.453 174.41 199.832 162.606 215.267 158.322C230.702 154.091 259.412 146.57 259.412 146.57L273.267 156.285C273.267 156.285 207.418 185.484 207.576 185.641C207.734 185.745 167.645 197.811 167.645 197.811L103.903 157.957Z" fill="#F7E9E2"/>
<path d="M98.7402 159.523L101.638 157.225L177.338 179.006C177.338 179.006 181.973 183.394 188.716 183.707C196.408 184.073 199.674 178.902 199.674 178.902L275.532 155.344L277.534 157.225L211.158 185.013L168.119 192.326L98.7402 159.523Z" fill="#7587BF"/>
<path d="M98.7402 159.523L176.6 181.775L183.607 247.642L117.494 218.182L98.7402 159.523Z" fill="#6673AA"/>
<path d="M277.639 157.225L200.306 181.775L195.723 247.486L260.834 216.302L277.639 157.225Z" fill="#6673AA"/>
<path d="M176.6 181.775C176.6 181.775 180.709 185.902 187.874 185.745C196.566 185.536 200.306 181.775 200.306 181.775L195.723 247.434C195.723 247.434 194.722 249.314 190.35 249.158C185.977 249.001 183.607 247.643 183.607 247.643L176.6 181.775Z" fill="#515D84"/>
<path d="M180.446 178.328H196.618C196.618 178.328 194.3 182.037 188.822 182.298C184.291 182.507 180.446 178.328 180.446 178.328Z" fill="#685E61"/>
<path d="M120.866 149.86C121.34 149.965 143.202 153.517 157.372 159.524C171.596 165.531 183.659 176.186 183.08 175.925C182.553 175.716 166.697 164.799 153.105 159.524C144.94 156.337 114.755 151.741 114.755 151.741L120.866 149.86Z" fill="white"/>
<path d="M191.35 176.813C191.087 176.447 199.305 166.053 209.999 162.919C220.693 159.785 257.463 149.286 257.463 149.286L261.256 151.009C261.256 151.009 216.689 161.665 210.947 163.598C199.252 167.62 191.35 176.813 191.35 176.813Z" fill="white"/>
<path d="M194.669 175.977C194.669 175.977 204.31 167.411 220.219 164.016C236.128 160.621 266.787 153.882 266.787 153.882L269.105 155.397C269.105 155.397 227.436 163.807 221.272 165.165C207.523 168.142 194.669 175.977 194.669 175.977Z" fill="white"/>
<path d="M111.699 155.345C111.699 155.345 138.513 158.479 150.787 163.023C163.062 167.568 181.341 176.761 181.341 176.761C181.341 176.761 158.637 166.888 147.416 163.598C133.456 159.471 107.748 156.755 107.748 156.755L111.699 155.345Z" fill="white"/>
<path d="M105.483 192.745C107.011 196.558 110.488 199.848 114.649 200.214C115.861 200.319 117.178 200.162 118.126 199.431C119.812 198.125 119.601 195.095 117.705 193.998C118.916 193.371 119.654 191.909 119.39 190.551C119.127 189.193 117.863 188.148 116.493 188.044C117.441 187.051 117.02 185.38 116.019 184.439C115.018 183.499 113.648 183.134 112.384 182.768C110.646 182.246 108.855 181.671 107.38 180.626C105.905 179.634 104.746 178.171 104.324 176.448C105.641 181.932 103.323 187.312 105.483 192.745Z" fill="#FFB236"/>
<path d="M271.423 186.999C269.579 190.707 265.839 193.685 261.677 193.737C260.466 193.737 259.149 193.476 258.253 192.692C256.673 191.23 257.147 188.252 259.096 187.312C257.937 186.581 257.358 185.066 257.726 183.76C258.095 182.454 259.412 181.462 260.835 181.514C259.992 180.469 260.518 178.798 261.572 177.962C262.626 177.126 264.048 176.865 265.365 176.604C267.156 176.238 268.947 175.768 270.528 174.88C272.055 173.992 273.372 172.686 273.899 170.963C272.108 176.238 274.004 181.723 271.423 186.999Z" fill="#FFB236"/>
<path d="M223.063 95.3277C222.905 96.7903 223.432 98.3573 224.591 99.2976C225.75 100.238 227.489 100.447 228.753 99.6632C229.596 99.1408 230.175 98.3051 230.702 97.5216C231.439 96.3724 232.177 95.0666 232.177 93.7085C232.23 87.7538 223.643 90.9923 223.063 95.3277Z" fill="#54413F"/>
<path d="M228.279 92.3504C227.488 92.1414 226.593 92.4026 226.013 92.9772C225.75 93.2906 225.487 93.6562 225.592 94.0741C225.697 94.492 226.066 94.7532 226.435 94.8576C226.856 94.9621 227.225 94.8576 227.646 94.8054C228.489 94.6487 229.438 94.2308 229.543 93.3428C229.596 92.6116 228.7 91.9325 227.963 92.2981L228.279 92.3504Z" fill="white"/>
<path d="M149.154 99.7675C150.524 100.342 152.21 100.29 153.421 99.4541C154.633 98.6184 155.371 97.0513 155.002 95.5888C154.738 94.6485 154.106 93.865 153.474 93.1337C152.579 92.0891 151.525 91.0444 150.208 90.6265C144.466 88.9028 145.098 97.9915 149.154 99.7675Z" fill="#54413F"/>
<path d="M147.785 93.9697C147.363 94.6487 147.363 95.5889 147.732 96.268C147.943 96.6336 148.259 96.947 148.68 96.9993C149.102 97.0515 149.47 96.7381 149.681 96.3724C149.892 96.0068 149.944 95.5889 149.997 95.2233C150.05 94.3875 149.944 93.3429 149.154 93.0295C148.469 92.7683 147.574 93.4473 147.679 94.1786L147.785 93.9697Z" fill="white"/>
<path d="M177.127 88.485C178.286 88.485 178.286 86.709 177.127 86.709C175.968 86.709 175.968 88.485 177.127 88.485Z" fill="#FFB236"/>
<path d="M197.25 105.095C197.935 107.55 199.884 109.013 202.255 109.849C203.993 110.423 207.576 110.946 209.367 111.207C219.692 112.617 230.228 112.147 240.395 110.005C242.555 109.535 244.767 109.013 246.769 108.02C251.299 105.722 251.721 101.857 251.932 99.0883C252.195 95.8498 252.3 91.5144 252.195 87.1789C252.458 85.3507 251.826 81.0675 245.926 79.8139C236.128 77.7245 212.896 78.9781 206.048 79.9183C203.835 80.2317 201.465 81.0153 199.99 82.7912C198.357 84.7239 197.777 87.0222 197.461 89.4772C196.408 96.2154 196.724 103.163 197.25 105.095ZM200.885 90.2607C201.149 88.328 201.57 86.082 202.887 84.7761C204.52 83.2091 207.628 83.1569 209.999 83.0002C220.377 82.2167 232.862 81.3809 243.924 82.9479C249.561 83.8881 248.402 85.7163 248.665 87.4923C248.823 93.3425 248.507 98.566 248.297 100.081C247.928 103.424 246.295 104.782 242.607 105.827C240.447 106.453 238.182 106.871 235.97 107.237C231.387 108.02 226.751 108.438 221.588 108.438C213.792 108.438 206.575 107.341 204.204 106.715C200.517 105.774 200.517 104.468 200.359 101.439C200.201 97.7825 200.359 93.9693 200.885 90.2607Z" fill="#54413F"/>
<path d="M181.499 90.522C186.715 89.4773 192.193 89.7907 197.25 91.41C197.567 91.5144 197.935 91.6711 198.146 91.9323C198.304 92.1935 198.357 92.5069 198.357 92.8203C198.409 94.0739 198.515 95.3275 198.567 96.5812C198.567 95.432 197.777 94.3351 196.776 93.7605C195.775 93.1337 194.564 92.8725 193.405 92.6636C190.297 92.1412 187.083 91.8801 184.081 92.8203C181.078 93.7605 178.339 96.0066 177.654 99.0362C177.285 97.4692 176.231 94.2829 176.864 92.7681C177.548 91.2533 180.077 90.7831 181.499 90.522Z" fill="#54413F"/>
<path d="M182.922 124.683C182.026 126.041 182.132 128.026 183.238 129.228C183.87 129.907 184.713 130.324 185.45 130.899C186.662 131.787 187.61 133.145 188.032 134.608C188.137 134.921 188.242 135.234 188.506 135.339C188.822 135.443 189.191 135.234 189.296 134.921C189.454 134.608 189.401 134.242 189.454 133.929C189.559 132.884 190.244 131.891 191.192 131.421C191.877 131.108 192.72 130.951 193.247 130.429C193.774 129.907 193.932 129.071 193.984 128.34C194.09 127.295 194.09 126.146 193.51 125.258C192.983 124.422 191.983 123.9 191.034 123.638C188.506 122.803 184.66 121.967 182.922 124.683Z" fill="#54413F"/>
<path d="M187.558 128.758C187.505 133.145 187.558 137.481 187.716 141.868C187.768 143.018 189.507 143.018 189.507 141.868C189.349 137.533 189.296 133.145 189.349 128.758C189.349 127.608 187.558 127.608 187.558 128.758Z" fill="#54413F"/>
<path d="M182.342 141.451C186.82 143.749 192.299 143.749 196.724 141.346C197.725 140.824 196.829 139.309 195.828 139.831C191.93 141.921 187.136 141.973 183.238 139.936C182.237 139.413 181.341 140.928 182.342 141.451Z" fill="#54413F"/>
<path d="M161.06 246.911C161.007 246.494 161.007 246.023 161.323 245.762C161.587 245.501 162.008 245.553 162.377 245.553C165.959 245.919 169.225 247.643 172.597 248.844C179.076 251.09 186.135 251.195 192.984 251.299C202.097 251.404 211.369 251.456 219.955 248.478C217.216 262.112 217.269 276.058 216.11 290.005C213.95 279.14 214.213 267.962 214.477 256.94C198.989 259.97 182.764 258.978 167.698 254.224C164.326 268.275 170.7 283.423 165.854 297.161C165.643 293.87 166.328 290.632 166.275 287.341C166.223 283.11 164.853 278.722 164.168 274.543C162.693 265.35 161.639 256.157 161.06 246.911Z" fill="#D18830"/>
<path d="M134.457 55.3162C135.352 55.264 136.195 55.2117 137.091 55.264C137.986 55.3162 138.777 55.3684 139.567 55.5252C140.041 55.5774 140.568 55.4207 140.673 54.8984C140.778 54.4805 140.568 53.9059 140.041 53.8014C138.197 53.488 136.353 53.3836 134.457 53.5403C133.983 53.5925 133.561 53.9059 133.561 54.4282C133.614 54.8984 133.983 55.3685 134.457 55.3162Z" fill="#E29733"/>
<path d="M156.635 61.4798C158.479 62.9424 160.375 64.4572 162.219 65.9197C162.588 66.1809 163.114 66.2854 163.483 65.9197C163.799 65.6063 163.852 64.9795 163.483 64.6661C161.639 63.2035 159.743 61.6887 157.899 60.2262C157.53 59.965 157.004 59.8605 156.635 60.2262C156.319 60.5396 156.266 61.1664 156.635 61.4798Z" fill="#E29733"/>
<path d="M141.411 48.7347C143.518 49.7794 145.572 50.8241 147.679 51.8688C148.101 52.0777 148.628 51.9733 148.891 51.5554C149.102 51.1897 148.996 50.5629 148.575 50.354C146.468 49.3093 144.413 48.2646 142.306 47.22C141.885 47.011 141.358 47.1155 141.094 47.5333C140.884 47.9512 140.989 48.5258 141.411 48.7347Z" fill="#E29733"/>
<path d="M142.886 36.0938C144.361 36.7728 145.888 37.3996 147.363 38.0787C147.785 38.2876 148.311 38.2353 148.575 37.7652C148.786 37.3996 148.733 36.7728 148.259 36.5639C146.784 35.8848 145.256 35.258 143.781 34.579C143.36 34.37 142.833 34.4222 142.569 34.8924C142.359 35.3102 142.464 35.9371 142.886 36.0938Z" fill="#E29733"/>
<path d="M156.055 44.1903C157.636 45.8618 159.163 47.5333 160.744 49.2048C161.06 49.5182 161.692 49.5704 162.008 49.2048C162.324 48.8391 162.324 48.3168 162.008 47.9511C160.428 46.2796 158.9 44.6082 157.32 42.9367C157.003 42.6233 156.371 42.571 156.055 42.9367C155.686 43.3023 155.686 43.8247 156.055 44.1903Z" fill="#E29733"/>
<path d="M169.699 59.3384C170.489 61.3755 171.28 63.4649 172.07 65.502C172.228 65.9199 172.649 66.2333 173.176 66.1288C173.598 66.0244 173.966 65.502 173.808 65.0319C173.018 62.9948 172.228 60.9054 171.438 58.8683C171.28 58.4504 170.858 58.137 170.331 58.2414C169.91 58.3981 169.541 58.9205 169.699 59.3384Z" fill="#E29733"/>
<path d="M179.182 76.3666C179.55 78.4037 180.13 80.3364 180.867 82.2691C181.025 82.6869 181.447 83.0004 181.974 82.8959C182.395 82.7914 182.764 82.2691 182.606 81.799C181.816 79.9185 181.289 77.9336 180.92 75.8965C180.815 75.4264 180.235 75.1652 179.814 75.2697C179.287 75.4264 179.076 75.8965 179.182 76.3666Z" fill="#E29733"/>
<path d="M190.929 82.8436C190.876 82.2168 190.876 81.59 190.929 80.9632C190.929 80.8064 190.929 80.6498 190.982 80.5453C190.982 80.5453 191.034 80.2319 190.982 80.3886C190.982 80.4931 190.982 80.2319 190.982 80.2319C191.034 79.9185 191.087 79.6051 191.192 79.2916C191.298 78.8215 191.034 78.2992 190.56 78.1947C190.086 78.0903 189.559 78.3514 189.454 78.8216C189.138 80.1274 189.033 81.5377 189.138 82.8436C189.191 83.3137 189.507 83.7316 190.034 83.7316C190.508 83.7316 190.982 83.3659 190.929 82.8436Z" fill="#E29733"/>
<path d="M186.241 63.8303C186.188 61.4797 185.872 59.1292 185.24 56.8831C184.924 55.7862 183.238 56.2563 183.554 57.3532C184.133 59.4948 184.449 61.6364 184.449 63.8303C184.502 64.9272 186.241 64.9272 186.241 63.8303Z" fill="#E29733"/>
<path d="M179.287 45.4963C178.497 43.6681 177.812 41.7876 177.232 39.855C177.074 39.3849 176.6 39.1237 176.126 39.2282C175.652 39.3327 175.389 39.855 175.494 40.3251C176.073 42.4145 176.864 44.3994 177.706 46.3843C177.917 46.8021 178.549 46.9066 178.918 46.6977C179.445 46.4365 179.498 45.9142 179.287 45.4963Z" fill="#E29733"/>
<path d="M165.906 33.8477C164.8 32.594 163.641 31.3927 162.535 30.1391C162.219 29.7734 161.587 29.8256 161.271 30.1391C160.954 30.5047 160.954 31.027 161.271 31.3927C162.377 32.6463 163.536 33.8477 164.642 35.1013C164.958 35.4669 165.59 35.4147 165.906 35.1013C166.222 34.7357 166.222 34.2133 165.906 33.8477Z" fill="#E29733"/>
<path d="M182.974 28.9378C182.764 27.4752 182.606 26.0126 182.395 24.5501C182.342 24.08 182.026 23.6621 181.499 23.6621C181.078 23.6621 180.551 24.0277 180.604 24.5501C180.815 26.0126 180.973 27.4752 181.183 28.9378C181.236 29.4079 181.552 29.8258 182.079 29.8258C182.5 29.7735 183.027 29.4079 182.974 28.9378Z" fill="#E29733"/>
<path d="M190.666 46.4885C190.876 45.3393 191.087 44.1379 191.298 42.9887C191.35 42.7276 191.35 42.5186 191.192 42.3097C191.087 42.153 190.876 41.9441 190.666 41.8918C190.244 41.7874 189.665 41.9963 189.559 42.5187C189.349 43.6678 189.138 44.8692 188.927 46.0184C188.875 46.2795 188.875 46.4885 189.033 46.6974C189.138 46.8541 189.349 47.063 189.559 47.1153C189.981 47.1675 190.56 46.9586 190.666 46.4885Z" fill="#E29733"/>
<path d="M196.25 68.7928C197.409 68.7928 197.409 67.0168 196.25 67.0168C195.143 67.0168 195.143 68.7928 196.25 68.7928Z" fill="#E29733"/>
<path d="M197.356 67.278C198.041 64.8752 199.147 62.5769 200.569 60.4875C200.833 60.0696 200.622 59.4951 200.253 59.2861C199.832 59.025 199.305 59.2339 199.042 59.5995C197.514 61.7934 196.355 64.2484 195.618 66.8079C195.354 67.9048 197.04 68.3226 197.356 67.278Z" fill="#E29733"/>
<path d="M205.047 72.501C205.679 71.5086 206.364 70.7251 207.26 69.8371C207.681 69.4192 208.155 69.0536 208.629 68.6879C208.524 68.7402 208.629 68.6879 208.682 68.6357C208.735 68.5835 208.787 68.5312 208.84 68.5312C208.945 68.4268 209.051 68.3745 209.209 68.2701C209.472 68.1133 209.736 67.9044 209.999 67.7477C210.42 67.4865 210.578 66.9642 210.315 66.5463C210.052 66.1285 209.525 65.9717 209.103 66.2329C206.838 67.591 204.942 69.4192 203.519 71.6131C203.256 71.9787 203.414 72.6055 203.835 72.8144C204.257 73.0234 204.784 72.8667 205.047 72.501Z" fill="#E29733"/>
<path d="M225.381 63.3602C227.225 62.5767 229.174 61.9499 231.123 61.532C231.597 61.4275 231.861 60.9052 231.755 60.4351C231.597 59.965 231.123 59.7038 230.649 59.8083C228.542 60.2784 226.488 60.9574 224.486 61.8454C224.064 62.0544 223.959 62.6812 224.17 63.0468C224.433 63.5169 224.96 63.5691 225.381 63.3602Z" fill="#E29733"/>
<path d="M216.268 56.6743C216.742 56.3087 217.269 56.0475 217.795 55.7863C217.743 55.8386 217.637 55.8386 217.585 55.8908C217.953 55.7341 218.322 55.6296 218.691 55.5252C219.165 55.4207 219.429 54.8984 219.323 54.4282C219.165 53.9581 218.691 53.697 218.217 53.8014C217.216 54.0626 216.215 54.4805 215.372 55.1073C215.162 55.264 215.056 55.3685 214.951 55.6296C214.898 55.8386 214.898 56.0997 215.056 56.3087C215.162 56.5176 215.372 56.6743 215.583 56.7266C215.794 56.831 216.057 56.831 216.268 56.6743Z" fill="#E29733"/>
<path d="M203.256 48.7346C204.362 46.6975 205.468 44.6604 206.575 42.6233C206.785 42.2054 206.68 41.683 206.259 41.4218C205.837 41.2129 205.258 41.3174 205.047 41.7353C203.941 43.7724 202.834 45.8096 201.728 47.8467C201.517 48.2646 201.623 48.7869 202.044 49.0481C202.413 49.257 202.993 49.1525 203.256 48.7346Z" fill="#E29733"/>
<path d="M196.25 31.4975C196.776 30.1394 197.251 28.7813 197.777 27.4232C197.935 27.0054 197.619 26.4308 197.145 26.3263C196.618 26.2219 196.25 26.483 196.039 26.9531C195.512 28.3112 195.038 29.6693 194.511 31.0274C194.353 31.4453 194.669 32.0199 195.143 32.1243C195.67 32.2288 196.092 31.9676 196.25 31.4975Z" fill="#E29733"/>
<path d="M215.636 35.8327C215.741 35.676 215.899 35.467 216.004 35.3103C216.057 35.2581 216.057 35.2059 216.11 35.2059C216.215 35.0492 216.057 35.3103 216.11 35.2059C216.162 35.1014 216.268 35.0492 216.321 34.9447C216.584 34.6313 216.9 34.3179 217.216 34.0567C217.374 33.9 217.532 33.7955 217.69 33.6388C217.743 33.5866 217.743 33.5866 217.796 33.5344C217.585 33.6388 217.796 33.5344 217.796 33.5344C217.901 33.4821 217.954 33.4299 218.059 33.3777C218.428 33.1165 218.796 32.9076 219.165 32.6986C219.587 32.4897 219.745 31.8629 219.481 31.4972C219.218 31.0793 218.691 30.9749 218.27 31.1838C216.584 32.0718 215.109 33.3777 214.108 34.9969C213.845 35.3626 214.003 35.9894 214.424 36.1983C214.898 36.355 215.372 36.2506 215.636 35.8327Z" fill="#E29733"/>
<path d="M222.115 43.72C223.959 42.362 226.171 41.5784 228.489 41.474C228.963 41.474 229.385 41.0561 229.385 40.586C229.385 40.1159 228.963 39.698 228.489 39.698C225.908 39.7502 223.327 40.6382 221.22 42.153C220.851 42.4142 220.64 42.9365 220.903 43.3544C221.114 43.7723 221.746 44.0334 222.115 43.72Z" fill="#E29733"/>
<path d="M240.237 44.7125C242.555 44.1902 244.978 44.3991 247.19 45.2349C247.612 45.3916 248.139 45.0259 248.297 44.6081C248.455 44.0857 248.139 43.7201 247.665 43.5111C245.136 42.5187 242.397 42.362 239.763 42.9888C239.289 43.0932 239.025 43.6156 239.13 44.0857C239.289 44.6081 239.815 44.817 240.237 44.7125Z" fill="#E29733"/>
<path d="M228.7 52.5999C228.911 52.5476 229.122 52.5476 229.332 52.4954C229.385 52.4954 229.648 52.4432 229.543 52.4432C229.648 52.4432 229.754 52.4432 229.806 52.3909C230.228 52.3387 230.597 52.3387 231.018 52.2865C231.861 52.2342 232.651 52.2865 233.494 52.3387C233.968 52.3909 234.389 51.9208 234.389 51.4507C234.389 50.9284 234.021 50.615 233.494 50.5627C231.756 50.406 229.964 50.5105 228.226 50.8239C227.752 50.9284 227.488 51.503 227.594 51.9208C227.805 52.4954 228.226 52.7043 228.7 52.5999Z" fill="#E29733"/>
<path d="M248.876 58.7637C251.036 59.0249 253.249 59.9129 254.987 61.2709C255.356 61.5844 255.883 61.6366 256.251 61.2709C256.568 60.9575 256.62 60.3307 256.251 60.0173C254.092 58.3458 251.616 57.3012 248.876 56.9878C248.402 56.9355 247.981 57.4578 247.981 57.8757C248.034 58.3981 248.402 58.7115 248.876 58.7637Z" fill="#E29733"/>
<path d="M120.55 64.9796C121.708 64.9796 121.708 63.2036 120.55 63.2036C119.443 63.2036 119.443 64.9796 120.55 64.9796Z" fill="#E29733"/>
<path d="M121.182 64.6663C121.234 64.6141 121.287 64.6141 121.287 64.5619C121.234 64.6141 121.234 64.6141 121.287 64.5619C121.392 64.5096 121.445 64.4574 121.55 64.4051C121.708 64.3007 121.866 64.1962 122.077 64.0395C122.393 63.8306 122.762 63.6216 123.131 63.4649C123.289 63.3604 123.5 63.3082 123.658 63.2037C123.71 63.2037 123.763 63.1515 123.816 63.1515C123.71 63.2038 123.71 63.2038 123.816 63.1515C123.921 63.0993 124.026 63.0993 124.132 63.0471C124.5 62.8903 124.922 62.7859 125.343 62.6814C125.817 62.5769 126.133 62.0546 125.975 61.5845C125.817 61.1144 125.343 60.8532 124.869 60.9577C123.078 61.4278 121.445 62.2635 119.97 63.4127C119.601 63.7261 119.654 64.3529 119.97 64.6663C120.286 65.0319 120.76 64.9797 121.182 64.6663Z" fill="#E29733"/>
<path d="M245.031 263.47C248.191 267.022 252.09 269.895 256.409 271.827C256.831 272.036 257.358 271.932 257.621 271.514C257.832 271.148 257.726 270.522 257.305 270.313C253.091 268.432 249.35 265.664 246.242 262.216C245.505 261.381 244.293 262.634 245.031 263.47Z" fill="#E29733"/>
<path d="M246.137 250.046C249.35 252.031 252.933 253.493 256.62 254.381C257.726 254.642 258.2 252.919 257.094 252.71C253.512 251.874 250.141 250.516 247.032 248.583C246.084 247.904 245.189 249.419 246.137 250.046Z" fill="#E29733"/>
<path d="M247.77 233.853C250.141 234.323 252.511 234.793 254.882 235.263C255.356 235.368 255.83 235.107 255.988 234.637C256.093 234.219 255.83 233.644 255.356 233.54C252.985 233.07 250.615 232.599 248.244 232.129C247.77 232.025 247.296 232.286 247.138 232.756C247.032 233.174 247.296 233.749 247.77 233.853Z" fill="#E29733"/>
<path d="M260.15 224.973C262.257 225.13 264.364 225.6 266.366 226.279C266.84 226.435 267.314 226.122 267.472 225.652C267.63 225.182 267.314 224.712 266.84 224.555C264.68 223.824 262.415 223.354 260.15 223.197C259.676 223.145 259.254 223.615 259.254 224.085C259.254 224.607 259.676 224.973 260.15 224.973Z" fill="#E29733"/>
<path d="M274.11 224.137C277.06 225.757 280.01 227.271 283.065 228.682C283.487 228.891 284.013 228.786 284.277 228.368C284.488 228.003 284.382 227.376 283.961 227.167C280.905 225.757 277.955 224.242 275.005 222.623C274.004 222.1 273.109 223.615 274.11 224.137Z" fill="#E29733"/>
<path d="M271.844 241.218C273.899 242.106 275.901 242.942 277.955 243.83C278.377 244.039 278.903 243.934 279.167 243.516C279.378 243.151 279.272 242.524 278.851 242.315C276.796 241.427 274.795 240.591 272.74 239.703C272.319 239.494 271.792 239.599 271.528 240.016C271.318 240.382 271.423 241.061 271.844 241.218Z" fill="#E29733"/>
<path d="M268.842 254.799C270.896 255.896 273.056 256.836 275.269 257.567C275.743 257.724 276.217 257.41 276.375 256.94C276.533 256.47 276.217 256 275.743 255.843C273.688 255.164 271.686 254.276 269.737 253.284C269.316 253.075 268.789 253.179 268.526 253.597C268.315 254.015 268.42 254.59 268.842 254.799Z" fill="#E29733"/>
<path d="M266.682 269.634C268.947 270.522 271.212 271.41 273.478 272.245C273.899 272.402 274.426 272.036 274.584 271.618C274.742 271.096 274.426 270.73 273.952 270.522C271.686 269.634 269.421 268.746 267.156 267.91C266.735 267.753 266.208 268.119 266.05 268.537C265.944 269.007 266.208 269.425 266.682 269.634Z" fill="#E29733"/>
<path d="M277.376 285.304C280.747 286.662 284.171 287.811 287.648 288.751C288.754 289.064 289.229 287.341 288.122 287.079C284.646 286.139 281.221 284.99 277.85 283.632C277.428 283.475 276.902 283.841 276.744 284.259C276.638 284.729 276.954 285.147 277.376 285.304Z" fill="#E29733"/>
<path d="M303.61 292.512C305.665 292.408 307.719 292.042 309.721 291.467C310.195 291.311 310.458 290.84 310.353 290.37C310.248 289.9 309.721 289.639 309.247 289.744C307.403 290.266 305.507 290.632 303.61 290.684C303.136 290.684 302.715 291.049 302.715 291.572C302.715 292.094 303.083 292.564 303.61 292.512Z" fill="#E29733"/>
<path d="M293.548 277.939C296.604 278.043 299.659 278.2 302.715 278.304C303.874 278.357 303.874 276.581 302.715 276.528C299.659 276.424 296.604 276.267 293.548 276.163C292.389 276.111 292.389 277.886 293.548 277.939Z" fill="#E29733"/>
<path d="M285.278 262.007C288.175 261.798 291.072 262.059 293.917 262.843C295.023 263.156 295.498 261.433 294.391 261.171C291.441 260.336 288.333 260.022 285.278 260.284C284.804 260.336 284.382 260.649 284.382 261.171C284.382 261.589 284.804 262.059 285.278 262.007Z" fill="#E29733"/>
<path d="M289.755 249.419C291.81 250.202 293.917 250.934 295.972 251.717C296.446 251.874 296.92 251.508 297.078 251.09C297.236 250.62 296.92 250.15 296.446 249.993C294.391 249.21 292.284 248.479 290.23 247.695C289.755 247.538 289.281 247.904 289.123 248.322C288.965 248.844 289.281 249.262 289.755 249.419Z" fill="#E29733"/>
<path d="M310.353 253.806C311.775 255.06 313.408 256 315.199 256.575C315.621 256.732 316.2 256.418 316.306 255.948C316.411 255.478 316.148 255.008 315.674 254.851C315.463 254.799 315.305 254.694 315.094 254.642C314.989 254.59 314.883 254.538 314.778 254.538C314.673 254.486 314.883 254.59 314.778 254.538C314.725 254.538 314.673 254.486 314.62 254.486C314.251 254.329 313.883 254.12 313.514 253.911C313.145 253.702 312.829 253.493 312.46 253.284C312.355 253.232 312.302 253.18 312.197 253.127C312.197 253.127 312.039 252.971 312.091 253.075C312.197 253.127 312.039 253.023 312.039 253.023C311.881 252.866 311.723 252.762 311.565 252.605C311.196 252.292 310.669 252.239 310.3 252.605C310.037 252.919 309.984 253.493 310.353 253.806Z" fill="#E29733"/>
<path d="M294.602 237.771C297.078 239.024 299.554 240.278 302.03 241.532C302.451 241.74 302.978 241.636 303.241 241.218C303.452 240.8 303.347 240.226 302.925 240.017C300.449 238.763 297.973 237.509 295.497 236.256C295.076 236.047 294.549 236.151 294.286 236.569C294.022 236.987 294.18 237.562 294.602 237.771Z" fill="#E29733"/>
<path d="M256.41 277.103C258.201 278.2 260.202 279.036 262.257 279.453C262.731 279.558 263.258 279.349 263.363 278.827C263.469 278.409 263.205 277.834 262.731 277.73C260.729 277.312 258.991 276.633 257.305 275.588C256.936 275.327 256.304 275.484 256.093 275.902C255.883 276.372 255.988 276.842 256.41 277.103Z" fill="#E29733"/>
<path d="M179.129 89.4252C178.813 87.0225 178.286 84.6719 176.653 82.7393C175.178 80.9633 172.86 80.1275 170.647 79.8141C163.799 78.7694 140.568 77.1502 130.769 79.0829C124.869 80.232 124.132 84.5152 124.342 86.3957C124.132 90.7311 124.184 95.0666 124.395 98.3051C124.553 101.073 124.974 104.939 129.452 107.342C131.454 108.386 133.614 108.961 135.826 109.431C145.941 111.729 156.529 112.356 166.802 111.102C168.593 110.894 172.228 110.423 173.966 109.849C176.337 109.065 178.286 107.603 179.023 105.2C179.656 103.163 180.077 96.2679 179.129 89.4252ZM175.968 101.491C175.757 104.521 175.757 105.775 172.017 106.715C169.594 107.289 162.377 108.334 154.58 108.177C149.365 108.073 144.782 107.603 140.199 106.715C137.986 106.297 135.774 105.827 133.614 105.2C129.979 104.103 128.399 102.693 128.03 99.3498C127.872 97.7827 127.608 92.6116 127.872 86.7613C128.188 84.9853 127.029 83.1571 132.718 82.3214C143.834 80.9111 156.319 81.9557 166.644 82.896C169.014 83.1049 172.122 83.2094 173.703 84.7764C175.02 86.0822 175.389 88.3283 175.652 90.261C176.126 93.9696 176.231 97.7305 175.968 101.491Z" fill="#54413F"/>
<path d="M61.3188 289.748C61.7402 289.696 62.2143 289.591 62.5304 289.853C63.0572 290.218 63.0045 291.054 62.583 291.524C62.1616 291.994 61.5294 292.203 60.8973 292.36C58.6848 292.987 56.4722 293.613 54.2597 294.24C52.7847 294.658 47.8855 296.695 46.5159 295.86C44.7248 294.763 48.2543 293.509 49.1498 293.405C53.4168 292.83 57.1044 290.532 61.3188 289.748Z" fill="#54413F"/>
<path d="M18.5959 376.875H269.455L198.338 250.677L115.315 249.162L18.5959 376.875Z" fill="#96836E"/>
<path d="M249.7 376.875C248.646 375.151 137.809 259.661 137.809 259.661H316.286L434.815 376.875H249.7Z" fill="#69934E"/>
<path d="M139.337 259.661L97.088 257.833C97.088 257.833 108.888 244.357 114.419 243.678C139.864 240.596 282.15 242.006 282.045 242.006C282.045 242.006 299.376 240.596 306.699 247.856C314.021 255.117 316.287 259.661 316.287 259.661H139.337Z" fill="#55723F"/>
<path d="M97.0879 257.833L0 376.875H9.79834L105.253 257.833C105.201 257.833 95.6656 257.572 97.0879 257.833Z" fill="#55723F"/>
<path d="M249.7 376.875H239.269L123.375 255.065L132.91 254.333L249.7 376.875Z" fill="#55723F"/>
<path d="M239.269 376.875H220.568C220.568 376.875 192.806 361.152 169.785 338.117C149.03 317.38 114.946 267.549 114.946 267.549C114.946 267.549 95.0335 297.218 87.1316 308.709C61.9509 345.43 18.5958 376.875 18.5958 376.875H9.74573L105.201 257.833L127.273 259.139L239.269 376.875Z" fill="#BCA67E"/>
<path d="M105.991 258.773C105.78 258.669 105.517 258.564 105.359 258.408C105.042 258.042 104.99 257.52 105.095 257.05C105.569 254.595 108.151 252.557 110.416 251.513C115.315 249.214 121.531 251.199 126.061 256.214C130.961 261.646 117.949 260.915 115.157 260.81C112.049 260.549 108.888 259.922 105.991 258.773Z" fill="#4A6337"/>
<path d="M316.286 259.661H221.306L321.291 264.623L316.286 259.661Z" fill="#4A6337"/>
<path d="M164.149 326.991C168.521 327.566 172.472 333.834 176.634 335.244C185.905 338.378 193.017 345.848 199.075 353.526C205.133 361.205 210.612 369.51 218.356 375.517C205.133 377.084 196.23 377.658 186.537 377.502C177.845 377.345 145.5 378.181 136.545 377.24C122.163 375.778 107.361 374.002 94.7702 367.003C88.7647 363.66 83.0753 358.697 81.7057 352.011C80.5467 346.37 82.7593 340.415 86.5522 336.028C90.3451 331.64 95.5603 328.715 100.934 326.573C110.627 322.708 129.697 309.231 135.017 320.775C140.338 332.476 157.933 326.208 164.149 326.991Z" fill="#BCCDD3"/>
<path d="M125.535 276.272C131.488 272.041 139.179 269.847 146.238 271.727C155.931 274.287 162.726 284.786 161.831 294.92C160.935 305.053 152.928 313.933 143.182 316.44C138.81 317.589 134.28 317.537 129.802 316.962C123.48 316.127 117.001 313.985 112.786 309.179C102.883 297.845 116.211 282.906 125.535 276.272Z" fill="#BCCDD3"/>
<path d="M92.6629 280.659C88.6593 275.802 83.1806 271.78 76.701 270.526C70.2215 269.272 62.7937 271.257 59.1062 276.324C56.8936 279.354 56.1561 283.219 56.4195 286.875C57.157 296.486 64.3214 304.792 72.7501 310.537C76.3323 312.992 80.3886 315.186 84.8137 315.552C89.9236 316.022 95.1915 313.88 98.5103 310.224C107.15 300.717 99.4585 288.912 92.6629 280.659Z" fill="#A1AFB2"/>
<path d="M83.9708 357.496C88.2378 363.921 91.0825 364.652 95.771 367.629C96.7719 368.256 97.7728 368.883 98.9844 368.988C100.143 369.092 101.25 368.622 102.303 368.152C108.256 365.383 113.471 361.048 117.369 355.772C120.003 352.22 125.166 344.437 124.007 339.841C122.058 340.729 120.688 343.079 119.213 344.594C116.369 347.415 112.839 349.452 109.257 351.228C101.039 355.145 93.0317 357.653 83.9708 357.496Z" fill="#A1AFB2"/>
<path d="M79.7037 278.831C76.7537 277.421 73.2768 276.898 70.1688 277.995C67.0607 279.092 64.5321 281.913 64.374 285.151C64.216 287.606 65.375 289.957 66.5866 292.099C68.2723 295.128 70.2214 298.158 72.9081 300.404C75.5947 302.65 79.1769 304.06 82.6538 303.486C85.8145 302.963 88.6065 300.717 89.7655 297.74C91.3459 293.718 89.3967 290.584 87.7636 287.084C86.0779 283.48 83.2332 280.503 79.7037 278.831Z" fill="#F4BBB5"/>
<path d="M115.789 289.539C100.565 282.122 81.0734 286.927 68.8518 298.576C60.7392 306.306 58.0525 313.462 49.4131 320.671C43.671 325.476 25.2333 320.462 23.6529 326.521C28.3414 342.035 47.0425 350.079 56.3668 354.414C78.4394 364.6 93.9271 365.592 111.627 352.064C128.485 339.162 134.069 328.14 134.49 322.499C135.386 309.649 127.484 295.18 115.789 289.539Z" fill="#BCCDD3"/>
<path d="M122.427 290.95C123.164 289.33 123.954 287.659 125.008 286.196C127.326 283.01 131.224 280.921 135.175 280.921C139.126 280.921 143.13 283.062 145.079 286.51C146.923 289.8 146.923 293.822 145.974 297.479C145.184 300.404 143.762 303.381 141.181 305.001C139.231 306.254 136.808 306.62 134.49 306.881C132.383 307.142 130.276 307.299 128.169 307.508C126.957 307.612 125.693 307.717 124.587 307.299C123.112 306.777 122.111 305.419 121.373 304.06C120.425 302.337 119.266 299.673 119.529 297.636C119.793 295.39 121.531 292.935 122.427 290.95Z" fill="#F4BBB5"/>
<path d="M134.964 320.828C135.281 321.977 135.86 323.074 136.861 323.805C135.965 323.491 135.122 323.074 134.332 322.603C133.489 322.081 132.752 321.507 131.962 320.88C130.855 319.992 129.749 319.156 128.643 318.268C127.695 317.537 126.694 316.753 126.009 315.761C126.167 315.97 127.168 316.126 127.431 316.179C127.958 316.335 128.485 316.492 129.012 316.649C130.013 316.91 131.066 317.171 132.12 317.328C132.752 317.432 134.385 317.276 134.701 317.85C134.859 318.164 134.754 318.947 134.806 319.313C134.754 319.783 134.859 320.305 134.964 320.828Z" fill="#AEBDC1"/>
<path d="M152.454 379.643C141.707 379.225 130.908 378.755 120.32 376.875C126.904 373.375 131.909 367.159 133.911 360.003C135.491 363.816 138.968 369.51 142.814 370.92C152.138 374.315 162.41 375.778 173.315 375.517C185.326 375.203 197.073 372.853 208.505 369.249C209.4 368.987 210.348 368.622 211.297 368.831C212.298 368.987 213.088 369.666 213.825 370.293C214.826 371.181 218.619 373.427 218.461 374.89C218.25 376.666 214.563 377.084 213.351 377.293C208.505 378.285 203.658 378.964 198.706 379.487C188.855 380.479 178.899 380.531 168.995 380.322C163.517 380.113 157.985 379.852 152.454 379.643Z" fill="#A1AFB2"/>
<path d="M213.615 376.875C213.615 376.875 187.117 359.011 177.266 348.721C167.415 338.431 154.877 321.298 154.877 321.298L174 317.328L239.269 376.875H213.615Z" fill="#BCA67E"/>
<path d="M80.2306 317.328C79.3878 318.059 78.2288 318.425 77.1226 318.111C76.069 317.798 75.1734 316.858 75.0681 315.761C75.0154 315.03 75.2788 314.35 75.5422 313.671C75.9636 312.731 76.385 311.687 77.2279 311.112C80.9154 308.553 82.6539 315.134 80.2306 317.328Z" fill="#54413F"/>
<path d="M79.8091 312.888C80.2832 313.306 80.4939 313.933 80.3885 314.507C80.3358 314.821 80.1778 315.134 79.9144 315.239C79.651 315.343 79.2822 315.239 79.0715 315.03C78.8608 314.821 78.7028 314.56 78.5974 314.246C78.334 313.672 78.176 312.888 78.6501 312.47C79.0715 312.105 79.9144 312.366 79.9671 312.94L79.8091 312.888Z" fill="white"/>
<path d="M59.2641 307.038C58.6847 306.985 58.1052 307.038 57.6311 307.299C56.6829 307.769 56.3141 308.866 56.1034 309.806C56.1034 309.911 56.0507 310.015 56.0507 310.172C56.0507 310.381 56.2088 310.537 56.3141 310.694C56.6302 311.112 56.9463 311.478 57.2623 311.896C57.0516 311.269 57.5257 310.59 58.1579 310.329C58.79 310.067 59.5275 310.172 60.2124 310.433C62.0035 311.112 63.2678 312.888 63.2678 314.664C63.2678 314.873 63.3205 315.239 63.5839 315.186C63.6365 313.619 64.374 311.164 63.7946 309.702C63.2678 308.187 60.8972 307.142 59.2641 307.038Z" fill="#54413F"/>
<path opacity="0.44" d="M91.82 312.209C91.9253 313.985 91.6093 315.761 91.1351 317.432C90.661 319.052 89.9235 320.619 88.7646 321.924C87.4476 323.387 85.6565 324.379 83.9181 325.32C82.4957 326.103 80.968 326.887 79.335 327.096C77.4385 327.305 75.5421 326.73 73.8036 325.946C71.9072 325.111 70.1688 324.014 68.7991 322.551C65.9544 319.469 65.2169 315.186 64.9009 311.164C64.7955 309.963 64.7428 308.761 65.1116 307.612C65.533 306.306 66.4812 305.262 67.5348 304.322C70.6956 301.553 74.9099 299.777 79.2823 299.411C81.4422 299.255 82.1797 299.882 83.6547 301.031C85.0243 302.075 86.6047 302.65 87.869 303.851C90.0816 306.15 91.6093 309.127 91.82 312.209Z" fill="#9DAAA9"/>
<path opacity="0.44" d="M56.5248 306.672C56.5774 308.292 56.3668 309.963 56.0507 311.53C55.7346 313.045 55.2605 314.507 54.4703 315.709C53.6274 317.067 52.4158 317.955 51.2568 318.843C50.3086 319.574 49.3077 320.305 48.2014 320.514C46.9371 320.723 45.7255 320.201 44.5666 319.522C43.3549 318.738 42.1433 317.746 41.2478 316.388C39.3513 313.567 38.9299 309.597 38.7192 305.836C38.6665 304.74 38.6138 303.59 38.8772 302.546C39.1406 301.344 39.7728 300.352 40.5103 299.516C42.6175 296.904 45.4094 295.285 48.3068 294.92C49.7292 294.763 50.2033 295.337 51.2042 296.382C52.0997 297.322 53.1533 297.845 53.9962 298.994C55.4185 301.083 56.4194 303.799 56.5248 306.672Z" fill="#9DAAA9"/>
<path d="M77.5967 328.663C85.92 328.976 92.8737 322.343 93.0844 313.933C93.2951 305.523 86.7629 298.367 78.4396 298.054C70.1162 297.74 63.1625 304.374 62.9518 312.784C62.7411 321.246 69.2733 328.35 77.5967 328.663ZM78.3869 301.24C84.9718 301.501 90.187 307.142 90.029 313.828C89.8183 320.514 84.3396 325.738 77.7547 325.529C71.1698 325.268 65.9546 319.626 66.1126 312.94C66.2706 306.254 71.8019 300.979 78.3869 301.24Z" fill="#54413F"/>
<path d="M48.1489 321.872C53.8383 322.133 58.5794 316.074 58.7375 308.396C58.8955 300.717 54.4704 294.24 48.7811 293.979C43.0917 293.718 38.3506 299.777 38.1925 307.456C38.0345 315.186 42.5123 321.611 48.1489 321.872ZM48.7284 296.748C53.1535 296.956 56.683 302.128 56.5249 308.291C56.3669 314.455 52.6267 319.313 48.2016 319.104C43.7766 318.895 40.247 313.724 40.4051 307.56C40.5631 301.396 44.3033 296.539 48.7284 296.748Z" fill="#54413F"/>
<path opacity="0.59" d="M87.7111 308.709C87.9218 309.284 88.0272 309.858 87.9218 310.433C87.8164 311.007 87.395 311.53 86.8155 311.687C85.9727 311.895 85.0771 311.321 84.6557 310.642C84.2342 309.911 84.0762 309.075 83.7601 308.344C83.2333 307.09 82.2851 305.941 81.0208 305.262C80.336 304.896 79.5458 304.53 79.3351 303.799C79.2824 303.642 79.2824 303.434 79.3878 303.329C79.4931 303.225 79.6511 303.12 79.8092 303.12C82.9173 302.389 86.8682 306.254 87.7111 308.709Z" fill="white"/>
<path opacity="0.59" d="M53.575 300.874C53.9437 301.292 54.2598 301.814 54.4178 302.389C54.5759 302.963 54.5232 303.643 54.2071 304.113C54.1018 304.269 53.9437 304.426 53.733 304.478C53.3643 304.583 52.9428 304.269 52.7321 303.904C52.5214 303.538 52.416 303.068 52.1526 302.702C51.6259 301.919 50.6776 301.658 49.8347 301.396C48.9919 301.135 48.0437 300.613 47.8329 299.673C47.7803 299.516 47.7803 299.307 47.8856 299.15C47.9383 299.046 48.0437 298.994 48.149 298.889C49.9928 297.845 52.3107 299.359 53.575 300.874Z" fill="white"/>
<path d="M36.0327 327.618C35.7166 328.245 35.1898 328.767 34.663 329.29C33.504 330.439 32.2924 331.588 30.8701 332.424C30.5013 332.685 30.0799 332.894 29.7638 333.207C29.2897 333.73 29.0263 334.409 28.8156 335.088C28.3415 335.192 27.8674 334.827 27.5513 334.461C25.8129 332.737 24.3379 330.752 23.1262 328.611C22.2834 327.096 21.6512 325.163 22.6521 323.753C23.3369 322.813 24.5486 322.447 25.7075 322.29C28.4995 321.82 38.772 322.081 36.0327 327.618Z" fill="#54413F"/>
<path d="M54.5231 317.171C52.4159 318.947 49.8873 320.201 47.2533 321.141C46.0417 321.559 42.9863 322.865 39.9309 322.969C39.6148 322.969 43.9872 323.857 44.1452 324.118C44.3033 324.327 44.514 324.484 44.7774 324.588C47.5167 325.79 50.7828 325.529 53.4168 324.171C56.0508 322.812 58.1052 320.462 59.3169 317.746C59.7383 316.805 61.424 311.164 59.0008 311.843C58.1579 312.104 57.5258 313.88 57.0517 314.559C56.2615 315.552 55.4186 316.44 54.5231 317.171Z" fill="#BCCDD3"/>
<path d="M65.2696 357.549C69.4839 356.347 73.7509 354.832 77.1224 352.064C78.5974 350.863 79.9144 349.4 80.968 347.781C81.4948 346.945 81.9162 346.109 82.2323 345.221C82.4957 344.438 82.5484 343.341 83.3386 342.871C84.0761 342.453 84.7609 343.55 84.0234 344.02C83.76 344.177 83.6546 345.117 83.5493 345.378C83.3912 345.796 83.2332 346.266 83.0225 346.684C82.6537 347.572 82.1796 348.355 81.6528 349.139C80.5466 350.758 79.1242 352.168 77.5965 353.37C74.067 356.086 69.8527 357.601 65.6383 358.802C64.7954 359.063 64.4267 357.81 65.2696 357.549Z" fill="#A1AFB2"/>
<path d="M85.4985 343.079C85.3405 342.505 85.0244 342.087 84.603 341.669C84.1816 341.251 83.7075 341.042 83.0753 340.938C82.7066 340.885 82.4958 340.468 82.6012 340.102C82.7065 339.736 83.0753 339.58 83.4441 339.632C85.0245 339.945 86.3414 341.199 86.8155 342.714C86.9209 343.027 86.7102 343.445 86.3414 343.549C85.9727 343.602 85.6039 343.445 85.4985 343.079Z" fill="#A1AFB2"/>
<path d="M12.6957 344.646L32.8192 354.623L22.5468 365.592L15.9618 358.018L12.6957 344.646Z" fill="#FFF3C2"/>
<path d="M8.63939 349.974L12.7484 344.646C12.7484 344.646 15.9618 345.169 18.4904 349.4C21.019 353.683 21.6512 363.712 21.6512 363.712C21.6512 363.712 23.3369 358.854 27.92 354.884C32.5031 350.915 45.5676 345.326 45.5676 345.326L48.1489 349.295L23.8637 368.726L17.6475 368.413L8.63939 349.974Z" fill="#F4D8AB"/>
<path d="M8.63928 349.974C9.27143 351.019 19.3332 367.63 19.3332 367.63L22.8627 367.003L48.8336 348.93L84.3394 366.219L62.1614 379.957L25.1279 369.719L17.7001 368.935L7.21693 350.131L8.63928 349.974Z" fill="#6673AA"/>
<path d="M62.1088 379.905L56.9462 380.218L17.6475 368.883L24.0744 368.047L62.1088 379.905Z" fill="#546189"/>
<path d="M45.5675 345.326L80.1778 361.257L83.0752 365.54L48.781 348.878L48.1488 349.295L45.5675 345.326Z" fill="#FFF3C2"/>
<path d="M112.418 379.696C104.621 380.218 96.8246 379.33 89.1334 378.076C82.7592 377.032 76.2796 375.621 70.643 372.435C69.4313 371.756 68.1144 370.555 68.5358 369.249C68.9572 369.144 69.3787 369.04 69.8001 368.935C69.0099 368.988 68.5358 367.891 68.9573 367.212C69.3787 366.533 70.3269 366.428 71.0644 366.689C70.2742 366.794 70.2215 365.383 70.9591 365.07C71.6966 364.757 72.4868 365.122 73.1716 365.488C75.9636 366.794 79.1243 367.212 82.1797 367.525C85.92 367.891 89.6602 368.152 93.4531 368.256C97.5621 368.361 101.776 368.309 105.675 367.003C107.94 366.271 110.047 365.175 112.207 364.234C115.578 362.772 119.108 361.727 122.69 361.048C125.429 360.578 132.594 355.825 135.28 356.66C137.914 357.496 139.073 360.787 140.338 363.242C141.023 364.6 140.127 369.823 139.758 371.286C139.179 373.636 129.328 375.935 127.01 376.771C122.321 378.442 117.37 379.382 112.418 379.696Z" fill="#BCCDD3"/>
<path opacity="0.29" d="M151.927 287.032C151.084 286.04 150.505 284.838 149.714 283.741C146.817 279.667 141.496 278.048 136.492 277.421C135.702 277.317 134.753 277.055 134.595 276.324C134.437 275.488 135.386 274.966 136.176 274.705C143.077 272.511 151.189 275.018 155.615 280.712C156.773 282.227 158.67 285.204 157.669 287.189C156.457 289.644 153.349 288.704 151.927 287.032Z" fill="white"/>
<path d="M111.101 295.546C110.626 298.001 110.31 300.508 109.52 302.859C109.31 300.404 109.046 298.001 108.835 295.546C108.73 294.606 108.677 293.613 108.941 292.725C109.415 291.367 110.626 290.427 111.417 289.174C112.47 287.554 113.735 287.868 113.102 289.748C112.418 291.733 111.522 293.457 111.101 295.546Z" fill="#AEBDC1"/>
<path d="M98.1416 303.329C100.301 301.083 102.725 299.046 105.148 297.061C106.676 295.755 108.203 294.397 109.52 292.882C112.049 289.957 113.84 286.249 116.948 283.898C115.631 283.689 114.472 284.682 113.524 285.57C106.518 292.151 99.0372 298.263 91.1353 303.799C90.5558 304.217 89.8709 304.74 89.8709 305.471C89.8709 305.784 89.9763 306.098 90.1343 306.359C90.5558 307.299 91.0299 309.493 91.8201 310.12C92.9264 311.06 92.979 309.911 93.7692 308.814C95.0335 306.881 96.4559 304.949 98.1416 303.329Z" fill="#54413F"/>
<path d="M140.39 368.935C143.762 363.398 144.289 356.033 141.128 350.392C141.971 350.81 142.55 351.594 143.024 352.377C146.501 358.279 146.29 365.853 143.814 372.226C143.446 373.166 143.024 374.106 142.234 374.733C141.444 375.412 140.39 375.726 139.337 375.83C137.546 376.091 135.702 375.882 133.963 375.36C131.804 374.681 135.965 373.218 136.439 373.01C138.178 372.174 139.442 370.555 140.39 368.935Z" fill="#A1AFB2"/>
<path d="M237.89 362.293C237.89 371.463 292.189 378.859 359.19 378.859C426.19 378.859 480.489 371.421 480.489 362.293C480.489 353.122 426.19 345.726 359.19 345.726C292.189 345.726 237.89 353.122 237.89 362.293Z" fill="#D1EAED"/>
<path d="M452.53 169.879C452.146 178.584 449.589 186.994 447.799 195.531C447.117 198.701 446.563 201.955 446.776 205.209C447.032 209.604 448.694 213.788 449.759 218.056C449.93 218.69 450.058 219.366 449.887 220C449.674 220.803 448.949 221.353 448.225 221.775C445.369 223.423 441.789 223.466 438.593 222.62C435.396 221.775 432.498 220.085 429.685 218.394C425.295 215.816 420.905 213.112 417.239 209.646C413.233 205.843 410.164 201.152 407.479 196.334C401.47 185.727 396.824 174.316 393.926 162.483C392.306 155.89 391.198 149.002 392.604 142.325C394.181 135.013 398.87 128.421 405.306 124.49C411.997 120.433 416.174 108.938 423.334 114.01C436.93 123.561 445.412 140.423 448.736 150.861C450.654 156.905 452.785 163.497 452.53 169.879Z" fill="#B3C2C6"/>
<path d="M465.017 294.591C468.427 294.548 472.178 294.633 474.65 297C476.269 298.563 476.994 300.803 477.591 302.958C480.19 312.763 481.043 322.99 480.148 333.09C479.381 341.458 478.912 353.291 472.007 358.151C465.87 362.462 455.726 359.63 448.225 359.25C434.245 358.531 420.351 357.137 406.499 355.066C394.522 353.291 382.418 350.925 371.677 345.346C361.747 340.19 352.668 330.893 352.924 319.778C353.137 309.593 361.448 300.93 371.038 297.295C383.782 292.435 397.506 295.098 410.718 295.182C428.79 295.309 446.903 294.802 465.017 294.591Z" fill="#A5B3B7"/>
<path d="M548.342 119.546L525.369 150.101L549.535 159.018L553.712 142.452L548.342 119.546Z" fill="#FFF3C2"/>
<path d="M558.656 124.533L548.299 119.546C548.299 119.546 543.781 122.8 543.227 131.21C542.673 139.62 549.45 155.468 549.45 155.468C549.45 155.468 543.142 149.34 533.041 146.762C522.939 144.184 498.688 145.621 498.688 145.621L497.836 153.608L549.876 164.765L559.125 159.525L558.656 124.533Z" fill="#F4D8AB"/>
<path d="M558.656 124.533C558.528 126.604 556.013 159.609 556.013 159.609L550.174 161.3L496.6 153.439L455.769 206.815L500.265 210.914L548.853 167.09L559.551 160.243L561 123.519L558.656 124.533Z" fill="#6673AA"/>
<path d="M500.222 210.914L508.363 207.491L559.508 160.243L549.109 163.878L500.222 210.914Z" fill="#546189"/>
<path d="M498.731 145.579L458.241 196.25L457.175 204.955L496.557 153.397L497.878 153.608L498.731 145.579Z" fill="#FFF3C2"/>
<path d="M469.194 214.844C454.49 214.675 436.504 208.547 438.337 192.911C442.343 159.102 445.54 139.282 428.704 119.546C410.676 98.4155 386.808 98.7535 367.245 101.458C347.682 104.163 330.335 117.264 320.831 134.422C311.326 151.58 309.28 172.288 313.329 191.432C316.526 206.434 323.473 220.845 334.555 231.495C341.161 237.834 349.046 242.694 357.357 246.582C383.27 258.711 413.105 261.331 441.448 257.021C463.781 253.64 485.731 245.864 503.803 232.425C520.979 219.62 537.089 199.504 540.201 177.824C535.598 177.443 529.972 173.555 525.454 174.232C518.975 175.161 515.992 183.064 512.199 187.417C503.547 197.433 482.577 214.971 469.194 214.844Z" fill="#BCCDD3"/>
<path d="M410.079 341.669C410.42 345.473 410.676 349.53 408.885 352.953C406.115 358.151 399.552 359.926 393.67 360.94C363.963 366.054 306.979 365.251 277.528 358.954C273.862 358.193 264.102 343.951 263.591 335.584C262.014 309.847 266.659 285.673 271.092 260.359C275.524 235.045 286.137 210.998 300.458 189.614C312.349 171.865 329.696 154.453 351.177 154.749C371.081 155.045 387.831 171.315 394.906 189.741C403.899 213.154 397.932 236.482 401.043 260.275C404.581 287.364 407.692 314.453 410.079 341.669Z" fill="#BCCDD3"/>
<path d="M348.961 220.93C349.77 229.678 355.78 236.947 361.534 243.582C374.064 258.077 386.467 275.066 403.899 283.223C402.62 278.785 402.279 272.192 401.598 267.628C401.171 264.797 401.811 259.81 399.722 257.612C397.932 255.753 393.542 255.499 391.155 254.654C387.618 253.429 384.166 251.907 380.841 250.174C374.278 246.794 368.183 242.525 362.77 237.538C359.19 234.242 349.429 226.044 348.961 220.93Z" fill="#B3C2C6"/>
<path d="M347.682 300.169C334.214 295.436 320.404 290.28 310.005 280.518C297.048 268.389 290.953 250.174 291.209 232.509C291.465 214.844 297.645 197.686 306.169 182.177C301.012 187.839 297.346 194.601 293.681 201.321C286.99 213.619 280.298 225.959 275.056 238.933C263.676 267.036 259.286 297.887 262.397 327.977C263.036 333.978 263.974 340.063 266.404 345.642C268.833 351.22 272.924 356.249 278.465 358.743C282.258 360.475 286.521 360.94 290.698 361.363C306.723 363.053 322.748 364.744 338.731 366.434C345.977 367.195 353.265 367.956 360.511 367.406C367.969 366.815 375.258 364.871 382.375 362.588C389.493 360.349 396.781 357.644 402.194 352.488C410.846 344.205 413.83 328.906 410.079 317.623C407.99 311.368 402.194 312.932 396.44 312.425C388.555 311.749 380.756 310.185 373.126 308.199C364.56 305.959 356.078 303.127 347.682 300.169Z" fill="#B3C2C6"/>
<path d="M401.171 316.947C409.482 317.581 417.879 318.257 425.764 320.962C433.606 323.709 441.022 328.78 444.645 336.218C451.251 349.699 443.92 365.631 435.95 378.352C433.648 382.029 431.134 385.79 427.341 387.945C421.629 391.157 414.554 389.974 408.161 388.621C378.241 382.367 348.577 374.802 319.296 366.012C311.752 363.73 303.569 360.94 299.307 354.348C288.694 337.908 307.362 311.495 325.306 310.861C350.026 310.016 376.451 315.045 401.171 316.947Z" fill="#BCCDD3"/>
<path d="M325.263 261.923C320.021 271.939 313.5 281.448 310.431 292.309C309.621 295.225 309.025 298.268 307.49 300.888C305.658 304.015 302.546 306.297 299.222 307.734C291.209 311.157 280.341 309.171 276.121 301.606C273.01 295.985 274.118 289.055 275.61 282.842C280.255 263.656 288.652 244.131 304.976 232.89C312.136 227.945 322.876 226.424 328.46 234.749C333.873 242.694 329.184 254.401 325.263 261.923Z" fill="#BCCDD3"/>
<path d="M332.04 260.571C330.463 259.683 328.375 260.106 326.883 261.162C325.391 262.219 324.368 263.783 323.431 265.346C320.532 270.037 317.847 274.855 315.375 279.799C312.818 284.913 308.3 294.633 313.5 299.704C318.018 304.099 323.26 298.563 322.962 293.746C322.621 288.04 320.319 284.279 321.854 278.278C323.516 271.601 327.096 265.388 332.04 260.571Z" fill="#B3C2C6"/>
<path d="M283.751 259.599C286.478 247.723 289.675 235.679 296.835 225.79C299.563 221.986 306.34 215.267 311.454 219.028C310.09 220.507 308.002 221.057 306.34 222.198C303.058 224.48 301.651 227.734 299.733 231.199C294.406 240.666 289.078 250.132 283.751 259.599Z" fill="#B3C2C6"/>
<path d="M305.7 215.563C305.359 211.928 303.015 208.59 299.691 207.026C298.838 206.604 297.901 206.308 296.963 206.35C295.514 206.392 294.192 207.237 293.212 208.252C290.74 210.83 290.058 214.591 289.504 218.098C288.908 221.817 288.311 225.494 287.671 229.213C287.288 231.58 286.904 234.031 287.799 236.271C288.652 238.468 291.252 240.201 293.468 239.313C295.386 238.511 296.11 236.228 296.835 234.242C299.051 228.072 306.339 222.367 305.7 215.563Z" fill="#B3C2C6"/>
<path d="M345.167 127.322C331.699 122.504 317.677 116.799 303.526 118.997C295.258 120.307 287.671 124.237 280.639 128.717C271.433 134.633 262.184 143.001 261.801 153.862C261.332 166.794 273.436 176.641 277.187 189.023C278.593 193.714 278.849 198.912 281.534 203.054C284.304 207.322 289.121 209.731 292.999 212.985C297.986 217.211 301.438 222.916 305.913 227.65C310.388 232.383 316.611 236.398 323.09 235.426C326.883 234.876 330.25 232.679 333.233 230.227C344.954 220.55 352.498 206.012 353.521 190.883C354.245 180.782 352.2 170.386 354.885 160.624C356.504 154.792 359.744 149.382 360.34 143.381C360.724 139.747 360.127 132.309 356.803 129.858C354.118 127.956 348.534 128.548 345.167 127.322Z" fill="#CCDEE2"/>
<path d="M327.65 134.253C322.067 134.042 316.568 135.648 311.283 137.38C303.953 139.789 296.537 142.621 290.825 147.734C286.776 151.369 283.58 157.201 285.881 162.103C287.416 165.399 290.911 167.259 293.596 169.752C296.664 172.584 298.753 176.429 299.435 180.529C299.946 183.656 299.733 186.995 301.14 189.826C303.953 195.489 312.008 197.01 314.693 202.716C315.801 205.082 315.844 208.041 317.677 209.942C319.722 212.055 323.43 211.971 325.817 210.238C328.247 208.505 329.483 205.589 329.951 202.673C330.42 199.757 330.25 196.799 330.335 193.841C330.463 189.234 331.315 184.628 332.892 180.233C335.279 173.513 339.2 167.428 342.184 160.962C344.4 156.144 348.492 146.551 345.934 141.184C343.548 136.366 332.509 134.422 327.65 134.253Z" fill="#F4BBB5"/>
<path d="M410.548 173.64C408.843 174.612 406.669 174.781 404.922 173.851C403.174 172.964 402.066 170.978 402.322 169.034C402.492 167.766 403.217 166.667 403.942 165.61C404.964 164.131 406.158 162.568 407.82 161.849C415.066 158.806 415.577 170.724 410.548 173.64Z" fill="#54413F"/>
<path d="M411.443 165.864C412.082 166.709 412.253 167.892 411.826 168.864C411.613 169.372 411.23 169.836 410.718 169.921C410.207 170.006 409.653 169.71 409.354 169.287C409.056 168.864 408.928 168.315 408.8 167.808C408.587 166.709 408.587 165.315 409.567 164.807C410.463 164.343 411.741 165.146 411.656 166.118L411.443 165.864Z" fill="white"/>
<path d="M448.182 173.006C447.117 173.682 445.625 173.598 444.346 172.668C443.068 171.738 442.13 169.921 442.13 168.273C442.13 167.216 442.514 166.287 442.94 165.484C443.494 164.3 444.176 163.075 445.241 162.61C449.93 160.624 451.379 170.978 448.182 173.006Z" fill="#54413F"/>
<path d="M448.097 166.371C448.608 167.174 448.821 168.189 448.651 168.991C448.565 169.414 448.352 169.752 447.969 169.794C447.628 169.837 447.202 169.499 446.946 169.118C446.69 168.738 446.562 168.231 446.434 167.808C446.179 166.836 446.051 165.653 446.69 165.273C447.244 164.934 448.182 165.737 448.267 166.583L448.097 166.371Z" fill="white"/>
<path d="M432.327 164.681C433.009 164.808 433.691 165.103 434.203 165.653C435.183 166.709 435.311 168.4 435.268 169.921C435.268 170.09 435.268 170.259 435.225 170.428C435.14 170.682 434.927 170.893 434.757 171.104C434.245 171.612 433.734 172.076 433.222 172.541C433.649 171.696 433.265 170.513 432.583 169.921C431.901 169.329 430.963 169.245 430.068 169.372C427.682 169.752 425.636 171.907 425.082 174.57C424.996 174.908 424.826 175.373 424.528 175.246C424.911 172.922 424.826 169.034 425.934 167.047C427.127 164.977 430.367 164.258 432.327 164.681Z" fill="#54413F"/>
<path opacity="0.44" d="M391.283 161.046C390.601 163.624 390.431 166.371 390.516 169.033C390.601 171.611 390.985 174.232 392.008 176.514C393.158 179.134 395.034 181.205 396.866 183.233C398.401 184.881 399.935 186.614 401.896 187.459C404.112 188.431 406.584 188.262 408.928 187.713C411.485 187.121 413.957 186.107 416.088 184.416C420.521 180.824 422.695 174.739 424.357 168.864C424.826 167.132 425.295 165.357 425.209 163.54C425.081 161.469 424.272 159.567 423.291 157.834C420.308 152.594 415.705 148.537 410.548 146.466C407.991 145.452 406.882 146.17 404.709 147.354C402.748 148.41 400.66 148.706 398.742 150.101C395.247 152.594 392.476 156.482 391.283 161.046Z" fill="#9DAAA9"/>
<path opacity="0.44" d="M436.291 165.23C435.694 167.639 435.481 170.132 435.481 172.626C435.481 174.992 435.694 177.359 436.461 179.472C437.271 181.839 438.72 183.698 440.127 185.473C441.277 186.952 442.471 188.474 443.963 189.192C445.667 190.037 447.628 189.784 449.503 189.192C451.506 188.558 453.51 187.544 455.215 185.896C458.795 182.473 460.67 176.767 462.119 171.316C462.545 169.71 462.971 168.062 462.929 166.413C462.886 164.512 462.29 162.779 461.565 161.258C459.349 156.524 455.854 152.932 451.805 151.242C449.802 150.396 448.949 151.115 447.202 152.256C445.625 153.27 443.963 153.651 442.428 154.961C439.573 157.327 437.314 161.046 436.291 165.23Z" fill="#9DAAA9"/>
<path d="M426.105 171.949C428.406 159.356 422.013 147.1 411.827 144.691C401.64 142.24 391.454 150.523 389.152 163.117C386.851 175.711 393.244 187.966 403.43 190.375C413.617 192.826 423.76 184.543 426.105 171.949ZM422.269 171.062C420.436 181.036 412.381 187.628 404.283 185.684C396.185 183.74 391.113 174.062 392.988 164.047C394.821 154.073 402.876 147.48 410.974 149.424C419.03 151.368 424.101 161.046 422.269 171.062Z" fill="#54413F"/>
<path d="M462.335 173.936C464.466 162.441 459.479 151.495 451.296 149.551C443.07 147.607 434.674 155.341 432.585 166.836C430.497 178.331 435.441 189.277 443.624 191.221C451.807 193.165 460.246 185.431 462.335 173.936ZM459.138 173.175C457.433 182.388 450.827 188.643 444.391 187.121C437.955 185.6 434.119 176.852 435.824 167.639C437.529 158.426 444.135 152.172 450.571 153.693C456.964 155.214 460.8 163.962 459.138 173.175Z" fill="#54413F"/>
<path opacity="0.59" d="M397.293 157.285C396.909 158.046 396.568 158.891 396.526 159.778C396.483 160.666 396.824 161.596 397.506 162.06C398.444 162.694 399.722 162.145 400.489 161.258C401.256 160.37 401.683 159.144 402.279 158.13C403.302 156.398 404.837 155.087 406.541 154.496C407.479 154.158 408.587 153.904 409.014 152.932C409.099 152.721 409.184 152.425 409.099 152.171C409.013 151.96 408.843 151.791 408.63 151.707C405.092 149.551 399.125 153.946 397.293 157.285Z" fill="white"/>
<path opacity="0.59" d="M442.301 157.834C441.619 158.341 441.022 158.975 440.638 159.736C440.255 160.539 440.127 161.511 440.425 162.356C440.553 162.652 440.724 162.948 440.979 163.117C441.491 163.413 442.173 163.117 442.599 162.652C443.025 162.187 443.323 161.595 443.792 161.131C444.773 160.159 446.222 160.201 447.5 160.116C448.779 160.074 450.271 159.694 450.91 158.426C451.038 158.172 451.08 157.919 451.038 157.665C450.995 157.496 450.867 157.327 450.739 157.2C448.438 154.791 444.602 156.101 442.301 157.834Z" fill="white"/>
<path d="M368.31 133.492C362.77 129.646 356.888 125.885 350.282 124.49C347.384 123.856 343.718 124.068 342.226 126.603C345.807 128.463 350.154 127.998 353.99 129.308C356.462 130.153 358.593 131.675 360.639 133.28C371.678 141.648 381.736 151.157 391.667 160.75C392.093 158.383 395.204 154.453 394.394 152.847C393.201 150.481 387.788 147.818 385.657 146.17C379.946 141.817 374.192 137.549 368.31 133.492Z" fill="#54413F"/>
<path d="M448.566 347.29C449.887 355.785 447.628 364.575 443.536 372.182C439.573 379.535 433.265 386.381 424.954 387.818C422.397 388.241 419.541 388.114 417.495 386.551C415.236 384.86 414.384 381.902 413.787 379.155C410.846 365.547 410.846 350.713 417.495 338.5C419.285 335.203 421.587 332.076 424.655 329.921C436.845 321.426 446.904 336.471 448.566 347.29Z" fill="#F4BBB5"/>
<path d="M478.443 346.318C477.719 350.417 476.61 354.855 473.627 357.137C472.604 357.898 471.325 358.363 470.132 358.024C467.873 357.348 466.978 354.221 466.509 351.559C464.975 343.149 463.952 334.612 463.398 326.033C463.014 320.201 462.886 314.242 464.037 308.495C464.89 304.226 467.021 296.45 471.453 295.732C481.256 294.126 481 317.919 480.83 324.385C480.659 331.78 479.764 339.092 478.443 346.318Z" fill="#F4BBB5"/>
<path d="M395.886 257.866C390.303 256.387 386.339 251.907 383.143 247.428C379.562 242.356 376.238 236.862 374.491 230.904C373.51 227.523 373.084 223.973 373.468 220.507C373.51 220.042 373.809 219.662 374.32 219.662C374.746 219.662 375.258 220.042 375.215 220.507C374.491 226.551 376.408 232.425 379.179 237.708C380.585 240.412 382.205 242.99 383.91 245.484C385.402 247.681 387.021 249.879 388.939 251.738C391.028 253.809 393.457 255.457 396.355 256.218C397.421 256.471 396.952 258.12 395.886 257.866Z" fill="#A5B3B7"/>
<path d="M376.792 219.155C376.409 218.986 375.982 218.859 375.599 218.774C375.386 218.732 375.173 218.69 374.959 218.648C374.917 218.648 374.661 218.605 374.832 218.648C374.746 218.648 374.619 218.605 374.533 218.605C374.107 218.563 373.723 218.563 373.297 218.605C373.212 218.605 373.127 218.605 373.042 218.605C372.999 218.605 372.658 218.648 372.828 218.648C372.743 218.648 372.658 218.69 372.573 218.69C372.53 218.69 372.487 218.69 372.445 218.732C372.615 218.648 372.743 218.521 372.828 218.352C372.828 218.183 372.828 218.056 372.828 217.887V217.929C372.743 217.802 372.658 217.676 372.615 217.549C372.615 217.549 372.615 217.549 372.658 217.591C372.53 217.507 372.402 217.422 372.274 217.38C372.061 217.422 371.805 217.507 371.592 217.549C371.507 217.76 371.422 217.972 371.337 218.183C371.337 218.183 371.337 218.183 371.337 218.141C371.422 218.352 371.507 218.563 371.592 218.774C371.592 218.774 371.592 218.775 371.55 218.732C371.251 218.394 371.209 217.845 371.55 217.507C371.891 217.211 372.445 217.169 372.786 217.507C373.255 218.014 373.084 218.732 372.487 218.986C371.933 219.197 371.337 218.944 371.166 218.352C370.996 217.76 371.465 217.253 371.976 217.084C372.317 217 372.743 216.957 373.084 216.915C374.491 216.788 375.982 217 377.304 217.549C377.73 217.718 378.071 218.141 377.9 218.605C377.73 218.944 377.261 219.324 376.792 219.155Z" fill="#A5B3B7"/>
<path d="M474.309 222.578C474.224 225.705 474.863 228.79 475.502 231.833C473.073 228.452 472.433 224.184 471.879 220.042C471.666 218.479 471.496 216.704 472.476 215.436C473.712 213.872 476.141 213.661 477.932 213.069C477.591 214.337 476.056 215.69 475.417 217.169C474.692 218.859 474.351 220.719 474.309 222.578Z" fill="#B3C2C6"/>
<path d="M451.848 236.693C451.379 234.453 451.592 232.087 451.933 229.805C452.53 225.452 452.913 219.916 454.831 215.901C456.11 213.281 459.86 213.069 460.457 216.45C460.926 219.028 456.28 222.789 455.044 225.114C453.51 228.03 451.123 233.312 451.848 236.693Z" fill="#B3C2C6"/>
<path opacity="0.18" d="M431.731 330.47C433.35 333.217 433.052 337.232 430.495 339.134C428.449 340.613 425.593 340.486 423.249 339.514C420.905 338.542 418.944 336.894 416.898 335.415C408.502 329.414 398.23 326.54 388.001 324.934C377.772 323.37 367.373 322.99 357.144 321.511C355.055 321.215 352.882 320.793 351.39 319.356C355.695 318.215 360.212 318.215 364.688 318.299C377.133 318.51 389.578 319.44 401.896 321.046C410.377 322.187 426.701 321.849 431.731 330.47Z" fill="white"/>
<path opacity="0.18" d="M476.227 306.424C476.355 308.875 474.266 311.41 471.794 311.241C470.089 311.115 468.683 309.889 467.234 309.002C465.785 308.156 464.208 307.607 462.588 307.1C456.664 305.283 449.205 305.494 443.664 303.254C436.93 300.549 448.992 299.239 451.975 298.943C458.454 298.31 475.801 297.126 476.227 306.424Z" fill="white"/>
<path opacity="0.18" d="M305.828 287.575C305.018 291.252 304.336 295.14 302.077 298.141C299.776 301.183 295.301 302.958 292.104 300.972C289.121 299.155 288.524 294.929 289.717 291.675C290.911 288.421 293.425 285.843 295.727 283.265C299.691 278.785 303.271 273.967 306.34 268.811C309.11 264.163 312.264 258.753 317.677 258.035C314.565 258.458 311.71 268.811 310.815 271.178C308.684 276.503 307.022 281.997 305.828 287.575Z" fill="white"/>
<path d="M256.601 348.854C246.287 349.614 235.546 347.375 227.192 341.374C224.252 339.26 221.524 336.556 220.373 333.09C221.14 339.345 225.402 344.797 230.73 348.304C236.015 351.812 242.28 353.587 248.503 354.897C258.689 357.095 269.131 358.236 279.574 358.32C281.833 358.32 284.134 358.278 286.18 357.39C288.226 356.503 289.93 354.474 289.803 352.277C289.717 350.629 288.652 349.192 287.544 347.966C285.583 345.853 283.196 344.036 280.469 343.148C276.377 341.838 273.138 343.148 269.686 345.177C265.637 347.501 261.204 348.516 256.601 348.854Z" fill="#B3C2C6"/>
</svg>
