<svg width="746" height="722" viewBox="0 0 746 722" fill="none" xmlns="http://www.w3.org/2000/svg">
<g filter="url(#filter0_d_1511_14594)">
<g filter="url(#filter1_d_1511_14594)">
<path d="M372.978 598.574C508.717 598.574 618.755 492.076 618.755 360.704C618.755 229.332 508.717 122.834 372.978 122.834C237.239 122.834 127.201 229.332 127.201 360.704C127.201 492.076 237.239 598.574 372.978 598.574Z" fill="#4FEBFA"/>
</g>
<g filter="url(#filter2_d_1511_14594)">
<path d="M127.693 375.476C135.571 499.963 242.368 598.574 372.978 598.574C503.588 598.574 610.385 499.963 618.27 375.476H127.693Z" fill="#18D2F8"/>
</g>
<g filter="url(#filter3_d_1511_14594)">
<path d="M373.499 599.159C450.628 599.159 500.856 568.727 530.786 543.486C485.168 568.171 420.199 596.914 321.16 576.467C294.968 571.059 188.715 529.45 226.135 511.487C250.656 499.689 221.703 477.935 172.229 497.841C216.675 559.095 290.246 599.159 373.499 599.159Z" fill="#11A5D3"/>
</g>
<g filter="url(#filter4_d_1511_14594)">
<path d="M339.743 171.692C337.818 174.291 335.394 176.702 332.283 177.771C329.508 178.724 326.479 178.493 323.547 178.327C302.495 176.883 280.727 176.421 260.995 183.655C248.388 188.276 236.758 195.987 223.389 197.626C214.926 198.573 206.36 197.17 198.689 193.583C235.498 157.667 283.207 134.081 334.849 126.271C336.418 127.821 337.89 129.461 339.258 131.18C348.24 142.732 348.449 159.945 339.743 171.692Z" fill="#26C254"/>
</g>
<g filter="url(#filter5_d_1511_14594)">
<path d="M573.913 224.29C573.913 229.661 573.756 235.055 573.48 240.397C573.01 249.581 572.227 259.061 567.848 267.22C563.469 275.378 554.562 281.956 545.102 281.01C537.001 280.194 530.541 274.324 524.819 268.736C505.788 250.065 487.034 229.835 478.567 204.926C476.702 199.438 475.329 193.727 472.382 188.702C469.137 183.179 464.176 178.825 459.7 174.168C451.942 166.111 435.284 146.263 434.18 130.848C490.741 144.956 540.271 178.078 573.913 224.29Z" fill="#26C254"/>
</g>
<g filter="url(#filter6_d_1511_14594)">
<path d="M523.938 549.002C482.198 580.442 431.092 598.012 378.212 599.105C325.333 600.198 273.499 584.754 230.41 555.067C236.076 549.479 242.623 544.798 249.806 541.197C269.396 531.811 293.783 532.591 312.709 543.146C322.034 548.345 330.613 555.919 341.318 556.937C353.336 558.085 364.175 550.67 374.38 544.424C384.586 538.179 397.394 532.663 408.323 537.63C413.971 540.194 418.021 545.161 423.139 548.605C435.075 556.633 451.099 555.507 465.206 552.171C479.313 548.836 493.33 543.601 507.817 544.46C513.467 544.829 518.967 546.378 523.938 549.002Z" fill="#26C254"/>
</g>
<g filter="url(#filter7_d_1511_14594)">
<path d="M580.582 488.649C574.326 498.188 567.373 507.282 559.776 515.861C534.852 508.98 507.967 509.276 481.812 509.248C443.93 509.209 406.065 508.222 368.218 506.287C333.224 504.497 298.094 501.898 263.197 504.742C244.024 506.309 224.912 509.58 206.598 515.385C202.226 516.771 196.318 518.547 189.857 519.94C179.977 509.263 171.114 497.743 163.374 485.523C180.211 479.025 203.397 476.505 211.238 475.516C230.514 473.075 250.03 472.909 269.463 472.736C361.027 471.949 452.889 471.177 543.797 481.776C556.173 483.227 568.758 484.952 580.582 488.649Z" fill="#11A5D3"/>
</g>
<g opacity="0.5" filter="url(#filter8_d_1511_14594)">
<path d="M373 122.84C295.871 122.84 245.643 153.273 215.714 178.514C261.331 153.829 326.301 125.086 425.34 145.533C463.46 153.41 531.398 197.943 574.271 224.231C529.802 162.904 456.231 122.84 373 122.84Z" fill="#F5F5F5"/>
</g>
<g filter="url(#filter9_d_1511_14594)">
<path d="M505.072 247.098H240.891V492.455H505.072V247.098Z" fill="#044076"/>
</g>
<g filter="url(#filter10_d_1511_14594)">
<path d="M240.891 247.105L97.2339 218.463L97.1891 522.728L240.891 492.462V247.105Z" fill="#FF5484"/>
</g>
<g filter="url(#filter11_d_1511_14594)">
<path d="M505.072 247.105L648.811 218.463L648.767 522.728L505.072 492.462V247.105Z" fill="#FF5484"/>
</g>
<g filter="url(#filter12_d_1511_14594)">
<path d="M97.1891 521.841C100.278 521.472 103.373 521.119 106.469 520.779L240.891 492.462V471.156C149.133 439.388 99.6062 387.404 97.219 384.22L97.1891 521.841Z" fill="#DB3D78"/>
</g>
<g filter="url(#filter13_d_1511_14594)">
<path d="M97.2109 218.463H75.2487V522.728H97.2109V218.463Z" fill="#DB3D78"/>
</g>
<g filter="url(#filter14_d_1511_14594)">
<path d="M648.789 521.84C645.701 521.471 642.605 521.118 639.509 520.778L505.095 492.462V465.026C610.653 462.86 646.372 381.273 648.759 378.097L648.789 521.84Z" fill="#DB3D78"/>
</g>
<g filter="url(#filter15_d_1511_14594)">
<path d="M670.751 218.463H648.789V522.728H670.751V218.463Z" fill="#DB3D78"/>
</g>
<g filter="url(#filter16_d_1511_14594)">
<path d="M97.2184 384.219L75.2711 294.294L75.2263 522.728H97.1886L97.2184 384.219Z" fill="#B72A6E"/>
</g>
<g filter="url(#filter17_d_1511_14594)">
<path d="M670.773 302.041L648.759 378.104L648.766 522.728H670.728L670.773 302.041Z" fill="#B72A6E"/>
</g>
<g filter="url(#filter18_d_1511_14594)">
<path d="M495.068 492.461H288.538C303.391 451.098 344.078 421.33 391.807 421.33C439.536 421.33 480.215 451.098 495.068 492.461Z" fill="#A2A2A2"/>
</g>
<g filter="url(#filter19_d_1511_14594)">
<path d="M391.806 421.33C375.73 421.326 359.851 424.762 345.306 431.391C330.761 438.02 317.91 447.678 307.673 459.675C354.447 487.299 385.145 484.945 385.301 487.024C385.54 490.244 380.609 489.855 382.578 492.461H411.583C417.335 489.335 453.299 480.483 478.581 462.859C468.392 449.944 455.261 439.478 440.211 432.275C425.161 425.072 408.596 421.327 391.806 421.33Z" fill="#7B7B7B"/>
</g>
<g filter="url(#filter20_d_1511_14594)">
<path d="M248.664 276.577C248.664 276.577 262.689 222.427 330.217 199.965C397.745 177.504 476.694 202.716 496.373 235.372C496.373 235.372 585.7 174.103 606.781 294.576C627.863 415.049 558.269 464.802 497.776 432.803C497.776 432.803 411.426 499.422 282.555 440.29C282.555 440.29 195.333 533.551 155.243 396.046C112.325 248.837 205.15 246.707 248.664 276.577Z" fill="#C4C4C4"/>
</g>
<g filter="url(#filter21_d_1511_14594)">
<path d="M294.841 375.275C296.181 368.004 300.249 361.468 306.263 356.921C312.32 352.142 320.437 349.644 328.143 349.586C331.993 349.53 335.836 349.913 339.594 350.727C343.455 351.63 347.125 353.174 350.441 355.29C353.675 357.405 356.461 360.101 358.647 363.232C360.665 366.227 362.239 369.481 363.324 372.899L361.81 373.838C359.221 371.412 356.916 368.943 354.35 366.95C351.943 364.993 349.273 363.361 346.412 362.098C343.621 360.906 340.686 360.057 337.677 359.571C334.553 359.123 331.398 358.906 328.24 358.921C326.681 358.972 325.144 359.037 323.615 359.167C322.095 359.33 320.588 359.586 319.101 359.932C316.091 360.572 313.184 361.607 310.463 363.008C304.875 365.773 299.81 370.105 295.393 375.477L294.841 375.275Z" fill="#484848"/>
</g>
<g filter="url(#filter22_d_1511_14594)">
<path d="M490.786 358.242C486.623 355.303 482.237 352.993 477.955 351.938C473.79 350.884 469.408 350.939 465.273 352.097C464.258 352.393 463.139 352.754 461.99 353.137C460.842 353.52 459.752 353.91 458.693 354.357C456.578 355.175 454.536 356.163 452.591 357.31C450.654 358.501 448.873 359.915 447.287 361.519C445.593 363.18 444.101 365.231 442.363 367.295L441.349 366.963C441.271 364.198 441.729 361.443 442.699 358.841C443.754 356.087 445.387 353.575 447.496 351.462C449.586 349.381 452 347.629 454.65 346.271C455.919 345.592 457.229 344.989 458.574 344.466L460.573 343.744C461.252 343.498 462.02 343.303 462.736 343.094C465.752 342.289 468.892 342.008 472.009 342.264C476.511 342.659 480.81 344.258 484.425 346.884C488.04 349.509 490.829 353.057 492.479 357.13L490.786 358.242Z" fill="#484848"/>
</g>
<g filter="url(#filter23_d_1511_14594)">
<path d="M149.125 371.938C150.736 379.504 152.758 387.533 155.242 396.045C193.982 528.893 276.714 446.325 282.256 440.6C280.324 438.434 278.31 436.485 276.594 434.903C268.798 427.683 258.847 422.94 248.731 419.575C234.706 414.911 210.834 397.85 196.929 392.861C175.586 385.237 166.358 386.544 149.125 371.938Z" fill="#A2A2A2"/>
</g>
<g filter="url(#filter24_d_1511_14594)">
<path d="M272.767 431.446C272.767 431.446 235.594 400.66 247.03 326.612C247.03 326.612 173.527 257.3 179.89 365.13C186.254 472.961 271.223 431.099 271.477 431.359" fill="#FFBBBA"/>
</g>
<g filter="url(#filter25_d_1511_14594)">
<path d="M529.869 389.418C523.661 396.172 518.184 403.524 513.524 411.359C509.66 417.994 497.776 432.803 497.776 432.803C552.682 461.849 615.122 423.583 610.422 326.156C596.219 334.608 582.229 343.354 568.452 352.393C551.332 363.577 543.648 374.566 529.869 389.418Z" fill="#A2A2A2"/>
</g>
<g filter="url(#filter26_d_1511_14594)">
<path d="M258.862 413.749C250.529 414.471 234.52 410.709 228.276 407.858C218.463 403.351 209.646 397.045 202.315 389.288C190.938 377.23 183.396 362.126 179.651 346.163C179.373 352.807 179.445 359.46 179.868 366.097C186.201 473.935 272.521 431.178 272.775 431.445C272.767 431.445 266.762 425.814 258.862 413.749Z" fill="#FF98A1"/>
</g>
<g filter="url(#filter27_d_1511_14594)">
<path d="M513.524 411.36C555.352 420.024 588.124 396.089 579.366 323.016C568.817 234.715 511.42 280.772 511.42 280.772C511.42 280.772 529.264 389.916 513.524 411.36Z" fill="#FFBBBA"/>
</g>
<g filter="url(#filter28_d_1511_14594)">
<path d="M571.384 351.975C560.604 370.292 540.947 383.346 519.544 387.028C518.798 397.923 516.933 406.71 513.524 411.359C553.592 419.655 585.327 398.031 580.246 331.939C577.792 338.849 575.106 345.657 571.384 351.975Z" fill="#FF98A1"/>
</g>
<g filter="url(#filter29_d_1511_14594)">
<path d="M517.799 400.306C510.182 409.692 502.617 414.255 495.493 418.421C486.041 423.959 476.097 429.677 465.75 434.897C464.795 418.941 457.059 398.421 425.332 391.96C425.332 391.96 436.447 424.348 440.774 445.958C428.719 450.427 416.395 453.575 404.041 454.427C402.489 447.077 394.037 437.279 363.354 431.034C363.354 431.034 372.634 443.027 376.618 452.983C292.372 442.427 269.455 400.443 263.636 393.223C258.183 386.472 254.259 378.696 250.626 370.884C250.201 369.967 246.038 365.469 245.62 364.545C247.97 420.204 283.107 440.29 283.107 440.29C362.235 488.152 426.563 473.228 463.639 455.322C485.885 444.601 498.328 432.803 498.328 432.803C504.781 425.099 514.882 413.049 517.799 400.306Z" fill="#A2A2A2"/>
</g>
<g filter="url(#filter30_d_1511_14594)">
<path d="M425.332 391.959C425.332 391.959 464.825 404.5 455.686 446.708C446.548 488.916 386.047 516.822 386.047 516.822C386.047 516.822 362.086 501.847 361.429 494.36C361.429 494.36 417.939 461.004 361.429 431.395" fill="#C4C4C4"/>
</g>
<g filter="url(#filter31_d_1511_14594)">
<path d="M447.6 429.416C454.836 464.996 426.63 490.158 426.63 490.158C426.63 490.158 449.629 472.245 455.724 446.708C465.705 404.681 425.369 391.959 425.369 391.959C425.369 391.959 443.669 410.168 447.6 429.416Z" fill="#E1E1E1"/>
</g>
<g filter="url(#filter32_d_1511_14594)">
<path d="M492.971 230.549C468.801 200.312 394.358 178.623 330.216 199.994C320.479 203.197 311.123 207.399 302.309 212.528C312.007 211.524 323.607 207.806 326.785 207.091C420.744 185.908 475.828 221.928 492.971 230.549Z" fill="#E1E1E1"/>
</g>
<g filter="url(#filter33_d_1511_14594)">
<path d="M602.873 276.886C584.223 208.881 538.896 216.166 513.808 226.346C573.92 215.213 597.129 262.951 602.873 276.886Z" fill="#E1E1E1"/>
</g>
<g filter="url(#filter34_d_1511_14594)">
<path d="M248.754 276.265L248.664 276.576C227.739 262.201 195.377 255.241 172.214 268.294C180.651 268.294 207.783 257.616 248.142 287.247C248.358 283.406 249.119 281.413 248.754 276.265Z" fill="#E1E1E1"/>
</g>
<g filter="url(#filter35_d_1511_14594)">
<path d="M523.938 549.002C523.334 548.684 522.722 548.388 522.103 548.1C477.008 571.536 414.082 595.65 321.146 576.467C301.75 572.467 272.163 560.02 243.39 544.778C238.793 547.718 234.518 551.105 230.634 554.886C271.143 582.984 319.557 598.431 369.39 599.159H371.128H373.224C427.838 599.187 480.892 581.531 523.938 549.002Z" fill="#1AA24E"/>
</g>
</g>
<defs>
<filter id="filter0_d_1511_14594" x="-4" y="0" width="754" height="730" filterUnits="userSpaceOnUse" color-interpolation-filters="sRGB">
<feFlood flood-opacity="0" result="BackgroundImageFix"/>
<feColorMatrix in="SourceAlpha" type="matrix" values="0 0 0 0 0 0 0 0 0 0 0 0 0 0 0 0 0 0 127 0" result="hardAlpha"/>
<feOffset dy="4"/>
<feGaussianBlur stdDeviation="2"/>
<feComposite in2="hardAlpha" operator="out"/>
<feColorMatrix type="matrix" values="0 0 0 0 0 0 0 0 0 0 0 0 0 0 0 0 0 0 0.25 0"/>
<feBlend mode="normal" in2="BackgroundImageFix" result="effect1_dropShadow_1511_14594"/>
<feBlend mode="normal" in="SourceGraphic" in2="effect1_dropShadow_1511_14594" result="shape"/>
</filter>
<filter id="filter1_d_1511_14594" x="123.201" y="118.834" width="499.554" height="483.74" filterUnits="userSpaceOnUse" color-interpolation-filters="sRGB">
<feFlood flood-opacity="0" result="BackgroundImageFix"/>
<feColorMatrix in="SourceAlpha" type="matrix" values="0 0 0 0 0 0 0 0 0 0 0 0 0 0 0 0 0 0 127 0" result="hardAlpha"/>
<feOffset/>
<feGaussianBlur stdDeviation="2"/>
<feComposite in2="hardAlpha" operator="out"/>
<feColorMatrix type="matrix" values="0 0 0 0 1 0 0 0 0 1 0 0 0 0 1 0 0 0 0.1 0"/>
<feBlend mode="normal" in2="BackgroundImageFix" result="effect1_dropShadow_1511_14594"/>
<feBlend mode="normal" in="SourceGraphic" in2="effect1_dropShadow_1511_14594" result="shape"/>
</filter>
<filter id="filter2_d_1511_14594" x="123.693" y="371.476" width="498.577" height="231.098" filterUnits="userSpaceOnUse" color-interpolation-filters="sRGB">
<feFlood flood-opacity="0" result="BackgroundImageFix"/>
<feColorMatrix in="SourceAlpha" type="matrix" values="0 0 0 0 0 0 0 0 0 0 0 0 0 0 0 0 0 0 127 0" result="hardAlpha"/>
<feOffset/>
<feGaussianBlur stdDeviation="2"/>
<feComposite in2="hardAlpha" operator="out"/>
<feColorMatrix type="matrix" values="0 0 0 0 1 0 0 0 0 1 0 0 0 0 1 0 0 0 0.1 0"/>
<feBlend mode="normal" in2="BackgroundImageFix" result="effect1_dropShadow_1511_14594"/>
<feBlend mode="normal" in="SourceGraphic" in2="effect1_dropShadow_1511_14594" result="shape"/>
</filter>
<filter id="filter3_d_1511_14594" x="168.229" y="485.775" width="366.557" height="117.385" filterUnits="userSpaceOnUse" color-interpolation-filters="sRGB">
<feFlood flood-opacity="0" result="BackgroundImageFix"/>
<feColorMatrix in="SourceAlpha" type="matrix" values="0 0 0 0 0 0 0 0 0 0 0 0 0 0 0 0 0 0 127 0" result="hardAlpha"/>
<feOffset/>
<feGaussianBlur stdDeviation="2"/>
<feComposite in2="hardAlpha" operator="out"/>
<feColorMatrix type="matrix" values="0 0 0 0 1 0 0 0 0 1 0 0 0 0 1 0 0 0 0.1 0"/>
<feBlend mode="normal" in2="BackgroundImageFix" result="effect1_dropShadow_1511_14594"/>
<feBlend mode="normal" in="SourceGraphic" in2="effect1_dropShadow_1511_14594" result="shape"/>
</filter>
<filter id="filter4_d_1511_14594" x="194.689" y="122.271" width="155.447" height="79.6428" filterUnits="userSpaceOnUse" color-interpolation-filters="sRGB">
<feFlood flood-opacity="0" result="BackgroundImageFix"/>
<feColorMatrix in="SourceAlpha" type="matrix" values="0 0 0 0 0 0 0 0 0 0 0 0 0 0 0 0 0 0 127 0" result="hardAlpha"/>
<feOffset/>
<feGaussianBlur stdDeviation="2"/>
<feComposite in2="hardAlpha" operator="out"/>
<feColorMatrix type="matrix" values="0 0 0 0 1 0 0 0 0 1 0 0 0 0 1 0 0 0 0.1 0"/>
<feBlend mode="normal" in2="BackgroundImageFix" result="effect1_dropShadow_1511_14594"/>
<feBlend mode="normal" in="SourceGraphic" in2="effect1_dropShadow_1511_14594" result="shape"/>
</filter>
<filter id="filter5_d_1511_14594" x="430.18" y="126.848" width="147.733" height="158.252" filterUnits="userSpaceOnUse" color-interpolation-filters="sRGB">
<feFlood flood-opacity="0" result="BackgroundImageFix"/>
<feColorMatrix in="SourceAlpha" type="matrix" values="0 0 0 0 0 0 0 0 0 0 0 0 0 0 0 0 0 0 127 0" result="hardAlpha"/>
<feOffset/>
<feGaussianBlur stdDeviation="2"/>
<feComposite in2="hardAlpha" operator="out"/>
<feColorMatrix type="matrix" values="0 0 0 0 1 0 0 0 0 1 0 0 0 0 1 0 0 0 0.1 0"/>
<feBlend mode="normal" in2="BackgroundImageFix" result="effect1_dropShadow_1511_14594"/>
<feBlend mode="normal" in="SourceGraphic" in2="effect1_dropShadow_1511_14594" result="shape"/>
</filter>
<filter id="filter6_d_1511_14594" x="226.41" y="530.659" width="301.529" height="72.5005" filterUnits="userSpaceOnUse" color-interpolation-filters="sRGB">
<feFlood flood-opacity="0" result="BackgroundImageFix"/>
<feColorMatrix in="SourceAlpha" type="matrix" values="0 0 0 0 0 0 0 0 0 0 0 0 0 0 0 0 0 0 127 0" result="hardAlpha"/>
<feOffset/>
<feGaussianBlur stdDeviation="2"/>
<feComposite in2="hardAlpha" operator="out"/>
<feColorMatrix type="matrix" values="0 0 0 0 1 0 0 0 0 1 0 0 0 0 1 0 0 0 0.1 0"/>
<feBlend mode="normal" in2="BackgroundImageFix" result="effect1_dropShadow_1511_14594"/>
<feBlend mode="normal" in="SourceGraphic" in2="effect1_dropShadow_1511_14594" result="shape"/>
</filter>
<filter id="filter7_d_1511_14594" x="159.374" y="468.325" width="425.208" height="55.6157" filterUnits="userSpaceOnUse" color-interpolation-filters="sRGB">
<feFlood flood-opacity="0" result="BackgroundImageFix"/>
<feColorMatrix in="SourceAlpha" type="matrix" values="0 0 0 0 0 0 0 0 0 0 0 0 0 0 0 0 0 0 127 0" result="hardAlpha"/>
<feOffset/>
<feGaussianBlur stdDeviation="2"/>
<feComposite in2="hardAlpha" operator="out"/>
<feColorMatrix type="matrix" values="0 0 0 0 1 0 0 0 0 1 0 0 0 0 1 0 0 0 0.1 0"/>
<feBlend mode="normal" in2="BackgroundImageFix" result="effect1_dropShadow_1511_14594"/>
<feBlend mode="normal" in="SourceGraphic" in2="effect1_dropShadow_1511_14594" result="shape"/>
</filter>
<filter id="filter8_d_1511_14594" x="211.714" y="118.84" width="366.557" height="109.39" filterUnits="userSpaceOnUse" color-interpolation-filters="sRGB">
<feFlood flood-opacity="0" result="BackgroundImageFix"/>
<feColorMatrix in="SourceAlpha" type="matrix" values="0 0 0 0 0 0 0 0 0 0 0 0 0 0 0 0 0 0 127 0" result="hardAlpha"/>
<feOffset/>
<feGaussianBlur stdDeviation="2"/>
<feComposite in2="hardAlpha" operator="out"/>
<feColorMatrix type="matrix" values="0 0 0 0 1 0 0 0 0 1 0 0 0 0 1 0 0 0 0.1 0"/>
<feBlend mode="normal" in2="BackgroundImageFix" result="effect1_dropShadow_1511_14594"/>
<feBlend mode="normal" in="SourceGraphic" in2="effect1_dropShadow_1511_14594" result="shape"/>
</filter>
<filter id="filter9_d_1511_14594" x="236.891" y="243.098" width="272.181" height="253.357" filterUnits="userSpaceOnUse" color-interpolation-filters="sRGB">
<feFlood flood-opacity="0" result="BackgroundImageFix"/>
<feColorMatrix in="SourceAlpha" type="matrix" values="0 0 0 0 0 0 0 0 0 0 0 0 0 0 0 0 0 0 127 0" result="hardAlpha"/>
<feOffset/>
<feGaussianBlur stdDeviation="2"/>
<feComposite in2="hardAlpha" operator="out"/>
<feColorMatrix type="matrix" values="0 0 0 0 1 0 0 0 0 1 0 0 0 0 1 0 0 0 0.1 0"/>
<feBlend mode="normal" in2="BackgroundImageFix" result="effect1_dropShadow_1511_14594"/>
<feBlend mode="normal" in="SourceGraphic" in2="effect1_dropShadow_1511_14594" result="shape"/>
</filter>
<filter id="filter10_d_1511_14594" x="93.1891" y="214.463" width="151.702" height="312.265" filterUnits="userSpaceOnUse" color-interpolation-filters="sRGB">
<feFlood flood-opacity="0" result="BackgroundImageFix"/>
<feColorMatrix in="SourceAlpha" type="matrix" values="0 0 0 0 0 0 0 0 0 0 0 0 0 0 0 0 0 0 127 0" result="hardAlpha"/>
<feOffset/>
<feGaussianBlur stdDeviation="2"/>
<feComposite in2="hardAlpha" operator="out"/>
<feColorMatrix type="matrix" values="0 0 0 0 1 0 0 0 0 1 0 0 0 0 1 0 0 0 0.1 0"/>
<feBlend mode="normal" in2="BackgroundImageFix" result="effect1_dropShadow_1511_14594"/>
<feBlend mode="normal" in="SourceGraphic" in2="effect1_dropShadow_1511_14594" result="shape"/>
</filter>
<filter id="filter11_d_1511_14594" x="501.072" y="214.463" width="151.739" height="312.265" filterUnits="userSpaceOnUse" color-interpolation-filters="sRGB">
<feFlood flood-opacity="0" result="BackgroundImageFix"/>
<feColorMatrix in="SourceAlpha" type="matrix" values="0 0 0 0 0 0 0 0 0 0 0 0 0 0 0 0 0 0 127 0" result="hardAlpha"/>
<feOffset/>
<feGaussianBlur stdDeviation="2"/>
<feComposite in2="hardAlpha" operator="out"/>
<feColorMatrix type="matrix" values="0 0 0 0 1 0 0 0 0 1 0 0 0 0 1 0 0 0 0.1 0"/>
<feBlend mode="normal" in2="BackgroundImageFix" result="effect1_dropShadow_1511_14594"/>
<feBlend mode="normal" in="SourceGraphic" in2="effect1_dropShadow_1511_14594" result="shape"/>
</filter>
<filter id="filter12_d_1511_14594" x="93.1891" y="380.22" width="151.702" height="145.62" filterUnits="userSpaceOnUse" color-interpolation-filters="sRGB">
<feFlood flood-opacity="0" result="BackgroundImageFix"/>
<feColorMatrix in="SourceAlpha" type="matrix" values="0 0 0 0 0 0 0 0 0 0 0 0 0 0 0 0 0 0 127 0" result="hardAlpha"/>
<feOffset/>
<feGaussianBlur stdDeviation="2"/>
<feComposite in2="hardAlpha" operator="out"/>
<feColorMatrix type="matrix" values="0 0 0 0 1 0 0 0 0 1 0 0 0 0 1 0 0 0 0.1 0"/>
<feBlend mode="normal" in2="BackgroundImageFix" result="effect1_dropShadow_1511_14594"/>
<feBlend mode="normal" in="SourceGraphic" in2="effect1_dropShadow_1511_14594" result="shape"/>
</filter>
<filter id="filter13_d_1511_14594" x="71.2487" y="214.463" width="29.9623" height="312.265" filterUnits="userSpaceOnUse" color-interpolation-filters="sRGB">
<feFlood flood-opacity="0" result="BackgroundImageFix"/>
<feColorMatrix in="SourceAlpha" type="matrix" values="0 0 0 0 0 0 0 0 0 0 0 0 0 0 0 0 0 0 127 0" result="hardAlpha"/>
<feOffset/>
<feGaussianBlur stdDeviation="2"/>
<feComposite in2="hardAlpha" operator="out"/>
<feColorMatrix type="matrix" values="0 0 0 0 1 0 0 0 0 1 0 0 0 0 1 0 0 0 0.1 0"/>
<feBlend mode="normal" in2="BackgroundImageFix" result="effect1_dropShadow_1511_14594"/>
<feBlend mode="normal" in="SourceGraphic" in2="effect1_dropShadow_1511_14594" result="shape"/>
</filter>
<filter id="filter14_d_1511_14594" x="501.095" y="374.097" width="151.694" height="151.743" filterUnits="userSpaceOnUse" color-interpolation-filters="sRGB">
<feFlood flood-opacity="0" result="BackgroundImageFix"/>
<feColorMatrix in="SourceAlpha" type="matrix" values="0 0 0 0 0 0 0 0 0 0 0 0 0 0 0 0 0 0 127 0" result="hardAlpha"/>
<feOffset/>
<feGaussianBlur stdDeviation="2"/>
<feComposite in2="hardAlpha" operator="out"/>
<feColorMatrix type="matrix" values="0 0 0 0 1 0 0 0 0 1 0 0 0 0 1 0 0 0 0.1 0"/>
<feBlend mode="normal" in2="BackgroundImageFix" result="effect1_dropShadow_1511_14594"/>
<feBlend mode="normal" in="SourceGraphic" in2="effect1_dropShadow_1511_14594" result="shape"/>
</filter>
<filter id="filter15_d_1511_14594" x="644.789" y="214.463" width="29.9622" height="312.265" filterUnits="userSpaceOnUse" color-interpolation-filters="sRGB">
<feFlood flood-opacity="0" result="BackgroundImageFix"/>
<feColorMatrix in="SourceAlpha" type="matrix" values="0 0 0 0 0 0 0 0 0 0 0 0 0 0 0 0 0 0 127 0" result="hardAlpha"/>
<feOffset/>
<feGaussianBlur stdDeviation="2"/>
<feComposite in2="hardAlpha" operator="out"/>
<feColorMatrix type="matrix" values="0 0 0 0 1 0 0 0 0 1 0 0 0 0 1 0 0 0 0.1 0"/>
<feBlend mode="normal" in2="BackgroundImageFix" result="effect1_dropShadow_1511_14594"/>
<feBlend mode="normal" in="SourceGraphic" in2="effect1_dropShadow_1511_14594" result="shape"/>
</filter>
<filter id="filter16_d_1511_14594" x="71.2263" y="290.294" width="29.9921" height="236.434" filterUnits="userSpaceOnUse" color-interpolation-filters="sRGB">
<feFlood flood-opacity="0" result="BackgroundImageFix"/>
<feColorMatrix in="SourceAlpha" type="matrix" values="0 0 0 0 0 0 0 0 0 0 0 0 0 0 0 0 0 0 127 0" result="hardAlpha"/>
<feOffset/>
<feGaussianBlur stdDeviation="2"/>
<feComposite in2="hardAlpha" operator="out"/>
<feColorMatrix type="matrix" values="0 0 0 0 1 0 0 0 0 1 0 0 0 0 1 0 0 0 0.1 0"/>
<feBlend mode="normal" in2="BackgroundImageFix" result="effect1_dropShadow_1511_14594"/>
<feBlend mode="normal" in="SourceGraphic" in2="effect1_dropShadow_1511_14594" result="shape"/>
</filter>
<filter id="filter17_d_1511_14594" x="644.759" y="298.041" width="30.0144" height="228.687" filterUnits="userSpaceOnUse" color-interpolation-filters="sRGB">
<feFlood flood-opacity="0" result="BackgroundImageFix"/>
<feColorMatrix in="SourceAlpha" type="matrix" values="0 0 0 0 0 0 0 0 0 0 0 0 0 0 0 0 0 0 127 0" result="hardAlpha"/>
<feOffset/>
<feGaussianBlur stdDeviation="2"/>
<feComposite in2="hardAlpha" operator="out"/>
<feColorMatrix type="matrix" values="0 0 0 0 1 0 0 0 0 1 0 0 0 0 1 0 0 0 0.1 0"/>
<feBlend mode="normal" in2="BackgroundImageFix" result="effect1_dropShadow_1511_14594"/>
<feBlend mode="normal" in="SourceGraphic" in2="effect1_dropShadow_1511_14594" result="shape"/>
</filter>
<filter id="filter18_d_1511_14594" x="284.538" y="417.33" width="214.53" height="79.1313" filterUnits="userSpaceOnUse" color-interpolation-filters="sRGB">
<feFlood flood-opacity="0" result="BackgroundImageFix"/>
<feColorMatrix in="SourceAlpha" type="matrix" values="0 0 0 0 0 0 0 0 0 0 0 0 0 0 0 0 0 0 127 0" result="hardAlpha"/>
<feOffset/>
<feGaussianBlur stdDeviation="2"/>
<feComposite in2="hardAlpha" operator="out"/>
<feColorMatrix type="matrix" values="0 0 0 0 1 0 0 0 0 1 0 0 0 0 1 0 0 0 0.1 0"/>
<feBlend mode="normal" in2="BackgroundImageFix" result="effect1_dropShadow_1511_14594"/>
<feBlend mode="normal" in="SourceGraphic" in2="effect1_dropShadow_1511_14594" result="shape"/>
</filter>
<filter id="filter19_d_1511_14594" x="303.673" y="417.33" width="178.909" height="79.1313" filterUnits="userSpaceOnUse" color-interpolation-filters="sRGB">
<feFlood flood-opacity="0" result="BackgroundImageFix"/>
<feColorMatrix in="SourceAlpha" type="matrix" values="0 0 0 0 0 0 0 0 0 0 0 0 0 0 0 0 0 0 127 0" result="hardAlpha"/>
<feOffset/>
<feGaussianBlur stdDeviation="2"/>
<feComposite in2="hardAlpha" operator="out"/>
<feColorMatrix type="matrix" values="0 0 0 0 1 0 0 0 0 1 0 0 0 0 1 0 0 0 0.1 0"/>
<feBlend mode="normal" in2="BackgroundImageFix" result="effect1_dropShadow_1511_14594"/>
<feBlend mode="normal" in="SourceGraphic" in2="effect1_dropShadow_1511_14594" result="shape"/>
</filter>
<filter id="filter20_d_1511_14594" x="140.182" y="187.403" width="474.45" height="287.79" filterUnits="userSpaceOnUse" color-interpolation-filters="sRGB">
<feFlood flood-opacity="0" result="BackgroundImageFix"/>
<feColorMatrix in="SourceAlpha" type="matrix" values="0 0 0 0 0 0 0 0 0 0 0 0 0 0 0 0 0 0 127 0" result="hardAlpha"/>
<feOffset/>
<feGaussianBlur stdDeviation="2"/>
<feComposite in2="hardAlpha" operator="out"/>
<feColorMatrix type="matrix" values="0 0 0 0 1 0 0 0 0 1 0 0 0 0 1 0 0 0 0.1 0"/>
<feBlend mode="normal" in2="BackgroundImageFix" result="effect1_dropShadow_1511_14594"/>
<feBlend mode="normal" in="SourceGraphic" in2="effect1_dropShadow_1511_14594" result="shape"/>
</filter>
<filter id="filter21_d_1511_14594" x="290.841" y="345.581" width="76.4828" height="33.8962" filterUnits="userSpaceOnUse" color-interpolation-filters="sRGB">
<feFlood flood-opacity="0" result="BackgroundImageFix"/>
<feColorMatrix in="SourceAlpha" type="matrix" values="0 0 0 0 0 0 0 0 0 0 0 0 0 0 0 0 0 0 127 0" result="hardAlpha"/>
<feOffset/>
<feGaussianBlur stdDeviation="2"/>
<feComposite in2="hardAlpha" operator="out"/>
<feColorMatrix type="matrix" values="0 0 0 0 1 0 0 0 0 1 0 0 0 0 1 0 0 0 0.1 0"/>
<feBlend mode="normal" in2="BackgroundImageFix" result="effect1_dropShadow_1511_14594"/>
<feBlend mode="normal" in="SourceGraphic" in2="effect1_dropShadow_1511_14594" result="shape"/>
</filter>
<filter id="filter22_d_1511_14594" x="437.34" y="338.172" width="59.1391" height="33.1233" filterUnits="userSpaceOnUse" color-interpolation-filters="sRGB">
<feFlood flood-opacity="0" result="BackgroundImageFix"/>
<feColorMatrix in="SourceAlpha" type="matrix" values="0 0 0 0 0 0 0 0 0 0 0 0 0 0 0 0 0 0 127 0" result="hardAlpha"/>
<feOffset/>
<feGaussianBlur stdDeviation="2"/>
<feComposite in2="hardAlpha" operator="out"/>
<feColorMatrix type="matrix" values="0 0 0 0 1 0 0 0 0 1 0 0 0 0 1 0 0 0 0.1 0"/>
<feBlend mode="normal" in2="BackgroundImageFix" result="effect1_dropShadow_1511_14594"/>
<feBlend mode="normal" in="SourceGraphic" in2="effect1_dropShadow_1511_14594" result="shape"/>
</filter>
<filter id="filter23_d_1511_14594" x="145.125" y="367.938" width="141.131" height="107.249" filterUnits="userSpaceOnUse" color-interpolation-filters="sRGB">
<feFlood flood-opacity="0" result="BackgroundImageFix"/>
<feColorMatrix in="SourceAlpha" type="matrix" values="0 0 0 0 0 0 0 0 0 0 0 0 0 0 0 0 0 0 127 0" result="hardAlpha"/>
<feOffset/>
<feGaussianBlur stdDeviation="2"/>
<feComposite in2="hardAlpha" operator="out"/>
<feColorMatrix type="matrix" values="0 0 0 0 1 0 0 0 0 1 0 0 0 0 1 0 0 0 0.1 0"/>
<feBlend mode="normal" in2="BackgroundImageFix" result="effect1_dropShadow_1511_14594"/>
<feBlend mode="normal" in="SourceGraphic" in2="effect1_dropShadow_1511_14594" result="shape"/>
</filter>
<filter id="filter24_d_1511_14594" x="175.5" y="300.683" width="101.268" height="142.46" filterUnits="userSpaceOnUse" color-interpolation-filters="sRGB">
<feFlood flood-opacity="0" result="BackgroundImageFix"/>
<feColorMatrix in="SourceAlpha" type="matrix" values="0 0 0 0 0 0 0 0 0 0 0 0 0 0 0 0 0 0 127 0" result="hardAlpha"/>
<feOffset/>
<feGaussianBlur stdDeviation="2"/>
<feComposite in2="hardAlpha" operator="out"/>
<feColorMatrix type="matrix" values="0 0 0 0 1 0 0 0 0 1 0 0 0 0 1 0 0 0 0.1 0"/>
<feBlend mode="normal" in2="BackgroundImageFix" result="effect1_dropShadow_1511_14594"/>
<feBlend mode="normal" in="SourceGraphic" in2="effect1_dropShadow_1511_14594" result="shape"/>
</filter>
<filter id="filter25_d_1511_14594" x="493.776" y="322.156" width="120.896" height="124.13" filterUnits="userSpaceOnUse" color-interpolation-filters="sRGB">
<feFlood flood-opacity="0" result="BackgroundImageFix"/>
<feColorMatrix in="SourceAlpha" type="matrix" values="0 0 0 0 0 0 0 0 0 0 0 0 0 0 0 0 0 0 127 0" result="hardAlpha"/>
<feOffset/>
<feGaussianBlur stdDeviation="2"/>
<feComposite in2="hardAlpha" operator="out"/>
<feColorMatrix type="matrix" values="0 0 0 0 1 0 0 0 0 1 0 0 0 0 1 0 0 0 0.1 0"/>
<feBlend mode="normal" in2="BackgroundImageFix" result="effect1_dropShadow_1511_14594"/>
<feBlend mode="normal" in="SourceGraphic" in2="effect1_dropShadow_1511_14594" result="shape"/>
</filter>
<filter id="filter26_d_1511_14594" x="175.486" y="342.163" width="101.289" height="101.425" filterUnits="userSpaceOnUse" color-interpolation-filters="sRGB">
<feFlood flood-opacity="0" result="BackgroundImageFix"/>
<feColorMatrix in="SourceAlpha" type="matrix" values="0 0 0 0 0 0 0 0 0 0 0 0 0 0 0 0 0 0 127 0" result="hardAlpha"/>
<feOffset/>
<feGaussianBlur stdDeviation="2"/>
<feComposite in2="hardAlpha" operator="out"/>
<feColorMatrix type="matrix" values="0 0 0 0 1 0 0 0 0 1 0 0 0 0 1 0 0 0 0.1 0"/>
<feBlend mode="normal" in2="BackgroundImageFix" result="effect1_dropShadow_1511_14594"/>
<feBlend mode="normal" in="SourceGraphic" in2="effect1_dropShadow_1511_14594" result="shape"/>
</filter>
<filter id="filter27_d_1511_14594" x="507.42" y="264.766" width="77.3715" height="152.284" filterUnits="userSpaceOnUse" color-interpolation-filters="sRGB">
<feFlood flood-opacity="0" result="BackgroundImageFix"/>
<feColorMatrix in="SourceAlpha" type="matrix" values="0 0 0 0 0 0 0 0 0 0 0 0 0 0 0 0 0 0 127 0" result="hardAlpha"/>
<feOffset/>
<feGaussianBlur stdDeviation="2"/>
<feComposite in2="hardAlpha" operator="out"/>
<feColorMatrix type="matrix" values="0 0 0 0 1 0 0 0 0 1 0 0 0 0 1 0 0 0 0.1 0"/>
<feBlend mode="normal" in2="BackgroundImageFix" result="effect1_dropShadow_1511_14594"/>
<feBlend mode="normal" in="SourceGraphic" in2="effect1_dropShadow_1511_14594" result="shape"/>
</filter>
<filter id="filter28_d_1511_14594" x="509.524" y="327.939" width="75.2579" height="89.1082" filterUnits="userSpaceOnUse" color-interpolation-filters="sRGB">
<feFlood flood-opacity="0" result="BackgroundImageFix"/>
<feColorMatrix in="SourceAlpha" type="matrix" values="0 0 0 0 0 0 0 0 0 0 0 0 0 0 0 0 0 0 127 0" result="hardAlpha"/>
<feOffset/>
<feGaussianBlur stdDeviation="2"/>
<feComposite in2="hardAlpha" operator="out"/>
<feColorMatrix type="matrix" values="0 0 0 0 1 0 0 0 0 1 0 0 0 0 1 0 0 0 0.1 0"/>
<feBlend mode="normal" in2="BackgroundImageFix" result="effect1_dropShadow_1511_14594"/>
<feBlend mode="normal" in="SourceGraphic" in2="effect1_dropShadow_1511_14594" result="shape"/>
</filter>
<filter id="filter29_d_1511_14594" x="241.62" y="360.545" width="280.178" height="115.924" filterUnits="userSpaceOnUse" color-interpolation-filters="sRGB">
<feFlood flood-opacity="0" result="BackgroundImageFix"/>
<feColorMatrix in="SourceAlpha" type="matrix" values="0 0 0 0 0 0 0 0 0 0 0 0 0 0 0 0 0 0 127 0" result="hardAlpha"/>
<feOffset/>
<feGaussianBlur stdDeviation="2"/>
<feComposite in2="hardAlpha" operator="out"/>
<feColorMatrix type="matrix" values="0 0 0 0 1 0 0 0 0 1 0 0 0 0 1 0 0 0 0.1 0"/>
<feBlend mode="normal" in2="BackgroundImageFix" result="effect1_dropShadow_1511_14594"/>
<feBlend mode="normal" in="SourceGraphic" in2="effect1_dropShadow_1511_14594" result="shape"/>
</filter>
<filter id="filter30_d_1511_14594" x="357.429" y="387.959" width="103.629" height="132.863" filterUnits="userSpaceOnUse" color-interpolation-filters="sRGB">
<feFlood flood-opacity="0" result="BackgroundImageFix"/>
<feColorMatrix in="SourceAlpha" type="matrix" values="0 0 0 0 0 0 0 0 0 0 0 0 0 0 0 0 0 0 127 0" result="hardAlpha"/>
<feOffset/>
<feGaussianBlur stdDeviation="2"/>
<feComposite in2="hardAlpha" operator="out"/>
<feColorMatrix type="matrix" values="0 0 0 0 1 0 0 0 0 1 0 0 0 0 1 0 0 0 0.1 0"/>
<feBlend mode="normal" in2="BackgroundImageFix" result="effect1_dropShadow_1511_14594"/>
<feBlend mode="normal" in="SourceGraphic" in2="effect1_dropShadow_1511_14594" result="shape"/>
</filter>
<filter id="filter31_d_1511_14594" x="421.369" y="387.959" width="39.9427" height="106.199" filterUnits="userSpaceOnUse" color-interpolation-filters="sRGB">
<feFlood flood-opacity="0" result="BackgroundImageFix"/>
<feColorMatrix in="SourceAlpha" type="matrix" values="0 0 0 0 0 0 0 0 0 0 0 0 0 0 0 0 0 0 127 0" result="hardAlpha"/>
<feOffset/>
<feGaussianBlur stdDeviation="2"/>
<feComposite in2="hardAlpha" operator="out"/>
<feColorMatrix type="matrix" values="0 0 0 0 1 0 0 0 0 1 0 0 0 0 1 0 0 0 0.1 0"/>
<feBlend mode="normal" in2="BackgroundImageFix" result="effect1_dropShadow_1511_14594"/>
<feBlend mode="normal" in="SourceGraphic" in2="effect1_dropShadow_1511_14594" result="shape"/>
</filter>
<filter id="filter32_d_1511_14594" x="298.309" y="187.412" width="198.663" height="47.1367" filterUnits="userSpaceOnUse" color-interpolation-filters="sRGB">
<feFlood flood-opacity="0" result="BackgroundImageFix"/>
<feColorMatrix in="SourceAlpha" type="matrix" values="0 0 0 0 0 0 0 0 0 0 0 0 0 0 0 0 0 0 127 0" result="hardAlpha"/>
<feOffset/>
<feGaussianBlur stdDeviation="2"/>
<feComposite in2="hardAlpha" operator="out"/>
<feColorMatrix type="matrix" values="0 0 0 0 1 0 0 0 0 1 0 0 0 0 1 0 0 0 0.1 0"/>
<feBlend mode="normal" in2="BackgroundImageFix" result="effect1_dropShadow_1511_14594"/>
<feBlend mode="normal" in="SourceGraphic" in2="effect1_dropShadow_1511_14594" result="shape"/>
</filter>
<filter id="filter33_d_1511_14594" x="509.808" y="215.811" width="97.0651" height="65.075" filterUnits="userSpaceOnUse" color-interpolation-filters="sRGB">
<feFlood flood-opacity="0" result="BackgroundImageFix"/>
<feColorMatrix in="SourceAlpha" type="matrix" values="0 0 0 0 0 0 0 0 0 0 0 0 0 0 0 0 0 0 127 0" result="hardAlpha"/>
<feOffset/>
<feGaussianBlur stdDeviation="2"/>
<feComposite in2="hardAlpha" operator="out"/>
<feColorMatrix type="matrix" values="0 0 0 0 1 0 0 0 0 1 0 0 0 0 1 0 0 0 0.1 0"/>
<feBlend mode="normal" in2="BackgroundImageFix" result="effect1_dropShadow_1511_14594"/>
<feBlend mode="normal" in="SourceGraphic" in2="effect1_dropShadow_1511_14594" result="shape"/>
</filter>
<filter id="filter34_d_1511_14594" x="168.214" y="257.386" width="84.6375" height="33.8608" filterUnits="userSpaceOnUse" color-interpolation-filters="sRGB">
<feFlood flood-opacity="0" result="BackgroundImageFix"/>
<feColorMatrix in="SourceAlpha" type="matrix" values="0 0 0 0 0 0 0 0 0 0 0 0 0 0 0 0 0 0 127 0" result="hardAlpha"/>
<feOffset/>
<feGaussianBlur stdDeviation="2"/>
<feComposite in2="hardAlpha" operator="out"/>
<feColorMatrix type="matrix" values="0 0 0 0 1 0 0 0 0 1 0 0 0 0 1 0 0 0 0.1 0"/>
<feBlend mode="normal" in2="BackgroundImageFix" result="effect1_dropShadow_1511_14594"/>
<feBlend mode="normal" in="SourceGraphic" in2="effect1_dropShadow_1511_14594" result="shape"/>
</filter>
<filter id="filter35_d_1511_14594" x="226.634" y="540.778" width="301.305" height="62.3811" filterUnits="userSpaceOnUse" color-interpolation-filters="sRGB">
<feFlood flood-opacity="0" result="BackgroundImageFix"/>
<feColorMatrix in="SourceAlpha" type="matrix" values="0 0 0 0 0 0 0 0 0 0 0 0 0 0 0 0 0 0 127 0" result="hardAlpha"/>
<feOffset/>
<feGaussianBlur stdDeviation="2"/>
<feComposite in2="hardAlpha" operator="out"/>
<feColorMatrix type="matrix" values="0 0 0 0 1 0 0 0 0 1 0 0 0 0 1 0 0 0 0.1 0"/>
<feBlend mode="normal" in2="BackgroundImageFix" result="effect1_dropShadow_1511_14594"/>
<feBlend mode="normal" in="SourceGraphic" in2="effect1_dropShadow_1511_14594" result="shape"/>
</filter>
</defs>
</svg>
