<svg width="375" height="353" viewBox="0 0 375 353" fill="none" xmlns="http://www.w3.org/2000/svg">
<path d="M312.445 338.754C312.445 346.628 249.646 353 172.185 353C94.7247 353 31.8643 346.688 31.8643 338.754C31.8643 330.88 94.6635 324.508 172.124 324.508C249.585 324.508 312.445 330.88 312.445 338.754Z" fill="#D1EAED"/>
<path d="M298.883 258.628C303.709 257.426 308.413 255.322 311.956 251.836C319.226 244.803 320.448 233.743 320.142 223.645C319.837 213.606 318.432 203.147 322.097 193.77C325.946 183.732 335.72 176.158 346.471 174.716C347.388 177.781 348.304 180.847 349.22 183.912C341.157 183.311 334.498 190.825 332.665 198.579C330.833 206.333 332.421 214.448 332.849 222.382C333.582 237.109 329.855 252.317 320.814 264.038C310.246 277.683 292.53 285.677 275.059 284.656C269.194 284.295 263.085 282.792 258.992 278.705C254.289 274.016 253.189 266.202 256.427 260.432C258.32 257.126 261.619 254.541 265.284 253.399C269.805 252.016 270.049 253.158 273.165 255.262C280.679 260.251 289.659 260.912 298.883 258.628Z" fill="#E5AE65"/>
<path d="M160.578 35.8631C162.167 35.8631 162.167 33.4587 160.578 33.4587C158.99 33.4587 158.99 35.8631 160.578 35.8631Z" fill="#EFC16F"/>
<path d="M54.1617 265.902C48.5415 273.956 45.426 283.634 39.3171 291.328C37.7899 293.311 35.9573 295.115 33.697 296.197C28.199 298.721 21.9069 295.896 16.0423 294.213C10.2389 292.59 2.23626 293.251 0.342506 298.902C-1.06254 303.23 2.1141 307.557 5.16854 310.924C18.3637 325.59 35.1631 339.656 55.078 339.656C60.9426 339.656 66.746 338.393 72.4273 337.131C92.2811 332.683 112.257 327.574 132.6 327.273C140.297 327.153 148.116 327.754 155.691 326.372C157.646 326.011 159.662 325.47 161.006 324.027C163.205 321.623 162.472 317.836 161.556 314.77C153.37 288.563 135.96 265.24 112.99 249.792C108.347 246.667 103.399 243.781 97.9013 242.459C81.5906 238.552 62.7752 253.519 54.1617 265.902Z" fill="#EFC16F"/>
<path d="M74.993 273.656C74.3211 282.492 74.4432 291.749 77.8642 299.803C82.0182 309.601 90.7539 316.634 100.162 320.481C109.569 324.328 119.832 325.41 129.912 326.191C164.366 328.716 199.187 327.634 233.03 320.24C239.75 318.798 246.53 316.994 252.395 313.208C263.33 306.175 269.683 292.77 271.455 279.246C273.226 265.721 270.966 252.016 267.972 238.732C264.613 223.645 260.336 208.798 255.144 194.251C249.402 178.082 242.132 161.732 229.67 150.672C211.71 134.623 186.297 132.399 162.9 133.601C151.782 134.202 140.541 135.404 130.156 139.792C122.276 143.158 113.845 149.77 111.646 158.967C109.875 166.541 111.158 173.093 107.37 180.306C97.4126 199.421 87.3329 217.513 81.3462 238.672C78.1085 250.093 75.9094 261.814 74.993 273.656Z" fill="#EFC16F"/>
<path d="M80.7353 29.9723C75.1762 35.0816 66.5627 34.18 58.9877 34.721C51.4738 35.2619 43.8377 37.7264 38.523 42.9559C33.2083 48.1854 30.7036 56.6008 33.8191 63.333C34.7355 65.3767 36.2016 67.3002 36.5071 69.5243C36.8125 71.7483 36.0183 73.9122 35.2242 76.0161C31.4367 85.9341 27.3437 95.9724 26.9772 106.612C26.6107 117.191 30.6425 128.612 39.867 134.142C41.8218 135.284 43.9599 136.186 45.5482 137.869C49.2135 141.716 48.175 147.727 47.6252 152.956C46.4035 165.158 49.3968 177.781 56.1166 188.18C62.1033 197.497 73.5269 205.552 84.0341 201.645C89.6543 199.541 95.3356 194.251 100.772 196.836C103.521 198.158 104.988 201.164 106.515 203.809C117.022 221.781 144.023 227.912 161.495 216.251C164.183 214.448 166.748 212.284 169.925 211.442C176.4 209.759 182.692 214.147 188.862 216.732C197.843 220.459 208.533 220.158 217.086 215.59C225.638 211.022 231.808 202.126 232.541 192.568C244.759 193.59 257.526 190.404 266.934 182.65C276.342 174.896 281.901 162.453 279.946 150.552C279.457 147.666 278.602 144.721 279.091 141.776C280.19 135.885 286.482 132.699 290.392 128.131C295.462 122.18 296.44 113.584 294.546 106.011C292.652 98.4369 288.193 91.7647 283.367 85.6336C282.084 84.0106 280.679 82.3276 280.19 80.2838C279.579 77.9396 280.129 75.5352 280.74 73.1909C282.817 65.1363 285.199 56.9614 284.527 48.6663C283.917 40.3712 279.518 31.7756 271.699 28.6499C268.95 27.5679 265.773 27.0871 263.696 24.9832C262.352 23.6608 261.741 21.7974 260.947 20.1144C254.777 6.34933 237.733 -1.5851 223.011 2.38212C212.687 5.14715 202.974 13.0215 192.589 10.557C185.991 8.93404 181.043 3.40398 174.629 1.11983C169.803 -0.623346 164.244 -0.322803 159.601 1.96135C153.309 5.02693 149.338 11.1581 143.351 14.6444C135.837 18.9723 129.057 16.0269 121.054 14.7045C114.212 13.5023 107.737 13.6827 100.956 15.3056C90.5706 17.5898 87.9438 23.3603 80.7353 29.9723Z" fill="#EAA16A"/>
<path d="M87.1496 79.2618C74.4432 97.2345 72.1218 122.18 82.3847 141.655C89.3489 154.939 101.383 165.038 114.701 172.251C135.165 183.371 159.479 188.06 182.326 183.251C205.173 178.442 226.066 163.715 236.145 142.978C240.544 133.961 242.865 124.163 244.575 114.306C246.469 103.486 247.63 92.1853 244.27 81.7864C238.711 64.4148 221.362 52.7536 203.341 48.606C167.543 40.371 109.752 47.3437 87.1496 79.2618Z" fill="#EFC16F"/>
<path d="M213.848 33.8192C222.339 29.9722 233.213 32.2564 239.444 39.0487C245.675 45.8411 246.897 56.6006 242.498 64.7154C239.078 70.9668 232.358 75.5351 225.088 75.8958C221.484 76.0761 217.819 75.2345 214.398 74.0324C209.327 72.2291 204.379 69.4039 201.63 64.8356C197.904 58.7045 200.836 54.5569 203.157 48.9668C205.845 42.4749 206.578 37.1252 213.848 33.8192Z" fill="#EFC16F"/>
<path d="M140.48 103.967C137.731 118.934 135.349 135.584 143.657 148.448C145.612 151.453 148.055 154.098 151.171 155.841C153.675 157.284 156.547 158.005 159.357 158.666C168.764 160.77 179.577 161.311 186.969 155.18C191.734 151.213 194.177 145.022 194.91 138.89C196.193 128.612 193.444 118.153 188.618 108.956C183.853 99.7593 177.133 91.6445 170.169 83.9505C165.527 78.8412 157.402 70.7865 150.254 76.4969C142.985 82.3876 142.007 95.5516 140.48 103.967Z" fill="#FFD8BB"/>
<path d="M224.355 42.5352C228.998 43.4969 232.602 47.945 232.541 52.6335C232.48 54.7374 231.808 56.721 230.892 58.6445C230.158 60.2674 229.242 61.8303 228.143 63.2729C228.326 59.3658 225.455 55.7592 221.911 54.1363C218.429 52.5734 214.947 53.1144 211.343 52.9942C212.076 46.8029 217.574 41.0925 224.355 42.5352Z" fill="#FFD8BB"/>
<path d="M56.1777 95.5515C51.7182 87.4969 53.3676 76.6772 59.9041 70.1253C66.4406 63.5733 77.2533 61.7099 85.7446 65.5569C92.3422 68.5624 97.3515 74.8739 98.1456 81.9668C98.5121 85.5132 97.9013 89.1198 96.8628 92.546C95.3355 97.6553 92.7698 102.644 88.3103 105.65C82.3236 109.677 77.9863 107.032 72.1218 105.109C65.4631 102.825 59.9652 102.464 56.1777 95.5515Z" fill="#EFC16F"/>
<path d="M64.3025 84.6718C64.9745 80.0434 69.3118 76.1964 74.0767 76.016C76.2148 75.9559 78.2918 76.4969 80.2467 77.2182C81.9572 77.8794 83.5454 78.6608 85.0726 79.6226C81.1019 79.6827 77.6198 82.6882 76.2148 86.3549C74.8097 89.9013 75.6039 93.2674 75.7261 96.8139C69.4339 96.4532 63.3251 91.404 64.3025 84.6718Z" fill="#FFD8BB"/>
<path d="M200.53 93.5682C202.058 94.9507 204.257 95.5518 206.212 95.0709C208.167 94.5299 209.816 92.7868 209.999 90.8032C210.121 89.4808 209.633 88.1584 209.144 86.9562C208.411 85.213 207.556 83.3496 206.028 82.2676C199.309 77.519 196.071 89.5409 200.53 93.5682Z" fill="#54413F"/>
<path d="M201.386 85.4532C200.53 86.1745 200.103 87.3166 200.286 88.3986C200.408 88.9395 200.653 89.4805 201.202 89.721C201.691 89.9614 202.363 89.721 202.791 89.3603C203.218 88.9997 203.463 88.4587 203.707 87.9778C204.196 86.8958 204.501 85.5133 203.585 84.7319C202.791 84.0707 201.325 84.5515 201.141 85.5734L201.386 85.4532Z" fill="white"/>
<path d="M110.058 106.071C111.585 107.453 113.784 108.054 115.739 107.574C117.694 107.033 119.343 105.289 119.527 103.306C119.649 101.983 119.16 100.661 118.671 99.4588C117.938 97.7157 117.083 95.8523 115.556 94.7703C108.836 89.9616 105.598 101.983 110.058 106.071Z" fill="#54413F"/>
<path d="M110.913 97.9559C110.058 98.6772 109.63 99.8193 109.814 100.901C109.936 101.442 110.18 101.983 110.73 102.224C111.219 102.464 111.891 102.224 112.318 101.863C112.746 101.502 112.99 100.961 113.235 100.48C113.723 99.3985 114.029 98.016 113.112 97.2346C112.318 96.5734 110.852 97.0542 110.669 98.0761L110.913 97.9559Z" fill="white"/>
<path d="M159.845 128.071C158.501 128.672 157.157 129.273 156.119 130.295C155.08 131.256 154.347 132.759 154.592 134.142C154.958 136.306 157.402 137.568 159.662 137.808C161.861 138.109 164.183 137.748 166.321 138.47C168.337 139.131 170.597 140.634 172.43 139.552C173.651 138.83 174.018 137.328 175.117 136.486C176.278 135.584 177.928 135.584 179.272 135.043C180.738 134.442 181.837 133.24 182.692 131.918C183.242 131.076 183.731 130.174 183.731 129.213C183.792 127.049 181.776 125.366 179.699 124.644C173.407 122.601 165.527 125.546 159.845 128.071Z" fill="#54413F"/>
<path d="M169.192 135.224C171.269 139.732 172.796 144.421 173.774 149.289C174.018 150.552 176.034 150.011 175.789 148.748C174.751 143.699 173.163 138.83 171.025 134.202C170.414 133 168.642 134.022 169.192 135.224Z" fill="#54413F"/>
<path d="M164.244 149.35C166.382 150.311 168.642 150.732 170.963 151.093C172.979 151.453 174.995 151.453 177.011 150.792C180.677 149.53 183.487 146.705 184.953 143.218C185.197 142.677 184.708 142.076 184.22 141.956C183.609 141.776 183.181 142.136 182.937 142.677C181.715 145.503 179.21 147.967 176.217 148.929C174.568 149.47 172.918 149.41 171.208 149.109C169.192 148.748 167.115 148.448 165.282 147.606C164.06 147.005 163.022 148.809 164.244 149.35Z" fill="#54413F"/>
<path d="M298.395 265.481C304.137 273.475 307.375 283.093 313.667 290.727C315.255 292.65 317.088 294.514 319.409 295.475C324.968 297.88 331.199 294.994 337.003 293.251C342.806 291.508 350.809 292.049 352.764 297.699C354.23 301.967 351.114 306.355 348.121 309.781C335.17 324.628 318.554 338.934 298.639 339.235C292.775 339.355 286.971 338.153 281.229 336.951C261.314 332.743 242.254 324.448 221.85 324.448C214.153 324.448 204.074 324.628 196.437 323.366C194.483 323.066 192.955 325.53 192.406 325.169C189.84 323.126 190.817 319.038 191.734 315.913C199.492 289.585 216.597 266.022 239.322 250.213C243.903 247.027 248.852 244.082 254.289 242.699C270.538 238.552 289.598 253.279 298.395 265.481Z" fill="#EFC16F"/>
<path d="M70.6557 339.776C82.0182 337.251 92.892 332.923 104.255 330.459C111.585 328.836 119.099 328.055 126.552 327.333C135.104 326.552 143.718 325.891 152.27 326.492C158.501 326.973 164.794 328.115 171.025 327.333C170.963 324.628 170.963 321.923 170.902 319.218C170.902 318.557 170.902 317.836 170.597 317.235C169.803 315.672 167.665 315.492 165.832 315.432C157.585 315.191 149.521 312.967 141.458 311.284C133.394 309.601 124.903 308.459 116.9 310.503C110.18 312.246 104.255 316.033 98.4511 319.759C89.0434 325.831 79.4525 331.902 68.8841 335.688C58.499 339.415 48.6637 339.836 37.9121 338.153C39.867 341.459 49.7022 341.519 53.1843 341.639C59.1099 341.82 64.9744 341.038 70.6557 339.776Z" fill="#E5AE65"/>
<path d="M274.937 338.754C262.78 336.23 251.173 331.902 239.016 329.437C231.197 327.814 223.622 328.776 215.619 328.115C206.456 327.333 197.659 326.852 188.496 327.454C181.837 327.934 174.262 328.415 167.604 327.574C167.665 324.869 167.665 320.842 167.726 318.197C167.726 317.536 167.726 316.814 168.092 316.213C168.948 314.65 171.269 314.47 173.163 314.41C182.021 314.169 190.573 311.945 199.248 310.262C207.861 308.579 216.963 307.437 225.516 309.481C232.663 311.224 239.016 315.011 245.186 318.738C255.266 324.809 265.468 330.88 276.769 334.667C287.826 338.393 298.395 338.814 309.879 337.131C307.802 340.437 297.234 340.497 293.508 340.618C287.277 340.738 281.045 340.016 274.937 338.754Z" fill="#E5AE65"/>
<path d="M2.84713 301.727C5.10741 300.524 7.79533 300.765 10.3 301.246C27.0994 304.311 41.944 316.453 47.9918 332.202C48.7248 334.126 49.2746 336.41 48.0528 338.093C47.1365 339.355 45.426 339.776 43.8988 339.956C33.4526 341.098 23.7395 334.727 16.1645 327.634C12.1937 323.907 -5.82748 306.295 2.84713 301.727Z" fill="#FFD8BB"/>
<path d="M141.396 232.541C140.663 224.847 143.168 217.153 147.261 210.3C143.718 212.464 140.908 215.53 139.258 219.016C136.815 216.492 135.104 212.344 132.478 210.3C131.195 212.945 134.188 218.956 135.349 221.721C136.143 223.645 137.059 225.568 138.159 227.431C138.831 228.694 141.274 231.158 141.396 232.541Z" fill="#F7E9E2"/>
<path d="M156.302 261.514C155.569 253.82 158.074 246.126 162.167 239.273C158.624 241.437 155.814 244.503 154.164 247.989C151.721 245.464 150.01 241.317 147.383 239.273C146.1 241.918 149.094 247.929 150.254 250.694C151.049 252.617 151.965 254.541 153.065 256.404C153.736 257.667 156.18 260.071 156.302 261.514Z" fill="#F7E9E2"/>
<path d="M188.985 250.333C188.252 242.639 190.756 234.945 194.849 228.093C191.306 230.257 188.496 233.322 186.847 236.809C184.403 234.284 182.693 230.136 180.066 228.093C178.783 230.738 181.776 236.749 182.937 239.514C183.731 241.437 184.647 243.361 185.747 245.224C186.419 246.546 188.863 248.951 188.985 250.333Z" fill="#F7E9E2"/>
<path d="M173.529 286.098C172.918 279.787 174.995 273.475 178.355 267.885C175.423 269.688 173.163 272.153 171.758 274.978C169.742 272.874 168.398 269.508 166.199 267.825C165.16 269.989 167.604 274.918 168.52 277.202C169.192 278.765 169.925 280.328 170.78 281.83C171.452 282.973 173.468 284.956 173.529 286.098Z" fill="#F7E9E2"/>
<path d="M135.654 278.585C135.043 272.273 137.12 265.962 140.48 260.371C137.609 262.175 135.288 264.639 133.883 267.464C131.867 265.36 130.523 261.994 128.324 260.311C127.285 262.475 129.729 267.404 130.645 269.688C131.317 271.251 132.05 272.814 132.905 274.317C133.577 275.459 135.593 277.442 135.654 278.585Z" fill="#F7E9E2"/>
<path d="M202.546 271.191C201.935 264.88 204.013 258.568 207.372 252.978C204.44 254.781 202.18 257.246 200.775 260.071C198.759 257.967 197.415 254.601 195.216 252.918C194.177 255.082 196.621 260.011 197.537 262.295C198.209 263.858 198.942 265.421 199.797 266.923C200.408 268.066 202.424 270.049 202.546 271.191Z" fill="#F7E9E2"/>
<path d="M41.3331 189.382C41.6996 189.503 62.4698 172.552 62.4698 172.552C62.4698 172.552 91.6092 174.716 113.601 184.453C135.593 194.191 167.542 213.787 167.542 213.787C167.542 213.787 184.525 196.295 207.556 189.983C230.586 183.672 273.409 172.552 273.409 172.552L294.057 186.918C294.057 186.918 195.766 230.197 196.01 230.377C196.193 230.557 136.387 248.41 136.387 248.41L41.3331 189.382Z" fill="#F7E9E2"/>
<path d="M33.697 191.727L37.9732 188.36L150.987 220.639C150.987 220.639 157.952 227.131 167.97 227.612C179.455 228.153 184.342 220.459 184.342 220.459L297.6 185.595L300.594 188.421L201.508 229.596L137.304 240.415L33.697 191.727Z" fill="#685E61"/>
<path d="M33.697 191.727L149.827 224.667L160.334 322.224L61.6145 278.585L33.697 191.727Z" fill="#231F20"/>
<path d="M300.655 188.36L185.197 224.666L178.416 321.983L275.609 275.819L300.655 188.36Z" fill="#231F20"/>
<path d="M149.827 224.667C149.827 224.667 155.997 230.798 166.626 230.557C179.577 230.257 185.197 224.667 185.197 224.667L178.355 321.923C178.355 321.923 176.828 324.688 170.291 324.448C163.755 324.208 160.273 322.164 160.273 322.164L149.827 224.667Z" fill="#4C4446"/>
<path d="M155.569 219.557H179.699C179.699 219.557 176.278 225.027 168.092 225.448C161.373 225.748 155.569 219.557 155.569 219.557Z" fill="#685E61"/>
<path d="M66.6238 177.42C67.3569 177.601 99.9172 182.83 121.115 191.726C142.313 200.623 160.334 216.371 159.54 216.011C158.746 215.65 135.043 199.541 114.823 191.726C102.666 186.978 57.5827 180.185 57.5827 180.185L66.6238 177.42Z" fill="white"/>
<path d="M171.88 217.333C171.513 216.852 183.792 201.404 199.736 196.776C215.681 192.087 270.538 176.579 270.538 176.579L276.219 179.164C276.219 179.164 209.694 194.912 201.141 197.797C183.609 203.688 171.88 217.333 171.88 217.333Z" fill="white"/>
<path d="M176.767 216.071C176.767 216.071 191.184 203.388 214.886 198.339C238.65 193.289 284.344 183.371 284.344 183.371L287.826 185.595C287.826 185.595 225.638 198.098 216.413 200.082C195.949 204.47 176.767 216.071 176.767 216.071Z" fill="white"/>
<path d="M53.001 185.535C53.001 185.535 93.0752 190.224 111.341 196.956C129.606 203.688 156.974 217.333 156.974 217.333C156.974 217.333 123.07 202.727 106.332 197.798C85.5002 191.727 47.1365 187.699 47.1365 187.699L53.001 185.535Z" fill="white"/>
<path d="M55.9333 256.224C57.3383 256.765 58.9266 257.186 60.3927 256.885C61.92 256.585 63.325 255.503 63.5694 254.06C63.8137 252.617 62.9585 251.235 62.1643 250.033C63.8748 248.71 64.1803 246.186 63.3861 244.202C62.5919 242.218 60.8815 240.716 59.1099 239.513C61.4313 237.049 60.0873 232.781 57.4605 230.617C54.8337 228.453 51.4127 227.552 48.3582 226.049C45.3038 224.486 42.3716 221.721 42.6159 218.355C41.8218 231.339 41.272 250.453 55.9333 256.224Z" fill="#EFC16F"/>
<path d="M280.923 248.35C279.518 248.891 277.93 249.311 276.464 249.011C274.937 248.71 273.532 247.628 273.287 246.186C273.043 244.743 273.898 243.361 274.692 242.158C272.982 240.836 272.676 238.311 273.47 236.328C274.265 234.344 275.975 232.841 277.747 231.639C275.425 229.175 276.769 224.907 279.396 222.743C282.023 220.579 285.444 219.677 288.498 218.175C291.553 216.612 294.485 213.847 294.241 210.481C295.035 223.464 295.585 242.639 280.923 248.35Z" fill="#EFC16F"/>
<path d="M350.259 300.585C347.999 299.443 345.311 299.683 342.806 300.224C326.007 303.53 311.407 315.913 305.603 331.721C304.87 333.645 304.381 335.989 305.603 337.612C306.58 338.814 308.23 339.235 309.818 339.415C320.264 340.437 329.916 333.885 337.369 326.672C341.218 322.945 358.995 305.093 350.259 300.585Z" fill="#FFD8BB"/>
<path d="M54.7726 258.388C56.1166 259.229 57.5827 259.891 59.171 260.071C60.7593 260.251 62.4698 259.831 63.6305 258.749C65.6464 256.885 65.341 253.579 64.1192 251.175C66.3795 247.328 65.0966 241.858 61.3702 239.333C62.4698 235.486 59.9652 230.978 56.0555 229.776C57.0329 231.459 57.766 233.322 57.5827 235.246C57.3995 237.169 56.0555 239.033 54.1007 239.393C55.2003 240.535 56.3609 241.678 57.1551 243C57.9492 244.382 58.3769 246.005 57.9492 247.508C57.5216 249.011 56.1166 250.333 54.5283 250.333C54.8948 250.574 54.8337 251.175 54.5283 251.475C54.2228 251.776 53.7341 251.896 53.3065 251.896C50.7408 252.076 48.2972 250.453 46.77 248.41C45.4871 246.667 44.8152 244.683 44.1432 242.699C44.5708 248.77 49.8244 255.382 54.7726 258.388Z" fill="#E5AE65"/>
<path d="M281.778 250.754C280.435 251.595 278.968 252.257 277.38 252.437C275.792 252.617 274.081 252.197 272.921 251.115C270.905 249.251 271.21 245.945 272.432 243.541C270.172 239.694 271.455 234.224 275.181 231.699C274.081 227.852 276.586 223.344 280.496 222.142C279.518 223.825 278.785 225.688 278.968 227.612C279.152 229.535 280.496 231.399 282.451 231.759C281.351 232.901 280.19 234.043 279.396 235.366C278.602 236.748 278.174 238.371 278.602 239.874C279.03 241.377 280.435 242.699 282.023 242.699C281.656 242.94 281.717 243.541 282.023 243.841C282.328 244.142 282.817 244.262 283.245 244.262C285.81 244.442 288.254 242.819 289.781 240.776C291.064 239.033 291.736 237.049 292.408 235.065C291.98 241.136 286.727 247.748 281.778 250.754Z" fill="#E5AE65"/>
<path d="M148.116 39.4095C149.705 39.4095 149.705 37.0051 148.116 37.0051C146.589 37.0051 146.528 39.4095 148.116 39.4095Z" fill="#EFC16F"/>
<path d="M149.277 38.2074C148.788 34.1199 148.666 30.0325 148.91 26.0052C148.971 25.344 148.299 24.803 147.689 24.803C147.017 24.803 146.528 25.344 146.467 26.0052C146.222 30.0926 146.284 34.18 146.833 38.2074C146.894 38.8686 147.322 39.4096 148.055 39.4096C148.605 39.4697 149.338 38.8686 149.277 38.2074Z" fill="#EFC16F"/>
<path d="M162.655 38.3878C164.244 38.3878 164.244 35.9834 162.655 35.9834C161.067 35.9834 161.067 38.3878 162.655 38.3878Z" fill="#EFC16F"/>
<path d="M163.816 36.8849C163.144 34.24 163.144 31.475 163.816 28.8903C163.999 28.2291 163.633 27.5679 162.961 27.3876C162.35 27.2072 161.617 27.5679 161.434 28.2291C160.639 31.2947 160.639 34.4805 161.434 37.546C161.617 38.2073 162.289 38.5679 162.961 38.3876C163.572 38.2073 163.938 37.4859 163.816 36.8849Z" fill="#EFC16F"/>
<path d="M158.99 20.5953C160.578 20.5953 160.578 18.1909 158.99 18.1909C157.402 18.1909 157.402 20.5953 158.99 20.5953Z" fill="#EFC16F"/>
<path d="M160.09 18.6717C160.212 17.71 160.456 16.8083 160.762 15.9067C160.884 15.4859 161.067 15.005 161.25 14.5843C161.25 14.5242 161.311 14.4641 161.311 14.4641C161.25 14.5843 161.25 14.5843 161.311 14.4641C161.373 14.3438 161.434 14.2236 161.434 14.1635C161.556 13.9231 161.678 13.6826 161.739 13.5023C162.044 12.9613 161.922 12.1799 161.311 11.8193C160.762 11.5187 159.967 11.6389 159.601 12.24C158.623 14.0433 158.013 16.0269 157.707 18.0706C157.646 18.4313 157.646 18.6717 157.829 19.0324C157.952 19.2728 158.257 19.5133 158.562 19.5734C159.173 19.6335 159.967 19.3329 160.09 18.6717Z" fill="#EFC16F"/>
<path d="M181.104 40.7919C182.021 38.9886 182.998 37.1252 183.914 35.3219C184.22 34.7809 184.098 33.9995 183.487 33.6388C182.937 33.3383 182.143 33.4585 181.776 34.0596C180.86 35.8629 179.882 37.7263 178.966 39.5296C178.661 40.0705 178.783 40.852 179.394 41.2126C180.005 41.5132 180.799 41.3929 181.104 40.7919Z" fill="#EFC16F"/>
<path d="M177.805 20.896C177.744 20.4151 177.744 19.814 177.867 19.3331C177.867 19.4534 177.867 19.5135 177.867 19.3933C177.867 19.3331 177.867 19.273 177.928 19.2129C177.928 19.0927 177.989 18.9725 177.989 18.8523C178.05 18.6118 178.111 18.3113 178.233 18.0708C178.294 17.9506 178.355 17.8304 178.355 17.7102C178.416 17.5299 178.294 17.8905 178.355 17.7102C178.355 17.6501 178.416 17.59 178.416 17.5299C178.539 17.2894 178.661 17.049 178.783 16.8687C178.905 16.6282 179.088 16.4479 179.211 16.2075C179.333 16.0872 179.088 16.3277 179.211 16.2075C179.272 16.1473 179.272 16.0872 179.333 16.0872C179.455 15.967 179.516 15.8468 179.638 15.7867C180.066 15.3058 180.127 14.5244 179.638 14.1036C179.149 13.6829 178.355 13.6228 177.928 14.1036C176.156 15.967 175.24 18.4916 175.362 20.9561C175.423 21.5572 175.912 22.2184 176.584 22.1583C177.195 22.0982 177.867 21.5572 177.805 20.896Z" fill="#EFC16F"/>
<path d="M196.743 37.7866C198.026 35.9833 199.309 34.1199 200.592 32.3166C200.958 31.7756 200.714 30.9341 200.164 30.6336C199.553 30.333 198.881 30.5133 198.453 31.0543C197.171 32.8576 195.888 34.721 194.605 36.5243C194.238 37.0653 194.483 37.9068 195.032 38.2073C195.704 38.568 196.376 38.3276 196.743 37.7866Z" fill="#EFC16F"/>
<path d="M208.655 18.4313C208.777 18.251 208.9 18.0707 209.083 17.8904C209.144 17.8302 209.266 17.6499 209.083 17.8904C209.144 17.8302 209.144 17.7701 209.205 17.7701C209.266 17.71 209.327 17.5898 209.449 17.5297C209.755 17.169 210.06 16.8084 210.427 16.5078C210.61 16.3275 210.793 16.2073 210.977 16.027C211.038 15.9669 211.16 15.9067 211.221 15.7865C211.404 15.6062 211.038 15.9067 211.16 15.8466C211.221 15.7865 211.282 15.7865 211.282 15.7264C211.649 15.4259 212.076 15.1854 212.504 14.945C213.054 14.6444 213.298 13.863 212.932 13.2619C212.565 12.7209 211.832 12.4805 211.221 12.8412C209.327 13.9231 207.739 15.4259 206.517 17.2292C206.151 17.7701 206.395 18.6117 206.945 18.9122C207.556 19.2128 208.289 18.9723 208.655 18.4313Z" fill="#EFC16F"/>
<path d="M221.362 28.3495C222.889 26.967 224.477 25.6445 226.005 24.262C226.493 23.8413 226.493 22.9997 226.005 22.579C225.516 22.0981 224.783 22.1582 224.294 22.579C222.767 23.9615 221.178 25.2839 219.651 26.6664C219.163 27.0872 219.163 27.9287 219.651 28.3495C220.14 28.7702 220.873 28.7702 221.362 28.3495Z" fill="#EFC16F"/>
<path d="M232.48 14.7644C234.007 13.7426 235.595 12.7207 237.184 11.759C237.733 11.3983 237.978 10.677 237.611 10.0759C237.245 9.53491 236.512 9.29448 235.901 9.65513C234.374 10.677 232.785 11.6989 231.197 12.6606C230.647 13.0213 230.403 13.7426 230.769 14.3437C231.197 14.8245 231.93 15.1251 232.48 14.7644Z" fill="#EFC16F"/>
<path d="M248.607 32.6772C251.173 30.7537 254.044 29.1909 257.038 28.1089C257.648 27.8685 258.076 27.2674 257.893 26.6062C257.71 26.0051 257.038 25.5242 256.366 25.7646C253.128 26.9067 250.073 28.4696 247.324 30.5734C246.775 30.9942 246.53 31.5953 246.897 32.2565C247.263 32.7373 248.119 33.098 248.607 32.6772Z" fill="#EFC16F"/>
<path d="M252.7 55.5185C255.449 54.1961 258.259 52.8136 261.008 51.4912C261.619 51.1907 261.741 50.3491 261.436 49.8081C261.07 49.207 260.336 49.0868 259.726 49.3874C256.977 50.7098 254.166 52.0923 251.417 53.4147C250.807 53.7152 250.684 54.5568 250.99 55.0978C251.417 55.6989 252.151 55.8191 252.7 55.5185Z" fill="#EFC16F"/>
<path d="M249.34 80.1035C251.845 79.4423 254.166 79.1417 256.793 79.0816C257.465 79.0816 258.076 78.5406 258.015 77.8794C258.015 77.2182 257.465 76.6772 256.793 76.6772C254.044 76.6772 251.356 77.0379 248.729 77.7592C248.119 77.9395 247.691 78.6007 247.874 79.2619C248.057 79.863 248.668 80.2838 249.34 80.1035Z" fill="#EFC16F"/>
<path d="M269.5 61.7702C270.049 61.65 270.599 61.5298 271.149 61.4697C271.149 61.4697 271.516 61.4096 271.332 61.4697C271.455 61.4697 271.638 61.4096 271.76 61.4096C272.065 61.4096 272.31 61.3495 272.615 61.3495C273.715 61.2894 274.814 61.2894 275.914 61.4096C276.586 61.4697 277.197 60.8085 277.136 60.2074C277.075 59.4861 276.586 59.0653 275.914 59.0052C273.532 58.7648 271.149 59.0052 268.889 59.4861C268.278 59.6063 267.85 60.3877 268.034 60.9888C268.217 61.5298 268.828 61.8905 269.5 61.7702Z" fill="#EFC16F"/>
<path d="M271.638 90.4422C272.86 90.0815 273.898 90.0214 275.242 90.0815C275.425 90.0815 275.547 90.0815 275.731 90.1416C275.547 90.1416 275.975 90.2017 275.975 90.2017C276.28 90.2618 276.586 90.3219 276.891 90.3821C277.197 90.4422 277.502 90.5624 277.808 90.6826C277.93 90.7427 278.113 90.8028 278.235 90.8629C278.174 90.8028 278.174 90.8629 278.296 90.9231C278.358 90.9832 278.48 90.9832 278.541 91.0433C279.091 91.3438 279.885 91.2236 280.251 90.6225C280.557 90.0815 280.435 89.24 279.824 88.9394C277.075 87.617 273.959 87.3165 271.027 88.158C270.416 88.3383 269.988 88.9996 270.172 89.6608C270.294 90.2017 270.966 90.6225 271.638 90.4422Z" fill="#EFC16F"/>
<path d="M253.983 109.196C256.182 110.158 258.504 110.819 260.947 111.06C261.619 111.12 262.23 110.459 262.169 109.858C262.108 109.136 261.619 108.716 260.947 108.655C260.764 108.655 260.642 108.595 260.459 108.595C260.092 108.535 260.703 108.655 260.336 108.595C260.092 108.535 259.787 108.535 259.542 108.475C259.054 108.355 258.504 108.295 258.015 108.114C257.526 107.994 257.038 107.814 256.549 107.634C256.305 107.574 256.06 107.453 255.816 107.333C255.816 107.333 255.449 107.213 255.694 107.273C255.571 107.213 255.388 107.153 255.266 107.093C254.655 106.852 253.922 106.912 253.556 107.513C253.25 108.054 253.372 108.896 253.983 109.196Z" fill="#EFC16F"/>
<path d="M278.174 119.235C278.724 119.355 279.213 119.535 279.702 119.716C279.579 119.656 279.518 119.656 279.396 119.596C279.885 119.776 280.312 120.016 280.74 120.257C280.862 120.317 280.923 120.377 281.045 120.437C281.107 120.497 281.168 120.497 281.229 120.557C281.29 120.617 281.473 120.798 281.168 120.557C281.351 120.738 281.534 120.858 281.717 121.038C282.206 121.459 283 121.519 283.428 121.038C283.856 120.557 283.917 119.776 283.428 119.355C282.145 118.153 280.496 117.311 278.785 116.951C278.174 116.831 277.441 117.131 277.258 117.792C277.197 118.393 277.502 119.115 278.174 119.235Z" fill="#EFC16F"/>
<path d="M251.479 131.918C253.189 132.759 254.899 133.601 256.671 134.442C257.221 134.743 258.015 134.623 258.382 134.022C258.687 133.481 258.565 132.639 257.954 132.338C256.243 131.497 254.533 130.655 252.761 129.814C252.212 129.513 251.417 129.634 251.051 130.235C250.745 130.836 250.868 131.617 251.479 131.918Z" fill="#EFC16F"/>
<path d="M257.16 151.213C258.87 152.235 260.581 153.256 262.352 154.278C262.902 154.579 263.757 154.399 264.063 153.858C264.368 153.256 264.185 152.535 263.635 152.174C261.925 151.153 260.214 150.131 258.443 149.109C257.893 148.808 257.038 148.989 256.732 149.53C256.427 150.191 256.61 150.912 257.16 151.213Z" fill="#EFC16F"/>
<path d="M241.216 160.47C242.254 161.973 243.293 163.535 244.331 165.038C244.698 165.579 245.431 165.82 246.042 165.459C246.591 165.098 246.836 164.377 246.469 163.776C245.431 162.273 244.392 160.71 243.354 159.207C242.987 158.666 242.254 158.426 241.643 158.787C241.093 159.147 240.849 159.929 241.216 160.47Z" fill="#EFC16F"/>
<path d="M163.144 193.65C164.732 193.65 164.732 191.246 163.144 191.246C161.556 191.246 161.556 193.65 163.144 193.65Z" fill="#EFC16F"/>
<path d="M161.861 192.809C162.228 194.852 162.533 196.896 162.9 198.94C163.022 199.541 163.816 199.962 164.427 199.781C165.099 199.541 165.404 198.94 165.282 198.278C164.916 196.235 164.61 194.191 164.244 192.147C164.121 191.546 163.327 191.125 162.716 191.306C162.044 191.486 161.739 192.087 161.861 192.809Z" fill="#EFC16F"/>
<path d="M179.027 189.563C178.905 190.404 178.905 191.246 179.149 192.087C179.394 192.929 179.821 193.65 180.371 194.311C180.554 194.552 180.982 194.672 181.226 194.672C181.532 194.672 181.898 194.552 182.082 194.311C182.326 194.071 182.448 193.77 182.448 193.47C182.448 193.109 182.326 192.869 182.082 192.628C182.021 192.568 181.959 192.508 181.959 192.448C182.021 192.508 182.082 192.628 182.143 192.688C181.898 192.388 181.715 192.027 181.593 191.726C181.654 191.847 181.654 191.907 181.715 192.027C181.532 191.666 181.471 191.246 181.41 190.885C181.41 191.005 181.41 191.125 181.471 191.185C181.41 190.825 181.41 190.404 181.471 190.043C181.471 190.164 181.471 190.284 181.41 190.344C181.41 190.284 181.41 190.284 181.41 190.224C181.471 189.863 181.471 189.623 181.287 189.262C181.165 189.022 180.86 188.781 180.554 188.721C180.249 188.661 179.882 188.661 179.577 188.841C179.333 189.022 179.088 189.262 179.027 189.563Z" fill="#EFC16F"/>
<path d="M213.176 180.546C213.359 181.027 213.542 181.568 213.664 182.049C213.787 182.35 213.97 182.59 214.214 182.77C214.336 182.83 214.52 182.891 214.642 182.891C214.825 182.951 214.947 182.891 215.131 182.891C215.436 182.77 215.742 182.59 215.864 182.35C215.986 182.049 216.108 181.748 215.986 181.388C215.803 180.907 215.619 180.366 215.497 179.885C215.375 179.585 215.192 179.344 214.947 179.164C214.825 179.104 214.642 179.044 214.52 179.044C214.336 178.983 214.214 179.044 214.031 179.044C213.726 179.164 213.42 179.344 213.298 179.585C213.115 179.885 213.054 180.246 213.176 180.546Z" fill="#EFC16F"/>
<path d="M55.1391 165.519C58.0714 164.137 61.0036 162.754 63.9359 161.432C64.5468 161.131 64.669 160.29 64.3635 159.749C63.997 159.147 63.2639 159.027 62.653 159.328C59.7208 160.71 56.7885 162.093 53.8562 163.415C53.2454 163.716 53.1232 164.557 53.4287 165.098C53.7952 165.699 54.5282 165.82 55.1391 165.519Z" fill="#EFC16F"/>
<path d="M78.7805 168.945C80.6743 167.202 82.2626 165.218 83.4843 162.994C83.7898 162.453 83.6676 161.672 83.0567 161.311C82.5069 161.011 81.7128 161.131 81.3462 161.732C81.0408 162.273 80.7353 162.754 80.4299 163.295C80.2466 163.535 80.0634 163.776 79.9412 164.016C79.8801 164.136 79.7579 164.257 79.6969 164.377C79.6358 164.437 79.6357 164.497 79.5746 164.557C79.5135 164.617 79.3914 164.798 79.5746 164.617C78.8416 165.579 77.9864 166.421 77.1311 167.262C76.6424 167.683 76.6424 168.524 77.1311 168.945C77.4977 169.426 78.2307 169.426 78.7805 168.945Z" fill="#EFC16F"/>
<path d="M64.3025 147.606C64.669 147.246 65.0355 146.885 65.4021 146.584C65.5853 146.404 65.7686 146.224 66.0129 146.103C66.1351 146.043 66.1962 145.923 66.3184 145.863C66.3795 145.803 66.4406 145.803 66.4406 145.743C66.4406 145.743 66.6849 145.562 66.5016 145.683C66.3795 145.803 66.5017 145.683 66.5628 145.623C66.6238 145.562 66.6849 145.562 66.6849 145.502C66.8071 145.442 66.8682 145.322 66.9903 145.262C67.2347 145.082 67.418 144.961 67.6623 144.841C68.09 144.541 68.5787 144.3 69.0063 144.06C69.5561 143.759 69.8004 142.918 69.4339 142.377C69.0674 141.836 68.3343 141.595 67.7234 141.956C65.7686 143.038 63.997 144.36 62.4698 145.923C62.0422 146.404 61.9811 147.185 62.4698 147.606C63.0196 148.027 63.8138 148.087 64.3025 147.606Z" fill="#EFC16F"/>
<path d="M45.1817 126.808C49.4579 126.688 53.7341 126.207 57.9492 125.426C58.6212 125.306 58.9878 124.524 58.8045 123.923C58.6212 123.262 57.9493 122.961 57.2773 123.082C53.3065 123.863 49.2747 124.284 45.1817 124.404C43.5934 124.404 43.5934 126.808 45.1817 126.808Z" fill="#EFC16F"/>
<path d="M65.7075 123.923C66.3795 123.743 67.1125 123.562 67.7845 123.442C68.09 123.382 68.3954 123.142 68.5175 122.901C68.7008 122.661 68.7619 122.24 68.6397 121.939C68.5176 121.639 68.3343 121.338 68.09 121.218C67.7845 121.038 67.479 121.038 67.1125 121.098C66.4405 121.278 65.7075 121.459 65.0355 121.579C64.7301 121.639 64.4246 121.879 64.3024 122.12C64.1192 122.36 64.0581 122.781 64.1803 123.082C64.3024 123.382 64.4857 123.683 64.7301 123.803C65.0355 123.923 65.402 123.983 65.7075 123.923Z" fill="#EFC16F"/>
<path d="M35.5907 109.437C39.195 110.459 43.0436 110.399 46.5867 109.197C47.1976 108.956 47.6252 108.355 47.442 107.694C47.2587 107.093 46.5867 106.612 45.9147 106.852C42.7992 107.934 39.4393 107.994 36.2627 107.093C34.7355 106.672 34.1246 109.016 35.5907 109.437Z" fill="#EFC16F"/>
<path d="M46.77 101.503C47.9918 101.503 49.2136 101.503 50.3743 101.503C51.0462 101.503 51.6571 100.962 51.596 100.3C51.596 99.6391 51.0462 99.0981 50.3743 99.0981C49.1525 99.0981 47.9307 99.0981 46.77 99.0981C46.098 99.0981 45.4871 99.6391 45.5482 100.3C45.5482 100.962 46.0369 101.503 46.77 101.503Z" fill="#EFC16F"/>
<path d="M42.2494 83.3494C42.9825 83.9505 43.8377 84.3713 44.7541 84.6117C45.6704 84.8522 46.6478 84.8522 47.5641 84.6718C47.8696 84.6117 48.175 84.3713 48.2972 84.1308C48.4805 83.8904 48.5416 83.4696 48.4194 83.1691C48.2972 82.8685 48.1139 82.568 47.8696 82.4478C47.5641 82.2675 47.2587 82.2675 46.8922 82.3276C46.8311 82.3276 46.7089 82.3276 46.6478 82.3877C46.77 82.3877 46.8922 82.3877 46.9533 82.3276C46.5256 82.3877 46.0369 82.3877 45.6093 82.3276C45.7315 82.3276 45.8537 82.3276 45.9147 82.3877C45.426 82.3276 44.9984 82.2073 44.5708 82.027C44.693 82.0871 44.7541 82.0871 44.8763 82.1472C44.693 82.0871 44.5097 81.9669 44.3264 81.8467C44.2654 81.7866 44.1432 81.7265 44.0821 81.6664C44.021 81.6063 43.7156 81.3658 44.021 81.6063C43.7766 81.4259 43.5323 81.2456 43.1657 81.2456C42.8603 81.2456 42.4938 81.3658 42.3105 81.6063C42.0662 81.8467 41.944 82.1472 41.944 82.4478C41.944 82.8084 42.0051 83.1691 42.2494 83.3494Z" fill="#EFC16F"/>
<path d="M43.8988 51.732C45.9758 53.4752 48.2972 54.978 50.8018 56.12C51.4127 56.3605 52.1458 56.3004 52.5123 55.6993C52.8178 55.1583 52.6956 54.3168 52.0847 54.0162C50.924 53.4752 49.7633 52.8741 48.6637 52.1528C48.1139 51.7922 47.6252 51.4916 47.1365 51.0708C47.0143 50.9506 46.8921 50.8905 46.77 50.7703C46.5867 50.6501 46.77 50.7703 46.7089 50.7102C46.6478 50.6501 46.5867 50.59 46.5256 50.59C46.2812 50.4096 45.9758 50.1692 45.7315 49.9889C45.2427 49.5681 44.4486 49.508 44.021 49.9889C43.4712 50.4698 43.349 51.3113 43.8988 51.732Z" fill="#EFC16F"/>
<path d="M75.7261 49.6281C77.3144 49.6281 77.3144 47.2237 75.7261 47.2237C74.1378 47.1636 74.1378 49.6281 75.7261 49.6281Z" fill="#EFC16F"/>
<path d="M75.8482 49.7483C79.0859 52.6335 83.0568 54.6171 87.2719 55.5789C87.9439 55.6991 88.6158 55.3986 88.7991 54.7374C88.9824 54.1363 88.6158 53.415 87.9438 53.2346C84.0953 52.3931 80.5521 50.5898 77.6198 48.0051C76.4591 47.0434 74.6875 48.7264 75.8482 49.7483Z" fill="#EFC16F"/>
<path d="M92.5866 32.3165C93.8694 34.3001 95.0912 36.3438 96.3741 38.3274C96.7406 38.8684 97.4737 39.1088 98.0846 38.7482C98.6344 38.3875 98.8787 37.6662 98.5122 37.0651C97.2293 35.0815 96.0076 33.0378 94.7247 31.0542C94.3582 30.5132 93.6251 30.2727 93.0142 30.6334C92.4644 30.9941 92.2201 31.7154 92.5866 32.3165Z" fill="#EFC16F"/>
<path d="M103.277 55.8794C103.766 56.3603 104.316 56.9013 104.804 57.3821C105.049 57.6226 105.354 57.7428 105.66 57.7428C105.843 57.7428 105.965 57.7428 106.148 57.6226C106.27 57.5625 106.454 57.5024 106.515 57.3821C106.759 57.1417 106.881 56.8412 106.881 56.5406C106.881 56.2401 106.759 55.9395 106.515 55.6991C106.026 55.2182 105.476 54.6772 104.988 54.1964C104.743 53.9559 104.438 53.8357 104.132 53.8357C103.949 53.8357 103.827 53.8357 103.644 53.9559C103.521 54.016 103.338 54.0761 103.277 54.1964C103.033 54.4368 102.911 54.7373 102.911 55.0379C102.972 55.3384 103.094 55.639 103.277 55.8794Z" fill="#EFC16F"/>
<path d="M117.999 41.5734C118.366 43.3165 119.221 44.8794 120.382 46.2018C120.81 46.6827 121.665 46.6827 122.092 46.2018C122.581 45.6608 122.52 44.9996 122.092 44.5187C122.031 44.4586 121.97 44.3384 121.848 44.2783C121.665 44.098 122.031 44.5187 121.848 44.2783C121.848 44.2182 121.787 44.2182 121.787 44.1581C121.665 43.9777 121.482 43.7373 121.359 43.557C121.115 43.1362 120.871 42.7154 120.687 42.2947C120.748 42.4149 120.748 42.475 120.81 42.5952C120.565 42.0542 120.443 41.5133 120.321 40.9723C120.199 40.3712 119.405 39.9504 118.794 40.1307C118.183 40.3111 117.877 40.9122 117.999 41.5734Z" fill="#EFC16F"/>
<path d="M110.058 23.781C110.73 24.4422 111.463 25.1635 112.135 25.8247C112.379 26.0652 112.685 26.1854 112.99 26.1854C113.296 26.1854 113.662 26.0652 113.845 25.8247C114.09 25.5843 114.212 25.2838 114.212 24.9832C114.212 24.6827 114.09 24.3821 113.845 24.1417C113.173 23.4805 112.44 22.7592 111.768 22.098C111.524 21.8575 111.219 21.7373 110.913 21.7373C110.608 21.7373 110.241 21.8575 110.058 22.098C109.814 22.3384 109.691 22.6389 109.691 22.9395C109.691 23.24 109.814 23.5406 110.058 23.781Z" fill="#EFC16F"/>
<path d="M128.201 23.4805C128.812 28.0488 129.667 32.557 130.828 37.0652C131.195 38.568 133.577 37.9068 133.211 36.404C132.111 32.1363 131.256 27.8084 130.706 23.4805C130.645 22.8193 130.217 22.2783 129.484 22.2783C128.812 22.2783 128.14 22.8193 128.201 23.4805Z" fill="#EFC16F"/>
<path d="M334.987 167.984C338.591 165.339 343.173 164.257 347.632 163.776C352.092 163.295 356.673 163.295 361.072 162.453C366.081 161.492 370.907 159.328 375 156.262C372.373 160.951 371.823 166.481 370.357 171.71C368.647 177.841 365.592 183.792 360.705 188C355.818 192.148 348.854 194.311 342.623 192.568C332.299 189.743 325.09 175.257 334.987 167.984Z" fill="#EAA16A"/>
<path opacity="0.19" d="M89.41 96.3328C90.1431 99.158 92.5866 102.224 95.5189 101.562C97.1072 101.202 98.2679 99.8793 99.1842 98.5569C102.178 94.5295 104.804 90.2017 106.942 85.6935C108.286 82.8082 109.447 79.8629 111.158 77.1579C115.617 70.1251 123.192 65.7973 130.217 61.2891C130.828 60.8683 131.5 60.3874 131.622 59.6661C131.867 57.9831 129.301 57.5623 127.652 57.9831C117.511 60.5678 108.775 66.8792 100.345 73.0705C93.0753 78.4804 86.9054 86.6552 89.41 96.3328Z" fill="white"/>
</svg>
