<svg width="333" height="60" viewBox="0 0 333 60" fill="none" xmlns="http://www.w3.org/2000/svg">
<g filter="url(#filter0_d_1511_14826)">
<path d="M42.2986 3.6517C42.2986 3.6517 0.599183 -1.44384 0.999693 30.667C1.44654 65.9243 43.1525 57.9267 43.1525 57.9267L42.2456 40.9107C42.2456 40.9107 16.2257 52.6672 16.186 30.3143C16.1496 14.1088 42.5567 19.8479 42.5567 19.8479L42.2986 3.6517Z" fill="#FF5484"/>
</g>
<g filter="url(#filter1_d_1511_14826)">
<path d="M89.7574 23.99L99.6146 22.3781L101.157 31.904C101.157 31.904 104.881 17.0876 117.998 18.9656C131.116 20.8435 129.616 36.0219 129.616 36.0219L118.816 39.5457C118.816 39.5457 117.522 28.9308 110.511 32.7084C103.501 36.4859 111.938 55.5315 111.938 55.5315L96.0696 56.5494C96.0696 56.5494 96.6091 44.0689 89.7574 23.99Z" fill="#33E257"/>
</g>
<g filter="url(#filter2_d_1511_14826)">
<path d="M269.279 22.8674L281.771 23.1459L285.643 55.1423L272.261 54.8453L269.279 22.8674Z" fill="#33E257"/>
</g>
<g filter="url(#filter3_d_1511_14826)">
<path d="M278.669 2.52521C272.443 0.551343 259.802 7.02054 266.607 13.5021C271.261 17.9448 278.507 17.2797 281.741 11.8624C284.005 8.08481 283.458 4.04737 278.669 2.52521Z" fill="#33E257"/>
</g>
<g filter="url(#filter4_d_1511_14826)">
<path d="M258.789 12.6757L258.498 24.1229C258.498 24.1229 238.82 16.9359 238.803 26.369C238.787 35.8021 259.325 26.6784 262.003 35.4803C264.681 44.2823 262.539 65.0264 230.518 53.8886L230.098 44.1709C230.098 44.1709 250.249 50.2348 250.653 43.0386C251.235 32.6897 223.822 45.2692 228.022 20.3361C230.919 3.1653 258.789 12.6757 258.789 12.6757Z" fill="#FF5E3C"/>
</g>
<g filter="url(#filter5_d_1511_14826)">
<path d="M71.5989 44.9045C71.5989 44.9045 72.1351 50.1795 69.0072 50.3187C65.8792 50.4579 61.4438 49.3163 61.4339 40.9753L84.9349 37.9495C84.9349 37.9495 81.6745 17.0879 66.4816 17.8644C51.2887 18.641 44.1756 29.03 49.9879 46.8381C54.6716 61.1935 82.9025 65.4351 82.3034 45.1396L71.5989 44.9045Z" fill="#FF5E3C"/>
</g>
<g filter="url(#filter6_d_1511_14826)">
<path d="M172.828 1.30938L158.781 1L162.306 29.1538C157.824 21.0542 130.434 18.9442 136.488 44.5054C142.542 70.0666 164.689 49.9289 164.689 49.9289L165.421 56.2001L177.313 53.6229L172.828 1.30938Z" fill="#18D2F8"/>
</g>
<g filter="url(#filter7_d_1511_14826)">
<path d="M181.679 16.7784L184.744 27.8388C184.744 27.8388 205.693 11.2404 208.5 32.5879C208.5 32.5879 185.761 22.8949 183.88 44.2423C182 65.5897 210.933 51.0054 210.933 51.0054L210.801 56.2649L222.227 54.4086C222.227 54.4086 223.193 16.2617 206.766 12.9792C190.338 9.69662 181.679 16.7784 181.679 16.7784Z" fill="#FF5484"/>
</g>
<g filter="url(#filter8_d_1511_14826)">
<path d="M291.439 17.5456L294.507 28.606C294.507 28.606 315.45 12.0077 318.26 33.3551C318.26 33.3551 295.524 23.6621 293.644 45.0095C291.763 66.3569 320.696 51.7726 320.696 51.7726L320.56 57.0321L332 55.1418C332 55.1418 332.966 16.9949 316.539 13.7124C300.111 10.4298 291.439 17.5456 291.439 17.5456Z" fill="#18D2F8"/>
</g>
<g filter="url(#filter9_d_1511_14826)">
<path d="M60.1165 33.2686L59.8881 33.1913C59.8894 32.5856 60.0118 31.9854 60.2489 31.4216C60.5049 30.825 60.889 30.2838 61.3776 29.8314C61.8642 29.3864 62.4227 29.0157 63.0326 28.7331C63.3245 28.5918 63.6251 28.4667 63.9329 28.3587L64.3897 28.204C64.5452 28.1545 64.7207 28.1174 64.8828 28.0741C65.5704 27.9125 66.2832 27.8664 66.988 27.938C68.0046 28.0478 68.9686 28.4196 69.7723 29.0118C70.5759 29.604 71.1877 30.3933 71.5393 31.2917L71.1487 31.5237C70.2913 30.8771 69.3109 30.388 68.259 30.082C67.3231 29.8291 66.3312 29.8184 65.3893 30.051C65.1576 30.1129 64.8994 30.1841 64.6379 30.2645C64.3764 30.345 64.1282 30.4192 63.8865 30.512C63.4028 30.6805 62.9355 30.8876 62.4897 31.1308C62.0439 31.3809 61.6326 31.6812 61.265 32.0249C60.8601 32.4212 60.4767 32.8363 60.1165 33.2686Z" fill="#FF916C"/>
</g>
<g filter="url(#filter10_d_1511_14826)">
<path d="M145.941 41.4734C145.791 41.4709 145.643 41.4391 145.507 41.38C145.371 41.3208 145.249 41.2357 145.15 41.13C144.3 40.1623 143.872 38.9303 143.952 37.6803C143.978 36.04 144.665 34.4691 145.875 33.2809C146.508 32.6756 147.284 32.2166 148.14 31.9406C148.996 31.6645 149.909 31.5789 150.807 31.6907C151.086 31.7396 151.333 31.8878 151.496 32.1039C151.66 32.32 151.728 32.5871 151.685 32.8488C151.642 33.1106 151.492 33.3465 151.266 33.5068C151.041 33.667 150.757 33.7391 150.476 33.7079C149.92 33.6442 149.356 33.7021 148.828 33.8772C148.3 34.0522 147.823 34.3395 147.434 34.7164C146.613 35.5333 146.15 36.6088 146.137 37.7298C146.137 38.2249 146.193 39.1499 146.799 39.7749C146.94 39.9234 147.031 40.1073 147.062 40.3038C147.093 40.5003 147.062 40.7011 146.973 40.8814C146.884 41.0617 146.74 41.2137 146.56 41.3189C146.38 41.424 146.17 41.4777 145.958 41.4734H145.941Z" fill="#A2FEF9"/>
</g>
<g filter="url(#filter11_d_1511_14826)">
<path d="M194.304 47.2401C194.154 47.2364 194.007 47.204 193.87 47.1449C193.734 47.0858 193.613 47.0014 193.513 46.8967C192.664 45.9286 192.237 44.6966 192.318 43.4471C192.344 41.8097 193.028 40.2414 194.235 39.0538C194.869 38.4499 195.644 37.9919 196.5 37.7159C197.356 37.44 198.269 37.3536 199.166 37.4636C199.312 37.4798 199.452 37.5232 199.58 37.5912C199.707 37.6592 199.818 37.7504 199.907 37.8595C199.996 37.9685 200.06 38.0931 200.096 38.2259C200.132 38.3586 200.139 38.4968 200.117 38.6322C200.095 38.7676 200.044 38.8974 199.967 39.014C199.89 39.1305 199.788 39.2314 199.669 39.3105C199.549 39.3897 199.414 39.4456 199.271 39.4748C199.127 39.5041 198.979 39.5061 198.835 39.4808C198.279 39.4161 197.715 39.4736 197.187 39.6487C196.659 39.8238 196.182 40.1117 195.794 40.4894C194.971 41.3056 194.508 42.3815 194.496 43.5028C194.496 43.9978 194.552 44.9228 195.158 45.5447C195.299 45.6936 195.39 45.8776 195.421 46.0741C195.451 46.2707 195.42 46.4714 195.331 46.6518C195.242 46.8321 195.099 46.9843 194.919 47.0899C194.739 47.1955 194.53 47.2498 194.317 47.2463L194.304 47.2401Z" fill="#FFBBBA"/>
</g>
<g filter="url(#filter12_d_1511_14826)">
<path d="M304.063 48.0078C303.913 48.004 303.766 47.9716 303.63 47.9125C303.494 47.8535 303.372 47.769 303.272 47.6643C302.42 46.6976 301.992 45.4649 302.074 44.2147C302.1 42.5744 302.787 41.0035 303.997 39.8153C304.631 39.2105 305.406 38.752 306.262 38.476C307.118 38.2 308.031 38.1141 308.929 38.2251C309.075 38.2412 309.215 38.2846 309.342 38.3526C309.47 38.4207 309.581 38.5119 309.67 38.6209C309.758 38.73 309.823 38.8546 309.859 38.9873C309.895 39.1201 309.902 39.2583 309.88 39.3937C309.858 39.529 309.806 39.6589 309.729 39.7754C309.652 39.8919 309.551 39.9928 309.431 40.072C309.312 40.1512 309.177 40.207 309.033 40.2363C308.89 40.2655 308.742 40.2676 308.598 40.2422C308.042 40.1773 307.478 40.2347 306.949 40.4098C306.421 40.5849 305.944 40.8729 305.556 41.2508C304.733 42.0664 304.269 43.1427 304.259 44.2642C304.259 44.7592 304.315 45.6843 304.921 46.3061C305.061 46.4551 305.153 46.639 305.183 46.8356C305.214 47.0322 305.183 47.2329 305.094 47.4132C305.005 47.5936 304.862 47.7458 304.682 47.8514C304.501 47.9569 304.292 48.0113 304.08 48.0078H304.063Z" fill="#A2FEF9"/>
</g>
<g filter="url(#filter13_d_1511_14826)">
<path d="M176.43 43.3232C175.768 43.942 175.261 44.7031 174.51 45.2198C171.879 47.0327 168.188 44.8237 164.944 45.2198C162.134 45.5539 160.092 47.7567 157.801 49.316C151.886 53.338 143.058 52.6047 137.584 48.2208C144.829 68.0027 164.686 49.944 164.686 49.944L165.418 56.2152L177.31 53.6381L176.43 43.3232Z" fill="#11A5D3"/>
</g>
<g filter="url(#filter14_d_1511_14826)">
<path d="M82.1642 48.1065C78.8377 53.4248 72.7804 55.4451 67.2361 55.3801C60.07 55.2966 54.8369 52.5956 49.3986 44.8889C49.5806 45.5293 49.7726 46.176 49.9877 46.838C54.4298 60.4478 80.026 64.9617 82.1642 48.1065Z" fill="#DB3D2B"/>
</g>
<g filter="url(#filter15_d_1511_14826)">
<path d="M43.1526 57.9266L42.7057 49.3691C24.557 56.9582 8.08972 50.1147 2.79041 41.5293C10.8138 64.1142 43.1526 57.9266 43.1526 57.9266Z" fill="#DB3D78"/>
</g>
<g filter="url(#filter16_d_1511_14826)">
<path d="M96.0694 56.5496L111.938 55.5317C111.938 55.5317 111.329 54.1488 110.571 52.0635C104.983 51.42 99.5946 49.4307 95.2485 46.0986C96.2283 52.7937 96.0694 56.5496 96.0694 56.5496Z" fill="#26C254"/>
</g>
<g filter="url(#filter17_d_1511_14826)">
<path d="M222.227 54.384C222.227 54.384 222.31 51.0364 222.005 46.241C216.269 44.8333 210.324 47.2867 204.71 49.1492C199.017 51.0395 192.04 52.1409 187.459 48.4624C186.092 47.361 185.075 45.9285 183.851 44.6941C182.424 65.3702 210.933 51.0055 210.933 51.0055L210.801 56.265L222.227 54.384Z" fill="#DB3D78"/>
</g>
<g filter="url(#filter18_d_1511_14826)">
<path d="M320.696 51.7728L320.561 57.0323L332 55.142C332 55.142 332.069 52.2864 331.841 48.0726C327.582 48.7498 323.206 47.8943 319.594 45.678C317.144 47.6224 314.288 49.0691 311.207 49.9261C308.127 50.7831 304.889 51.0316 301.7 50.656C299.36 50.3651 297.04 49.7278 294.686 49.8825C294.415 49.898 294.143 49.9289 293.872 49.9629C296.788 63.8202 320.696 51.7728 320.696 51.7728Z" fill="#11A5D3"/>
</g>
<g filter="url(#filter19_d_1511_14826)">
<path d="M285.133 50.9438C281.32 50.5923 277.748 49.0387 275.005 46.5382C273.75 45.3718 272.555 43.9518 271.155 42.9834L272.261 54.8328L285.66 55.1421L285.133 50.9438Z" fill="#26C254"/>
</g>
<g filter="url(#filter20_d_1511_14826)">
<path d="M262.625 44.3508C262.155 44.7376 261.695 45.1305 261.242 45.5048C252.993 52.3113 240.389 54.0716 230.346 49.8826L230.518 53.8891C253.91 62.0259 261.354 53.159 262.625 44.3508Z" fill="#DB3D2B"/>
</g>
<g filter="url(#filter21_d_1511_14826)">
<path d="M4.89917 15.8998C17.0369 6.56881 25.5403 7.08548 42.375 7.58049L42.3121 3.65133C42.3121 3.65133 15.1867 0.344031 4.89917 15.8998Z" fill="#FF7D95"/>
</g>
<g filter="url(#filter22_d_1511_14826)">
<path d="M66.4815 17.8641C57.058 18.3468 50.7458 22.5296 48.6969 29.8868C55.4129 23.2938 66.2134 20.2959 75.5873 23.003C76.8518 23.3681 78.0831 23.8229 79.3111 24.2838C76.5009 20.5372 72.3965 17.564 66.4815 17.8641Z" fill="#FF916C"/>
</g>
<g filter="url(#filter23_d_1511_14826)">
<path d="M121.318 23.529C123.784 24.847 125.85 26.8828 128.554 27.6841C127.207 23.8106 124.284 19.8567 117.998 18.9656C109.545 17.7621 104.997 23.4826 102.829 27.7026C106.744 22.3998 115.251 20.2867 121.318 23.529Z" fill="#84F685"/>
</g>
<g filter="url(#filter24_d_1511_14826)">
<path d="M99.6146 22.3784L89.7574 23.9903C90.052 24.8597 90.3301 25.7074 90.6015 26.5489C93.8886 26.3289 97.0619 25.3314 99.8232 23.65L99.6146 22.3784Z" fill="#84F685"/>
</g>
<g filter="url(#filter25_d_1511_14826)">
<path d="M316.529 13.7222C300.101 10.4365 291.439 17.5461 291.439 17.5461L292.876 22.7159C297.076 18.5114 303.557 16.3272 309.823 16.1601C314.493 16.0456 319.091 16.881 323.569 18.1402C321.673 15.8879 319.359 14.3038 316.529 13.7222Z" fill="#73FAFD"/>
</g>
<g filter="url(#filter26_d_1511_14826)">
<path d="M269.795 7.43226C273.436 4.92935 278.54 4.13733 282.644 5.76159C282.062 4.3539 280.777 3.19681 278.672 2.52545C272.923 0.690805 261.735 6.07407 265.386 12.008C266.518 10.2258 268.017 8.67061 269.795 7.43226Z" fill="#84F685"/>
</g>
<g filter="url(#filter27_d_1511_14826)">
<path d="M232.905 14.1393C241.368 11.3549 251.159 12.5924 258.676 17.1063L258.789 12.676C258.789 12.676 237.347 5.34978 230.124 15.151C231.045 14.7983 231.968 14.4456 232.905 14.1393Z" fill="#FF916C"/>
</g>
<g filter="url(#filter28_d_1511_14826)">
<path d="M206.332 14.678C208.282 14.9193 210.238 15.3153 212.188 15.7144C210.691 14.3401 208.813 13.3842 206.766 12.9547C190.332 9.66286 181.679 16.7787 181.679 16.7787L182.523 19.8323C189.553 15.5259 197.993 13.6988 206.332 14.678Z" fill="#FF7D95"/>
</g>
<g filter="url(#filter29_d_1511_14826)">
<path d="M136.21 32.9933C142.131 26.7963 152.929 24.8905 160.681 29.1538C160.883 28.6546 161.024 28.1357 161.101 27.6069C155.64 22.236 139.517 21.0109 136.21 32.9933Z" fill="#73FAFD"/>
</g>
<g filter="url(#filter30_d_1511_14826)">
<path d="M158.781 1L159.651 7.97349C161.101 2.16328 171.001 4.48674 172.828 1.30938L158.781 1Z" fill="#73FAFD"/>
</g>
<defs>
<filter id="filter0_d_1511_14826" x="0.0115057" y="2.37064" width="44.1264" height="57.3203" filterUnits="userSpaceOnUse" color-interpolation-filters="sRGB">
<feFlood flood-opacity="0" result="BackgroundImageFix"/>
<feColorMatrix in="SourceAlpha" type="matrix" values="0 0 0 0 0 0 0 0 0 0 0 0 0 0 0 0 0 0 127 0" result="hardAlpha"/>
<feOffset/>
<feGaussianBlur stdDeviation="0.49266"/>
<feComposite in2="hardAlpha" operator="out"/>
<feColorMatrix type="matrix" values="0 0 0 0 1 0 0 0 0 1 0 0 0 0 1 0 0 0 0.1 0"/>
<feBlend mode="normal" in2="BackgroundImageFix" result="effect1_dropShadow_1511_14826"/>
<feBlend mode="normal" in="SourceGraphic" in2="effect1_dropShadow_1511_14826" result="shape"/>
</filter>
<filter id="filter1_d_1511_14826" x="88.7721" y="17.8157" width="41.8815" height="39.7189" filterUnits="userSpaceOnUse" color-interpolation-filters="sRGB">
<feFlood flood-opacity="0" result="BackgroundImageFix"/>
<feColorMatrix in="SourceAlpha" type="matrix" values="0 0 0 0 0 0 0 0 0 0 0 0 0 0 0 0 0 0 127 0" result="hardAlpha"/>
<feOffset/>
<feGaussianBlur stdDeviation="0.49266"/>
<feComposite in2="hardAlpha" operator="out"/>
<feColorMatrix type="matrix" values="0 0 0 0 1 0 0 0 0 1 0 0 0 0 1 0 0 0 0.1 0"/>
<feBlend mode="normal" in2="BackgroundImageFix" result="effect1_dropShadow_1511_14826"/>
<feBlend mode="normal" in="SourceGraphic" in2="effect1_dropShadow_1511_14826" result="shape"/>
</filter>
<filter id="filter2_d_1511_14826" x="268.293" y="21.8821" width="18.3353" height="34.2455" filterUnits="userSpaceOnUse" color-interpolation-filters="sRGB">
<feFlood flood-opacity="0" result="BackgroundImageFix"/>
<feColorMatrix in="SourceAlpha" type="matrix" values="0 0 0 0 0 0 0 0 0 0 0 0 0 0 0 0 0 0 127 0" result="hardAlpha"/>
<feOffset/>
<feGaussianBlur stdDeviation="0.49266"/>
<feComposite in2="hardAlpha" operator="out"/>
<feColorMatrix type="matrix" values="0 0 0 0 1 0 0 0 0 1 0 0 0 0 1 0 0 0 0.1 0"/>
<feBlend mode="normal" in2="BackgroundImageFix" result="effect1_dropShadow_1511_14826"/>
<feBlend mode="normal" in="SourceGraphic" in2="effect1_dropShadow_1511_14826" result="shape"/>
</filter>
<filter id="filter3_d_1511_14826" x="263.665" y="1.17899" width="20.3471" height="16.2365" filterUnits="userSpaceOnUse" color-interpolation-filters="sRGB">
<feFlood flood-opacity="0" result="BackgroundImageFix"/>
<feColorMatrix in="SourceAlpha" type="matrix" values="0 0 0 0 0 0 0 0 0 0 0 0 0 0 0 0 0 0 127 0" result="hardAlpha"/>
<feOffset/>
<feGaussianBlur stdDeviation="0.49266"/>
<feComposite in2="hardAlpha" operator="out"/>
<feColorMatrix type="matrix" values="0 0 0 0 1 0 0 0 0 1 0 0 0 0 1 0 0 0 0.1 0"/>
<feBlend mode="normal" in2="BackgroundImageFix" result="effect1_dropShadow_1511_14826"/>
<feBlend mode="normal" in="SourceGraphic" in2="effect1_dropShadow_1511_14826" result="shape"/>
</filter>
<filter id="filter4_d_1511_14826" x="226.599" y="9.06351" width="37.2219" height="49.0185" filterUnits="userSpaceOnUse" color-interpolation-filters="sRGB">
<feFlood flood-opacity="0" result="BackgroundImageFix"/>
<feColorMatrix in="SourceAlpha" type="matrix" values="0 0 0 0 0 0 0 0 0 0 0 0 0 0 0 0 0 0 127 0" result="hardAlpha"/>
<feOffset/>
<feGaussianBlur stdDeviation="0.49266"/>
<feComposite in2="hardAlpha" operator="out"/>
<feColorMatrix type="matrix" values="0 0 0 0 1 0 0 0 0 1 0 0 0 0 1 0 0 0 0.1 0"/>
<feBlend mode="normal" in2="BackgroundImageFix" result="effect1_dropShadow_1511_14826"/>
<feBlend mode="normal" in="SourceGraphic" in2="effect1_dropShadow_1511_14826" result="shape"/>
</filter>
<filter id="filter5_d_1511_14826" x="46.9834" y="16.8579" width="38.9368" height="43.1276" filterUnits="userSpaceOnUse" color-interpolation-filters="sRGB">
<feFlood flood-opacity="0" result="BackgroundImageFix"/>
<feColorMatrix in="SourceAlpha" type="matrix" values="0 0 0 0 0 0 0 0 0 0 0 0 0 0 0 0 0 0 127 0" result="hardAlpha"/>
<feOffset/>
<feGaussianBlur stdDeviation="0.49266"/>
<feComposite in2="hardAlpha" operator="out"/>
<feColorMatrix type="matrix" values="0 0 0 0 1 0 0 0 0 1 0 0 0 0 1 0 0 0 0.1 0"/>
<feBlend mode="normal" in2="BackgroundImageFix" result="effect1_dropShadow_1511_14826"/>
<feBlend mode="normal" in="SourceGraphic" in2="effect1_dropShadow_1511_14826" result="shape"/>
</filter>
<filter id="filter6_d_1511_14826" x="134.633" y="0.0146795" width="43.6655" height="58.4357" filterUnits="userSpaceOnUse" color-interpolation-filters="sRGB">
<feFlood flood-opacity="0" result="BackgroundImageFix"/>
<feColorMatrix in="SourceAlpha" type="matrix" values="0 0 0 0 0 0 0 0 0 0 0 0 0 0 0 0 0 0 127 0" result="hardAlpha"/>
<feOffset/>
<feGaussianBlur stdDeviation="0.49266"/>
<feComposite in2="hardAlpha" operator="out"/>
<feColorMatrix type="matrix" values="0 0 0 0 1 0 0 0 0 1 0 0 0 0 1 0 0 0 0.1 0"/>
<feBlend mode="normal" in2="BackgroundImageFix" result="effect1_dropShadow_1511_14826"/>
<feBlend mode="normal" in="SourceGraphic" in2="effect1_dropShadow_1511_14826" result="shape"/>
</filter>
<filter id="filter7_d_1511_14826" x="180.694" y="11.1255" width="42.529" height="46.1247" filterUnits="userSpaceOnUse" color-interpolation-filters="sRGB">
<feFlood flood-opacity="0" result="BackgroundImageFix"/>
<feColorMatrix in="SourceAlpha" type="matrix" values="0 0 0 0 0 0 0 0 0 0 0 0 0 0 0 0 0 0 127 0" result="hardAlpha"/>
<feOffset/>
<feGaussianBlur stdDeviation="0.49266"/>
<feComposite in2="hardAlpha" operator="out"/>
<feColorMatrix type="matrix" values="0 0 0 0 1 0 0 0 0 1 0 0 0 0 1 0 0 0 0.1 0"/>
<feBlend mode="normal" in2="BackgroundImageFix" result="effect1_dropShadow_1511_14826"/>
<feBlend mode="normal" in="SourceGraphic" in2="effect1_dropShadow_1511_14826" result="shape"/>
</filter>
<filter id="filter8_d_1511_14826" x="290.454" y="11.8618" width="42.5421" height="46.1557" filterUnits="userSpaceOnUse" color-interpolation-filters="sRGB">
<feFlood flood-opacity="0" result="BackgroundImageFix"/>
<feColorMatrix in="SourceAlpha" type="matrix" values="0 0 0 0 0 0 0 0 0 0 0 0 0 0 0 0 0 0 127 0" result="hardAlpha"/>
<feOffset/>
<feGaussianBlur stdDeviation="0.49266"/>
<feComposite in2="hardAlpha" operator="out"/>
<feColorMatrix type="matrix" values="0 0 0 0 1 0 0 0 0 1 0 0 0 0 1 0 0 0 0.1 0"/>
<feBlend mode="normal" in2="BackgroundImageFix" result="effect1_dropShadow_1511_14826"/>
<feBlend mode="normal" in="SourceGraphic" in2="effect1_dropShadow_1511_14826" result="shape"/>
</filter>
<filter id="filter9_d_1511_14826" x="58.9027" y="26.92" width="13.6219" height="7.33392" filterUnits="userSpaceOnUse" color-interpolation-filters="sRGB">
<feFlood flood-opacity="0" result="BackgroundImageFix"/>
<feColorMatrix in="SourceAlpha" type="matrix" values="0 0 0 0 0 0 0 0 0 0 0 0 0 0 0 0 0 0 127 0" result="hardAlpha"/>
<feOffset/>
<feGaussianBlur stdDeviation="0.49266"/>
<feComposite in2="hardAlpha" operator="out"/>
<feColorMatrix type="matrix" values="0 0 0 0 1 0 0 0 0 1 0 0 0 0 1 0 0 0 0.1 0"/>
<feBlend mode="normal" in2="BackgroundImageFix" result="effect1_dropShadow_1511_14826"/>
<feBlend mode="normal" in="SourceGraphic" in2="effect1_dropShadow_1511_14826" result="shape"/>
</filter>
<filter id="filter10_d_1511_14826" x="142.957" y="30.6577" width="9.72552" height="11.8012" filterUnits="userSpaceOnUse" color-interpolation-filters="sRGB">
<feFlood flood-opacity="0" result="BackgroundImageFix"/>
<feColorMatrix in="SourceAlpha" type="matrix" values="0 0 0 0 0 0 0 0 0 0 0 0 0 0 0 0 0 0 127 0" result="hardAlpha"/>
<feOffset/>
<feGaussianBlur stdDeviation="0.49266"/>
<feComposite in2="hardAlpha" operator="out"/>
<feColorMatrix type="matrix" values="0 0 0 0 1 0 0 0 0 1 0 0 0 0 1 0 0 0 0.1 0"/>
<feBlend mode="normal" in2="BackgroundImageFix" result="effect1_dropShadow_1511_14826"/>
<feBlend mode="normal" in="SourceGraphic" in2="effect1_dropShadow_1511_14826" result="shape"/>
</filter>
<filter id="filter11_d_1511_14826" x="191.323" y="36.4319" width="9.79193" height="11.7997" filterUnits="userSpaceOnUse" color-interpolation-filters="sRGB">
<feFlood flood-opacity="0" result="BackgroundImageFix"/>
<feColorMatrix in="SourceAlpha" type="matrix" values="0 0 0 0 0 0 0 0 0 0 0 0 0 0 0 0 0 0 127 0" result="hardAlpha"/>
<feOffset/>
<feGaussianBlur stdDeviation="0.49266"/>
<feComposite in2="hardAlpha" operator="out"/>
<feColorMatrix type="matrix" values="0 0 0 0 1 0 0 0 0 1 0 0 0 0 1 0 0 0 0.1 0"/>
<feBlend mode="normal" in2="BackgroundImageFix" result="effect1_dropShadow_1511_14826"/>
<feBlend mode="normal" in="SourceGraphic" in2="effect1_dropShadow_1511_14826" result="shape"/>
</filter>
<filter id="filter12_d_1511_14826" x="301.079" y="37.1927" width="9.79877" height="11.8005" filterUnits="userSpaceOnUse" color-interpolation-filters="sRGB">
<feFlood flood-opacity="0" result="BackgroundImageFix"/>
<feColorMatrix in="SourceAlpha" type="matrix" values="0 0 0 0 0 0 0 0 0 0 0 0 0 0 0 0 0 0 127 0" result="hardAlpha"/>
<feOffset/>
<feGaussianBlur stdDeviation="0.49266"/>
<feComposite in2="hardAlpha" operator="out"/>
<feColorMatrix type="matrix" values="0 0 0 0 1 0 0 0 0 1 0 0 0 0 1 0 0 0 0.1 0"/>
<feBlend mode="normal" in2="BackgroundImageFix" result="effect1_dropShadow_1511_14826"/>
<feBlend mode="normal" in="SourceGraphic" in2="effect1_dropShadow_1511_14826" result="shape"/>
</filter>
<filter id="filter13_d_1511_14826" x="136.598" y="42.3379" width="41.6972" height="16.1303" filterUnits="userSpaceOnUse" color-interpolation-filters="sRGB">
<feFlood flood-opacity="0" result="BackgroundImageFix"/>
<feColorMatrix in="SourceAlpha" type="matrix" values="0 0 0 0 0 0 0 0 0 0 0 0 0 0 0 0 0 0 127 0" result="hardAlpha"/>
<feOffset/>
<feGaussianBlur stdDeviation="0.49266"/>
<feComposite in2="hardAlpha" operator="out"/>
<feColorMatrix type="matrix" values="0 0 0 0 1 0 0 0 0 1 0 0 0 0 1 0 0 0 0.1 0"/>
<feBlend mode="normal" in2="BackgroundImageFix" result="effect1_dropShadow_1511_14826"/>
<feBlend mode="normal" in="SourceGraphic" in2="effect1_dropShadow_1511_14826" result="shape"/>
</filter>
<filter id="filter14_d_1511_14826" x="48.4132" y="43.9036" width="34.7363" height="16.08" filterUnits="userSpaceOnUse" color-interpolation-filters="sRGB">
<feFlood flood-opacity="0" result="BackgroundImageFix"/>
<feColorMatrix in="SourceAlpha" type="matrix" values="0 0 0 0 0 0 0 0 0 0 0 0 0 0 0 0 0 0 127 0" result="hardAlpha"/>
<feOffset/>
<feGaussianBlur stdDeviation="0.49266"/>
<feComposite in2="hardAlpha" operator="out"/>
<feColorMatrix type="matrix" values="0 0 0 0 1 0 0 0 0 1 0 0 0 0 1 0 0 0 0.1 0"/>
<feBlend mode="normal" in2="BackgroundImageFix" result="effect1_dropShadow_1511_14826"/>
<feBlend mode="normal" in="SourceGraphic" in2="effect1_dropShadow_1511_14826" result="shape"/>
</filter>
<filter id="filter15_d_1511_14826" x="1.80508" y="40.544" width="42.3328" height="19.1432" filterUnits="userSpaceOnUse" color-interpolation-filters="sRGB">
<feFlood flood-opacity="0" result="BackgroundImageFix"/>
<feColorMatrix in="SourceAlpha" type="matrix" values="0 0 0 0 0 0 0 0 0 0 0 0 0 0 0 0 0 0 127 0" result="hardAlpha"/>
<feOffset/>
<feGaussianBlur stdDeviation="0.49266"/>
<feComposite in2="hardAlpha" operator="out"/>
<feColorMatrix type="matrix" values="0 0 0 0 1 0 0 0 0 1 0 0 0 0 1 0 0 0 0.1 0"/>
<feBlend mode="normal" in2="BackgroundImageFix" result="effect1_dropShadow_1511_14826"/>
<feBlend mode="normal" in="SourceGraphic" in2="effect1_dropShadow_1511_14826" result="shape"/>
</filter>
<filter id="filter16_d_1511_14826" x="94.2632" y="45.1133" width="18.6597" height="12.4216" filterUnits="userSpaceOnUse" color-interpolation-filters="sRGB">
<feFlood flood-opacity="0" result="BackgroundImageFix"/>
<feColorMatrix in="SourceAlpha" type="matrix" values="0 0 0 0 0 0 0 0 0 0 0 0 0 0 0 0 0 0 127 0" result="hardAlpha"/>
<feOffset/>
<feGaussianBlur stdDeviation="0.49266"/>
<feComposite in2="hardAlpha" operator="out"/>
<feColorMatrix type="matrix" values="0 0 0 0 1 0 0 0 0 1 0 0 0 0 1 0 0 0 0.1 0"/>
<feBlend mode="normal" in2="BackgroundImageFix" result="effect1_dropShadow_1511_14826"/>
<feBlend mode="normal" in="SourceGraphic" in2="effect1_dropShadow_1511_14826" result="shape"/>
</filter>
<filter id="filter17_d_1511_14826" x="182.814" y="43.7088" width="40.4089" height="13.5417" filterUnits="userSpaceOnUse" color-interpolation-filters="sRGB">
<feFlood flood-opacity="0" result="BackgroundImageFix"/>
<feColorMatrix in="SourceAlpha" type="matrix" values="0 0 0 0 0 0 0 0 0 0 0 0 0 0 0 0 0 0 127 0" result="hardAlpha"/>
<feOffset/>
<feGaussianBlur stdDeviation="0.49266"/>
<feComposite in2="hardAlpha" operator="out"/>
<feColorMatrix type="matrix" values="0 0 0 0 1 0 0 0 0 1 0 0 0 0 1 0 0 0 0.1 0"/>
<feBlend mode="normal" in2="BackgroundImageFix" result="effect1_dropShadow_1511_14826"/>
<feBlend mode="normal" in="SourceGraphic" in2="effect1_dropShadow_1511_14826" result="shape"/>
</filter>
<filter id="filter18_d_1511_14826" x="292.887" y="44.6927" width="40.1086" height="13.3249" filterUnits="userSpaceOnUse" color-interpolation-filters="sRGB">
<feFlood flood-opacity="0" result="BackgroundImageFix"/>
<feColorMatrix in="SourceAlpha" type="matrix" values="0 0 0 0 0 0 0 0 0 0 0 0 0 0 0 0 0 0 127 0" result="hardAlpha"/>
<feOffset/>
<feGaussianBlur stdDeviation="0.49266"/>
<feComposite in2="hardAlpha" operator="out"/>
<feColorMatrix type="matrix" values="0 0 0 0 1 0 0 0 0 1 0 0 0 0 1 0 0 0 0.1 0"/>
<feBlend mode="normal" in2="BackgroundImageFix" result="effect1_dropShadow_1511_14826"/>
<feBlend mode="normal" in="SourceGraphic" in2="effect1_dropShadow_1511_14826" result="shape"/>
</filter>
<filter id="filter19_d_1511_14826" x="270.17" y="41.9981" width="16.475" height="14.1293" filterUnits="userSpaceOnUse" color-interpolation-filters="sRGB">
<feFlood flood-opacity="0" result="BackgroundImageFix"/>
<feColorMatrix in="SourceAlpha" type="matrix" values="0 0 0 0 0 0 0 0 0 0 0 0 0 0 0 0 0 0 127 0" result="hardAlpha"/>
<feOffset/>
<feGaussianBlur stdDeviation="0.49266"/>
<feComposite in2="hardAlpha" operator="out"/>
<feColorMatrix type="matrix" values="0 0 0 0 1 0 0 0 0 1 0 0 0 0 1 0 0 0 0.1 0"/>
<feBlend mode="normal" in2="BackgroundImageFix" result="effect1_dropShadow_1511_14826"/>
<feBlend mode="normal" in="SourceGraphic" in2="effect1_dropShadow_1511_14826" result="shape"/>
</filter>
<filter id="filter20_d_1511_14826" x="229.361" y="43.3655" width="34.2497" height="14.7192" filterUnits="userSpaceOnUse" color-interpolation-filters="sRGB">
<feFlood flood-opacity="0" result="BackgroundImageFix"/>
<feColorMatrix in="SourceAlpha" type="matrix" values="0 0 0 0 0 0 0 0 0 0 0 0 0 0 0 0 0 0 127 0" result="hardAlpha"/>
<feOffset/>
<feGaussianBlur stdDeviation="0.49266"/>
<feComposite in2="hardAlpha" operator="out"/>
<feColorMatrix type="matrix" values="0 0 0 0 1 0 0 0 0 1 0 0 0 0 1 0 0 0 0.1 0"/>
<feBlend mode="normal" in2="BackgroundImageFix" result="effect1_dropShadow_1511_14826"/>
<feBlend mode="normal" in="SourceGraphic" in2="effect1_dropShadow_1511_14826" result="shape"/>
</filter>
<filter id="filter21_d_1511_14826" x="3.91385" y="2.37161" width="39.4465" height="14.5136" filterUnits="userSpaceOnUse" color-interpolation-filters="sRGB">
<feFlood flood-opacity="0" result="BackgroundImageFix"/>
<feColorMatrix in="SourceAlpha" type="matrix" values="0 0 0 0 0 0 0 0 0 0 0 0 0 0 0 0 0 0 127 0" result="hardAlpha"/>
<feOffset/>
<feGaussianBlur stdDeviation="0.49266"/>
<feComposite in2="hardAlpha" operator="out"/>
<feColorMatrix type="matrix" values="0 0 0 0 1 0 0 0 0 1 0 0 0 0 1 0 0 0 0.1 0"/>
<feBlend mode="normal" in2="BackgroundImageFix" result="effect1_dropShadow_1511_14826"/>
<feBlend mode="normal" in="SourceGraphic" in2="effect1_dropShadow_1511_14826" result="shape"/>
</filter>
<filter id="filter22_d_1511_14826" x="47.7116" y="16.8579" width="32.5848" height="14.0141" filterUnits="userSpaceOnUse" color-interpolation-filters="sRGB">
<feFlood flood-opacity="0" result="BackgroundImageFix"/>
<feColorMatrix in="SourceAlpha" type="matrix" values="0 0 0 0 0 0 0 0 0 0 0 0 0 0 0 0 0 0 127 0" result="hardAlpha"/>
<feOffset/>
<feGaussianBlur stdDeviation="0.49266"/>
<feComposite in2="hardAlpha" operator="out"/>
<feColorMatrix type="matrix" values="0 0 0 0 1 0 0 0 0 1 0 0 0 0 1 0 0 0 0.1 0"/>
<feBlend mode="normal" in2="BackgroundImageFix" result="effect1_dropShadow_1511_14826"/>
<feBlend mode="normal" in="SourceGraphic" in2="effect1_dropShadow_1511_14826" result="shape"/>
</filter>
<filter id="filter23_d_1511_14826" x="101.843" y="17.8174" width="27.696" height="10.8705" filterUnits="userSpaceOnUse" color-interpolation-filters="sRGB">
<feFlood flood-opacity="0" result="BackgroundImageFix"/>
<feColorMatrix in="SourceAlpha" type="matrix" values="0 0 0 0 0 0 0 0 0 0 0 0 0 0 0 0 0 0 127 0" result="hardAlpha"/>
<feOffset/>
<feGaussianBlur stdDeviation="0.49266"/>
<feComposite in2="hardAlpha" operator="out"/>
<feColorMatrix type="matrix" values="0 0 0 0 1 0 0 0 0 1 0 0 0 0 1 0 0 0 0.1 0"/>
<feBlend mode="normal" in2="BackgroundImageFix" result="effect1_dropShadow_1511_14826"/>
<feBlend mode="normal" in="SourceGraphic" in2="effect1_dropShadow_1511_14826" result="shape"/>
</filter>
<filter id="filter24_d_1511_14826" x="88.7721" y="21.3931" width="12.0363" height="6.14105" filterUnits="userSpaceOnUse" color-interpolation-filters="sRGB">
<feFlood flood-opacity="0" result="BackgroundImageFix"/>
<feColorMatrix in="SourceAlpha" type="matrix" values="0 0 0 0 0 0 0 0 0 0 0 0 0 0 0 0 0 0 127 0" result="hardAlpha"/>
<feOffset/>
<feGaussianBlur stdDeviation="0.49266"/>
<feComposite in2="hardAlpha" operator="out"/>
<feColorMatrix type="matrix" values="0 0 0 0 1 0 0 0 0 1 0 0 0 0 1 0 0 0 0.1 0"/>
<feBlend mode="normal" in2="BackgroundImageFix" result="effect1_dropShadow_1511_14826"/>
<feBlend mode="normal" in="SourceGraphic" in2="effect1_dropShadow_1511_14826" result="shape"/>
</filter>
<filter id="filter25_d_1511_14826" x="290.454" y="11.8697" width="34.1009" height="11.8315" filterUnits="userSpaceOnUse" color-interpolation-filters="sRGB">
<feFlood flood-opacity="0" result="BackgroundImageFix"/>
<feColorMatrix in="SourceAlpha" type="matrix" values="0 0 0 0 0 0 0 0 0 0 0 0 0 0 0 0 0 0 127 0" result="hardAlpha"/>
<feOffset/>
<feGaussianBlur stdDeviation="0.49266"/>
<feComposite in2="hardAlpha" operator="out"/>
<feColorMatrix type="matrix" values="0 0 0 0 1 0 0 0 0 1 0 0 0 0 1 0 0 0 0.1 0"/>
<feBlend mode="normal" in2="BackgroundImageFix" result="effect1_dropShadow_1511_14826"/>
<feBlend mode="normal" in="SourceGraphic" in2="effect1_dropShadow_1511_14826" result="shape"/>
</filter>
<filter id="filter26_d_1511_14826" x="263.683" y="1.17532" width="19.9462" height="11.8181" filterUnits="userSpaceOnUse" color-interpolation-filters="sRGB">
<feFlood flood-opacity="0" result="BackgroundImageFix"/>
<feColorMatrix in="SourceAlpha" type="matrix" values="0 0 0 0 0 0 0 0 0 0 0 0 0 0 0 0 0 0 127 0" result="hardAlpha"/>
<feOffset/>
<feGaussianBlur stdDeviation="0.49266"/>
<feComposite in2="hardAlpha" operator="out"/>
<feColorMatrix type="matrix" values="0 0 0 0 1 0 0 0 0 1 0 0 0 0 1 0 0 0 0.1 0"/>
<feBlend mode="normal" in2="BackgroundImageFix" result="effect1_dropShadow_1511_14826"/>
<feBlend mode="normal" in="SourceGraphic" in2="effect1_dropShadow_1511_14826" result="shape"/>
</filter>
<filter id="filter27_d_1511_14826" x="229.139" y="9.06033" width="30.6352" height="9.03143" filterUnits="userSpaceOnUse" color-interpolation-filters="sRGB">
<feFlood flood-opacity="0" result="BackgroundImageFix"/>
<feColorMatrix in="SourceAlpha" type="matrix" values="0 0 0 0 0 0 0 0 0 0 0 0 0 0 0 0 0 0 127 0" result="hardAlpha"/>
<feOffset/>
<feGaussianBlur stdDeviation="0.49266"/>
<feComposite in2="hardAlpha" operator="out"/>
<feColorMatrix type="matrix" values="0 0 0 0 1 0 0 0 0 1 0 0 0 0 1 0 0 0 0.1 0"/>
<feBlend mode="normal" in2="BackgroundImageFix" result="effect1_dropShadow_1511_14826"/>
<feBlend mode="normal" in="SourceGraphic" in2="effect1_dropShadow_1511_14826" result="shape"/>
</filter>
<filter id="filter28_d_1511_14826" x="180.694" y="11.0999" width="32.4789" height="9.71771" filterUnits="userSpaceOnUse" color-interpolation-filters="sRGB">
<feFlood flood-opacity="0" result="BackgroundImageFix"/>
<feColorMatrix in="SourceAlpha" type="matrix" values="0 0 0 0 0 0 0 0 0 0 0 0 0 0 0 0 0 0 127 0" result="hardAlpha"/>
<feOffset/>
<feGaussianBlur stdDeviation="0.49266"/>
<feComposite in2="hardAlpha" operator="out"/>
<feColorMatrix type="matrix" values="0 0 0 0 1 0 0 0 0 1 0 0 0 0 1 0 0 0 0.1 0"/>
<feBlend mode="normal" in2="BackgroundImageFix" result="effect1_dropShadow_1511_14826"/>
<feBlend mode="normal" in="SourceGraphic" in2="effect1_dropShadow_1511_14826" result="shape"/>
</filter>
<filter id="filter29_d_1511_14826" x="135.225" y="22.7117" width="26.8619" height="11.2668" filterUnits="userSpaceOnUse" color-interpolation-filters="sRGB">
<feFlood flood-opacity="0" result="BackgroundImageFix"/>
<feColorMatrix in="SourceAlpha" type="matrix" values="0 0 0 0 0 0 0 0 0 0 0 0 0 0 0 0 0 0 127 0" result="hardAlpha"/>
<feOffset/>
<feGaussianBlur stdDeviation="0.49266"/>
<feComposite in2="hardAlpha" operator="out"/>
<feColorMatrix type="matrix" values="0 0 0 0 1 0 0 0 0 1 0 0 0 0 1 0 0 0 0.1 0"/>
<feBlend mode="normal" in2="BackgroundImageFix" result="effect1_dropShadow_1511_14826"/>
<feBlend mode="normal" in="SourceGraphic" in2="effect1_dropShadow_1511_14826" result="shape"/>
</filter>
<filter id="filter30_d_1511_14826" x="157.795" y="0.0146795" width="16.0182" height="8.94403" filterUnits="userSpaceOnUse" color-interpolation-filters="sRGB">
<feFlood flood-opacity="0" result="BackgroundImageFix"/>
<feColorMatrix in="SourceAlpha" type="matrix" values="0 0 0 0 0 0 0 0 0 0 0 0 0 0 0 0 0 0 127 0" result="hardAlpha"/>
<feOffset/>
<feGaussianBlur stdDeviation="0.49266"/>
<feComposite in2="hardAlpha" operator="out"/>
<feColorMatrix type="matrix" values="0 0 0 0 1 0 0 0 0 1 0 0 0 0 1 0 0 0 0.1 0"/>
<feBlend mode="normal" in2="BackgroundImageFix" result="effect1_dropShadow_1511_14826"/>
<feBlend mode="normal" in="SourceGraphic" in2="effect1_dropShadow_1511_14826" result="shape"/>
</filter>
</defs>
</svg>
